<?xml version="1.0" encoding="UTF-8"?>
<svg width="34px" height="44px" viewBox="0 0 34 44" version="1.1" xmlns="http://www.w3.org/2000/svg" xmlns:xlink="http://www.w3.org/1999/xlink">
    <!-- Generator: Sketch 48.2 (47327) - http://www.bohemiancoding.com/sketch -->
    <title>ambit_professional_34x44px</title>
    <desc>Created with Sketch.</desc>
    <defs>
        <path d="M1,17.4556021 C1,16.350449 1.88926172,15.4545455 3.00174332,15.4545455 L30.9982567,15.4545455 C32.103789,15.4545455 33,16.3577919 33,17.4556021 L33,29.003489 C33,30.1086421 32.1107383,31.0045456 30.9982567,31.0045456 L3.00174332,31.0045456 C1.89621101,31.0045456 1,30.1012992 1,29.003489 L1,17.4556021 Z" id="path-1"></path>
        <path d="M0,5.99406028 C0,4.8927712 0.891941149,4 1.9999204,4 L32.0000796,4 C33.1046051,4 34,4.89451376 34,5.99406028 L34,16.9905224 C34,18.652611 32.6566876,20 30.9976416,20 L3.00235843,20 C1.34420165,20 0,18.6633689 0,16.9905224 L0,5.99406028 Z" id="path-2"></path>
        <rect id="path-3" x="5" y="17" width="6" height="7" rx="2"></rect>
        <rect id="path-4" x="23" y="17" width="6" height="7" rx="2"></rect>
    </defs>
    <g id="Page-1" stroke="none" stroke-width="1" fill="none" fill-rule="evenodd">
        <g id="ambit_professional_34x44px">
            <g id="ambit_professional_icon-copy" transform="translate(0.000000, 8.000000)">
                <g id="Rectangle-5-Copy">
                    <use fill="#FFFFFF" fill-rule="evenodd" xlink:href="#path-1"></use>
                    <path stroke="#354959" stroke-width="1" d="M1.5,17.4556021 L1.5,29.003489 C1.5,29.8279375 2.17512911,30.5045456 3.00174332,30.5045456 L30.9982567,30.5045456 C31.8319652,30.5045456 32.5,29.8351348 32.5,29.003489 L32.5,17.4556021 C32.5,16.6311536 31.8248709,15.9545455 30.9982567,15.9545455 L3.00174332,15.9545455 C2.16803477,15.9545455 1.5,16.6239563 1.5,17.4556021 Z"></path>
                </g>
                <rect id="Rectangle-7-Copy-3" stroke="#354959" stroke-width="2" x="12" y="1" width="10" height="8.81818182" rx="2"></rect>
                <rect id="Rectangle-7-Copy-4" stroke="#B9D5EA" stroke-width="2" x="13" y="2" width="8" height="8" rx="1"></rect>
                <rect id="Rectangle-7-Copy-5" stroke="#354959" x="13.5" y="2.5" width="7" height="7.81818182" rx="1"></rect>
                <g id="Rectangle-5">
                    <use fill="#FFFFFF" fill-rule="evenodd" xlink:href="#path-2"></use>
                    <path stroke="#354959" stroke-width="1" d="M0.5,5.99406028 L0.5,16.9905224 C0.5,18.3834994 1.61661652,19.5 3.00235843,19.5 L30.9976416,19.5 C32.3799497,19.5 33.5,18.3770641 33.5,16.9905224 L33.5,5.99406028 C33.5,5.17031555 32.8281201,4.5 32.0000796,4.5 L1.9999204,4.5 C1.16908167,4.5 0.5,5.16791788 0.5,5.99406028 Z"></path>
                </g>
                <g id="Rectangle-7-Copy">
                    <use fill="#B9D5EA" fill-rule="evenodd" xlink:href="#path-3"></use>
                    <rect stroke="#354959" stroke-width="1" x="5.5" y="17.5" width="5" height="6" rx="2"></rect>
                </g>
                <g id="Rectangle-7-Copy-2">
                    <use fill="#B9D5EA" fill-rule="evenodd" xlink:href="#path-4"></use>
                    <rect stroke="#354959" stroke-width="1" x="23.5" y="17.5" width="5" height="6" rx="2"></rect>
                </g>
            </g>
        </g>
    </g>
</svg>