<?xml version="1.0" encoding="UTF-8"?>
<svg width="19px" height="25px" viewBox="0 0 19 25" version="1.1" xmlns="http://www.w3.org/2000/svg" xmlns:xlink="http://www.w3.org/1999/xlink">
    <!-- Generator: Sketch 49.3 (51167) - http://www.bohemiancoding.com/sketch -->
    <title>arxiu_pdf_20x25px_</title>
    <desc>Created with Sketch.</desc>
    <defs>
        <path d="M18,7 L14.0571212,7 C13.4732893,7 13,6.52486265 13,5.94192878 L13,1.5 L14,2 L18,5.94192878 L18.5,7 L18,7 Z" id="path-1"></path>
    </defs>
    <g id="arxiu_pdf_20x25px_" stroke="none" stroke-width="1" fill="none" fill-rule="evenodd">
        <g id="certificats_icon" transform="translate(0.000000, 1.000000)">
            <g id="sheet">
                <path d="M18.5,5.70519505 L13.3624049,0.5 L1.0527617,0.5 C0.741483519,0.5 0.5,0.724606051 0.5,0.980923598 L0.5,22.0190764 C0.5,22.2763227 0.740703666,22.5 1.05540106,22.5 L17.9445989,22.5 C18.2607579,22.5 18.5,22.2770046 18.5,22.0181076 L18.5,5.70519505 Z" id="Rectangle-4" stroke="#354959"></path>
                <path d="M13.0961538,1 L18,5.375 L18,21.4878049 C18,21.8292683 17.8172043,22 17.4516129,22 C17.0860215,22 11.7849462,22 1.5483871,22 C1.1827957,22 1,21.8292683 1,21.4878049 C1,21.1463415 1,14.4878049 1,1.51219512 C1,1.17073171 1.1827957,1 1.5483871,1 C1.91397849,1 5.76323408,1 13.0961538,1 Z" id="Line-3" fill="#FFFFFF"></path>
            </g>
        </g>
        <path d="M3.98529412,10 C4.62745419,10 5.12377276,10.1719449 5.47426471,10.51584 C5.82475665,10.859735 6,11.3422902 6,11.9635199 C6,12.6124831 5.82353118,13.1158381 5.47058824,13.4735999 C5.11764529,13.8313616 4.62255221,14.0102399 3.98529412,14.0102399 L3,14.0102399 L3,16 L2,16 L2,10 L3.98529412,10 Z M3.86029412,13 C4.22794301,13 4.50980294,12.9150546 4.70588235,12.7451613 C4.90196176,12.575268 5,12.3247328 5,11.9935484 C5,11.6709661 4.90196176,11.4268825 4.70588235,11.2612903 C4.50980294,11.0956981 4.22794301,11.0129032 3.86029412,11.0129032 L3,11 L3,12.9870968 L3.86029412,13 Z" id="P" fill="#354959"></path>
        <path d="M9.20588235,10 C9.73220077,10 10.2082022,10.1263876 10.6339009,10.3791667 C11.0595997,10.6319457 11.3937036,10.9805533 11.6362229,11.425 C11.8787422,11.8694467 12,12.5333306 12,13.0833333 C12,13.6333361 11.8774522,14.1305533 11.6323529,14.575 C11.3872537,15.0194467 11.0505697,15.3680543 10.622291,15.6208333 C10.1940123,15.8736124 9.71414094,16 9.18266254,16 L7,16 L7,10 L9.20588235,10 Z M9.11551859,15 C9.46160118,15 9.77567828,14.9192023 10.0577593,14.7576046 C10.3398403,14.5960068 10.5626573,14.372625 10.7262169,14.0874525 C10.8897764,13.8022799 10.971555,13.4838421 10.971555,13.1321293 C10.971555,12.7756636 10.9170362,12.1953436 10.7511062,11.9101711 C10.5851762,11.6249986 10.3588037,11.4004286 10.0719818,11.2364544 C9.78515992,11.0724802 9.46634204,10.9904943 9.11551859,10.9904943 L8,10.9904943 L7.971555,15 L9.11551859,15 Z" id="D" fill="#354959"></path>
        <polygon id="F" fill="#354959" points="13 10 17 10 17 11 14 11 14 13 16 13 16 14 14 14 14 16 13.00832 16"></polygon>
        <g id="Path">
            <use fill="#354959" fill-rule="evenodd" xlink:href="#path-1"></use>
            <path stroke="#354959" stroke-width="1" d="M17.710704,6.5 L17.5858438,6.23577796 L13.7054975,2.41176573 L13.5,2.30901699 L13.5,5.94192878 C13.5,6.2494159 13.7501268,6.5 14.0571212,6.5 L17.710704,6.5 Z"></path>
        </g>
        <path d="M14,3 L17,6 L14.6153846,6 C14.2051282,6 14,5.79487179 14,5.38461538 C14,4.97435897 14,4.17948718 14,3 Z" id="Line-2" fill="#B9D5EA"></path>
    </g>
</svg>