<?xml version="1.0" encoding="UTF-8"?>
<svg width="19px" height="25px" viewBox="0 0 19 25" version="1.1" xmlns="http://www.w3.org/2000/svg" xmlns:xlink="http://www.w3.org/1999/xlink">
    <!-- Generator: Sketch 49.3 (51167) - http://www.bohemiancoding.com/sketch -->
    <title>arxiu_zip_20x25px_</title>
    <desc>Created with Sketch.</desc>
    <defs></defs>
    <g id="arxiu_zip_20x25px_" stroke="none" stroke-width="1" fill="none" fill-rule="evenodd">
        <g id="certificats_icon" transform="translate(0.000000, 1.000000)">
            <g id="sheet">
                <path d="M18.5,5.06612276 L13.3808375,0.5 L1.0527617,0.5 C0.741483519,0.5 0.5,0.724606051 0.5,0.980923598 L0.5,22.0190764 C0.5,22.2763227 0.740703666,22.5 1.05540106,22.5 L17.9445989,22.5 C18.2607579,22.5 18.5,22.2770046 18.5,22.0181076 L18.5,5.06612276 Z" id="Rectangle-4" stroke="#354959"></path>
                <path d="M13.0961538,1 L18,5.375 L18,21.4878049 C18,21.8292683 17.8172043,22 17.4516129,22 C17.0860215,22 11.7849462,22 1.5483871,22 C1.1827957,22 1,21.8292683 1,21.4878049 C1,21.1463415 1,14.4878049 1,1.51219512 C1,1.17073171 1.1827957,1 1.5483871,1 C1.91397849,1 5.76323408,1 13.0961538,1 Z" id="Line-3" fill="#FFFFFF"></path>
            </g>
        </g>
        <polygon id="Line-Copy-12" fill="#354959" fill-rule="nonzero" points="10 13 10 12 12 12 12 13"></polygon>
        <polygon id="Line-Copy-13" fill="#354959" fill-rule="nonzero" points="7 12 7 11 9 11 9 12"></polygon>
        <polygon id="Line-Copy-15" fill="#354959" fill-rule="nonzero" points="10 15 10 14 12 14 12 15"></polygon>
        <polygon id="Line-Copy-14" fill="#354959" fill-rule="nonzero" points="7 14 7 13 9 13 9 14"></polygon>
        <polygon id="Line-Copy-18" fill="#354959" fill-rule="nonzero" points="7 16 7 15 9 15 9 16"></polygon>
        <polygon id="Line-Copy-19" fill="#354959" fill-rule="nonzero" points="10 17 10 16 12 16 12 17"></polygon>
        <polygon id="Line-Copy-23" fill="#354959" fill-rule="nonzero" points="10 19 10 18 12 18 12 19"></polygon>
        <polygon id="Line-Copy-22" fill="#354959" fill-rule="nonzero" points="7 18 7 17 9 17 9 18"></polygon>
        <polygon id="Line-Copy-17" fill="#354959" fill-rule="nonzero" points="10 21 10 20 12 20 12 21"></polygon>
        <polygon id="Line-Copy-16" fill="#354959" fill-rule="nonzero" points="7 20 7 19 9 19 9 20"></polygon>
        <polygon id="Path-12" fill="#354959" fill-rule="nonzero" points="12 9 7 9 7 4 12 4"></polygon>
        <polygon id="Path-Copy" fill="#B9D5EA" points="11 5 8 5 8 8 11 8"></polygon>
    </g>
</svg>