<?xml version="1.0" encoding="UTF-8"?>
<svg width="44px" height="54px" viewBox="0 0 44 54" version="1.1" xmlns="http://www.w3.org/2000/svg" xmlns:xlink="http://www.w3.org/1999/xlink">
    <!-- Generator: Sketch 49 (51002) - http://www.bohemiancoding.com/sketch -->
    <title>arxiu_pdf_44x54px</title>
    <desc>Created with Sketch.</desc>
    <defs></defs>
    <g id="arxiu_pdf_44x54px" stroke="none" stroke-width="1" fill="none" fill-rule="evenodd">
        <g id="certificats_icon" transform="translate(5.000000, 5.000000)">
            <g id="sheet">
                <path d="M25,1 L32,8 L26.0769231,8 C25.3589744,8 25,7.64102564 25,6.92307692 C25,6.20512821 25,4.23076923 25,1 Z" id="Line-2" fill="#B9D5EA"></path>
                <path d="M32.5,8.20710678 L24.7928932,0.5 L1.82848085,0.5 C1.09799346,0.5 0.5,1.09870194 0.5,1.83390064 L0.5,41.1660994 C0.5,41.9031373 1.09669861,42.5 1.833065,42.5 L31.166935,42.5 C31.9060396,42.5 32.5,41.9040689 32.5,41.1642881 L32.5,8.20710678 Z" id="Rectangle-4" stroke="#354959"></path>
                <path d="M24.5,1 L24.5,7 C24.5,8 25,8.5 26,8.5 C27,8.5 29,8.5 32,8.5 L32,41 C32,41.6666667 31.6666667,42 31,42 C30.3333333,42 20.6666667,42 2,42 C1.33333333,42 1,41.6666667 1,41 C1,40.3333333 1,27.3333333 1,2 C1,1.33333333 1.33333333,1 2,1 C2.66666667,1 10.1666667,1 24.5,1 Z" id="Line-3" fill="#FFFFFF"></path>
                <path d="M32.5,9 L25.9028181,9 C24.8519207,9 24,8.14475277 24,7.09547181 L24,0.5 L25,0.5 L25,7 C25,7 25,8 26,8 L32.5,8 L32.5,9 Z" id="Path" fill="#354959" fill-rule="nonzero"></path>
            </g>
        </g>
        <path d="M13.8079999,25 C14.7162711,25 15.418264,25.2149312 15.9139998,25.6448 C16.4097356,26.0746688 16.6575998,26.6778627 16.6575998,27.4543999 C16.6575998,28.2656039 16.4080023,28.8947976 15.9087998,29.3419998 C15.4095973,29.7892021 14.7093377,30.0127998 13.8079999,30.0127998 L12,30.0127998 L12,32 L11,32 L11,25 L13.8079999,25 Z M13.7663999,29 C14.390403,29 14.8687982,28.8717545 15.2015998,28.6152597 C15.5344015,28.358765 15.7007998,27.980522 15.7007998,27.4805195 C15.7007998,26.9935041 15.5344015,26.6250013 15.2015998,26.375 C14.8687982,26.1249987 14.390403,26 13.7663999,26 L11.9984,26.0097403 L11.9984,29 L13.7663999,29 Z" id="P" fill="#354959"></path>
        <path d="M21.0882343,25 C21.8250801,25 22.4914821,25.1516651 23.0874603,25.455 C23.6834386,25.7583348 24.1511841,26.176664 24.4907111,26.71 C24.8302381,27.243336 24.999999,27.8399967 24.999999,28.5 C24.999999,29.1600033 24.8284321,29.756664 24.4852932,30.29 C24.1421542,30.823336 23.6707967,31.2416651 23.0712065,31.545 C22.4716163,31.8483349 21.7997964,32 21.0557266,32 L17.999999,32 L17.999999,25 L21.0882343,25 Z M21.1128309,31 C21.6511817,31 22.1397461,30.8922698 22.5785389,30.6768061 C23.0173316,30.4613424 23.3639358,30.1635 23.6183619,29.78327 C23.8727879,29.4030399 23.999999,28.9784561 23.999999,28.5095057 C23.999999,28.0342182 23.8709443,27.6064658 23.6128309,27.2262357 C23.3547175,26.8460057 23.0025824,26.546579 22.556415,26.3279468 C22.1102476,26.1093145 21.6143086,26 21.0685831,26 L18.999999,26 L18.999999,31 L21.1128309,31 Z" id="D" fill="#354959"></path>
        <polygon id="F" fill="#354959" points="27 25 32 25 32 26 28.0088 26 28.0088 28.0168001 31 28.0168001 31 29 28.0088 29 28.0088 32 27.0104 32"></polygon>
    </g>
</svg>