<?xml version="1.0" encoding="UTF-8"?>
<svg width="44px" height="54px" viewBox="0 0 44 54" version="1.1" xmlns="http://www.w3.org/2000/svg" xmlns:xlink="http://www.w3.org/1999/xlink">
    <!-- Generator: Sketch 49 (51002) - http://www.bohemiancoding.com/sketch -->
    <title>assessorament_44x54px</title>
    <desc>Created with Sketch.</desc>
    <defs></defs>
    <g id="assessorament_44x54px" stroke="none" stroke-width="1" fill="none" fill-rule="evenodd">
        <g id="certificats_icon" transform="translate(5.000000, 5.000000)">
            <g id="sheet">
                <path d="M25,1 L32,8 L26.0769231,8 C25.3589744,8 25,7.64102564 25,6.92307692 C25,6.20512821 25,4.23076923 25,1 Z" id="Line-2" fill="#B9D5EA"></path>
                <path d="M32.5,8.20710678 L24.7928932,0.5 L1.82848085,0.5 C1.09799346,0.5 0.5,1.09870194 0.5,1.83390064 L0.5,41.1660994 C0.5,41.9031373 1.09669861,42.5 1.833065,42.5 L31.166935,42.5 C31.9060396,42.5 32.5,41.9040689 32.5,41.1642881 L32.5,8.20710678 Z" id="Rectangle-4" stroke="#354959"></path>
                <path d="M24.5,1 L24.5,7 C24.5,8 25,8.5 26,8.5 C27,8.5 29,8.5 32,8.5 L32,41 C32,41.6666667 31.6666667,42 31,42 C30.3333333,42 20.6666667,42 2,42 C1.33333333,42 1,41.6666667 1,41 C1,40.3333333 1,27.3333333 1,2 C1,1.33333333 1.33333333,1 2,1 C2.66666667,1 10.1666667,1 24.5,1 Z" id="Line-3" fill="#FFFFFF"></path>
                <path d="M32.5,9 L25.9028181,9 C24.8519207,9 24,8.14475277 24,7.09547181 L24,0.5 L25,0.5 L25,7 C25,7 25,8 26,8 L32.5,8 L32.5,9 Z" id="Path" fill="#354959" fill-rule="nonzero"></path>
            </g>
            <g id="inside_details" transform="translate(6.000000, 9.500000)" fill="#354959" fill-rule="nonzero">
                <path d="M1,1.5 C0.723857625,1.5 0.5,1.27614237 0.5,1 C0.5,0.723857625 0.723857625,0.5 1,0.5 L11,0.5 C11.2761424,0.5 11.5,0.723857625 11.5,1 C11.5,1.27614237 11.2761424,1.5 11,1.5 L1,1.5 Z" id="Line"></path>
                <path d="M1,9.5 C0.723857625,9.5 0.5,9.27614237 0.5,9 C0.5,8.72385763 0.723857625,8.5 1,8.5 L11,8.5 C11.2761424,8.5 11.5,8.72385763 11.5,9 C11.5,9.27614237 11.2761424,9.5 11,9.5 L1,9.5 Z" id="Line"></path>
                <path d="M1,17.5 C0.723857625,17.5 0.5,17.2761424 0.5,17 C0.5,16.7238576 0.723857625,16.5 1,16.5 L11,16.5 C11.2761424,16.5 11.5,16.7238576 11.5,17 C11.5,17.2761424 11.2761424,17.5 11,17.5 L1,17.5 Z" id="Line"></path>
                <path d="M1,25.5 C0.723857625,25.5 0.5,25.2761424 0.5,25 C0.5,24.7238576 0.723857625,24.5 1,24.5 L11,24.5 C11.2761424,24.5 11.5,24.7238576 11.5,25 C11.5,25.2761424 11.2761424,25.5 11,25.5 L1,25.5 Z" id="Line"></path>
            </g>
            <path d="M26.0839749,21.2226499 C26.2371511,20.9928856 26.5475858,20.9307986 26.7773501,21.0839749 C27.0071144,21.2371511 27.0692014,21.5475858 26.9160251,21.7773501 L23.5826918,26.7773501 C23.407671,27.0398813 23.0362219,27.076662 22.8131133,26.8535534 L21.1464466,25.1868867 C20.9511845,24.9916246 20.9511845,24.6750421 21.1464466,24.4797799 C21.3417088,24.2845178 21.6582912,24.2845178 21.8535534,24.4797799 L23.0889543,25.7151808 L26.0839749,21.2226499 Z" id="Path-8" fill="#354959" fill-rule="nonzero"></path>
            <path d="M26.0839749,13.2226499 C26.2371511,12.9928856 26.5475858,12.9307986 26.7773501,13.0839749 C27.0071144,13.2371511 27.0692014,13.5475858 26.9160251,13.7773501 L23.5826918,18.7773501 C23.407671,19.0398813 23.0362219,19.076662 22.8131133,18.8535534 L21.1464466,17.1868867 C20.9511845,16.9916246 20.9511845,16.6750421 21.1464466,16.4797799 C21.3417088,16.2845178 21.6582912,16.2845178 21.8535534,16.4797799 L23.0889543,17.7151808 L26.0839749,13.2226499 Z" id="Path-8-Copy" fill="#354959" fill-rule="nonzero"></path>
            <path d="M26.0839749,29.2226499 C26.2371511,28.9928856 26.5475858,28.9307986 26.7773501,29.0839749 C27.0071144,29.2371511 27.0692014,29.5475858 26.9160251,29.7773501 L23.5826918,34.7773501 C23.407671,35.0398813 23.0362219,35.076662 22.8131133,34.8535534 L21.1464466,33.1868867 C20.9511845,32.9916246 20.9511845,32.6750421 21.1464466,32.4797799 C21.3417088,32.2845178 21.6582912,32.2845178 21.8535534,32.4797799 L23.0889543,33.7151808 L26.0839749,29.2226499 Z" id="Path-8" fill="#354959" fill-rule="nonzero"></path>
        </g>
    </g>
</svg>