<?xml version="1.0" encoding="UTF-8"?>
<svg width="44px" height="54px" viewBox="0 0 44 54" version="1.1" xmlns="http://www.w3.org/2000/svg" xmlns:xlink="http://www.w3.org/1999/xlink">
    <!-- Generator: Sketch 49 (51002) - http://www.bohemiancoding.com/sketch -->
    <title>borsa_treball_44x54px</title>
    <desc>Created with Sketch.</desc>
    <defs></defs>
    <g id="borsa_treball_44x54px" stroke="none" stroke-width="1" fill="none" fill-rule="evenodd">
        <g id="borsa_treball_icon" transform="translate(4.000000, 4.000000)">
            <g id="certificats_icon">
                <g id="sheet-copy" transform="translate(0.000000, 6.000000)">
                    <path d="M30.5,7.83283626 L23.2755575,0.5 L1.71766383,0.5 C1.04987496,0.5 0.5,1.0587864 0.5,1.74860294 L0.5,39.2513971 C0.5,39.9429643 1.04865077,40.5 1.72197016,40.5 L29.2780298,40.5 C29.9538953,40.5 30.5,39.9438626 30.5,39.24967 L30.5,7.83283626 Z" id="Rectangle-4" stroke="#354959"></path>
                    <path d="M22.983871,1 L22.983871,6.70731707 C22.983871,7.65853659 23.4516129,8.13414634 24.3870968,8.13414634 C25.3225806,8.13414634 27.1935484,8.13414634 30,8.13414634 L30,39.0487805 C30,39.6829268 29.688172,40 29.0645161,40 C28.4408602,40 19.3978495,40 1.93548387,40 C1.31182796,40 1,39.6829268 1,39.0487805 C1,38.4146341 1,26.0487805 1,1.95121951 C1,1.31707317 1.31182796,1 1.93548387,1 C2.55913978,1 9.57526882,1 22.983871,1 Z" id="Line-3" fill="#B9D5EA"></path>
                </g>
                <g id="sheet-copy-2" transform="translate(3.000000, 3.000000)">
                    <path d="M30.5,7.83283626 L23.2755575,0.5 L1.71766383,0.5 C1.04987496,0.5 0.5,1.0587864 0.5,1.74860294 L0.5,39.2513971 C0.5,39.9429643 1.04865077,40.5 1.72197016,40.5 L29.2780298,40.5 C29.9538953,40.5 30.5,39.9438626 30.5,39.24967 L30.5,7.83283626 Z" id="Rectangle-4" stroke="#354959"></path>
                    <path d="M22.983871,1 L22.983871,6.70731707 C22.983871,7.65853659 23.4516129,8.13414634 24.3870968,8.13414634 C25.3225806,8.13414634 27.1935484,8.13414634 30,8.13414634 L30,39.0487805 C30,39.6829268 29.688172,40 29.0645161,40 C28.4408602,40 19.3978495,40 1.93548387,40 C1.31182796,40 1,39.6829268 1,39.0487805 C1,38.4146341 1,26.0487805 1,1.95121951 C1,1.31707317 1.31182796,1 1.93548387,1 C2.55913978,1 9.57526882,1 22.983871,1 Z" id="Line-3" fill="#B9D5EA"></path>
                </g>
                <g id="sheet" transform="translate(6.000000, 0.000000)">
                    <path d="M23,1 L30,8 L24.0769231,8 C23.3589744,8 23,7.64102564 23,6.92307692 C23,6.20512821 23,4.23076923 23,1 Z" id="Line-2" fill="#B9D5EA"></path>
                    <path d="M30.5,8.20710678 L22.7928932,0.5 L1.71766383,0.5 C1.04987496,0.5 0.5,1.0587864 0.5,1.74860294 L0.5,39.2513971 C0.5,39.9429643 1.04865077,40.5 1.72197016,40.5 L29.2780298,40.5 C29.9538953,40.5 30.5,39.9438626 30.5,39.24967 L30.5,8.20710678 Z" id="Rectangle-4" stroke="#354959"></path>
                    <path d="M22.983871,1 L22.983871,6.70731707 C22.983871,7.65853659 23.4516129,8.13414634 24.3870968,8.13414634 C25.3225806,8.13414634 27.1935484,8.13414634 30,8.13414634 L30,39.0487805 C30,39.6829268 29.688172,40 29.0645161,40 C28.4408602,40 19.3978495,40 1.93548387,40 C1.31182796,40 1,39.6829268 1,39.0487805 C1,38.4146341 1,26.0487805 1,1.95121951 C1,1.31707317 1.31182796,1 1.93548387,1 C2.55913978,1 9.57526882,1 22.983871,1 Z" id="Line-3" fill="#FFFFFF"></path>
                    <path d="M30.5,9 L23.9028181,9 C22.8519207,9 22,8.14475277 22,7.09547181 L22,0.5 L23,0.5 L23,7 C23,7 23,8 24,8 L30.5,8 L30.5,9 Z" id="Path" fill="#354959" fill-rule="nonzero"></path>
                </g>
            </g>
            <g id="usuari-icon" transform="translate(13.000000, 4.000000)">
                <path d="M-2.77555756e-17,10.0393254 C-2.77555756e-17,7.53004275 2.70239797,6 5.60197368,6 C8.50154939,6 11,7.53004275 11,10.0393254 L11,11 L9.5,11 L-2.77555756e-17,11 L-2.77555756e-17,10.0393254 Z" id="user_profile_icon" fill="#354959" fill-rule="nonzero"></path>
                <path d="M10,10 C10,8.5 8.09888787,7 5.5,7 C2.90111213,7 1,8.5 1,10 L10,10 Z" id="Path-Copy-2" fill="#B9D5EA"></path>
                <path d="M5.5,0 C6.88071674,0 8,1.11928755 8,2.5 C8,3.88071245 6.88071674,5 5.5,5 C4.11928326,5 3,3.88071245 3,2.5 C3,1.11928755 4.11928326,0 5.5,0 Z" id="Shape-path" fill="#354959" fill-rule="nonzero"></path>
                <path d="M5.5,1 C4.67156886,1 4,1.67157144 4,2.5 C4,3.32842856 4.67156886,4 5.5,4 C6.32843114,4 7,3.32842856 7,2.5 C7,1.67157144 6.32843114,1 5.5,1 Z" id="Path-Copy" fill="#B9D5EA"></path>
            </g>
            <path d="M13.5,33 C13.2238576,33 13,32.7761424 13,32.5 C13,32.2238576 13.2238576,32 13.5,32 L29.5,32 C29.7761424,32 30,32.2238576 30,32.5 C30,32.7761424 29.7761424,33 29.5,33 L13.5,33 Z" id="Line" fill="#354959" fill-rule="nonzero"></path>
            <path d="M13.5,27 C13.2238576,27 13,26.7761424 13,26.5 C13,26.2238576 13.2238576,26 13.5,26 L29.5,26 C29.7761424,26 30,26.2238576 30,26.5 C30,26.7761424 29.7761424,27 29.5,27 L13.5,27 Z" id="Line-Copy-7" fill="#354959" fill-rule="nonzero"></path>
            <path d="M13.5,21 C13.2238576,21 13,20.7761424 13,20.5 C13,20.2238576 13.2238576,20 13.5,20 L29.5,20 C29.7761424,20 30,20.2238576 30,20.5 C30,20.7761424 29.7761424,21 29.5,21 L13.5,21 Z" id="Line-Copy-8" fill="#354959" fill-rule="nonzero"></path>
        </g>
    </g>
</svg>