<?xml version="1.0" encoding="UTF-8"?>
<svg width="34px" height="44px" viewBox="0 0 34 44" version="1.1" xmlns="http://www.w3.org/2000/svg" xmlns:xlink="http://www.w3.org/1999/xlink">
    <!-- Generator: Sketch 48.2 (47327) - http://www.bohemiancoding.com/sketch -->
    <title>centres_suport_34x44px</title>
    <desc>Created with Sketch.</desc>
    <defs></defs>
    <g id="Page-1" stroke="none" stroke-width="1" fill="none" fill-rule="evenodd">
        <g id="centres_suport_34x44px">
            <g id="Group" transform="translate(0.000000, 5.000000)">
                <g id="building_icon">
                    <g id="walls_lining">
                        <path d="M2,37 L2,2.00041944 C2,1.44790304 2.44746922,1 3.00069463,1 L25.9993054,1 C26.5519738,1 27,1.45517302 27,2.00041944 L27,37 L2,37 Z" id="Rectangle" fill="#FFFFFF"></path>
                        <path d="M0.5,36.5 L27.5,36.5" id="Line" stroke="#354959" stroke-linecap="round"></path>
                        <path d="M26,35 L27,35 L26.5,35.5 L26,35 Z M26,36 L26,1.00041944 L3.04239024,1 C3.02059388,1 3.0064638,12.3333333 3,35 L3,36 L2.52119512,35.5211951 L2.04239024,36 L2.04239024,35.0423902 L2.04239024,0.716953399 C2.16687931,0.311424555 2.55172931,0.013088039 3.011882,0.00041943788 L25.9878473,0.000419437885 C26.5495592,0.0160202028 27,0.464751573 27,1.00041944 L27,36 L26.5,35.5 L26,36 Z M3,35 L3,35.0423902 L2.52119512,35.5211951 L2.04239024,35.0423902 L2.04239024,35 L3,35 Z M2,36 L2,1.00041944 C2,0.447903039 2.46611377,0 3.04239024,0 L25.9576098,0 C26.533306,0 27,0.455173016 27,1.00041944 L27,36 L26,36 L26,1.00041944 L3.04239024,1.00041944 L3.04239024,36 L2,36 Z" id="Rectangle-Copy" fill="#354959" fill-rule="nonzero"></path>
                    </g>
                </g>
                <g id="window-0" transform="translate(6.000000, 5.000000)">
                    <rect id="Rectangle-2-Copy" fill="#B9D5EA" x="0" y="0" width="3" height="3" rx="0.100000001"></rect>
                    <path d="M0.100000001,-2.22044605e-16 C0.0447715257,-2.22044605e-16 -2.22044605e-16,0.0447715257 -2.22044605e-16,0.100000001 L-2.22044605e-16,2.9 C-2.22044605e-16,2.95522847 0.0447715257,3 0.100000001,3 L2.9,3 C2.95522847,3 3,2.95522847 3,2.9 L3,0.100000001 C3,0.0447715257 2.95522847,-2.22044605e-16 2.9,-2.22044605e-16 L0.100000001,-2.22044605e-16 Z M0.100000001,-1 L2.9,-1 C3.50751322,-1 4,-0.507513224 4,0.100000001 L4,2.9 C4,3.50751322 3.50751322,4 2.9,4 L0.100000001,4 C-0.507513224,4 -1,3.50751322 -1,2.9 L-1,0.100000001 C-1,-0.507513224 -0.507513224,-1 0.100000001,-1 Z" id="Rectangle-2" fill="#354959" fill-rule="nonzero"></path>
                </g>
                <g id="window-1" transform="translate(13.000000, 5.000000)">
                    <rect id="Rectangle-2-Copy" fill="#B9D5EA" x="0" y="0" width="3" height="3" rx="0.100000001"></rect>
                    <path d="M0.100000001,-2.22044605e-16 C0.0447715257,-2.22044605e-16 -2.22044605e-16,0.0447715257 -2.22044605e-16,0.100000001 L-2.22044605e-16,2.9 C-2.22044605e-16,2.95522847 0.0447715257,3 0.100000001,3 L2.9,3 C2.95522847,3 3,2.95522847 3,2.9 L3,0.100000001 C3,0.0447715257 2.95522847,-2.22044605e-16 2.9,-2.22044605e-16 L0.100000001,-2.22044605e-16 Z M0.100000001,-1 L2.9,-1 C3.50751322,-1 4,-0.507513224 4,0.100000001 L4,2.9 C4,3.50751322 3.50751322,4 2.9,4 L0.100000001,4 C-0.507513224,4 -1,3.50751322 -1,2.9 L-1,0.100000001 C-1,-0.507513224 -0.507513224,-1 0.100000001,-1 Z" id="Rectangle-2" fill="#354959" fill-rule="nonzero"></path>
                </g>
                <g id="window-2" transform="translate(20.000000, 5.000000)">
                    <rect id="Rectangle-2-Copy" fill="#B9D5EA" x="0" y="0" width="3" height="3" rx="0.100000001"></rect>
                    <path d="M0.100000001,-2.22044605e-16 C0.0447715257,-2.22044605e-16 -2.22044605e-16,0.0447715257 -2.22044605e-16,0.100000001 L-2.22044605e-16,2.9 C-2.22044605e-16,2.95522847 0.0447715257,3 0.100000001,3 L2.9,3 C2.95522847,3 3,2.95522847 3,2.9 L3,0.100000001 C3,0.0447715257 2.95522847,-2.22044605e-16 2.9,-2.22044605e-16 L0.100000001,-2.22044605e-16 Z M0.100000001,-1 L2.9,-1 C3.50751322,-1 4,-0.507513224 4,0.100000001 L4,2.9 C4,3.50751322 3.50751322,4 2.9,4 L0.100000001,4 C-0.507513224,4 -1,3.50751322 -1,2.9 L-1,0.100000001 C-1,-0.507513224 -0.507513224,-1 0.100000001,-1 Z" id="Rectangle-2" fill="#354959" fill-rule="nonzero"></path>
                </g>
                <g id="window-5" transform="translate(6.000000, 12.000000)">
                    <rect id="Rectangle-2-Copy" fill="#B9D5EA" x="0" y="0" width="3" height="3" rx="0.100000001"></rect>
                    <path d="M0.100000001,-2.22044605e-16 C0.0447715257,-2.22044605e-16 -2.22044605e-16,0.0447715257 -2.22044605e-16,0.100000001 L-2.22044605e-16,2.9 C-2.22044605e-16,2.95522847 0.0447715257,3 0.100000001,3 L2.9,3 C2.95522847,3 3,2.95522847 3,2.9 L3,0.100000001 C3,0.0447715257 2.95522847,-2.22044605e-16 2.9,-2.22044605e-16 L0.100000001,-2.22044605e-16 Z M0.100000001,-1 L2.9,-1 C3.50751322,-1 4,-0.507513224 4,0.100000001 L4,2.9 C4,3.50751322 3.50751322,4 2.9,4 L0.100000001,4 C-0.507513224,4 -1,3.50751322 -1,2.9 L-1,0.100000001 C-1,-0.507513224 -0.507513224,-1 0.100000001,-1 Z" id="Rectangle-2" fill="#354959" fill-rule="nonzero"></path>
                </g>
                <g id="window-4" transform="translate(13.000000, 12.000000)">
                    <rect id="Rectangle-2-Copy" fill="#B9D5EA" x="0" y="0" width="3" height="3" rx="0.100000001"></rect>
                    <path d="M0.100000001,-2.22044605e-16 C0.0447715257,-2.22044605e-16 -2.22044605e-16,0.0447715257 -2.22044605e-16,0.100000001 L-2.22044605e-16,2.9 C-2.22044605e-16,2.95522847 0.0447715257,3 0.100000001,3 L2.9,3 C2.95522847,3 3,2.95522847 3,2.9 L3,0.100000001 C3,0.0447715257 2.95522847,-2.22044605e-16 2.9,-2.22044605e-16 L0.100000001,-2.22044605e-16 Z M0.100000001,-1 L2.9,-1 C3.50751322,-1 4,-0.507513224 4,0.100000001 L4,2.9 C4,3.50751322 3.50751322,4 2.9,4 L0.100000001,4 C-0.507513224,4 -1,3.50751322 -1,2.9 L-1,0.100000001 C-1,-0.507513224 -0.507513224,-1 0.100000001,-1 Z" id="Rectangle-2" fill="#354959" fill-rule="nonzero"></path>
                </g>
                <g id="window-3" transform="translate(20.000000, 12.000000)">
                    <rect id="Rectangle-2-Copy" fill="#B9D5EA" x="0" y="0" width="3" height="3" rx="0.100000001"></rect>
                    <path d="M0.100000001,-2.22044605e-16 C0.0447715257,-2.22044605e-16 -2.22044605e-16,0.0447715257 -2.22044605e-16,0.100000001 L-2.22044605e-16,2.9 C-2.22044605e-16,2.95522847 0.0447715257,3 0.100000001,3 L2.9,3 C2.95522847,3 3,2.95522847 3,2.9 L3,0.100000001 C3,0.0447715257 2.95522847,-2.22044605e-16 2.9,-2.22044605e-16 L0.100000001,-2.22044605e-16 Z M0.100000001,-1 L2.9,-1 C3.50751322,-1 4,-0.507513224 4,0.100000001 L4,2.9 C4,3.50751322 3.50751322,4 2.9,4 L0.100000001,4 C-0.507513224,4 -1,3.50751322 -1,2.9 L-1,0.100000001 C-1,-0.507513224 -0.507513224,-1 0.100000001,-1 Z" id="Rectangle-2" fill="#354959" fill-rule="nonzero"></path>
                </g>
                <g id="window-8" transform="translate(6.000000, 19.000000)">
                    <rect id="Rectangle-2-Copy" fill="#B9D5EA" x="0" y="0" width="3" height="3" rx="0.100000001"></rect>
                    <path d="M0.100000001,-2.22044605e-16 C0.0447715257,-2.22044605e-16 -2.22044605e-16,0.0447715257 -2.22044605e-16,0.100000001 L-2.22044605e-16,2.9 C-2.22044605e-16,2.95522847 0.0447715257,3 0.100000001,3 L2.9,3 C2.95522847,3 3,2.95522847 3,2.9 L3,0.100000001 C3,0.0447715257 2.95522847,-2.22044605e-16 2.9,-2.22044605e-16 L0.100000001,-2.22044605e-16 Z M0.100000001,-1 L2.9,-1 C3.50751322,-1 4,-0.507513224 4,0.100000001 L4,2.9 C4,3.50751322 3.50751322,4 2.9,4 L0.100000001,4 C-0.507513224,4 -1,3.50751322 -1,2.9 L-1,0.100000001 C-1,-0.507513224 -0.507513224,-1 0.100000001,-1 Z" id="Rectangle-2" fill="#354959" fill-rule="nonzero"></path>
                </g>
                <g id="window-7" transform="translate(13.000000, 19.000000)">
                    <rect id="Rectangle-2-Copy" fill="#B9D5EA" x="0" y="0" width="3" height="3" rx="0.100000001"></rect>
                    <path d="M0.100000001,-2.22044605e-16 C0.0447715257,-2.22044605e-16 -2.22044605e-16,0.0447715257 -2.22044605e-16,0.100000001 L-2.22044605e-16,2.9 C-2.22044605e-16,2.95522847 0.0447715257,3 0.100000001,3 L2.9,3 C2.95522847,3 3,2.95522847 3,2.9 L3,0.100000001 C3,0.0447715257 2.95522847,-2.22044605e-16 2.9,-2.22044605e-16 L0.100000001,-2.22044605e-16 Z M0.100000001,-1 L2.9,-1 C3.50751322,-1 4,-0.507513224 4,0.100000001 L4,2.9 C4,3.50751322 3.50751322,4 2.9,4 L0.100000001,4 C-0.507513224,4 -1,3.50751322 -1,2.9 L-1,0.100000001 C-1,-0.507513224 -0.507513224,-1 0.100000001,-1 Z" id="Rectangle-2" fill="#354959" fill-rule="nonzero"></path>
                </g>
                <g id="window-6" transform="translate(20.000000, 19.000000)">
                    <rect id="Rectangle-2-Copy" fill="#B9D5EA" x="0" y="0" width="3" height="3" rx="0.100000001"></rect>
                    <path d="M0.100000001,-2.22044605e-16 C0.0447715257,-2.22044605e-16 -2.22044605e-16,0.0447715257 -2.22044605e-16,0.100000001 L-2.22044605e-16,2.9 C-2.22044605e-16,2.95522847 0.0447715257,3 0.100000001,3 L2.9,3 C2.95522847,3 3,2.95522847 3,2.9 L3,0.100000001 C3,0.0447715257 2.95522847,-2.22044605e-16 2.9,-2.22044605e-16 L0.100000001,-2.22044605e-16 Z M0.100000001,-1 L2.9,-1 C3.50751322,-1 4,-0.507513224 4,0.100000001 L4,2.9 C4,3.50751322 3.50751322,4 2.9,4 L0.100000001,4 C-0.507513224,4 -1,3.50751322 -1,2.9 L-1,0.100000001 C-1,-0.507513224 -0.507513224,-1 0.100000001,-1 Z" id="Rectangle-2" fill="#354959" fill-rule="nonzero"></path>
                </g>
                <g id="window-6-copy" transform="translate(20.000000, 19.000000)">
                    <rect id="Rectangle-2-Copy" fill="#B9D5EA" x="0" y="0" width="3" height="3" rx="0.100000001"></rect>
                    <path d="M0.100000001,-2.22044605e-16 C0.0447715257,-2.22044605e-16 -2.22044605e-16,0.0447715257 -2.22044605e-16,0.100000001 L-2.22044605e-16,2.9 C-2.22044605e-16,2.95522847 0.0447715257,3 0.100000001,3 L2.9,3 C2.95522847,3 3,2.95522847 3,2.9 L3,0.100000001 C3,0.0447715257 2.95522847,-2.22044605e-16 2.9,-2.22044605e-16 L0.100000001,-2.22044605e-16 Z M0.100000001,-1 L2.9,-1 C3.50751322,-1 4,-0.507513224 4,0.100000001 L4,2.9 C4,3.50751322 3.50751322,4 2.9,4 L0.100000001,4 C-0.507513224,4 -1,3.50751322 -1,2.9 L-1,0.100000001 C-1,-0.507513224 -0.507513224,-1 0.100000001,-1 Z" id="Rectangle-2" fill="#354959" fill-rule="nonzero"></path>
                </g>
                <g id="window-11" transform="translate(6.000000, 26.000000)">
                    <rect id="Rectangle-2-Copy" fill="#B9D5EA" x="0" y="0" width="3" height="3" rx="0.100000001"></rect>
                    <path d="M0.100000001,-2.22044605e-16 C0.0447715257,-2.22044605e-16 -2.22044605e-16,0.0447715257 -2.22044605e-16,0.100000001 L-2.22044605e-16,2.9 C-2.22044605e-16,2.95522847 0.0447715257,3 0.100000001,3 L2.9,3 C2.95522847,3 3,2.95522847 3,2.9 L3,0.100000001 C3,0.0447715257 2.95522847,-2.22044605e-16 2.9,-2.22044605e-16 L0.100000001,-2.22044605e-16 Z M0.100000001,-1 L2.9,-1 C3.50751322,-1 4,-0.507513224 4,0.100000001 L4,2.9 C4,3.50751322 3.50751322,4 2.9,4 L0.100000001,4 C-0.507513224,4 -1,3.50751322 -1,2.9 L-1,0.100000001 C-1,-0.507513224 -0.507513224,-1 0.100000001,-1 Z" id="Rectangle-2" fill="#354959" fill-rule="nonzero"></path>
                </g>
                <g id="window-10" transform="translate(13.000000, 26.000000)">
                    <rect id="Rectangle-2-Copy" fill="#B9D5EA" x="0" y="0" width="3" height="3" rx="0.100000001"></rect>
                    <path d="M0.100000001,-2.22044605e-16 C0.0447715257,-2.22044605e-16 -2.22044605e-16,0.0447715257 -2.22044605e-16,0.100000001 L-2.22044605e-16,2.9 C-2.22044605e-16,2.95522847 0.0447715257,3 0.100000001,3 L2.9,3 C2.95522847,3 3,2.95522847 3,2.9 L3,0.100000001 C3,0.0447715257 2.95522847,-2.22044605e-16 2.9,-2.22044605e-16 L0.100000001,-2.22044605e-16 Z M0.100000001,-1 L2.9,-1 C3.50751322,-1 4,-0.507513224 4,0.100000001 L4,2.9 C4,3.50751322 3.50751322,4 2.9,4 L0.100000001,4 C-0.507513224,4 -1,3.50751322 -1,2.9 L-1,0.100000001 C-1,-0.507513224 -0.507513224,-1 0.100000001,-1 Z" id="Rectangle-2" fill="#354959" fill-rule="nonzero"></path>
                </g>
                <g id="pin" transform="translate(19.000000, 19.000000)" stroke="#354959">
                    <path d="M7,0 C3.12941176,0 0,3.28181818 0,7.34090909 C0,13.5159091 6.46470588,18.6977273 6.75294118,18.9136364 C6.83529412,18.9568182 6.91764706,19 7,19 C7.08235294,19 7.16470588,18.9568182 7.24705882,18.9136364 C7.53529412,18.6977273 14,13.5159091 14,7.34090909 C14,3.28181818 10.8705882,0 7,0 Z" id="icona_centre_suport-copy-2" fill="#FFFFFF" fill-rule="nonzero" transform="translate(7.000000, 9.500000) scale(-1, 1) translate(-7.000000, -9.500000) "></path>
                    <path d="M7,4 C5.32857143,4 4,5.32857143 4,7 C4,8.67142857 5.32857143,10 7,10 C8.67142857,10 10,8.67142857 10,7 C10,5.32857143 8.67142857,4 7,4 Z" id="Path" fill="#B9D5EA" transform="translate(7.000000, 7.000000) scale(-1, 1) translate(-7.000000, -7.000000) "></path>
                </g>
            </g>
        </g>
    </g>
</svg>