<?xml version="1.0" encoding="UTF-8"?>
<svg width="44px" height="54px" viewBox="0 0 44 54" version="1.1" xmlns="http://www.w3.org/2000/svg" xmlns:xlink="http://www.w3.org/1999/xlink">
    <!-- Generator: Sketch 48.2 (47327) - http://www.bohemiancoding.com/sketch -->
    <title>certificats_44x54px</title>
    <desc>Created with Sketch.</desc>
    <defs>
        <polygon id="path-1" points="1.5 7 7.5 7 7.5 17 4.5 15.3333333 1.5 17"></polygon>
    </defs>
    <g id="Page-1" stroke="none" stroke-width="1" fill="none" fill-rule="evenodd">
        <g id="certificats_44x54px">
            <g id="certificats_icon" transform="translate(5.000000, 5.000000)">
                <g id="sheet">
                    <path d="M26,1 L33,8 L27.0769231,8 C26.3589744,8 26,7.64102564 26,6.92307692 C26,6.20512821 26,4.23076923 26,1 Z" id="Line-2" fill="#B9D5EA"></path>
                    <path d="M33,8.42298326 L25.3520778,1 L1.88388936,1 C1.39258965,1 1,1.38149434 1,1.83390064 L1,41.1660994 C1,41.6202367 1.39116372,42 1.88861243,42 L32.1113876,42 C32.6113501,42 33,41.6215295 33,41.1642881 L33,8.42298326 Z M34,41.1642881 C34,42.1781238 33.1595459,43 32.1113876,43 L1.88861243,43 C0.845560586,43 0,42.1794146 0,41.1660994 L0,1.83390064 C0,0.821065284 0.848293064,0 1.88388936,0 L25.7575758,0 L34,8 L34,41.1642881 Z" id="Rectangle-4" fill="#354959" fill-rule="nonzero"></path>
                    <path d="M25.2580645,1 L25.2580645,7 C25.2580645,8 25.7741935,8.5 26.8064516,8.5 C27.8387097,8.5 29.9032258,8.5 33,8.5 L33,41 C33,41.6666667 32.655914,42 31.9677419,42 C31.2795699,42 21.3010753,42 2.03225806,42 C1.34408602,42 1,41.6666667 1,41 C1,40.3333333 1,27.3333333 1,2 C1,1.33333333 1.34408602,1 2.03225806,1 C2.72043011,1 10.4623656,1 25.2580645,1 Z" id="Line-3" fill="#FFFFFF"></path>
                    <path d="M32.7928932,8.5 L25.5,1.20710678 L25.5,7.09547181 C25.5,7.86969912 26.1291506,8.5 26.9028181,8.5 L32.7928932,8.5 Z" id="Path" stroke="#354959"></path>
                </g>
                <g id="ribbon" transform="translate(5.500000, 32.000000)">
                    <g id="Rectangle-17">
                        <use fill="#B9D5EA" fill-rule="evenodd" xlink:href="#path-1"></use>
                        <path stroke="#354959" stroke-width="1" d="M2,7.5 L2,16.1502428 L4.5,14.7613539 L7,16.1502428 L7,7.5 L2,7.5 Z"></path>
                    </g>
                    <circle id="Oval-6" stroke="#354959" fill="#B9D5EA" cx="4.5" cy="4.5" r="4.5"></circle>
                </g>
                <g id="inside_details" transform="translate(6.000000, 14.000000)" fill="#354959" fill-rule="nonzero">
                    <path d="M0.5,2 C0.223857625,2 0,1.77614237 0,1.5 C0,1.22385763 0.223857625,1 0.5,1 L11,1 C11.2761424,1 11.5,1.22385763 11.5,1.5 C11.5,1.77614237 11.2761424,2 11,2 L0.5,2 Z" id="Line"></path>
                    <path d="M0.5,7 C0.223857625,7 7.35791094e-17,6.77614237 0,6.5 C-7.35791094e-17,6.22385763 0.223857625,6 0.5,6 L20.5,6 C20.7761424,6 21,6.22385763 21,6.5 C21,6.77614237 20.7761424,7 20.5,7 L0.5,7 Z" id="Line"></path>
                </g>
            </g>
        </g>
    </g>
</svg>