<?xml version="1.0" encoding="UTF-8"?>
<svg width="44px" height="54px" viewBox="0 0 44 54" version="1.1" xmlns="http://www.w3.org/2000/svg" xmlns:xlink="http://www.w3.org/1999/xlink">
    <!-- Generator: Sketch 48.2 (47327) - http://www.bohemiancoding.com/sketch -->
    <title>competencies_44x54px</title>
    <desc>Created with Sketch.</desc>
    <defs></defs>
    <g id="Page-1" stroke="none" stroke-width="1" fill="none" fill-rule="evenodd">
        <g id="competencies_44x54px">
            <g id="competències_icon" transform="translate(3.000000, 6.000000)" stroke="#354959">
                <path d="M33.22148,29.0732282 C36.0784674,26.0151393 37.8400704,21.9002991 37.8400704,17.3740121 C37.8400704,7.91650168 30.1993638,0.249179927 20.7748222,0.249179927 C11.3460561,0.249179927 3.70746178,7.91597235 3.70746178,17.3756 C3.70746178,17.9276896 3.74046642,18.4694042 3.78997338,19.0049258 C3.19794932,20.2062366 2.39554046,21.8004149 1.72303788,23.1341107 C1.36823533,23.8371117 1.0505881,24.4656892 0.817496114,24.9226584 C0.701979867,25.1521699 0.607090201,25.3382659 0.541080917,25.4706191 C0.508076276,25.5367852 0.481260664,25.5884794 0.462693573,25.6277662 C0.25228766,26.0867944 0.165651795,26.483796 0.165651795,26.895243 C0.165651795,28.4749706 1.44047589,29.7590155 3.01846743,29.7590155 L4.29329153,29.7590155 L4.28091347,34.8661875 C4.28297824,36.8966436 5.92084812,38.5404729 7.94236924,38.5404729 L13.2996827,38.5384032 L15.123176,44.6812592 C15.1829962,44.8838914 15.3212038,45.0534406 15.5068536,45.1547593 C15.6945682,45.2540084 15.9111579,45.2767537 16.1112346,45.2147217 L35.486813,39.3074168 C35.9055601,39.1792188 36.1407274,38.7367479 36.0148873,38.3169905 L33.22148,29.0732282 Z" id="Fill-1" fill="#FFFFFF"></path>
                <g id="Group" transform="translate(13.000000, 8.000000)">
                    <circle id="Oval" fill="#B9D5EA" cx="11" cy="3" r="2.5"></circle>
                    <circle id="Oval-Copy" fill="#B9D5EA" cx="3" cy="8" r="2.5"></circle>
                    <circle id="Oval-Copy-2" fill="#B9D5EA" cx="11" cy="13" r="2.5"></circle>
                    <path d="M5.5,6.5 L8.5,4.5" id="Line" stroke-linecap="square"></path>
                    <path d="M5.5,9.5 L8.5,11.5" id="Line-2" stroke-linecap="square"></path>
                </g>
            </g>
            <g id="competències_icon-copy" transform="translate(2.000000, 5.000000)">
                <path d="M37.4938278,39.1734077 C37.6986188,39.856517 37.3149617,40.5767885 36.6326285,40.7856823 L17.2593019,46.6922948 C16.9321052,46.7937392 16.5782421,46.7580897 16.267327,46.5936522 C15.9653319,46.4288378 15.7409029,46.152304 15.643849,45.8235464 L13.9265848,40.0385474 L8.94236924,40.0404729 C6.64446909,40.0404729 4.78325867,38.1726634 4.78091494,35.8649757 L4.79207823,31.2590155 L4.01846743,31.2590155 C2.1652734,31.2590155 0.665651795,29.7520631 0.665651795,27.895243 C0.665651795,27.3992201 0.77348498,26.9314159 1.01063598,26.4141218 C1.02646878,26.3806206 1.04919234,26.3355114 1.09364125,26.2474651 C1.1337588,26.1670265 1.3318023,25.7755015 1.37209326,25.6954662 C1.57659322,25.2945507 1.83923328,24.7755517 2.276584,23.9089908 C3.18630857,22.1048404 3.79122377,20.8986693 4.27943551,19.9096876 C4.23197303,19.3624931 4.20746178,18.8634397 4.20746178,18.3756 C4.20746178,8.63961397 12.0701261,0.749179927 21.7748222,0.749179927 C31.4759183,0.749179927 39.3400704,8.64077005 39.3400704,18.3740121 C39.3400704,22.8043002 37.6926996,26.9837588 34.782603,30.2015945 L37.4938278,39.1734077 Z M33.8561176,29.7318921 C36.7168154,26.6698317 38.3400704,22.6464041 38.3400704,18.3740121 C38.3400704,9.19227662 30.9228524,1.74917993 21.7748222,1.74917993 C12.6232016,1.74917993 5.20746178,9.19111102 5.20746178,18.3756 C5.20746178,18.8716961 5.23474364,19.384438 5.2878504,19.9588989 L5.30083849,20.0993923 L5.23846851,20.2259509 C4.73763097,21.2422298 4.11950684,22.4751766 3.16940968,24.3593932 C2.73133599,25.2273866 2.46826199,25.7472431 2.26411618,26.1474483 C2.22391752,26.2273164 2.02713775,26.6163431 1.98850633,26.6938018 C1.9401446,26.7897532 1.92429344,26.8212197 1.91721925,26.8361082 C1.7409003,27.2207713 1.66565179,27.5472159 1.66565179,27.895243 C1.66565179,29.200867 2.71865272,30.2590155 4.01846743,30.2590155 L5.79450483,30.2590155 L5.79329006,30.7602273 L5.78091321,35.8656791 C5.78269797,37.6207761 7.19737889,39.0404729 8.94217608,39.0404729 L14.6727807,39.038259 L14.7790097,39.3961161 L16.6027159,45.5396914 C16.6247437,45.6143071 16.6759896,45.6774506 16.7405598,45.7127396 C16.8130561,45.7510701 16.8924629,45.7590698 16.9654191,45.7364562 L36.3404453,39.8293201 C36.4955401,39.7818383 36.5830224,39.6176005 36.5362641,39.4616274 L33.6595738,29.9422705 L33.8561176,29.7318921 Z" id="Fill-1" fill="#354959" fill-rule="nonzero"></path>
                <g id="Group" transform="translate(14.000000, 9.000000)" stroke="#354959">
                    <circle id="Oval" fill="#B9D5EA" cx="11" cy="3" r="2.5"></circle>
                    <circle id="Oval-Copy" fill="#B9D5EA" cx="3" cy="8" r="2.5"></circle>
                    <circle id="Oval-Copy-2" fill="#B9D5EA" cx="11" cy="13" r="2.5"></circle>
                    <path d="M5.5,6.5 L8.5,4.5" id="Line" stroke-linecap="square"></path>
                    <path d="M5.5,9.5 L8.5,11.5" id="Line-2" stroke-linecap="square"></path>
                </g>
            </g>
        </g>
    </g>
</svg>