<?xml version="1.0" encoding="UTF-8"?>
<svg width="34px" height="44px" viewBox="0 0 34 44" version="1.1" xmlns="http://www.w3.org/2000/svg" xmlns:xlink="http://www.w3.org/1999/xlink">
    <!-- Generator: Sketch 48.2 (47327) - http://www.bohemiancoding.com/sketch -->
    <title>competencies_34x44px</title>
    <desc>Created with Sketch.</desc>
    <defs></defs>
    <g id="Page-1" stroke="none" stroke-width="1" fill="none" fill-rule="evenodd">
        <g id="competencies_34x44px">
            <g id="competències_icon" transform="translate(0.000000, 3.000000)">
                <path d="M29.638671,25.4687253 L31.92843,33.0017985 C32.1150139,33.6205567 31.7657482,34.27245 31.1462231,34.4610126 L14.6911837,39.448718 C14.3945943,39.5401383 14.0741263,39.5080409 13.7921002,39.359745 C13.517994,39.2110207 13.313919,38.9610284 13.225563,38.6634738 L11.7833412,33.833265 L7.60540939,33.8348696 C5.61262792,33.8348696 3.99746864,32.2234075 3.99543363,30.2309208 L4.00472545,26.4194167 L3.42313229,26.4194167 C1.80804112,26.4194167 0.5,25.1126234 0.5,23.5011199 C0.5,23.0703397 0.594222043,22.6639602 0.800727849,22.2161421 C0.814676023,22.1868003 0.834522932,22.1476307 0.871965153,22.0739069 C0.906159424,22.0057436 1.07447447,21.6749253 1.10880081,21.6071372 C1.28243107,21.2687198 1.50547855,20.8305217 1.87689281,20.0988851 C2.64333668,18.5877237 3.15502199,17.5734456 3.56784426,16.7423009 C3.52861447,16.2868091 3.50835218,15.87009 3.50835218,15.4623103 C3.50835218,7.19726455 10.2210737,0.5 18.5050732,0.5 C26.7860141,0.5 33.5,7.19824002 33.5,15.4609694 C33.5,19.2069784 32.1046107,22.7417249 29.638671,25.4687253 Z M28.7126813,24.9979099 C31.1290754,22.4264651 32.5,19.0482237 32.5,15.4609694 C32.5,7.75105107 26.2342543,1.5 18.5050732,1.5 C10.772843,1.5 4.50835218,7.75006601 4.50835218,15.4623103 C4.50835218,15.8785403 4.53139552,16.3091045 4.57628839,16.7918916 L4.58942309,16.9331449 L4.52641811,17.0602487 C4.10087308,17.9187268 3.57577563,18.9600276 2.76865809,20.5513833 C2.39651501,21.2844557 2.17303006,21.7235133 1.99975686,22.0612187 C1.96552351,22.1288393 1.79848249,22.4571535 1.76578649,22.5223302 C1.72439922,22.6039777 1.71148143,22.6294721 1.70636568,22.6401535 C1.56128438,22.9548273 1.5,23.2191468 1.5,23.5011199 C1.5,24.5601249 2.36011233,25.4194167 3.42313229,25.4194167 L5.00716625,25.4194167 L5.00594436,25.9206356 L4.99543188,30.2316283 C4.99690333,31.6702154 6.16422954,32.8348696 7.60521735,32.8348697 L12.5282966,32.8329788 L12.6349184,33.1900706 L14.1839772,38.3780937 C14.1967328,38.4210504 14.2268114,38.4578967 14.2631939,38.4776864 C14.3076963,38.5010791 14.3552402,38.505841 14.3988632,38.4924005 L30.8555947,33.5041767 C30.9474473,33.4762199 30.9983593,33.3811941 30.9713326,33.2915625 L28.5144928,25.2088153 L28.7126813,24.9979099 Z" id="Fill-1" fill="#354959" fill-rule="nonzero"></path>
                <g id="Group" transform="translate(1.000000, 1.000000)">
                    <path d="M27.7126813,23.9979099 C30.1290754,21.4264651 31.5,18.0482237 31.5,14.4609694 C31.5,6.75105107 25.2342543,0.5 17.5050732,0.5 C9.77284304,0.5 3.50835218,6.75006601 3.50835218,14.4623103 C3.50835218,14.8785403 3.53139552,15.3091045 3.57628839,15.7918916 L3.58942309,15.9331449 L3.52641811,16.0602487 C3.10087308,16.9187268 2.57577563,17.9600276 1.76865809,19.5513833 C1.39651501,20.2844557 1.17303006,20.7235133 0.999756858,21.0612187 C0.965523506,21.1288393 0.798482491,21.4571535 0.765786485,21.5223302 C0.724399222,21.6039777 0.711481434,21.6294721 0.706365684,21.6401535 C0.561284382,21.9548273 0.5,22.2191468 0.5,22.5011199 C0.5,23.5601249 1.36011233,24.4194167 2.42313229,24.4194167 L4.00716625,24.4194167 L4.00594436,24.9206356 L3.99543188,29.2316283 C3.99690333,30.6702154 5.16422954,31.8348696 6.60521735,31.8348697 L11.5282966,31.8329788 L11.6349184,32.1900706 L13.1839772,37.3780937 C13.1967328,37.4210504 13.2268114,37.4578967 13.2631939,37.4776864 C13.3076963,37.5010791 13.3552402,37.505841 13.3988632,37.4924005 L29.8555947,32.5041767 C29.9474473,32.4762199 29.9983593,32.3811941 29.9713326,32.2915625 L27.5144928,24.2088153 L27.7126813,23.9979099 Z" id="Path-Copy" fill="#FFFFFF"></path>
                    <polyline id="Triangle" stroke="#354959" transform="translate(17.405052, 12.778833) rotate(29.000000) translate(-17.405052, -12.778833) " points="20.6657638 15.7976794 14.1443402 15.9825013 17.45282 9.57516476 17.4719546 9.98056854"></polyline>
                    <circle id="Oval" stroke="#354959" fill="#B9D5EA" cx="19" cy="10" r="2"></circle>
                    <circle id="Oval-Copy" stroke="#354959" fill="#B9D5EA" cx="13" cy="14" r="2"></circle>
                    <circle id="Oval-Copy-2" stroke="#354959" fill="#B9D5EA" cx="19" cy="17" r="2"></circle>
                </g>
            </g>
        </g>
    </g>
</svg>