<?xml version="1.0" encoding="UTF-8" standalone="no"?>
<svg width="177px" height="36px" viewBox="0 0 177 36" version="1.1" xmlns="http://www.w3.org/2000/svg" xmlns:xlink="http://www.w3.org/1999/xlink">
    <defs></defs>
    <g id="Page-1" stroke="none" stroke-width="1" fill="none" fill-rule="evenodd" opacity="0.331331623">
        <g id="Main-page" transform="translate(-53.000000, -3445.000000)">
            <g id="footer" transform="translate(0.000000, 2921.000000)">
                <g id="logos_row" transform="translate(52.000000, 469.000000)">
                    <g id="erasmus_logo" transform="translate(1.000000, 55.000000)">
                        <polyline id="Fill-1" fill="#FFFFFF" points="73 36 61 36 61 18 73 18 73 20.1276326 63.4219319 20.1276326 63.4219319 25.0600063 73 25.0600063 73 27.1874272 63.4219319 27.1874272 63.4219319 33.8725791 73 33.8725791 73 36"></polyline>
                        <path d="M83,24.3860334 L82.8852463,24.3860334 C82.5638958,24.3083941 82.2521918,24.2523552 81.9499334,24.2173054 C81.6474741,24.1822557 81.289748,24.1647308 80.8767553,24.1647308 C80.2109428,24.1647308 79.5682418,24.3143036 78.9484513,24.612838 C78.3284598,24.9117799 77.7315799,25.2977349 77.1578114,25.7711106 L77.1578114,35 L75,35 L75,22 L77.1578114,22 L77.1578114,23.9204013 C78.0147462,23.2222588 78.7703921,22.7274865 79.4247494,22.4364919 C80.0789057,22.1457011 80.746326,22 81.4276132,22 C81.8024217,22 82.0741327,22.0099851 82.2425453,22.029344 C82.4107569,22.0484991 82.6631748,22.0855866 83,22.1395877 L83,24.3860334" id="Fill-2" fill="#FFFFFF"></path>
                        <path d="M93.635203,32.354121 L93.635203,28.6485762 C92.9103321,28.6880057 92.0568266,28.7480889 91.0749077,28.826948 C90.0925461,28.906433 89.3149815,29.021801 88.7417712,29.1726347 C88.0589668,29.3555963 87.5067897,29.6395309 87.0852399,30.0246472 C86.66369,30.4099721 86.4531365,30.9400808 86.4531365,31.6153903 C86.4531365,32.3776953 86.6975646,32.9518232 87.1866421,33.3369395 C87.6754982,33.7222644 88.4214022,33.914614 89.424797,33.914614 C90.2590406,33.914614 91.022214,33.7619026 91.7134317,33.4562713 C92.404428,33.1502228 93.0451661,32.783048 93.635203,32.354121 Z M96,35.6305303 L93.635203,35.6305303 L93.635203,34.2129435 C93.424428,34.3477134 93.1401476,34.5365163 92.7819188,34.7785179 C92.4234686,35.0209367 92.0758672,35.2137035 91.7386716,35.3566096 C91.3423616,35.5391539 90.8869373,35.6920739 90.3730627,35.8151609 C89.8587454,35.9384565 89.2558672,36 88.5648708,36 C87.2918081,36 86.2129151,35.6027836 85.3277491,34.8085595 C84.442583,34.0141267 84,33.0014753 84,31.7701879 C84,30.7612917 84.2295941,29.9451622 84.6892251,29.3217995 C85.1484133,28.6982282 85.8037638,28.2077578 86.6554982,27.8503882 C87.5154244,27.4926014 88.5478229,27.2505998 89.7533579,27.1233403 C90.958893,26.9962895 92.2527675,26.9009492 93.635203,26.8373195 L93.635203,26.4918414 C93.635203,25.9838467 93.5406642,25.5624301 93.3509225,25.2286349 C93.1611808,24.8954655 92.8892989,24.6330189 92.5352768,24.4423384 C92.1980812,24.2597941 91.7933579,24.136707 91.3213284,24.0730773 C90.8490775,24.0096562 90.3560148,23.977737 89.8419188,23.977737 C89.2180074,23.977737 88.522583,24.0551358 87.7556458,24.210142 C86.9882657,24.3649396 86.1958672,24.5894169 85.3784502,24.8831567 L85.2518081,24.8831567 L85.2518081,22.6075074 C85.7154244,22.4885928 86.3853875,22.3573696 87.2623616,22.2142548 C88.138893,22.0713487 89.0030258,22 89.8545387,22 C90.8490775,22 91.7154244,22.0773988 92.4531365,22.2321963 C93.1906273,22.3869939 93.8291513,22.6515267 94.3687085,23.0247515 C94.8998524,23.3902574 95.3045756,23.8629949 95.5826568,24.4423384 C95.860738,25.0225163 96,25.7412192 96,26.5990731 L96,35.6305303 L96,35.6305303 Z" id="Fill-3" fill="#FFFFFF"></path>
                        <path d="M110,31.8271505 C110,33.0467262 109.468753,34.0473392 108.406037,34.8281523 C107.343321,35.6093841 105.892318,36 104.052808,36 C103.011051,36 102.055556,35.8821454 101.186322,35.6470641 C100.316867,35.4119828 99.5879462,35.1553402 99,34.8760897 L99,32.3534144 L99.1261933,32.3534144 C99.8736462,32.8874236 100.705375,33.3117421 101.620939,33.6265793 C102.536502,33.9418353 103.41412,34.0988352 104.254452,34.0988352 C105.295989,34.0988352 106.11073,33.9397419 106.698676,33.620718 C107.286623,33.3019034 107.580706,32.7999222 107.580706,32.1141464 C107.580706,31.5885106 107.420979,31.1897307 107.101966,30.9186441 C106.782732,30.6479762 106.169635,30.4166629 105.262234,30.2253323 C104.926233,30.1537403 104.487425,30.070007 103.945588,29.9743417 C103.403751,29.8786764 102.910229,29.7750564 102.465243,29.6634818 C101.230445,29.3524126 100.354593,28.8964847 99.8379061,28.2946515 C99.32144,27.6928184 99.0633173,26.9536626 99.0633173,26.0765562 C99.0633173,25.5266377 99.1828921,25.0087471 99.4222623,24.5226753 C99.6616326,24.0363941 100.024769,23.6018182 100.512114,23.2195757 C100.982471,22.8446598 101.581007,22.5478252 102.307722,22.3286532 C103.034216,22.1094813 103.846751,22 104.745548,22 C105.58566,22 106.436141,22.0977586 107.297212,22.2926479 C108.158063,22.4881652 108.874188,22.7253398 109.445588,23.0041717 L109.445588,25.4073177 L109.319615,25.4073177 C108.714902,24.9850925 107.979803,24.6281792 107.114541,24.3374153 C106.249278,24.0462327 105.401003,23.9007461 104.569495,23.9007461 C103.704232,23.9007461 102.973325,24.0581647 102.376996,24.373002 C101.780445,24.6882579 101.48217,25.1563271 101.48217,25.7778376 C101.48217,26.3277561 101.662856,26.742236 102.024007,27.0210679 C102.376996,27.3003185 102.948175,27.5276544 103.737766,27.702657 C104.174589,27.7983223 104.663698,27.8939876 105.205535,27.989653 C105.747373,28.0853183 106.198757,28.1732382 106.560128,28.2525755 C107.660349,28.4918435 108.508845,28.9021367 109.105395,29.4840832 C109.701725,30.0739844 110,30.8550068 110,31.8271505" id="Fill-4" fill="#FFFFFF"></path>
                        <path d="M130,36 L127.808634,36 L127.808634,28.2440021 C127.808634,27.6585068 127.783327,27.0935103 127.732915,26.5487989 C127.6823,26.0040875 127.575354,25.5691299 127.412282,25.2439259 C127.233291,24.8943796 126.976948,24.6304583 126.643049,24.4510943 C126.308742,24.2725845 125.827078,24.1829025 125.19765,24.1829025 C124.583528,24.1829025 123.969611,24.3434759 123.355898,24.6646229 C122.741981,24.9861969 122.128064,25.3944635 121.514147,25.8902768 C121.537414,26.0775414 121.556803,26.2949134 121.572518,26.5426066 C121.587825,26.7907268 121.595785,27.0367117 121.595785,27.2807748 L121.595785,36 L119.404419,36 L119.404419,28.2440021 C119.404419,27.6422787 119.379111,27.0713033 119.3287,26.5304354 C119.278085,25.9899947 119.171139,25.5571723 119.008067,25.2317547 C118.82928,24.8822085 118.572733,24.6199954 118.23863,24.4451155 C117.904527,24.2704492 117.422863,24.1829025 116.793435,24.1829025 C116.194825,24.1829025 115.594582,24.3377107 114.992502,24.6462594 C114.390218,24.9552353 113.789772,25.349836 113.19157,25.8294212 L113.19157,36 L111,36 L111,22.3779456 L113.19157,22.3779456 L113.19157,23.8901548 C113.875287,23.297186 114.557168,22.833402 115.237212,22.5000839 C115.917052,22.1669793 116.641792,22 117.411025,22 C118.297001,22 119.048886,22.1951651 119.666681,22.5854953 C120.284272,22.975612 120.74471,23.5164798 121.047995,24.2074582 C121.93397,23.4267978 122.741981,22.8641501 123.472436,22.5184473 C124.202892,22.1727446 124.983758,22 125.815241,22 C127.245129,22 128.300095,22.4533211 128.980138,23.3595363 C129.659978,24.2663921 130,25.532403 130,27.1586365 L130,36" id="Fill-5" fill="#FFFFFF"></path>
                        <path d="M145,35.6218467 L142.785895,35.6218467 L142.785895,34.1096605 C142.039612,34.7192752 141.325497,35.1873227 140.642315,35.5120947 C139.959339,35.8375072 139.205425,36 138.380987,36 C136.999156,36 135.923345,35.5629137 135.154172,34.6889546 C134.38438,33.8152091 134,32.5327761 134,30.8416557 L134,22 L136.213899,22 L136.213899,29.7560931 C136.213899,30.447061 136.245449,31.0385261 136.308138,31.5307019 C136.371033,32.0222371 136.504452,32.4430955 136.708809,32.7926364 C136.920589,33.1505048 137.195471,33.4105787 137.533041,33.5732849 C137.870611,33.7359912 138.361397,33.8169173 139.005399,33.8169173 C139.578258,33.8169173 140.204525,33.6625385 140.88379,33.3535674 C141.562848,33.0448098 142.196952,32.6504286 142.785895,32.1708507 L142.785895,22 L145,22 L145,35.6218467" id="Fill-6" fill="#FFFFFF"></path>
                        <path d="M159,31.8271505 C159,33.0467262 158.468742,34.0473392 157.406226,34.8281523 C156.343268,35.6093841 154.892236,36 153.052689,36 C152.010911,36 151.055396,35.8821454 150.186145,35.6470641 C149.316894,35.4119828 148.587958,35.1553402 148,34.8760897 L148,32.3534144 L148.125975,32.3534144 C148.873664,32.8874236 149.705189,33.3117421 150.620991,33.6265793 C151.536353,33.9418353 152.414208,34.0988352 153.254337,34.0988352 C154.295894,34.0988352 155.110652,33.9397419 155.69861,33.620718 C156.286568,33.3019034 156.580657,32.7999222 156.580657,32.1141464 C156.580657,31.5885106 156.421148,31.1897307 156.101907,30.9186441 C155.782667,30.6479762 155.169558,30.4166629 154.26236,30.2253323 C153.926132,30.1537403 153.487535,30.070007 152.945687,29.9743417 C152.403839,29.8786764 151.910086,29.7750564 151.465092,29.6634818 C150.230269,29.3524126 149.354399,28.8964847 148.837923,28.2946515 C148.321226,27.6928184 148.063098,26.9536626 148.063098,26.0765562 C148.063098,25.5266377 148.182675,25.0087471 148.42205,24.5226753 C148.661646,24.0363941 149.024569,23.6018182 149.511924,23.2195757 C149.98229,22.8446598 150.580838,22.5478252 151.307567,22.3286532 C152.034076,22.1094813 152.846848,22 153.745663,22 C154.585571,22 155.43607,22.0977586 156.297158,22.2926479 C157.158246,22.4881652 157.874386,22.7253398 158.445797,23.0041717 L158.445797,25.4073177 L158.319601,25.4073177 C157.714876,24.9850925 156.979763,24.6281792 156.114483,24.3374153 C155.249203,24.0462327 154.401131,23.9007461 153.569386,23.9007461 C152.704106,23.9007461 151.973405,24.0581647 151.376843,24.373002 C150.78028,24.6882579 150.48222,25.1563271 150.48222,25.7778376 C150.48222,26.3277561 150.662689,26.742236 151.024068,27.0210679 C151.376843,27.3003185 151.948033,27.5276544 152.73764,27.702657 C153.174472,27.7983223 153.663812,27.8939876 154.20566,27.989653 C154.747508,28.0853183 155.198901,28.1732382 155.560059,28.2525755 C156.660523,28.4918435 157.508815,28.9021367 158.105598,29.4840832 C158.701939,30.0739844 159,30.8550068 159,31.8271505" id="Fill-7" fill="#FFFFFF"></path>
                        <polyline id="Fill-8" fill="#FFFFFF" points="177 28.4598899 170.491162 28.4598899 170.491162 35 168.508629 35 168.508629 28.4598899 162 28.4598899 162 26.5396899 168.508629 26.5396899 168.508629 20 170.491162 20 170.491162 26.5396899 177 26.5396899 177 28.4598899"></polyline>
                        <polygon id="Fill-9" fill="#FFFFFF" points="0 36 53 36 53 0 0 0"></polygon>
                        <polyline id="Fill-10" fill="#3A575F" points="27.0023371 3 27.4699794 4.15191576 29 4.14682656 27.7564409 4.85247148 28.2369929 5.99929804 27.0023371 5.28505411 25.7647877 6 26.2453397 4.85247148 25 4.14682656 26.5326916 4.15191576 27.0023371 3"></polyline>
                        <polyline id="Fill-11" fill="#3A575F" points="21.0022257 5 21.4700645 6.15174027 23 6.14682656 21.7565101 6.85229599 22.2368128 7.99929804 21.0022257 7.28487862 19.7649677 8 20.245493 6.85229599 19 6.14682656 20.5328288 6.15174027 21.0022257 5"></polyline>
                        <polyline id="Fill-12" fill="#3A575F" points="17.0024483 9 17.469842 10.1516729 19 10.1467595 17.7565101 10.8521876 18.2368128 11.9991226 17.0022257 11.2845695 15.7649677 12 16.245493 10.8523631 15 10.1467595 16.5328288 10.1518484 17.0024483 9"></polyline>
                        <polyline id="Fill-13" fill="#3A575F" points="15.0024483 16 15.469842 17.1517403 17 17.1468266 15.7565101 17.8521205 16.2368128 18.9991226 15.0022257 18.2847031 13.7649677 19 14.245493 17.8524715 13 17.1468266 14.5328288 17.1519158 15.0024483 16"></polyline>
                        <polyline id="Fill-14" fill="#3A575F" points="17.0025594 22 17.4699271 23.151781 19 23.1468679 17.7563568 23.8520793 18.2366327 24.9991227 17.0021143 24.2847868 15.7649252 25 16.2456462 23.8526057 15 23.1466924 16.5329661 23.1519565 17.0025594 22"></polyline>
                        <polyline id="Fill-15" fill="#3A575F" points="21.0025594 26 21.4699271 27.1520239 23 27.1467595 21.7563568 27.8521876 22.2366327 28.9992981 21.0021143 28.284745 19.7647026 29 20.2456462 27.8525386 19 27.1467595 20.5331887 27.1520239 21.0025594 26"></polyline>
                        <polyline id="Fill-16" fill="#3A575F" points="27.0024483 28 27.469842 29.1518484 29 29.1467595 27.7562876 29.8521876 28.2368128 30.9992981 27.0020031 30.2845695 25.7645226 31 26.2452704 29.8525386 25 29.1467595 26.5330514 29.1518484 27.0024483 28"></polyline>
                        <polyline id="Fill-17" fill="#3A575F" points="33.0025594 26 33.4697046 27.1518077 35 27.1465426 33.7559116 27.8520534 34.2366327 28.9994735 33.0021143 28.2846613 31.7647026 29 32.2454237 27.8524044 31 27.1465426 32.5331887 27.1518077 33.0025594 26"></polyline>
                        <polyline id="Fill-18" fill="#3A575F" points="37.0026708 22 37.4696194 23.1518484 39 23.1467595 37.756065 23.8521876 38.2368128 24.9992981 37.0022257 24.284745 35.7647452 25 36.245493 23.8525386 35 23.1467595 36.533274 23.1518484 37.0026708 22"></polyline>
                        <polyline id="Fill-19" fill="#3A575F" points="39.002782 16 39.4697046 17.1515648 41 17.1468266 39.7561342 17.8521205 40.2368553 18.999298 39.0021143 18.2847031 37.7647026 19 38.2456462 17.8524715 37 17.1468266 38.5334112 17.1515648 39.002782 16"></polyline>
                        <polyline id="Fill-20" fill="#3A575F" points="37.0027823 9 37.4697568 10.1516055 39 10.1468679 37.7559958 10.8522548 38.2369929 11.9991227 37.0021145 11.2846113 35.7645651 12 36.2455623 10.8524303 35 10.1465169 36.5333593 10.1516055 37.0027823 9"></polyline>
                        <polyline id="Fill-21" fill="#3A575F" points="33.0030048 5 33.4699794 6.15149743 35 6.14675948 33.7562184 6.85218765 34.2369929 7.9991226 33.0025597 7.28456949 31.7647877 8 32.2460075 6.85236313 31 6.146584 32.5333593 6.15149743 33.0030048 5"></polyline>
                    </g>
                </g>
            </g>
        </g>
    </g>
</svg>