<?xml version="1.0" encoding="UTF-8"?>
<svg width="20px" height="25px" viewBox="0 0 20 25" version="1.1" xmlns="http://www.w3.org/2000/svg" xmlns:xlink="http://www.w3.org/1999/xlink">
    <!-- Generator: Sketch 49.3 (51167) - http://www.bohemiancoding.com/sketch -->
    <title>format_web_20x25px</title>
    <desc>Created with Sketch.</desc>
    <defs></defs>
    <g id="format_web_20x25px" stroke="none" stroke-width="1" fill="none" fill-rule="evenodd">
        <path d="M9.5,22 C4.25329488,22 0,17.7467051 0,12.5 C0,7.25329488 4.25329488,3 9.5,3 C14.7467051,3 19,7.25329488 19,12.5 C19,17.7467051 14.7467051,22 9.5,22 Z" id="Path" fill="#354959"></path>
        <path d="M9.5,21 C14.1944204,21 18,17.1944204 18,12.5 C18,7.80557963 14.1944204,4 9.5,4 C4.80557963,4 1,7.80557963 1,12.5 C1,17.1944204 4.80557963,21 9.5,21 Z" id="Path" fill="#354959"></path>
        <path d="M9.5,21 C14.1944204,21 18,17.1944204 18,12.5 C18,7.80557963 14.1944204,4 9.5,4 C4.80557963,4 1,7.80557963 1,12.5 C1,17.1944204 4.80557963,21 9.5,21 Z" id="Path-Copy" fill="#FFFFFF"></path>
        <polygon id="Line" fill="#354959" fill-rule="nonzero" points="1 13 1 12 18 12 18 13"></polygon>
        <polygon id="Line" fill="#354959" fill-rule="nonzero" points="9 4 10 4 10 21 9 21"></polygon>
        <path d="M10.9225299,10.6489506 C9.67948065,12.7453228 9.05936214,15.0348702 9.05936214,17.5252589 C9.05936214,19.9417587 9.64322981,22.1691724 10.8135511,24.2144941 C11.2584841,24.9920849 10.7851183,24.0798966 10.6484053,24.2144941 C10.4255179,24.4339327 10.2386236,25.2961816 10.0005919,24.8949935 C8.66781094,22.6486711 8,20.1895317 8,17.5252589 C8,14.8309987 8.6829292,12.3465 10.0458686,10.0797201 C10.2372176,9.76147701 10.4300335,10.4880468 10.6484053,10.6489506 C10.8509893,10.7982213 11.0939316,10.3598858 10.9225299,10.6489506 Z" id="Path-2-Copy-2" fill="#354959" fill-rule="nonzero" transform="translate(9.500000, 17.500000) rotate(90.000000) translate(-9.500000, -17.500000) "></path>
        <path d="M10.9225299,0.648950604 C9.67948065,2.74532276 9.05936214,5.0348702 9.05936214,7.5252589 C9.05936214,9.9417587 9.64322981,12.1691724 10.8135511,14.2144941 C11.2584841,14.9920849 10.7851183,14.0798966 10.6484053,14.2144941 C10.4255179,14.4339327 10.2386236,15.2961816 10.0005919,14.8949935 C8.66781094,12.6486711 8,10.1895317 8,7.5252589 C8,4.83099869 8.6829292,2.34650005 10.0458686,0.0797200536 C10.2372176,-0.238522994 10.4300335,0.488046822 10.6484053,0.648950604 C10.8509893,0.798221327 11.0939316,0.359885761 10.9225299,0.648950604 Z" id="Path-2-Copy-3" fill="#354959" fill-rule="nonzero" transform="translate(9.500000, 7.500000) scale(1, -1) rotate(90.000000) translate(-9.500000, -7.500000) "></path>
        <path d="M9.27155764,3 L10,3.7181778 C7.34634534,6.33443952 6.03017307,9.2540979 6.03017307,12.5 C6.03017307,15.7459021 7.34634534,18.6655605 10,21.2818222 L9.27155764,22 C6.43095592,19.1994255 5,16.0251432 5,12.5 C5,8.97485685 6.43095592,5.80057449 9.27155764,3 Z" id="Path-2" fill="#354959" fill-rule="nonzero"></path>
        <path d="M13.2715576,3 L14,3.7181778 C11.3463453,6.33443952 10.0301731,9.2540979 10.0301731,12.5 C10.0301731,15.7459021 11.3463453,18.6655605 14,21.2818222 L13.2715576,22 C10.4309559,19.1994255 9,16.0251432 9,12.5 C9,8.97485685 10.4309559,5.80057449 13.2715576,3 Z" id="Path-2-Copy" fill="#354959" fill-rule="nonzero" transform="translate(11.500000, 12.500000) scale(-1, 1) translate(-11.500000, -12.500000) "></path>
    </g>
</svg>