<?xml version="1.0" encoding="UTF-8"?>
<svg width="44px" height="54px" viewBox="0 0 44 54" version="1.1" xmlns="http://www.w3.org/2000/svg" xmlns:xlink="http://www.w3.org/1999/xlink">
    <!-- Generator: Sketch 49 (51002) - http://www.bohemiancoding.com/sketch -->
    <title>format_web_44x54px</title>
    <desc>Created with Sketch.</desc>
    <defs></defs>
    <g id="format_web_44x54px" stroke="none" stroke-width="1" fill="none" fill-rule="evenodd">
        <g id="website_icon" transform="translate(0.500000, 5.500000)">
            <path d="M22,43.5 C10.1258779,43.5 0.5,33.8741221 0.5,22 C0.5,10.1258779 10.1258779,0.5 22,0.5 C33.8741221,0.5 43.5,10.1258779 43.5,22 C43.5,33.8741221 33.8741221,43.5 22,43.5 Z M22,42.5 C33.3218374,42.5 42.5,33.3218374 42.5,22 C42.5,10.6781626 33.3218374,1.5 22,1.5 C10.6781626,1.5 1.5,10.6781626 1.5,22 C1.5,33.3218374 10.6781626,42.5 22,42.5 Z" id="Oval-3" fill="#354959" fill-rule="nonzero"></path>
            <path d="M22,42.5 C33.3218374,42.5 42.5,33.3218374 42.5,22 C42.5,10.6781626 33.3218374,1.5 22,1.5 C10.6781626,1.5 1.5,10.6781626 1.5,22 C1.5,33.3218374 10.6781626,42.5 22,42.5 Z" id="Path-Copy" fill="#FFFFFF"></path>
            <polygon id="Line" fill="#354959" fill-rule="nonzero" points="1.5 22.5 1 22.5 1 21.5 43 21.5 43 22.5 42.5 22.5"></polygon>
            <polygon id="Line" fill="#354959" fill-rule="nonzero" points="21.5 1.5 22.5 1.5 22.5 42.5 21.5 42.5"></polygon>
            <path d="M21.7132688,0.59038404 L22.2867312,1.40961596 C22.2171688,1.45830965 22.0792206,1.56131091 21.88266,1.7185594 C21.5505711,1.98423055 21.1793178,2.30407957 20.7786591,2.67802763 C19.6301529,3.74996682 18.4803375,5.03775998 17.4068667,6.5406191 C14.3394778,10.8349635 12.5,15.9855015 12.5,22 C12.5,28.0144985 14.3394778,33.1650365 17.4068667,37.4593809 C18.4803375,38.96224 19.6301529,40.2500332 20.7786591,41.3219724 C21.1793178,41.6959204 21.5505711,42.0157694 21.88266,42.2814406 C22.0792206,42.4386891 22.2171688,42.5416904 22.2867312,42.590384 L21.7132688,43.409616 C21.6265812,43.3489346 21.4715606,43.2331859 21.257965,43.0623094 C20.9064602,42.7811056 20.5159947,42.4447046 20.0963409,42.0530276 C18.9010971,40.9374668 17.7071625,39.60026 16.5931333,38.0406191 C13.4105222,33.5849635 11.5,28.2355015 11.5,22 C11.5,15.7644985 13.4105222,10.4150365 16.5931333,5.9593809 C17.7071625,4.39974002 18.9010971,3.06253318 20.0963409,1.94697237 C20.5159947,1.55529543 20.9064602,1.21889445 21.257965,0.937690595 C21.4715606,0.766814087 21.6265812,0.651065352 21.7132688,0.59038404 Z" id="Path-13" fill="#354959" fill-rule="nonzero"></path>
            <path d="M31.7132688,0.59038404 L32.2867312,1.40961596 C32.2171688,1.45830965 32.0792206,1.56131091 31.88266,1.7185594 C31.5505711,1.98423055 31.1793178,2.30407957 30.7786591,2.67802763 C29.6301529,3.74996682 28.4803375,5.03775998 27.4068667,6.5406191 C24.3394778,10.8349635 22.5,15.9855015 22.5,22 C22.5,28.0144985 24.3394778,33.1650365 27.4068667,37.4593809 C28.4803375,38.96224 29.6301529,40.2500332 30.7786591,41.3219724 C31.1793178,41.6959204 31.5505711,42.0157694 31.88266,42.2814406 C32.0792206,42.4386891 32.2171688,42.5416904 32.2867312,42.590384 L31.7132688,43.409616 C31.6265812,43.3489346 31.4715606,43.2331859 31.257965,43.0623094 C30.9064602,42.7811056 30.5159947,42.4447046 30.0963409,42.0530276 C28.9010971,40.9374668 27.7071625,39.60026 26.5931333,38.0406191 C23.4105222,33.5849635 21.5,28.2355015 21.5,22 C21.5,15.7644985 23.4105222,10.4150365 26.5931333,5.9593809 C27.7071625,4.39974002 28.9010971,3.06253318 30.0963409,1.94697237 C30.5159947,1.55529543 30.9064602,1.21889445 31.257965,0.937690595 C31.4715606,0.766814087 31.6265812,0.651065352 31.7132688,0.59038404 Z" id="Path-13-Copy" fill="#354959" fill-rule="nonzero" transform="translate(26.893366, 22.000000) scale(-1, 1) translate(-26.893366, -22.000000) "></path>
            <path d="M6.58116404,8.38515396 L7.21883615,7.61484604 C7.25978369,7.64874301 7.34621966,7.71688869 7.47663778,7.81440276 C7.69771519,7.97970311 7.95980278,8.16465255 8.26138722,8.36437734 C9.12694669,8.93759552 10.1326444,9.51175499 11.2663044,10.048018 C14.5063479,11.580678 18.115606,12.5 22.0000005,12.5 C25.884395,12.5 29.493653,11.580678 32.7336966,10.048018 C33.8673565,9.51175499 34.8730543,8.93759552 35.7386137,8.36437734 C36.0401982,8.16465255 36.3022858,7.97970311 36.5233632,7.81440276 C36.6537813,7.71688869 36.7402173,7.64874301 36.7811648,7.61484604 L37.4188369,8.38515396 C37.3654095,8.42938199 37.2660446,8.50772069 37.1221854,8.61528474 C36.8861339,8.79178127 36.6085144,8.9876912 36.2907629,9.19812266 C35.3867911,9.79677948 34.3398326,10.394495 33.1613049,10.951982 C29.7950983,12.544322 26.0431062,13.5 22.0000005,13.5 C17.9568948,13.5 14.2049027,12.544322 10.838696,10.951982 C9.66016839,10.394495 8.61320985,9.79677948 7.70923802,9.19812266 C7.39148652,8.9876912 7.11386706,8.79178127 6.87781555,8.61528474 C6.73395632,8.50772069 6.6345915,8.42938199 6.58116404,8.38515396 Z" id="Path-14" fill="#354959" fill-rule="nonzero"></path>
            <path d="M6.6799078,32.3841106 L7.3200922,31.6158894 C7.36073502,31.6497584 7.44656239,31.7178753 7.57607747,31.8153598 C7.79564312,31.9806243 8.05594369,32.1655372 8.3554751,32.3652249 C9.21515204,32.9383428 10.2140174,33.5124034 11.3399668,34.0485697 C14.5578582,35.580899 18.1423522,36.5 22,36.5 C25.8576478,36.5 29.4421418,35.580899 32.6600332,34.0485697 C33.7859826,33.5124034 34.784848,32.9383428 35.6445249,32.3652249 C35.9440563,32.1655372 36.2043569,31.9806243 36.4239225,31.8153598 C36.5534376,31.7178753 36.639265,31.6497584 36.6799078,31.6158894 L37.3200922,32.3841106 C37.266985,32.4283666 37.1682421,32.506734 37.0252962,32.6143277 C36.7907603,32.7908601 36.5149281,32.9868065 36.1992251,33.1972751 C35.3010895,33.7960322 34.2608924,34.3938466 33.0899668,34.9514303 C29.7453582,36.544101 26.0173522,37.5 22,37.5 C17.9826478,37.5 14.2546418,36.544101 10.9100332,34.9514303 C9.73910762,34.3938466 8.69891046,33.7960322 7.8007749,33.1972751 C7.48507194,32.9868065 7.20923969,32.7908601 6.97470378,32.6143277 C6.83175792,32.506734 6.73301498,32.4283666 6.6799078,32.3841106 Z" id="Path-14-Copy" fill="#354959" fill-rule="nonzero" transform="translate(22.000000, 34.557945) scale(1, -1) translate(-22.000000, -34.557945) "></path>
        </g>
    </g>
</svg>