<svg xmlns="http://www.w3.org/2000/svg" width="13" height="12" viewBox="0 0 13 12">
    <g fill="#394E5E" fill-rule="nonzero" stroke="#394E5E">
        <path d="M6.652 10.65l.04-.04-5.039-4.831c-.06-.039-.06-.134 0-.192L6.693.774 6.651.736a.138.138 0 0 0-.201 0L1.353 5.587c-.06.058-.06.153 0 .192l5.098 4.87c.06.058.14.058.2 0zM12.652 10.65l.04-.04-5.039-4.831c-.06-.039-.06-.134 0-.192l5.04-4.813-.041-.038a.138.138 0 0 0-.201 0L7.353 5.587c-.06.058-.06.153 0 .192l5.098 4.87c.06.058.14.058.2 0z"/>
    </g>
</svg>
