<svg xmlns="http://www.w3.org/2000/svg" width="12" height="12" viewBox="0 0 12 12">
    <g fill="#394E5E" fill-rule="nonzero" stroke="#394E5E">
        <path d="M.348.735l-.04.04 5.039 4.831c.06.038.06.134 0 .192L.307 10.61l.041.038c.06.058.141.058.201 0l5.098-4.852c.06-.057.06-.153 0-.191L.549.736a.139.139 0 0 0-.2 0z"/>
        <path d="M5.348.735l-.04.04 5.039 4.831c.06.038.06.134 0 .192l-5.04 4.813.041.038c.06.058.141.058.201 0l5.098-4.852c.06-.057.06-.153 0-.191L5.549.736a.139.139 0 0 0-.2 0z"/>
    </g>
</svg>
