<?xml version="1.0" encoding="UTF-8"?>
<svg width="44px" height="54px" viewBox="0 0 44 54" version="1.1" xmlns="http://www.w3.org/2000/svg" xmlns:xlink="http://www.w3.org/1999/xlink">
    <!-- Generator: Sketch 48.2 (47327) - http://www.bohemiancoding.com/sketch -->
    <title>itinerari_44x54px</title>
    <desc>Created with Sketch.</desc>
    <defs></defs>
    <g id="Page-1" stroke="none" stroke-width="1" fill="none" fill-rule="evenodd">
        <g id="itinerari_44x54px" stroke="#354959">
            <g id="itinerari_icon" transform="translate(1.000000, 7.000000)">
                <path d="M36,14.5 L25.5750675,14.5 C21.943758,14.5 19,17.1862915 19,20.5 C19,23.8137085 21.943758,26.5 25.5750675,26.5 L27.858077,26.5 C31.851127,26.5 35,29.6340068 35,33.5 C35,37.3659932 31.851127,40.5 27.9667954,40.5 L6,40.5" id="Oval-3" stroke-linecap="round"></path>
                <g id="pin" transform="translate(0.500000, 26.500000)">
                    <path d="M5.27272727,0 C2.35721925,0 0,2.35721925 0,5.27272727 C0,9.70802139 4.86951872,13.4299465 5.08663102,13.5850267 C5.1486631,13.6160428 5.21069519,13.6470588 5.27272727,13.6470588 C5.33475936,13.6470588 5.39679144,13.6160428 5.45882353,13.5850267 C5.67593583,13.4299465 10.5454545,9.70802139 10.5454545,5.27272727 C10.5454545,2.35721925 8.18823529,0 5.27272727,0 Z" id="icona_centre_suport-copy-2" fill="#FFFFFF" fill-rule="nonzero" transform="translate(5.272727, 6.823529) scale(-1, 1) translate(-5.272727, -6.823529) "></path>
                    <path d="M5.27272727,3.10160428 C4.0631016,3.10160428 3.10160428,4.0631016 3.10160428,5.27272727 C3.10160428,6.48235294 4.0631016,7.44385027 5.27272727,7.44385027 C6.48235294,7.44385027 7.44385027,6.48235294 7.44385027,5.27272727 C7.44385027,4.0631016 6.48235294,3.10160428 5.27272727,3.10160428 Z" id="Path" fill="#B9D5EA" transform="translate(5.272727, 5.272727) scale(-1, 1) translate(-5.272727, -5.272727) "></path>
                </g>
                <g id="pin-copy" transform="translate(31.000000, 0.500000)">
                    <path d="M5.27272727,0 C2.35721925,0 0,2.35721925 0,5.27272727 C0,9.70802139 4.86951872,13.4299465 5.08663102,13.5850267 C5.1486631,13.6160428 5.21069519,13.6470588 5.27272727,13.6470588 C5.33475936,13.6470588 5.39679144,13.6160428 5.45882353,13.5850267 C5.67593583,13.4299465 10.5454545,9.70802139 10.5454545,5.27272727 C10.5454545,2.35721925 8.18823529,0 5.27272727,0 Z" id="icona_centre_suport-copy-3" fill="#FFFFFF" fill-rule="nonzero" transform="translate(5.272727, 6.823529) scale(-1, 1) translate(-5.272727, -6.823529) "></path>
                    <path d="M5.27272727,3.10160428 C4.0631016,3.10160428 3.10160428,4.0631016 3.10160428,5.27272727 C3.10160428,6.48235294 4.0631016,7.44385027 5.27272727,7.44385027 C6.48235294,7.44385027 7.44385027,6.48235294 7.44385027,5.27272727 C7.44385027,4.0631016 6.48235294,3.10160428 5.27272727,3.10160428 Z" id="Path" fill="#B9D5EA" transform="translate(5.272727, 5.272727) scale(-1, 1) translate(-5.272727, -5.272727) "></path>
                </g>
            </g>
        </g>
    </g>
</svg>