<?xml version="1.0" encoding="UTF-8"?>
<svg width="34px" height="44px" viewBox="0 0 34 44" version="1.1" xmlns="http://www.w3.org/2000/svg" xmlns:xlink="http://www.w3.org/1999/xlink">
    <!-- Generator: Sketch 48.2 (47327) - http://www.bohemiancoding.com/sketch -->
    <title>itinerari_34x44px</title>
    <desc>Created with Sketch.</desc>
    <defs></defs>
    <g id="Page-1" stroke="none" stroke-width="1" fill="none" fill-rule="evenodd">
        <g id="itinerari_34x44px" stroke="#354959">
            <g id="itinerari_icon" transform="translate(1.000000, 5.000000)">
                <path d="M27.5,12.5 L19.703626,12.5 C16.7639946,12.5 14.4689625,14.9603312 14.4689625,17.6428571 C14.4689625,20.3253831 16.8520047,22.5 19.7916361,22.5 L21.6397867,22.5 C24.8722558,22.5 27.4213434,25.0370531 27.4213434,28.1666667 C27.4213434,31.2962802 24.7842457,33.547619 21.6397867,33.547619 L4.5,33.547619" id="Oval-3" stroke-linecap="round"></path>
                <g id="pin" transform="translate(0.000000, 22.000000)">
                    <path d="M4.31404959,0 C1.92863393,0 0,1.93628724 0,4.33116883 C0,7.97444614 3.98415168,11.0317418 4.16178901,11.1591291 C4.21254254,11.1846066 4.26329606,11.210084 4.31404959,11.210084 C4.36480311,11.210084 4.41555664,11.1846066 4.46631016,11.1591291 C4.6439475,11.0317418 8.62809917,7.97444614 8.62809917,4.33116883 C8.62809917,1.93628724 6.69946524,0 4.31404959,0 Z" id="icona_centre_suport-copy-2" fill="#FFFFFF" fill-rule="nonzero" transform="translate(4.314050, 5.605042) scale(-1, 1) translate(-4.314050, -5.605042) "></path>
                    <path d="M4.25,2.5 C3.275,2.5 2.5,3.275 2.5,4.25 C2.5,5.225 3.275,6 4.25,6 C5.225,6 6,5.225 6,4.25 C6,3.275 5.225,2.5 4.25,2.5 Z" id="Path" fill="#B9D5EA" transform="translate(4.250000, 4.250000) scale(-1, 1) translate(-4.250000, -4.250000) "></path>
                </g>
                <g id="pin-copy" transform="translate(23.500000, 0.500000)">
                    <path d="M4.31404959,0 C1.92863393,0 0,2.02047364 0,4.51948052 C0,8.32116119 3.98415168,11.5113827 4.16178901,11.6443086 C4.21254254,11.6708938 4.26329606,11.697479 4.31404959,11.697479 C4.36480311,11.697479 4.41555664,11.6708938 4.46631016,11.6443086 C4.6439475,11.5113827 8.62809917,8.32116119 8.62809917,4.51948052 C8.62809917,2.02047364 6.69946524,0 4.31404959,0 Z" id="icona_centre_suport-copy-3" fill="#FFFFFF" fill-rule="nonzero" transform="translate(4.314050, 5.848739) scale(-1, 1) translate(-4.314050, -5.848739) "></path>
                    <path d="M4.25,2.5 C3.275,2.5 2.5,3.275 2.5,4.25 C2.5,5.225 3.275,6 4.25,6 C5.225,6 6,5.225 6,4.25 C6,3.275 5.225,2.5 4.25,2.5 Z" id="Path" fill="#B9D5EA" transform="translate(4.250000, 4.250000) scale(-1, 1) translate(-4.250000, -4.250000) "></path>
                </g>
            </g>
        </g>
    </g>
</svg>