<svg xmlns="http://www.w3.org/2000/svg" width="62" height="27" viewBox="0 0 62 27">
    <g fill="none" fill-rule="evenodd">
        <path fill="#FFF" d="M5.617 4.34V.053H.414V4.34h5.203zM.414 7.27v18.943h5.203V7.27H.414zm12.731 9.49c0 .757.073 1.496.22 2.217.146.72.397 1.368.75 1.942a4 4 0 0 0 1.411 1.373c.587.342 1.32.513 2.199.513.88 0 1.618-.17 2.216-.513a3.955 3.955 0 0 0 1.43-1.373 5.905 5.905 0 0 0 .75-1.942 11.368 11.368 0 0 0 0-4.452 5.702 5.702 0 0 0-.75-1.942 4.166 4.166 0 0 0-1.43-1.374c-.598-.354-1.337-.53-2.216-.53-.88 0-1.612.176-2.199.53a4.219 4.219 0 0 0-1.41 1.374 5.702 5.702 0 0 0-.751 1.942c-.147.733-.22 1.478-.22 2.235zm-5.203 0c0-1.514.232-2.888.696-4.122.465-1.233 1.124-2.284 1.979-3.15.855-.868 1.88-1.54 3.078-2.016 1.196-.476 2.54-.714 4.03-.714 1.49 0 2.84.238 4.048.714 1.21.477 2.241 1.148 3.096 2.015.855.867 1.515 1.918 1.979 3.151.464 1.234.696 2.608.696 4.122 0 1.514-.232 2.882-.696 4.104-.464 1.22-1.124 2.265-1.979 3.132s-1.887 1.533-3.096 1.997c-1.209.464-2.558.696-4.048.696-1.49 0-2.834-.232-4.03-.696a8.655 8.655 0 0 1-3.078-1.997c-.855-.867-1.514-1.911-1.979-3.132-.464-1.222-.696-2.59-.696-4.104zM42.62 13.94h5.092c-.073-1.221-.366-2.278-.879-3.17a7.158 7.158 0 0 0-1.997-2.234 8.654 8.654 0 0 0-2.784-1.338 11.876 11.876 0 0 0-3.243-.44c-1.538 0-2.906.257-4.103.77a8.636 8.636 0 0 0-3.041 2.144c-.83.916-1.46 2.002-1.887 3.26-.427 1.258-.641 2.62-.641 4.086 0 1.416.232 2.717.696 3.902.464 1.184 1.111 2.204 1.942 3.059.83.855 1.838 1.52 3.022 1.997 1.185.476 2.486.714 3.902.714 2.516 0 4.58-.66 6.192-1.978 1.612-1.32 2.59-3.237 2.931-5.753h-5.02c-.17 1.173-.591 2.107-1.263 2.803-.672.696-1.63 1.044-2.876 1.044-.806 0-1.49-.183-2.052-.55a4.105 4.105 0 0 1-1.337-1.41 6.46 6.46 0 0 1-.715-1.923 10.29 10.29 0 0 1 0-4.232 6.33 6.33 0 0 1 .751-1.978 4.513 4.513 0 0 1 1.374-1.466c.562-.379 1.258-.568 2.089-.568 2.222 0 3.505 1.087 3.847 3.26z"/>
        <path fill="#009CD7" d="M55.879 3.574L61.715 7v6.851l-5.836 3.426-5.836-3.426V7z"/>
    </g>
</svg>
