<?xml version="1.0" encoding="UTF-8" standalone="no"?>
<svg width="109px" height="28px" viewBox="0 0 109 28" version="1.1" xmlns="http://www.w3.org/2000/svg" xmlns:xlink="http://www.w3.org/1999/xlink">
    <defs></defs>
    <g id="Page-1" stroke="none" stroke-width="1" fill="none" fill-rule="evenodd">
        <g id="Main-page" transform="translate(-58.000000, -3585.000000)" fill="#7A8E93">
            <g id="footer" transform="translate(0.000000, 2921.000000)">
                <g id="subfooter" transform="translate(0.000000, 642.000000)">
                    <g id="logo_generalitat" transform="translate(58.000000, 22.000000)">
                        <path d="M33.1533918,6.77193896 L37.109037,6.77193896 L37.109037,11.8747212 L35.7904886,11.8747212 L35.5927063,10.6880277 C35.0912184,11.268189 34.3664563,12.1248059 32.639158,12.1248059 C30.3585088,12.1248059 28.2883878,10.4902454 28.2883878,7.16750348 C28.2883878,4.58358816 29.7256055,2.14427364 32.9160531,2.15745912 C35.8168596,2.15745912 36.9635571,4.04298332 37.069041,5.34834622 L35.0912184,5.34834622 C35.0912184,4.97915267 34.4191983,3.79245912 33.021537,3.79245912 C31.6106902,3.79245912 30.3057668,4.76818493 30.3057668,7.19387445 C30.3057668,9.77822929 31.7166136,10.450689 33.0610934,10.450689 C33.4962144,10.450689 34.9466176,10.2792777 35.3553676,8.36738251 L33.1533918,8.36738251 L33.1533918,6.77193896" id="Fill-891"></path>
                        <path d="M42.9497668,9.81778574 C42.8047265,10.3188341 42.2777467,10.5825438 41.7635128,10.5825438 C40.2731136,10.5825438 40.1680692,9.39585025 40.1153273,8.8684309 L44.9275894,8.8684309 L44.9275894,8.5387938 C44.9275894,5.33472122 43.0156942,4.67588654 41.6312184,4.67588654 C38.5594402,4.67588654 38.2693596,7.37847122 38.2693596,8.22234219 C38.2693596,11.1099632 39.7856902,12.059318 41.7635128,12.059318 C42.9629523,12.059318 44.3606136,11.5055277 44.8484765,9.81778574 L42.9497668,9.81778574 Z M40.1680692,7.66855187 C40.2731136,6.745568 40.7350451,6.19177767 41.605287,6.19177767 C42.1981942,6.19177767 42.9238354,6.53460025 43.0293192,7.66855187 L40.1680692,7.66855187 L40.1680692,7.66855187 Z" id="Fill-892"></path>
                        <path d="M52.4956176,11.8747212 L50.6500894,11.8747212 L50.6500894,7.61580993 C50.6500894,7.10157606 50.6232789,6.23133412 49.4497709,6.23133412 C48.6322709,6.23133412 47.9993676,6.78512445 47.9993676,7.85314864 L47.9993676,11.8747212 L46.1538394,11.8747212 L46.1538394,4.86048332 L47.9206942,4.86048332 L47.9206942,5.88895106 L47.9466257,5.88895106 C48.1975894,5.46701558 48.7245692,4.67588654 50.0563031,4.67588654 C51.4275934,4.67588654 52.4956176,5.47976154 52.4956176,7.02246316 L52.4956176,11.8747212" id="Fill-893"></path>
                        <path d="M58.3363475,9.81778574 C58.1913071,10.3188341 57.6638878,10.5825438 57.1500934,10.5825438 C55.6596942,10.5825438 55.5542104,9.39585025 55.501908,8.8684309 L60.3141701,8.8684309 L60.3141701,8.5387938 C60.3141701,5.33472122 58.4022749,4.67588654 57.0182386,4.67588654 C53.9460209,4.67588654 53.6555007,7.37847122 53.6555007,8.22234219 C53.6555007,11.1099632 55.1722709,12.059318 57.1500934,12.059318 C58.349533,12.059318 59.7471942,11.5055277 60.2350571,9.81778574 L58.3363475,9.81778574 Z M55.5542104,7.66855187 C55.6596942,6.745568 56.1211862,6.19177767 56.9914281,6.19177767 C57.5847749,6.19177767 58.309537,6.53460025 58.4154604,7.66855187 L55.5542104,7.66855187 L55.5542104,7.66855187 Z" id="Fill-894"></path>
                        <path d="M61.5272346,4.86048332 L63.2940894,4.86048332 L63.2940894,6.07310832 L63.3204604,6.07310832 C63.7023999,5.36109219 64.1247749,4.67588654 65.2451015,4.67588654 C65.3637709,4.67588654 65.4824402,4.68907203 65.6011096,4.70225751 L65.6011096,6.57459622 C65.4433233,6.54822525 65.2451015,6.54822525 65.0741297,6.54822525 C63.6364725,6.54822525 63.3727628,7.44439864 63.3727628,8.22234219 L63.3727628,11.8747212 L61.5272346,11.8747212 L61.5272346,4.86048332" id="Fill-895"></path>
                        <path d="M72.3520773,6.70601154 C72.3520773,4.97915267 70.5452265,4.67588654 69.5563152,4.67588654 C68.119537,4.67588654 66.6295773,4.97915267 66.4190491,7.12794703 L68.1986499,7.12794703 C68.2513918,6.71919703 68.4096176,6.15266074 69.332162,6.15266074 C69.8072789,6.15266074 70.5452265,6.19177767 70.5452265,6.96972122 C70.5452265,7.36528574 70.189658,7.48395509 69.8995773,7.52351154 L68.2377668,7.77403574 C67.0646983,7.94544703 66.1944563,8.64427767 66.1944563,10.015568 C66.1944563,11.4655317 67.275666,12.059318 68.3300652,12.059318 C69.5831257,12.059318 70.176033,11.4791567 70.5979684,11.0440357 C70.6375249,11.4396003 70.6638959,11.5450841 70.7693797,11.8747212 L72.7603878,11.8747212 L72.7603878,11.5978261 C72.5362346,11.5187132 72.3520773,11.3341164 72.3520773,10.5034309 L72.3520773,6.70601154 Z M70.5452265,9.3562938 C70.5452265,10.2133503 69.7149805,10.7407696 68.897041,10.7407696 C68.5414725,10.7407696 68.0404241,10.5429874 68.0404241,9.89689864 C68.0404241,9.13214058 68.6073999,8.96072929 69.2930451,8.84205993 C70.0578031,8.72339058 70.3606297,8.60472122 70.5452265,8.4596809 L70.5452265,9.3562938 L70.5452265,9.3562938 Z" id="Fill-896"></path>
                        <polygon id="Fill-897" points="74.0525652 11.8747212 75.898533 11.8747212 75.898533 2.40798332 74.0525652 2.40798332"></polygon>
                        <path d="M77.7181297,4.02979783 L79.563658,4.02979783 L79.563658,2.31568493 L77.7181297,2.31568493 L77.7181297,4.02979783 Z M77.7181297,11.8747212 L79.563658,11.8747212 L79.563658,4.86048332 L77.7181297,4.86048332 L77.7181297,11.8747212 Z" id="Fill-898"></path>
                        <path d="M83.4006338,4.86048332 L84.5477709,4.86048332 L84.5477709,6.17859219 L83.4006338,6.17859219 L83.4006338,9.98919703 C83.4006338,10.397947 83.4138192,10.5561728 84.1653918,10.5561728 C84.2840612,10.5561728 84.415916,10.5429874 84.5477709,10.5298019 L84.5477709,11.9274632 C84.2576902,11.9406486 83.9671701,11.9538341 83.6775289,11.9538341 L83.4401902,11.9538341 C81.8447467,11.9538341 81.554666,11.3473019 81.554666,10.4375035 L81.554666,6.17859219 L80.6057507,6.17859219 L80.6057507,4.86048332 L81.554666,4.86048332 L81.554666,2.96177364 L83.4006338,2.96177364 L83.4006338,4.86048332" id="Fill-899"></path>
                        <path d="M91.403783,6.70601154 C91.403783,4.97915267 89.5973717,4.67588654 88.6084604,4.67588654 C87.1712426,4.67588654 85.6817225,4.97915267 85.4707547,7.12794703 L87.2507951,7.12794703 C87.3030975,6.71919703 87.4617628,6.15266074 88.3843071,6.15266074 C88.8589846,6.15266074 89.5973717,6.19177767 89.5973717,6.96972122 C89.5973717,7.36528574 89.2413636,7.48395509 88.951283,7.52351154 L87.289912,7.77403574 C86.1168434,7.94544703 85.246162,8.64427767 85.246162,10.015568 C85.246162,11.4655317 86.3273717,12.059318 87.3822104,12.059318 C88.6348313,12.059318 89.2281781,11.4791567 89.6501136,11.0440357 C89.6896701,11.4396003 89.7156015,11.5450841 89.8215249,11.8747212 L91.812533,11.8747212 L91.812533,11.5978261 C91.5879402,11.5187132 91.403783,11.3341164 91.403783,10.5034309 L91.403783,6.70601154 Z M89.5973717,9.3562938 C89.5973717,10.2133503 88.7666862,10.7407696 87.9491862,10.7407696 C87.5931781,10.7407696 87.0925692,10.5429874 87.0925692,9.89689864 C87.0925692,9.13214058 87.6595451,8.96072929 88.3447507,8.84205993 C89.1099483,8.72339058 89.4127749,8.60472122 89.5973717,8.4596809 L89.5973717,9.3562938 L89.5973717,9.3562938 Z" id="Fill-900"></path>
                        <path d="M95.1216499,4.86048332 L96.2692265,4.86048332 L96.2692265,6.17859219 L95.1216499,6.17859219 L95.1216499,9.98919703 C95.1216499,10.397947 95.1348354,10.5561728 95.886408,10.5561728 C96.0055168,10.5561728 96.1373717,10.5429874 96.2692265,10.5298019 L96.2692265,11.9274632 C95.9787063,11.9406486 95.6886257,11.9538341 95.3989846,11.9538341 L95.1616459,11.9538341 C93.5657628,11.9538341 93.2761217,11.3473019 93.2761217,10.4375035 L93.2761217,6.17859219 L92.3267668,6.17859219 L92.3267668,4.86048332 L93.2761217,4.86048332 L93.2761217,2.96177364 L95.1216499,2.96177364 L95.1216499,4.86048332" id="Fill-901"></path>
                        <path d="M34.9729886,15.5934672 L33.1270209,15.5934672 L33.1270209,18.9557656 L33.1006499,18.9557656 C32.8110088,18.5070196 32.2572184,17.8613704 31.0705249,17.8613704 C29.5278233,17.8613704 28.156533,19.0476244 28.156533,21.4737535 C28.156533,23.3988341 29.0263354,25.2448019 31.1100813,25.2448019 C31.8743999,25.2448019 32.6918999,24.9679067 33.1406459,24.1767777 L33.1665773,24.1767777 L33.1665773,25.0602051 L34.9729886,25.0602051 L34.9729886,15.5934672 Z M30.0552426,21.6056083 C30.0552426,20.4980277 30.4508071,19.4563744 31.6243152,19.4563744 C32.8896821,19.4563744 33.2061338,20.5903261 33.2061338,21.7110922 C33.2061338,22.7527454 32.7446418,23.7284712 31.5711338,23.7284712 C30.3848797,23.7284712 30.0552426,22.4362938 30.0552426,21.6056083 L30.0552426,21.6056083 Z" id="Fill-902"></path>
                        <path d="M40.747791,23.0032696 C40.6027507,23.504318 40.0753313,23.7680277 39.5610975,23.7680277 C38.0711378,23.7680277 37.9656539,22.5813341 37.9133515,22.0539148 L42.7256136,22.0539148 L42.7256136,21.7242777 C42.7256136,18.5202051 40.8137184,17.8613704 39.4292426,17.8613704 C36.3574644,17.8613704 36.0673838,20.5639551 36.0673838,21.4078261 C36.0673838,24.295447 37.5837144,25.2448019 39.5610975,25.2448019 C40.761416,25.2448019 42.1586378,24.6910115 42.6465007,23.0032696 L40.747791,23.0032696 Z M37.9656539,20.8540357 C38.0711378,19.9310519 38.5326297,19.3772615 39.4033112,19.3772615 C39.9962184,19.3772615 40.7218596,19.7200841 40.8269039,20.8540357 L37.9656539,20.8540357 L37.9656539,20.8540357 Z" id="Fill-903"></path>
                        <path d="M53.8009805,18.6916164 C53.6427547,18.1246406 53.3394886,17.0570559 51.7044886,17.0570559 C50.7551338,17.0570559 49.3574725,17.6899591 49.3574725,20.3661728 C49.3574725,22.0671003 50.0299321,23.5966164 51.7044886,23.5966164 C52.7984442,23.5966164 53.5636418,22.9768986 53.8009805,21.8165761 L55.7783636,21.8165761 C55.3827991,23.8735115 54.0383192,25.3102898 51.6649321,25.3102898 C49.1469442,25.3102898 47.3400934,23.6098019 47.3400934,20.3398019 C47.3400934,17.0306849 49.2519886,15.342943 51.6913031,15.342943 C54.5261821,15.342943 55.6728797,17.2943946 55.7783636,18.6916164 L53.8009805,18.6916164" id="Fill-904"></path>
                        <path d="M62.8189725,19.8914954 C62.8189725,18.1646365 61.0130007,17.8613704 60.0240894,17.8613704 C58.5868717,17.8613704 57.096912,18.1646365 56.8855047,20.3134309 L58.6655451,20.3134309 C58.7187265,19.9046809 58.8765128,19.3381446 59.7999362,19.3381446 C60.2746136,19.3381446 61.0130007,19.3772615 61.0130007,20.1552051 C61.0130007,20.5507696 60.6565531,20.669439 60.366912,20.7089954 L58.705541,20.9595196 C57.532033,21.1309309 56.6613515,21.8297615 56.6613515,23.2010519 C56.6613515,24.6510156 57.7430007,25.2448019 58.7978394,25.2448019 C60.0500209,25.2448019 60.6433676,24.6646406 61.0653031,24.2295196 C61.1052991,24.6250841 61.1312305,24.730568 61.2371539,25.0602051 L63.2277225,25.0602051 L63.2277225,24.7833099 C63.0035692,24.704197 62.8189725,24.5196003 62.8189725,23.6889148 L62.8189725,19.8914954 Z M61.0130007,22.5417777 C61.0130007,23.3988341 60.1818757,23.9262535 59.3648152,23.9262535 C59.0088071,23.9262535 58.5077588,23.7284712 58.5077588,23.0823825 C58.5077588,22.3176244 59.0747346,22.1462132 59.7599402,22.0275438 C60.5246983,21.9088744 60.8284039,21.7902051 61.0130007,21.6451648 L61.0130007,22.5417777 L61.0130007,22.5417777 Z" id="Fill-905"></path>
                        <path d="M66.5372789,18.0459672 L67.6839765,18.0459672 L67.6839765,19.3640761 L66.5372789,19.3640761 L66.5372789,23.1746809 C66.5372789,23.5834309 66.5504644,23.7416567 67.302037,23.7416567 C67.4207063,23.7416567 67.5525612,23.7284712 67.6839765,23.7152857 L67.6839765,25.112947 C67.3943354,25.1261325 67.1042547,25.139318 66.8137346,25.139318 L66.5768354,25.139318 C64.9813918,25.139318 64.6913112,24.5327857 64.6913112,23.6229874 L64.6913112,19.3640761 L63.7423959,19.3640761 L63.7423959,18.0459672 L64.6913112,18.0459672 L64.6913112,16.1472575 L66.5372789,16.1472575 L66.5372789,18.0459672" id="Fill-906"></path>
                        <path d="M74.5404281,19.8914954 C74.5404281,18.1646365 72.7340168,17.8613704 71.7451055,17.8613704 C70.3078878,17.8613704 68.8183676,18.1646365 68.6069604,20.3134309 L70.3870007,20.3134309 C70.4397426,19.9046809 70.5979684,19.3381446 71.5209523,19.3381446 C71.9956297,19.3381446 72.7340168,19.3772615 72.7340168,20.1552051 C72.7340168,20.5507696 72.3780088,20.669439 72.0879281,20.7089954 L70.4265571,20.9595196 C69.2534886,21.1309309 68.3828071,21.8297615 68.3828071,23.2010519 C68.3828071,24.6510156 69.4640168,25.2448019 70.5192951,25.2448019 C71.771037,25.2448019 72.3648233,24.6646406 72.7867588,24.2295196 C72.8263152,24.6250841 72.8522467,24.730568 72.9577305,25.0602051 L74.9487386,25.0602051 L74.9487386,24.7833099 C74.7245854,24.704197 74.5404281,24.5196003 74.5404281,23.6889148 L74.5404281,19.8914954 Z M72.7340168,22.5417777 C72.7340168,23.3988341 71.9033313,23.9262535 71.0858313,23.9262535 C70.7298233,23.9262535 70.2287749,23.7284712 70.2287749,23.0823825 C70.2287749,22.3176244 70.7961902,22.1462132 71.4813959,22.0275438 C72.2461539,21.9088744 72.5494201,21.7902051 72.7340168,21.6451648 L72.7340168,22.5417777 L72.7340168,22.5417777 Z" id="Fill-907"></path>
                        <polygon id="Fill-908" points="76.240916 25.0602051 78.0868838 25.0602051 78.0868838 15.5934672 76.240916 15.5934672"></polygon>
                        <path d="M86.1823313,25.0602051 L84.4154765,25.0602051 L84.4154765,24.0712938 L84.3891055,24.0712938 C83.9671701,24.8228664 83.2292225,25.2448019 82.2534967,25.2448019 C80.8690209,25.2448019 79.8669241,24.4536728 79.8669241,22.660447 L79.8669241,18.0459672 L81.7128918,18.0459672 L81.7128918,22.3967374 C81.7128918,23.477947 82.3457951,23.6889148 82.9127709,23.6889148 C83.5193031,23.6889148 84.3368031,23.3460922 84.3368031,22.0934712 L84.3368031,18.0459672 L86.1823313,18.0459672 L86.1823313,25.0602051" id="Fill-909"></path>
                        <path d="M94.2518475,25.0602051 L92.4058797,25.0602051 L92.4058797,20.8012938 C92.4058797,20.2870599 92.3795088,19.416818 91.2060007,19.416818 C90.3885007,19.416818 89.7555975,19.9706083 89.7555975,21.0386325 L89.7555975,25.0602051 L87.9096297,25.0602051 L87.9096297,18.0459672 L89.6764846,18.0459672 L89.6764846,19.0744349 L89.702416,19.0744349 C89.9529402,18.6524994 90.4807991,17.8613704 91.8120934,17.8613704 C93.1833838,17.8613704 94.2518475,18.6652454 94.2518475,20.207947 L94.2518475,25.0602051" id="Fill-910"></path>
                        <path d="M99.5414241,24.9415357 C98.6711821,27.5386365 98.4338434,27.8814591 96.8252144,27.8814591 C96.5751297,27.8814591 96.2582386,27.8682736 95.9949684,27.8555277 L95.9949684,26.3787535 C96.0736418,26.3914994 96.1923112,26.4051244 96.3509765,26.4051244 C97.0229967,26.4051244 97.3921902,26.3123865 97.564041,25.3502857 L94.9792467,18.0459672 L97.0366217,18.0459672 L98.5397668,23.2142374 L98.5656983,23.2142374 L100.002916,18.0459672 L101.954368,18.0459672 L99.5414241,24.9415357" id="Fill-911"></path>
                        <path d="M108.325154,19.8914954 C108.325154,18.1646365 106.519182,17.8613704 105.530271,17.8613704 C104.093053,17.8613704 102.603533,18.1646365 102.392126,20.3134309 L104.172166,20.3134309 C104.224908,19.9046809 104.383134,19.3381446 105.306118,19.3381446 C105.780356,19.3381446 106.519182,19.3772615 106.519182,20.1552051 C106.519182,20.5507696 106.163174,20.669439 105.872654,20.7089954 L104.211722,20.9595196 C103.038214,21.1309309 102.167972,21.8297615 102.167972,23.2010519 C102.167972,24.6510156 103.248743,25.2448019 104.304021,25.2448019 C105.556202,25.2448019 106.149989,24.6646406 106.571924,24.2295196 C106.611481,24.6250841 106.637412,24.730568 106.743335,25.0602051 L108.733904,25.0602051 L108.733904,24.7833099 C108.509751,24.704197 108.325154,24.5196003 108.325154,23.6889148 L108.325154,19.8914954 Z M106.519182,22.5417777 C106.519182,23.3988341 105.688497,23.9262535 104.870997,23.9262535 C104.514989,23.9262535 104.01394,23.7284712 104.01394,23.0823825 C104.01394,22.3176244 104.580916,22.1462132 105.266561,22.0275438 C106.031319,21.9088744 106.334146,21.7902051 106.519182,21.6451648 L106.519182,22.5417777 L106.519182,22.5417777 Z" id="Fill-912"></path>
                        <path d="M20.4373112,24.4932293 C20.7106902,24.8263825 21.0921902,24.9305478 21.5325854,24.8896728 L20.3722628,23.7108906 C20.3124886,23.7948382 20.2127184,23.8462615 20.1278918,23.8708744 C20.1929402,24.1402978 20.2663394,24.2941285 20.4373112,24.4932293 Z M19.7169442,23.5649712 C19.846162,23.6946285 20.0558112,23.695068 20.1850289,23.5662898 C20.3146862,23.4375115 20.3151257,23.2278624 20.186787,23.0986446 C20.0575692,22.9689874 19.8479201,22.9681083 19.7182628,23.0973261 C19.5886055,23.2261043 19.588166,23.435314 19.7169442,23.5649712 Z M19.5679483,24.825943 L19.8993434,23.8998825 L19.8896741,23.9016406 C19.8070451,23.8946083 19.7261741,23.8691164 19.6523354,23.8256043 L19.6466217,23.8229672 C19.5683878,24.0167938 19.5204805,24.1231567 19.2870975,24.320939 C19.4607063,24.512568 19.5226781,24.7063946 19.5679483,24.825943 Z M15.5841741,24.8769269 C16.8337184,24.5903624 18.6216701,23.9310882 19.4031297,23.5429954 L19.4026902,23.5320075 C19.382033,23.4616849 19.3750007,23.3878462 19.382912,23.3153261 L19.3811539,23.2849994 C19.1846902,23.1751204 18.9671297,23.1052374 18.7021015,23.1030398 C17.569908,23.1250156 17.1435773,24.0981043 15.4668233,24.7270519 L14.6937144,24.9665882 C14.9235813,24.9560398 15.2184967,24.9604349 15.5841741,24.8769269 Z M18.8827426,22.2626849 C18.8827426,22.2626849 18.9275733,22.4723341 18.8343959,22.8727333 C18.8343959,22.8727333 19.0818434,22.8802051 19.4523555,23.0599672 L19.4563112,23.0489793 C19.4809241,23.0063462 19.5112507,22.9659107 19.5477305,22.9294309 C19.5679483,22.9092132 19.5894846,22.891193 19.6114604,22.8749309 L19.6092628,22.8692172 L18.8827426,22.2626849 Z M20.8306781,19.240572 C20.2395289,20.5490115 19.3917023,21.2531164 19.6637628,22.3835519 C19.6637628,22.3835519 19.7085934,22.6094632 19.8501176,22.7738422 C19.9314281,22.7580196 20.0918515,22.7716446 20.0918515,22.7716446 C20.678166,21.2381728 21.1655894,19.8484228 21.5048959,17.972568 C21.5532426,17.658314 21.575658,17.224072 21.5980733,16.8794914 C21.425783,17.5941446 21.6090612,17.5189874 20.8306781,19.240572 Z M21.4728112,22.9210801 C21.2403071,22.8736124 20.9849483,22.6362736 20.9594563,22.6019914 C20.9598959,22.5993543 20.9594563,22.5975962 20.9576983,22.5971567 C20.9559402,22.5962777 20.9572588,22.5984753 20.9594563,22.6019914 C20.9555007,22.6411083 20.7669483,22.8947091 20.4676378,23.0727132 L20.472033,23.0876567 C20.5006015,23.150947 20.5173031,23.218193 20.5208192,23.286318 L20.5313676,23.2748906 C20.5313676,23.2748906 21.3079926,22.9887656 21.4728112,22.9210801 Z M21.3119483,23.7262736 C21.6850975,24.0475599 21.8028878,24.6312374 21.7193797,25.1067938 C21.1291096,25.1599753 20.6680571,25.0268019 20.323916,24.6879349 C20.023287,24.7652898 19.6624442,24.9432938 19.4778475,25.0878946 C19.3780773,24.8514349 19.2646821,24.6562898 19.1130491,24.4545519 C17.775162,25.3542414 16.2131217,25.0514148 14.0854241,25.0769067 C15.0000571,24.7428744 15.3973797,24.5916809 16.0087467,24.2611648 C17.2604886,23.5843099 17.5681499,22.9514067 18.6247467,22.8687777 C18.7034201,22.3747615 18.6853999,22.3330075 18.6506781,22.0306204 C18.9288918,22.0517172 19.1486499,22.0605075 19.3881862,22.0117212 C19.3798354,21.3194833 19.722658,20.7538261 19.7837507,20.655814 C19.8892346,20.4866003 19.9639523,20.3252978 20.1344846,20.071697 C20.7186015,19.2032132 21.3950168,17.5418422 21.6745491,16.2747172 L21.7048757,20.6312011 C21.6354321,21.4012333 21.5295088,21.8398704 21.1058152,22.4798059 C21.2978838,22.645943 21.4842386,22.7281325 21.7053152,22.8362535 C21.5334644,23.0924914 21.384908,23.4128986 21.3119483,23.7262736 L21.3119483,23.7262736 Z" id="Fill-913"></path>
                        <path d="M20.4373112,0.625305899 C20.2663394,0.824406705 20.1929402,0.97823735 20.1278918,1.24766074 C20.2127184,1.27227364 20.3124886,1.32369703 20.3722628,1.40720509 L21.5325854,0.22886235 C21.0921902,0.18798735 20.7106902,0.291713157 20.4373112,0.625305899 Z M19.7169442,1.55312445 C19.588166,1.68278171 19.5886055,1.8924309 19.7182628,2.02120912 C19.8479201,2.15042687 20.0575692,2.14954783 20.186787,2.01989058 C20.3151257,1.89023332 20.3146862,1.68058412 20.1850289,1.5518059 C20.0558112,1.42302767 19.846162,1.42346719 19.7169442,1.55312445 Z M19.5679483,0.292152673 C19.5226781,0.412140576 19.4607063,0.605967189 19.2870975,0.797596221 C19.5204805,0.995378479 19.5683878,1.10174138 19.6466217,1.29512848 L19.6523354,1.29249138 C19.7261741,1.24897929 19.8070451,1.22392687 19.8896741,1.21689461 L19.8993434,1.21865267 L19.5679483,0.292152673 Z M15.5841741,0.241608318 C15.2184967,0.157660737 14.9235813,0.162055899 14.6937144,0.151947028 L15.4668233,0.391483318 C17.1435773,1.01999138 17.569908,1.99308009 18.7021015,2.01549541 C18.9671297,2.01285832 19.1846902,1.94341477 19.3811539,1.83353574 L19.382912,1.80320912 C19.3750007,1.73068896 19.382033,1.65685025 19.4026902,1.58608816 L19.4031297,1.57510025 C18.6216701,1.18700751 16.8337184,0.527733318 15.5841741,0.241608318 Z M18.8827426,2.85541074 L19.6092628,2.24887848 L19.6114604,2.24360429 C19.5894846,2.22690267 19.5679483,2.20888251 19.5477305,2.18866477 C19.5112507,2.15218493 19.4809241,2.11218896 19.4563112,2.06911638 L19.4523555,2.058568 C19.0818434,2.23833009 18.8343959,2.24536235 18.8343959,2.24536235 C18.9275733,2.64620106 18.8827426,2.85541074 18.8827426,2.85541074 Z M20.8306781,5.87708412 C21.6090612,7.5986688 21.425783,7.52395106 21.5980733,8.23860429 C21.575658,7.89446316 21.5532426,7.46022122 21.5048959,7.14596719 C21.1655894,5.26967283 20.678166,3.88036235 20.0918515,2.34689058 C20.0918515,2.34689058 19.9314281,2.36007606 19.8501176,2.344693 C19.7085934,2.50863251 19.6637628,2.73498332 19.6637628,2.73498332 C19.3917023,3.8654188 20.2395289,4.56952364 20.8306781,5.87708412 Z M21.4728112,2.19701558 C21.3079926,2.12976961 20.5313676,1.84320509 20.5313676,1.84320509 L20.5208192,1.83221719 C20.5173031,1.89990267 20.5006015,1.96758816 20.472033,2.03043896 L20.4676378,2.04538251 C20.7669483,2.22426558 20.9555007,2.47786638 20.9594563,2.51698332 C20.9572588,2.51962041 20.9559402,2.521818 20.9576983,2.52093896 C20.9594563,2.52049945 20.9598959,2.5191809 20.9594563,2.51698332 C20.9849483,2.48182203 21.2403071,2.24492283 21.4728112,2.19701558 Z M21.7193797,0.0113018663 C21.8028878,0.486858318 21.6850975,1.07097525 21.3119483,1.39226154 C21.384908,1.70563654 21.5334644,2.02560429 21.7053152,2.28184219 C21.4842386,2.39040267 21.2978838,2.47215267 21.1058152,2.63872929 C21.5295088,3.27866477 21.6354321,3.71686235 21.7048757,4.48689461 L21.6745491,8.84293896 C21.3950168,7.57625348 20.7186015,5.91488251 20.1344846,5.04683816 C19.9639523,4.79235832 19.8892346,4.63193493 19.7837507,4.46228171 C19.722658,4.36470912 19.3798354,3.79905187 19.3881862,3.10637445 C19.1486499,3.05758816 18.9288918,3.066818 18.6506781,3.08747525 C18.6853999,2.78552767 18.7034201,2.74333412 18.6247467,2.24887848 C17.5681499,2.16712848 17.2604886,1.53378574 16.0087467,0.857370415 C15.3973797,0.52641477 15.0000571,0.375660737 14.0854241,0.0416284792 C16.2131217,0.0666808986 17.775162,-0.235266682 19.1130491,0.663983318 C19.2646821,0.462245415 19.3780773,0.267100253 19.4778475,0.0302010599 C19.6624442,0.175241382 20.023287,0.353245415 20.323916,0.43103977 C20.6680571,0.0917333179 21.1291096,-0.0418795853 21.7193797,0.0113018663 L21.7193797,0.0113018663 Z" id="Fill-914"></path>
                        <path d="M1.30781118,24.4932293 C1.47878296,24.2941285 1.55218215,24.1402978 1.61723054,23.8708744 C1.53240392,23.8462615 1.43263376,23.7948382 1.37242005,23.7108906 L0.212536987,24.8896728 C0.652932149,24.9305478 1.03399263,24.8263825 1.30781118,24.4932293 Z M2.0277386,23.5649712 C2.15695634,23.435314 2.15607731,23.2261043 2.02685957,23.0973261 C1.89720231,22.9681083 1.68755312,22.9689874 1.55877489,23.0986446 C1.42999666,23.2278624 1.43043618,23.4375115 1.56009344,23.5662898 C1.6897507,23.695068 1.89896037,23.6946285 2.0277386,23.5649712 Z M2.17717408,24.825943 C2.22200473,24.7063946 2.28441602,24.512568 2.45802489,24.320939 C2.22464183,24.1231567 2.17629505,24.0167938 2.0985007,23.8229672 L2.09234747,23.8256043 C2.01938779,23.8691164 1.93807731,23.8946083 1.85544828,23.9016406 L1.84577892,23.8998825 L2.17717408,24.825943 Z M6.16094828,24.8769269 C6.52618618,24.9604349 6.8211015,24.9560398 7.05140796,24.9665882 L6.27829908,24.7270519 C4.60154505,24.0981043 4.17477489,23.1250156 3.04258134,23.1030398 C2.77799263,23.1052374 2.56043215,23.1751204 2.36396844,23.2849994 L2.36221037,23.3153261 C2.36968215,23.3878462 2.36308941,23.4616849 2.34199263,23.5320075 L2.34199263,23.5429954 C3.12345231,23.9310882 4.91140392,24.5903624 6.16094828,24.8769269 Z M2.86194021,22.2626849 L2.13585957,22.8692172 L2.13322247,22.8749309 C2.15563779,22.891193 2.17673457,22.9092132 2.19695231,22.9294309 C2.23343215,22.9659107 2.26419828,23.0063462 2.28837166,23.0489793 L2.29276683,23.0599672 C2.66283941,22.8802051 2.9107265,22.8727333 2.9107265,22.8727333 C2.81710957,22.4723341 2.86194021,22.2626849 2.86194021,22.2626849 Z M0.914004729,19.240572 C0.135621665,17.5189874 0.318899891,17.5941446 0.147049084,16.8794914 C0.169464407,17.224072 0.191440213,17.658314 0.24066602,17.972568 C0.579972471,19.8484228 1.06695634,21.2381728 1.65327086,22.7716446 C1.65327086,22.7716446 1.81369425,22.7580196 1.89456521,22.7738422 C2.03652892,22.6094632 2.08092005,22.3835519 2.08092005,22.3835519 C2.35342005,21.2531164 1.50559344,20.5490115 0.914004729,19.240572 Z M0.272311181,22.9210801 C0.437129729,22.9887656 1.21331521,23.2748906 1.21331521,23.2748906 L1.22430312,23.286318 C1.22781925,23.218193 1.24408134,23.150947 1.27308941,23.0876567 L1.27704505,23.0727132 C0.977734568,22.8947091 0.789182149,22.6411083 0.78566602,22.6019914 C0.7878636,22.5984753 0.789182149,22.5962777 0.786984568,22.5971567 C0.78566602,22.5975962 0.785226503,22.5993543 0.78566602,22.6019914 C0.759734568,22.6362736 0.504815213,22.8736124 0.272311181,22.9210801 Z M0.0253031164,25.1067938 C-0.057765432,24.6312374 0.0600248906,24.0475599 0.433174084,23.7262736 C0.360214407,23.4128986 0.211657955,23.0924914 0.0398071487,22.8362535 C0.260883762,22.7281325 0.446799084,22.645943 0.638867633,22.4798059 C0.215174084,21.8398704 0.109690213,21.4012333 0.0402466648,20.6312011 L0.0701337616,16.2747172 C0.350105536,17.5418422 1.02652086,19.2032132 1.61019828,20.071697 C1.78117005,20.3252978 1.85588779,20.4866003 1.96137166,20.655814 C2.02202489,20.7538261 2.3657265,21.3194833 2.35693618,22.0117212 C2.59647247,22.0605075 2.81623054,22.0517172 3.09400473,22.0306204 C3.05972247,22.3330075 3.04170231,22.3747615 3.1203757,22.8687777 C4.17697247,22.9514067 4.48419425,23.5843099 5.73593618,24.2611648 C6.34774263,24.5916809 6.7446257,24.7428744 7.65969828,25.0769067 C5.5320007,25.0514148 3.96996037,25.3542414 2.63251279,24.4545519 C2.4800007,24.6562898 2.36704505,24.8514349 2.26727489,25.0878946 C2.08267812,24.9432938 1.72139586,24.7652898 1.42120634,24.6879349 C1.07706521,25.0268019 0.616012794,25.1599753 0.0253031164,25.1067938 L0.0253031164,25.1067938 Z" id="Fill-915"></path>
                        <path d="M1.30781118,0.625305899 C1.03399263,0.291713157 0.652932149,0.18798735 0.212536987,0.22886235 L1.37242005,1.40720509 C1.43263376,1.32369703 1.53240392,1.27227364 1.61723054,1.24766074 C1.55218215,0.97823735 1.47878296,0.824406705 1.30781118,0.625305899 Z M2.0277386,1.55312445 C1.89896037,1.42346719 1.6897507,1.42302767 1.56009344,1.5518059 C1.43043618,1.68058412 1.42999666,1.89023332 1.55877489,2.01989058 C1.68755312,2.14954783 1.89720231,2.15042687 2.02685957,2.02120912 C2.15607731,1.8924309 2.15695634,1.68278171 2.0277386,1.55312445 Z M2.17717408,0.292152673 L1.84577892,1.21865267 L1.85544828,1.21689461 C1.93807731,1.22392687 2.01938779,1.24897929 2.09234747,1.29249138 L2.0985007,1.29512848 C2.17629505,1.10174138 2.22464183,0.995378479 2.45802489,0.797596221 C2.28441602,0.605967189 2.22200473,0.412140576 2.17717408,0.292152673 Z M6.16094828,0.241608318 C4.91140392,0.527733318 3.12345231,1.18700751 2.34199263,1.57510025 L2.34199263,1.58608816 C2.36308941,1.65685025 2.36968215,1.73068896 2.36221037,1.80320912 L2.36396844,1.83353574 C2.56043215,1.94341477 2.77799263,2.01285832 3.04258134,2.01549541 C4.17477489,1.99308009 4.60154505,1.01999138 6.27829908,0.391483318 L7.05140796,0.151947028 C6.8211015,0.162055899 6.52618618,0.157660737 6.16094828,0.241608318 Z M2.86194021,2.85541074 C2.86194021,2.85541074 2.81710957,2.64620106 2.9107265,2.24536235 C2.9107265,2.24536235 2.66283941,2.23833009 2.29276683,2.058568 L2.28837166,2.06911638 C2.26419828,2.11218896 2.23343215,2.15218493 2.19695231,2.18866477 C2.17673457,2.20888251 2.15563779,2.22690267 2.13322247,2.24360429 L2.13585957,2.24887848 L2.86194021,2.85541074 Z M0.914004729,5.87708412 C1.50559344,4.56952364 2.35342005,3.8654188 2.08092005,2.73498332 C2.08092005,2.73498332 2.03652892,2.50863251 1.89456521,2.344693 C1.81369425,2.36007606 1.65327086,2.34689058 1.65327086,2.34689058 C1.06695634,3.88036235 0.579972471,5.26967283 0.24066602,7.14596719 C0.191440213,7.46022122 0.169464407,7.89446316 0.147049084,8.23860429 C0.318899891,7.52395106 0.135621665,7.5986688 0.914004729,5.87708412 Z M0.272311181,2.19701558 C0.504815213,2.24492283 0.759734568,2.48182203 0.78566602,2.51698332 C0.785226503,2.5191809 0.78566602,2.52049945 0.786984568,2.52093896 C0.789182149,2.521818 0.7878636,2.51962041 0.78566602,2.51698332 C0.789182149,2.47786638 0.977734568,2.22426558 1.27704505,2.04538251 L1.27308941,2.03043896 C1.24408134,1.96758816 1.22781925,1.89990267 1.22430312,1.83221719 L1.21331521,1.84320509 C1.21331521,1.84320509 0.437129729,2.12976961 0.272311181,2.19701558 Z M0.433174084,1.39226154 C0.0600248906,1.07097525 -0.057765432,0.486858318 0.0253031164,0.0113018663 C0.616012794,-0.0418795853 1.07706521,0.0917333179 1.42120634,0.43103977 C1.72139586,0.353245415 2.08267812,0.175241382 2.26727489,0.0302010599 C2.36704505,0.267100253 2.4800007,0.462245415 2.63251279,0.663983318 C3.96996037,-0.235266682 5.5320007,0.0666808986 7.65969828,0.0416284792 C6.7446257,0.375660737 6.34774263,0.52641477 5.73593618,0.857370415 C4.48419425,1.53378574 4.17697247,2.16712848 3.1203757,2.24887848 C3.04170231,2.74333412 3.05972247,2.78552767 3.09400473,3.08747525 C2.81623054,3.066818 2.59647247,3.05758816 2.35693618,3.10637445 C2.3657265,3.79905187 2.02202489,4.36470912 1.96137166,4.46228171 C1.85588779,4.63193493 1.78117005,4.79235832 1.61019828,5.04683816 C1.02652086,5.91488251 0.350105536,7.57625348 0.0701337616,8.84293896 L0.0402466648,4.48689461 C0.109690213,3.71686235 0.215174084,3.27866477 0.638867633,2.63872929 C0.446799084,2.47215267 0.260883762,2.39040267 0.0398071487,2.28184219 C0.211657955,2.02560429 0.360214407,1.70563654 0.433174084,1.39226154 L0.433174084,1.39226154 Z" id="Fill-916"></path>
                        <path d="M14.151791,23.4814632 C14.8277668,23.1997333 15.4694604,22.8327374 16.0680813,22.3914632 L16.0680813,21.9071164 C15.4729765,22.3730035 14.8308434,22.7615357 14.151791,23.0595277 L14.151791,23.4814632 Z M10.893658,24.1376607 C11.2180209,24.1376607 11.5393071,24.1187615 11.8553192,24.0822817 L11.8553192,23.6897938 C11.5393071,23.7280317 11.2184604,23.7478099 10.893658,23.7478099 C10.5714926,23.7478099 10.2528434,23.7284712 9.93858941,23.6906728 L9.93858941,24.0827212 C10.253283,24.1187615 10.5714926,24.1376607 10.893658,24.1376607 Z M5.72582731,22.3971769 C6.32488779,22.8371325 6.96658134,23.2032494 7.64255715,23.4845398 L7.64255715,23.0626043 C6.96350473,22.7654914 6.32137166,22.3773986 5.72582731,21.9123906 L5.72582731,22.3971769 Z M7.64255715,1.65333412 C6.96658134,1.93418493 6.32488779,2.29986235 5.72582731,2.74025751 L5.72582731,3.22548332 C6.32137166,2.75959622 6.96350473,2.37238251 7.64255715,2.07526961 L7.64255715,1.65333412 Z M10.893658,0.999334124 C10.5714926,0.999334124 10.253283,1.01823332 9.93858941,1.05427364 L9.93858941,1.44676154 C10.2528434,1.40896316 10.5714926,1.38962445 10.893658,1.38962445 C11.2184604,1.38962445 11.5393071,1.40940267 11.8553192,1.44720106 L11.8553192,1.05515267 C11.5393071,1.01867283 11.2180209,0.999334124 10.893658,0.999334124 Z M16.0680813,2.74553171 C15.4694604,2.30469703 14.8277668,1.93770106 14.151791,1.65641074 L14.151791,2.07834622 C14.8308434,2.37545912 15.4729765,2.7644309 16.0680813,3.23075751 L16.0680813,2.74553171 Z M18.3645531,19.3671527 L18.3645531,20.0492817 C19.8136378,18.0323422 20.6882749,15.4211769 20.6882749,12.5687172 C20.6882749,9.71625751 19.8136378,7.10465267 18.3645531,5.08771316 L18.3645531,5.77028171 C19.5811338,7.65404783 20.3054563,10.0107333 20.3054563,12.5687172 C20.3054563,15.1267011 19.5811338,17.482947 18.3645531,19.3671527 Z M1.09904102,12.5687172 C1.09904102,15.4260115 1.97675473,18.0402535 3.42979505,20.0589511 L3.42979505,19.3772615 C2.20881925,17.4921769 1.48229908,15.1315357 1.48229908,12.5687172 C1.48229908,10.0063382 2.20881925,7.64569703 3.42979505,5.76017283 L3.42979505,5.07848332 C1.97675473,7.0971809 1.09904102,9.71186235 1.09904102,12.5687172 Z M18.3645531,6.37285832 L18.3645531,18.7641365 C19.3868676,17.0065115 19.9868071,14.8717817 19.9868071,12.5687172 C19.9868071,10.2660922 19.3868676,8.13048332 18.3645531,6.37285832 Z M14.151791,2.42072929 L14.151791,22.7171446 C14.8339201,22.4037696 15.4764926,21.9954591 16.0680813,21.5049591 L16.0680813,3.63247525 C15.4764926,3.14197525 14.8339201,2.73366477 14.151791,2.42072929 Z M9.93858941,1.76101558 L9.93858941,23.3768583 C10.2528434,23.4155357 10.5714926,23.4357535 10.893658,23.4357535 C11.2184604,23.4357535 11.5393071,23.4150962 11.8553192,23.3755398 L11.8553192,1.76189461 C11.5393071,1.72233816 11.2184604,1.70124138 10.893658,1.70124138 C10.5714926,1.70124138 10.2528434,1.72189864 9.93858941,1.76101558 Z M5.72582731,3.62676154 L5.72582731,21.5102333 C6.31785554,22.0002938 6.96042812,22.4077253 7.64255715,22.7197817 L7.64255715,2.41721316 C6.96042812,2.72970912 6.31785554,3.13758009 5.72582731,3.62676154 Z M3.42979505,18.7760035 L3.42979505,6.36187041 C2.40308537,8.12125348 1.80094828,10.260818 1.80094828,12.5687172 C1.80094828,14.8770559 2.40308537,17.0161809 3.42979505,18.7760035 Z M10.893658,0.105797834 C16.7976781,0.105797834 21.5835692,5.68633412 21.5835692,12.5687172 C21.5835692,19.4515398 16.7976781,25.031197 10.893658,25.031197 C4.99007731,25.031197 0.203746665,19.4515398 0.203746665,12.5687172 C0.203746665,5.68633412 4.99007731,0.105797834 10.893658,0.105797834 L10.893658,0.105797834 Z" id="Fill-917"></path>
                    </g>
                </g>
            </g>
        </g>
    </g>
</svg>