<svg xmlns="http://www.w3.org/2000/svg" width="593" height="266" viewBox="0 0 593 266">
    <g fill="none" fill-rule="nonzero">
        <path fill="#FFF" d="M51.293 42.809V0H0v42.809h51.293zM0 72.079v189.164h51.293V72.08H0zm122.815 94.766c0 7.561.722 14.94 2.167 22.136 1.445 7.196 3.913 13.66 7.405 19.392 3.492 5.732 8.127 10.306 13.907 13.72 5.78 3.415 13.004 5.123 21.673 5.123 8.67 0 15.954-1.708 21.854-5.122 5.9-3.415 10.596-7.989 14.088-13.721 3.491-5.732 5.96-12.196 7.405-19.392 1.444-7.196 2.167-14.575 2.167-22.136 0-7.562-.723-15.002-2.167-22.32-1.445-7.317-3.914-13.781-7.405-19.392-3.492-5.61-8.188-10.183-14.088-13.72-5.9-3.537-13.185-5.306-21.854-5.306-8.67 0-15.893 1.769-21.673 5.306-5.78 3.537-10.415 8.11-13.907 13.72-3.492 5.61-5.96 12.075-7.405 19.392a114.943 114.943 0 0 0-2.167 22.32zm-51.293 0c0-15.124 2.287-28.844 6.863-41.163 4.575-12.318 11.077-22.807 19.506-31.466 8.428-8.66 18.542-15.367 30.342-20.124 11.8-4.756 25.044-7.135 39.734-7.135 14.69 0 27.995 2.379 39.915 7.135 11.92 4.757 22.095 11.465 30.523 20.124 8.429 8.66 14.93 19.148 19.506 31.466 4.575 12.319 6.863 26.04 6.863 41.163 0 15.123-2.288 28.783-6.863 40.979-4.576 12.196-11.077 22.624-19.506 31.283-8.428 8.66-18.603 15.307-30.523 19.941-11.92 4.635-25.225 6.952-39.915 6.952-14.69 0-27.934-2.317-39.734-6.952-11.8-4.634-21.914-11.281-30.342-19.94-8.429-8.66-14.93-19.088-19.506-31.284-4.576-12.196-6.863-25.856-6.863-40.98zm339.185-28.174h50.21c-.723-12.196-3.613-22.746-8.67-31.649-5.057-8.903-11.62-16.343-19.686-22.32-8.068-5.975-17.218-10.427-27.453-13.354-10.235-2.927-20.89-4.39-31.968-4.39-15.171 0-28.657 2.56-40.457 7.683-11.8 5.122-21.793 12.257-29.98 21.404-8.189 9.148-14.39 20.002-18.604 32.564-4.214 12.563-6.321 26.161-6.321 40.797 0 14.147 2.288 27.136 6.863 38.967 4.576 11.83 10.957 22.014 19.145 30.551 8.187 8.538 18.12 15.185 29.8 19.941 11.68 4.757 24.503 7.135 38.47 7.135 24.804 0 45.153-6.586 61.046-19.758 15.894-13.172 25.527-32.32 28.898-57.444h-49.487c-1.686 11.708-5.84 21.038-12.462 27.99-6.623 6.952-16.074 10.428-28.356 10.428-7.947 0-14.69-1.83-20.228-5.488-5.539-3.66-9.934-8.355-13.185-14.087-3.25-5.732-5.599-12.135-7.044-19.21-1.444-7.073-2.167-14.025-2.167-20.855 0-7.074.723-14.208 2.167-21.404 1.445-7.196 3.914-13.782 7.405-19.758 3.492-5.976 8.007-10.855 13.546-14.635 5.539-3.781 12.402-5.672 20.59-5.672 21.914 0 34.556 10.855 37.928 32.564z"/>
        <path fill="#07F8FD" d="M536 41l57 32.25v64.5L536 170l-57-32.25v-64.5z" opacity=".542"/>
    </g>
</svg>
