<?xml version="1.0" encoding="UTF-8" standalone="no"?>
<svg width="43px" height="19px" viewBox="0 0 43 19" version="1.1" xmlns="http://www.w3.org/2000/svg" xmlns:xlink="http://www.w3.org/1999/xlink">
    <!-- Generator: Sketch 43.2 (39069) - http://www.bohemiancoding.com/sketch -->
    <title>logo_ioc_negatiu</title>
    <desc>Created with Sketch.</desc>
    <defs></defs>
    <g id="Page-1" stroke="none" stroke-width="1" fill="none" fill-rule="evenodd">
        <g id="Mobile-Portrait" transform="translate(-17.000000, -2968.000000)" fill-rule="nonzero" fill="#657C82">
            <g id="footer" transform="translate(0.000000, 2948.000000)">
                <g id="logo_ioc_negatiu" transform="translate(17.000000, 20.000000)">
                    <path d="M3.66379985,3.05777166 L3.66379985,0 L0,0 L0,3.05777166 L3.66379985,3.05777166 Z M0,5.14855571 L0,18.6602476 L3.66379985,18.6602476 L3.66379985,5.14855571 L0,5.14855571 Z M8.77247851,11.9174691 C8.77247851,12.457591 8.82408081,12.9846375 8.92728696,13.4986245 C9.0304931,14.0126115 9.20680092,14.4743216 9.45621581,14.8837689 C9.70563065,15.2932162 10.0367454,15.6198979 10.44957,15.8638239 C10.8623946,16.10775 11.3784176,16.2297111 11.9976544,16.2297111 C12.6168913,16.2297111 13.1372145,16.10775 13.5586396,15.8638239 C13.9800647,15.6198979 14.3154796,15.2932162 14.5648945,14.8837689 C14.8143093,14.4743216 14.9906172,14.0126115 15.0938233,13.4986245 C15.1970295,12.9846375 15.2486318,12.457591 15.2486318,11.9174691 C15.2486318,11.3773472 15.1970295,10.8459448 15.0938233,10.3232462 C14.9906172,9.80054759 14.8143093,9.33883742 14.5648945,8.93810179 C14.3154796,8.53736615 13.9800647,8.21068442 13.5586396,7.95804677 C13.1372145,7.70540911 12.6168913,7.57909216 11.9976544,7.57909216 C11.3784176,7.57909216 10.8623946,7.70540911 10.44957,7.95804677 C10.0367454,8.21068442 9.70563065,8.53736615 9.45621581,8.93810179 C9.20680092,9.33883742 9.0304931,9.80054759 8.92728696,10.3232462 C8.82408081,10.8459448 8.77247851,11.3773472 8.77247851,11.9174691 Z M5.10867866,11.9174691 C5.10867866,10.8372252 5.27208592,9.85717999 5.5989054,8.97730399 C5.92572484,8.09742798 6.39014553,7.34823786 6.9921814,6.72971114 C7.59421723,6.11118442 8.31664941,5.63205123 9.15949962,5.29229711 C10.0023498,4.95254299 10.9483919,4.7826685 11.9976544,4.7826685 C13.0469169,4.7826685 13.9972592,4.95254299 14.84871,5.29229711 C15.7001606,5.63205123 16.426893,6.11118442 17.0289289,6.72971114 C17.6309647,7.34823786 18.0953854,8.09742798 18.4222049,8.97730399 C18.7490243,9.85717999 18.9124316,10.8372252 18.9124316,11.9174691 C18.9124316,12.9977129 18.7490243,13.9734023 18.4222049,14.8445667 C18.0953854,15.7157311 17.6309647,16.4605654 17.0289289,17.0790922 C16.426893,17.6976189 15.7001606,18.1723963 14.84871,18.5034388 C13.9972592,18.8344812 13.0469169,19 11.9976544,19 C10.9483919,19 10.0023498,18.8344812 9.15949962,18.5034388 C8.31664941,18.1723963 7.59421723,17.6976189 6.9921814,17.0790922 C6.39014553,16.4605654 5.92572484,15.7157311 5.5989054,14.8445667 C5.27208592,13.9734023 5.10867866,12.9977129 5.10867866,11.9174691 Z M29.3362002,9.90508941 L32.9225958,9.90508941 C32.8709927,9.03392503 32.6645835,8.28037914 32.303362,7.64442916 C31.9421405,7.00847918 31.4734196,6.47707686 30.8971853,6.05020633 C30.320951,5.6233358 29.6673219,5.30536556 28.9362783,5.09628611 C28.2052348,4.88720666 27.4441009,4.7826685 26.6528538,4.7826685 C25.5691893,4.7826685 24.6059464,4.9656103 23.7630962,5.33149931 C22.920246,5.69738837 22.2064142,6.20701185 21.6215793,6.86038514 C21.0367445,7.51375844 20.5938248,8.28908308 20.2928069,9.18638239 C19.9917889,10.0836817 19.8412822,11.0550154 19.8412822,12.1004127 C19.8412822,13.1109633 20.0046895,14.0387395 20.331509,14.8837689 C20.6583285,15.7287983 21.1141487,16.4562097 21.6989836,17.0660248 C22.2838184,17.6758398 22.99335,18.1506173 23.8275997,18.4903714 C24.6618493,18.8301255 25.5777902,19 26.5754496,19 C28.3471551,19 29.8006198,18.5295783 30.9358874,17.5887208 C32.071155,16.6478632 32.7591857,15.2801557 33,13.4855571 L29.4652072,13.4855571 C29.3448,14.3218749 29.0480868,14.9883056 28.5750586,15.4848693 C28.1020305,15.981433 27.4269004,16.2297111 26.5496482,16.2297111 C25.9820144,16.2297111 25.5003929,16.0990384 25.1047693,15.8376891 C24.7091458,15.5763398 24.3952318,15.2409466 24.163018,14.8314993 C23.9308041,14.422052 23.7630967,13.9646976 23.6598905,13.4594223 C23.5566844,12.954147 23.5050821,12.4575907 23.5050821,11.9697387 C23.5050821,11.4644633 23.5566844,10.9548398 23.6598905,10.4408528 C23.7630967,9.92686583 23.9394045,9.45644412 24.1888194,9.02957359 C24.4382342,8.60270306 24.7607486,8.25424254 25.1563722,7.98418157 C25.5519957,7.7141206 26.0422176,7.57909216 26.6270524,7.57909216 C28.1923456,7.57909216 29.0953858,8.35441685 29.3362002,9.90508941 Z" id="ioc-copy"></path>
                    <polygon id="Polygon" points="39 3 43 5.5 43 10.5 39 13 35 10.5 35 5.5"></polygon>
                </g>
            </g>
        </g>
    </g>
</svg>