<?xml version="1.0" encoding="UTF-8"?>
<svg width="167px" height="25px" viewBox="0 0 167 25" version="1.1" xmlns="http://www.w3.org/2000/svg" xmlns:xlink="http://www.w3.org/1999/xlink">
    <title>dep-edu-logo-blanc</title>
    <desc>Created with Sketch.</desc>
    <g id="Versió-definitiva" stroke="none" stroke-width="1" fill="none" fill-rule="evenodd">
        <g id="Artboard" transform="translate(-16.000000, -90.000000)" fill="#FFFFFF">
            <g id="dep-edu-logo-blanc" transform="translate(16.000000, 90.000000)">
                <path d="M16.728,17.5380396 L16.728,18.3040396 C18.06,16.4640396 18.864,14.0780396 18.864,11.4680396 C18.864,8.85803957 18.06,6.47103957 16.728,4.63103957 L16.728,5.39703957 C17.799,7.08703957 18.434,9.18903957 18.434,11.4680396 C18.434,13.7460396 17.799,15.8490396 16.728,17.5380396 Z M12.892,21.4110396 C13.515,21.1540396 14.106,20.8170396 14.658,20.4100396 L14.658,19.8660396 C14.111,20.3010396 13.518,20.6620396 12.892,20.9390396 L12.892,21.4110396 Z M9.935,22.0030396 C10.234,22.0030396 10.53,21.9860396 10.821,21.9530396 L10.821,21.5130396 C10.53,21.5480396 10.234,21.5670396 9.935,21.5670396 C9.638,21.5670396 9.345,21.5500396 9.055,21.5130396 L9.055,21.9530396 C9.345,21.9860396 9.638,22.0030396 9.935,22.0030396 Z M5.218,20.4140396 C5.77,20.8200396 6.362,21.1570396 6.986,21.4140396 L6.986,20.9420396 C6.358,20.6650396 5.765,20.3050396 5.218,19.8700396 L5.218,20.4140396 Z M1.006,11.4680396 C1.006,14.0800396 1.813,16.4720396 3.149,18.3140396 L3.149,17.5470396 C2.074,15.8560396 1.436,13.7510396 1.436,11.4680396 C1.436,9.18403957 2.074,7.07903957 3.149,5.38803957 L3.149,4.62103957 C1.813,6.46403957 1.006,8.85303957 1.006,11.4680396 Z M6.986,1.52103957 C6.362,1.77903957 5.77,2.11603957 5.218,2.52103957 L5.218,3.06503957 C5.765,2.63003957 6.358,2.26803957 6.986,1.99403957 L6.986,1.52103957 Z M9.935,0.932039567 C9.638,0.932039567 9.345,0.949039567 9.055,0.983039567 L9.055,1.42103957 C9.345,1.38603957 9.638,1.36803957 9.935,1.36803957 C10.234,1.36803957 10.53,1.38603957 10.821,1.42103957 L10.821,0.983039567 C10.53,0.949039567 10.234,0.932039567 9.935,0.932039567 Z M14.658,2.52603957 C14.106,2.12003957 13.515,1.78103957 12.892,1.52303957 L12.892,1.99603957 C13.518,2.27203957 14.111,2.63403957 14.658,3.07003957 L14.658,2.52603957 Z M16.728,6.04703957 L16.728,16.8880396 C17.597,15.3370396 18.102,13.4730396 18.102,11.4680396 C18.102,9.46103957 17.597,7.59703957 16.728,6.04703957 Z M12.892,2.36803957 L12.892,20.5670396 C13.522,20.2750396 14.115,19.8910396 14.658,19.4310396 L14.658,3.50503957 C14.115,3.04303957 13.522,2.66003957 12.892,2.36803957 Z M9.055,1.76503957 L9.055,21.1700396 C9.344,21.2070396 9.638,21.2270396 9.935,21.2270396 C10.234,21.2270396 10.53,21.2070396 10.821,21.1690396 L10.821,1.76503957 C10.53,1.72703957 10.234,1.70703957 9.935,1.70703957 C9.638,1.70703957 9.344,1.72703957 9.055,1.76503957 Z M5.218,3.50003957 L5.218,19.4360396 C5.762,19.8960396 6.354,20.2780396 6.986,20.5700396 L6.986,2.36403957 C6.354,2.65603957 5.762,3.03903957 5.218,3.50003957 Z M3.149,16.8990396 L3.149,6.03603957 C2.276,7.58903957 1.767,9.45803957 1.767,11.4680396 C1.767,13.4780396 2.276,15.3470396 3.149,16.8990396 Z M9.935,0.117039567 C15.311,0.117039567 19.67,5.19903957 19.67,11.4680396 C19.67,17.7370396 15.311,22.8180396 9.935,22.8180396 C4.559,22.8180396 0.2,17.7370396 0.2,11.4680396 C0.2,5.19903957 4.559,0.117039567 9.935,0.117039567 Z" id="Fill-463" fill-rule="nonzero"></path>
                <path d="M18.579,22.2470396 C18.808,22.5280396 19.246,22.7420396 19.617,22.7080396 L18.62,21.6350396 C18.57,21.7040396 18.462,21.7790396 18.392,21.8010396 C18.445,22.0260396 18.434,22.0810396 18.579,22.2470396 Z M17.962,21.5250396 C18.085,21.6490396 18.288,21.6500396 18.413,21.5260396 C18.538,21.4030396 18.538,21.2010396 18.414,21.0750396 C18.289,20.9520396 18.087,20.9510396 17.964,21.0740396 C17.838,21.1980396 17.838,21.4010396 17.962,21.5250396 Z M17.813,22.6930396 L18.123,21.8390396 L18.115,21.8400396 C18.045,21.8340396 17.977,21.8120396 17.916,21.7770396 L17.91,21.7750396 C17.846,21.9370396 17.803,22.0280396 17.608,22.1930396 C17.754,22.3540396 17.775,22.5910396 17.813,22.6930396 Z M13.531,22.7360396 C15.059,22.5170396 16.837,21.9570396 17.648,21.4670396 L17.662,21.4660396 C17.644,21.4050396 17.624,21.3300396 17.63,21.2670396 C17.458,21.1700396 17.285,21.1300396 17.077,21.1080396 C16.105,21.0530396 15.641,22.0160396 14.349,22.4800396 L13.531,22.7360396 Z M17.21,20.3290396 C17.21,20.3290396 17.283,20.5370396 17.205,20.8730396 C17.205,20.8730396 17.407,20.8700396 17.718,21.0220396 L17.721,21.0120396 C17.742,20.9760396 17.767,20.9420396 17.797,20.9110396 C17.814,20.8940396 17.832,20.8790396 17.851,20.8660396 L17.85,20.8620396 L17.21,20.3290396 Z M19.097,17.6780396 C18.66,18.8050396 17.724,19.4330396 18.023,20.4120396 C18.023,20.4120396 18.05,20.6110396 18.17,20.7490396 C18.239,20.7360396 18.372,20.7770396 18.372,20.7770396 C18.952,19.2590396 19.552,17.6050396 19.713,15.5990396 C19.555,16.1960396 19.653,16.2420396 19.097,17.6780396 Z M19.598,20.9440396 C19.403,20.9030396 19.12,20.6930396 19.098,20.6650396 C19.098,20.6610396 19.098,20.6610396 19.097,20.6610396 C19.095,20.6600396 19.069,20.6850396 19.07,20.6890396 C19.067,20.7220396 18.939,20.9210396 18.688,21.0700396 L18.691,21.0830396 C18.716,21.1360396 18.728,21.1930396 18.732,21.2490396 L18.741,21.2400396 C18.741,21.2400396 19.46,21.0000396 19.598,20.9440396 Z M19.415,21.6570396 C19.752,21.9470396 19.902,22.5240396 19.827,22.9530396 C19.293,23.0000396 18.834,22.8300396 18.524,22.5240396 C18.253,22.5950396 17.895,22.8290396 17.729,22.9600396 C17.639,22.7470396 17.568,22.4960396 17.431,22.3140396 C16.257,23.1030396 15.327,22.7590396 13.22,22.8270396 L13.22,22.7660396 C13.898,22.5140396 14.116,22.4070396 14.629,22.1400396 C15.751,21.5580396 15.95,20.9220396 16.991,20.8830396 C17.061,20.4370396 17.027,20.3840396 16.996,20.1110396 C17.246,20.1300396 17.507,20.1870396 17.724,20.1430396 C17.715,19.5060396 17.969,19.1320396 18.087,18.9510396 C18.184,18.8030396 18.217,18.7370396 18.388,18.4870396 C18.988,17.6050396 19.409,16.4090396 19.723,15.3280396 L19.773,15.3280396 L19.825,18.9270396 C19.762,19.6220396 19.625,19.9120396 19.242,20.4890396 C19.415,20.6380396 19.672,20.7730396 19.871,20.8710396 C19.716,21.1020396 19.481,21.3730396 19.415,21.6570396 Z" id="Fill-464" fill-rule="nonzero"></path>
                <path d="M18.579,0.731039567 C18.434,0.899039567 18.445,0.953039567 18.392,1.18103957 C18.462,1.20103957 18.57,1.27603957 18.62,1.34503957 L19.617,0.272039567 C19.246,0.238039567 18.808,0.452039567 18.579,0.731039567 Z M17.962,1.45503957 C17.838,1.57903957 17.838,1.78103957 17.964,1.90603957 C18.087,2.02903957 18.289,2.02903957 18.414,1.90403957 C18.538,1.78003957 18.538,1.57803957 18.413,1.45303957 C18.288,1.33003957 18.085,1.33003957 17.962,1.45503957 Z M17.813,0.288039567 C17.775,0.389039567 17.754,0.625039567 17.608,0.786039567 C17.803,0.953039567 17.846,1.04303957 17.91,1.20503957 L17.916,1.20403957 C17.977,1.16703957 18.045,1.14603957 18.115,1.13903957 L18.123,1.14103957 L17.813,0.288039567 Z M13.531,0.245039567 L14.349,0.499039567 C15.641,0.963039567 16.105,1.92703957 17.077,1.87203957 C17.285,1.85103957 17.458,1.80903957 17.63,1.71403957 C17.624,1.64903957 17.644,1.57603957 17.662,1.51403957 L17.648,1.51403957 C16.837,1.02103957 15.059,0.463039567 13.531,0.245039567 Z M17.21,2.65103957 L17.85,2.11903957 L17.851,2.11403957 C17.832,2.10003957 17.814,2.08403957 17.797,2.06903957 C17.767,2.03703957 17.742,2.00303957 17.721,1.96703957 L17.718,1.95903957 C17.407,2.11003957 17.205,2.10803957 17.205,2.10803957 C17.283,2.44303957 17.21,2.65103957 17.21,2.65103957 Z M19.097,5.30303957 C19.653,6.73703957 19.555,6.78603957 19.713,7.38203957 C19.552,5.37603957 18.952,3.72003957 18.372,2.20303957 C18.372,2.20303957 18.239,2.24303957 18.17,2.23103957 C18.05,2.37003957 18.023,2.56803957 18.023,2.56803957 C17.724,3.54703957 18.66,4.17403957 19.097,5.30303957 Z M19.598,2.03603957 C19.46,1.98003957 18.741,1.74003957 18.741,1.74003957 L18.732,1.73103957 C18.728,1.78803957 18.716,1.84403957 18.691,1.89803957 L18.688,1.91003957 C18.939,2.06003957 19.067,2.25903957 19.07,2.29203957 C19.069,2.29403957 19.095,2.32103957 19.097,2.31903957 C19.098,2.31903957 19.098,2.31803957 19.098,2.31603957 C19.12,2.28703957 19.403,2.07703957 19.598,2.03603957 Z M19.415,1.32403957 C19.481,1.60603957 19.716,1.87803957 19.871,2.11003957 C19.672,2.20703957 19.415,2.34203957 19.242,2.49203957 C19.625,3.07003957 19.762,3.35903957 19.825,4.05403957 L19.773,7.65203957 L19.723,7.65203957 C19.409,6.57003957 18.988,5.37603957 18.388,4.49403957 C18.217,4.24303957 18.184,4.17703957 18.087,4.02903957 C17.969,3.84803957 17.715,3.47403957 17.724,2.83703957 C17.507,2.79403957 17.246,2.84903957 16.996,2.86903957 C17.027,2.59603957 17.061,2.54303957 16.991,2.09703957 C15.95,2.05803957 15.751,1.42103957 14.629,0.840039567 C14.116,0.575039567 13.898,0.466039567 13.22,0.214039567 L13.22,0.153039567 C15.327,0.222039567 16.257,-0.122960433 17.431,0.667039567 C17.568,0.485039567 17.639,0.234039567 17.729,0.0200395669 C17.895,0.150039567 18.253,0.387039567 18.524,0.456039567 C18.834,0.150039567 19.293,-0.0209604331 19.827,0.0280395669 C19.902,0.457039567 19.752,1.03403957 19.415,1.32403957 Z" id="Fill-465" fill-rule="nonzero"></path>
                <path d="M1.292,22.2290396 C1.436,22.0610396 1.426,22.0080396 1.48,21.7810396 C1.409,21.7610396 1.302,21.6850396 1.252,21.6160396 L0.255,22.6890396 C0.625,22.7230396 1.064,22.5100396 1.292,22.2290396 Z M1.909,21.5070396 C2.033,21.3810396 2.033,21.1790396 1.908,21.0560396 C1.783,20.9320396 1.581,20.9320396 1.457,21.0570396 C1.333,21.1810396 1.333,21.3830396 1.459,21.5070396 C1.583,21.6320396 1.785,21.6310396 1.909,21.5070396 Z M2.059,22.6720396 C2.097,22.5720396 2.118,22.3340396 2.263,22.1740396 C2.068,22.0090396 2.025,21.9170396 1.961,21.7550396 L1.955,21.7570396 C1.894,21.7930396 1.826,21.8140396 1.757,21.8200396 L1.749,21.8200396 L2.059,22.6720396 Z M6.34,22.7160396 L5.523,22.4610396 C4.231,21.9980396 3.767,21.0340396 2.794,21.0890396 C2.586,21.1110396 2.413,21.1520396 2.241,21.2480396 C2.248,21.3110396 2.227,21.3850396 2.209,21.4470396 L2.223,21.4470396 C3.035,21.9370396 4.812,22.4990396 6.34,22.7160396 Z M2.662,20.3100396 L2.021,20.8420396 L2.019,20.8470396 C2.038,20.8610396 2.057,20.8750396 2.074,20.8930396 C2.104,20.9240396 2.13,20.9570396 2.151,20.9930396 L2.154,21.0030396 C2.465,20.8520396 2.666,20.8530396 2.666,20.8530396 C2.588,20.5180396 2.662,20.3100396 2.662,20.3100396 Z M0.774,17.6590396 C0.219,16.2230396 0.316,16.1760396 0.159,15.5790396 C0.319,17.5860396 0.92,19.2410396 1.499,20.7580396 C1.499,20.7580396 1.633,20.7170396 1.701,20.7300396 C1.822,20.5910396 1.848,20.3930396 1.848,20.3930396 C2.147,19.4130396 1.21,18.7860396 0.774,17.6590396 Z M0.274,20.9250396 C0.411,20.9810396 1.13,21.2210396 1.13,21.2210396 L1.14,21.2300396 C1.142,21.1730396 1.156,21.1160396 1.181,21.0630396 L1.184,21.0520396 C0.932,20.9010396 0.805,20.7020396 0.801,20.6690396 C0.803,20.6660396 0.777,20.6400396 0.775,20.6400396 C0.773,20.6410396 0.773,20.6420396 0.773,20.6440396 C0.751,20.6730396 0.469,20.8840396 0.274,20.9250396 Z M0.455,21.6380396 C0.39,21.3540396 0.156,21.0830396 4.26325641e-14,20.8520396 C0.2,20.7530396 0.455,20.6200396 0.628,20.4690396 C0.246,19.8910396 0.109,19.6030396 0.046,18.9080396 L0.099,15.3070396 L0.149,15.3070396 C0.463,16.3910396 0.883,17.5860396 1.483,18.4680396 C1.654,18.7190396 1.687,18.7840396 1.783,18.9320396 C1.902,19.1140396 2.157,19.4870396 2.147,20.1230396 C2.364,20.1670396 2.624,20.1110396 2.875,20.0930396 C2.844,20.3660396 2.809,20.4170396 2.88,20.8630396 C3.921,20.9030396 4.12,21.5390396 5.242,22.1200396 C5.756,22.3870396 5.973,22.4950396 6.65,22.7460396 L6.65,22.8060396 C4.545,22.7400396 3.614,23.0850396 2.44,22.2940396 C2.304,22.4770396 2.232,22.7280396 2.142,22.9410396 C1.975,22.8100396 1.619,22.5750396 1.348,22.5040396 C1.038,22.8110396 0.578,22.9810396 0.045,22.9330396 C-0.031,22.5040396 0.119,21.9270396 0.455,21.6380396 Z" id="Fill-466" fill-rule="nonzero"></path>
                <path d="M1.292,0.712039567 C1.064,0.433039567 0.625,0.218039567 0.255,0.253039567 L1.252,1.32603957 C1.302,1.25603957 1.409,1.18103957 1.48,1.16103957 C1.426,0.934039567 1.436,0.881039567 1.292,0.712039567 Z M1.909,1.43503957 C1.785,1.31003957 1.583,1.31003957 1.459,1.43403957 C1.333,1.55903957 1.333,1.76103957 1.457,1.88403957 C1.581,2.01003957 1.783,2.01003957 1.908,1.88603957 C2.033,1.76303957 2.033,1.55903957 1.909,1.43503957 Z M2.059,0.269039567 L1.749,1.12103957 L1.757,1.12103957 C1.826,1.12603957 1.894,1.14703957 1.955,1.18403957 L1.961,1.18603957 C2.025,1.02403957 2.068,0.934039567 2.263,0.766039567 C2.118,0.606039567 2.097,0.369039567 2.059,0.269039567 Z M6.34,0.225039567 C4.812,0.443039567 3.035,1.00303957 2.223,1.49503957 L2.209,1.49503957 C2.227,1.55603957 2.248,1.62903957 2.241,1.69303957 C2.413,1.79003957 2.586,1.83103957 2.794,1.85203957 C3.767,1.90803957 4.231,0.943039567 5.523,0.481039567 L6.34,0.225039567 Z M2.662,2.63103957 C2.662,2.63103957 2.588,2.42303957 2.666,2.08803957 C2.666,2.08803957 2.465,2.09003957 2.154,1.93903957 L2.151,1.94903957 C2.13,1.98403957 2.104,2.01803957 2.074,2.04903957 C2.057,2.06603957 2.038,2.08003957 2.019,2.09503957 L2.021,2.09903957 L2.662,2.63103957 Z M0.774,5.28403957 C1.21,4.15603957 2.147,3.52703957 1.848,2.54903957 C1.848,2.54903957 1.822,2.35003957 1.701,2.21203957 C1.633,2.22403957 1.499,2.18403957 1.499,2.18403957 C0.92,3.70103957 0.319,5.35603957 0.159,7.36203957 C0.316,6.76603957 0.219,6.71903957 0.774,5.28403957 Z M0.274,2.01803957 C0.469,2.05803957 0.751,2.26803957 0.773,2.29703957 C0.773,2.29903957 0.773,2.30003957 0.775,2.30103957 C0.777,2.30203957 0.803,2.27603957 0.801,2.27203957 C0.805,2.23903957 0.932,2.04003957 1.184,1.89103957 L1.181,1.87803957 C1.156,1.82603957 1.142,1.76903957 1.14,1.71203957 L1.13,1.72203957 C1.13,1.72203957 0.411,1.96103957 0.274,2.01803957 Z M0.455,1.30503957 C0.119,1.01403957 -0.031,0.437039567 0.045,0.00803956694 C0.578,-0.0399604331 1.038,0.130039567 1.348,0.436039567 C1.619,0.367039567 1.975,0.131039567 2.142,3.95669399e-05 C2.232,0.214039567 2.304,0.465039567 2.44,0.647039567 C3.614,-0.142960433 4.545,0.203039567 6.65,0.135039567 L6.65,0.194039567 C5.973,0.446039567 5.756,0.555039567 5.242,0.822039567 C4.12,1.40203957 3.921,2.03803957 2.88,2.07803957 C2.809,2.52303957 2.844,2.57703957 2.875,2.84903957 C2.624,2.82903957 2.364,2.77403957 2.147,2.81803957 C2.157,3.45503957 1.902,3.82703957 1.783,4.01103957 C1.687,4.15903957 1.654,4.22303957 1.483,4.47403957 C0.883,5.35603957 0.463,6.55003957 0.149,7.63303957 L0.099,7.63303957 L0.046,4.03403957 C0.109,3.33903957 0.246,3.05003957 0.628,2.47303957 C0.455,2.32203957 0.2,2.18703957 4.26325641e-14,2.09003957 C0.156,1.85903957 0.39,1.58603957 0.455,1.30503957 Z" id="Fill-467" fill-rule="nonzero"></path>
                <path d="M33.378,10.7470396 L32.79,10.7470396 L32.682,9.18803957 L32.658,9.18803957 C32.082,10.4110396 30.931,10.9270396 29.696,10.9270396 C26.997,10.9270396 25.654,8.80503957 25.654,6.46603957 C25.654,4.12703957 26.997,2.00403957 29.696,2.00403957 C31.495,2.00403957 32.958,2.97503957 33.27,4.84703957 L32.454,4.84703957 C32.346,3.86303957 31.327,2.70003957 29.696,2.70003957 C27.429,2.70003957 26.47,4.59503957 26.47,6.46603957 C26.47,8.33703957 27.429,10.2320396 29.696,10.2320396 C31.591,10.2320396 32.694,8.90003957 32.658,7.08903957 L29.744,7.08903957 L29.744,6.39403957 L33.378,6.39403957 L33.378,10.7470396" id="Fill-468"></path>
                <path d="M39.259,7.22203957 C39.224,6.08203957 38.516,5.01503957 37.292,5.01503957 C36.057,5.01503957 35.373,6.09403957 35.254,7.22203957 L39.259,7.22203957 Z M35.254,7.85703957 C35.266,8.96003957 35.841,10.2920396 37.292,10.2920396 C38.396,10.2920396 38.996,9.64403957 39.235,8.70803957 L39.991,8.70803957 C39.667,10.1120396 38.851,10.9270396 37.292,10.9270396 C35.326,10.9270396 34.498,9.41603957 34.498,7.65303957 C34.498,6.02203957 35.326,4.37903957 37.292,4.37903957 C39.284,4.37903957 40.075,6.11803957 40.015,7.85703957 L35.254,7.85703957 Z" id="Fill-469" fill-rule="nonzero"></path>
                <path d="M41.026,4.55903957 L41.782,4.55903957 L41.782,5.62603957 L41.806,5.62603957 C42.081,4.88303957 42.909,4.37903957 43.785,4.37903957 C45.523,4.37903957 46.051,5.29003957 46.051,6.76603957 L46.051,10.7470396 L45.295,10.7470396 L45.295,6.88603957 C45.295,5.81803957 44.948,5.01503957 43.725,5.01503957 C42.525,5.01503957 41.806,5.92603957 41.782,7.13803957 L41.782,10.7470396 L41.026,10.7470396 L41.026,4.55903957" id="Fill-470"></path>
                <path d="M51.931,7.22203957 C51.895,6.08203957 51.188,5.01503957 49.964,5.01503957 C48.729,5.01503957 48.045,6.09403957 47.926,7.22203957 L51.931,7.22203957 Z M47.926,7.85703957 C47.937,8.96003957 48.513,10.2920396 49.964,10.2920396 C51.068,10.2920396 51.667,9.64403957 51.907,8.70803957 L52.663,8.70803957 C52.339,10.1120396 51.523,10.9270396 49.964,10.9270396 C47.997,10.9270396 47.17,9.41603957 47.17,7.65303957 C47.17,6.02203957 47.997,4.37903957 49.964,4.37903957 C51.955,4.37903957 52.747,6.11803957 52.687,7.85703957 L47.926,7.85703957 Z" id="Fill-471" fill-rule="nonzero"></path>
                <path d="M53.71,4.55903957 L54.405,4.55903957 L54.405,6.01003957 L54.43,6.01003957 C54.813,5.01503957 55.653,4.42703957 56.768,4.47503957 L56.768,5.23003957 C55.401,5.15903957 54.465,6.16603957 54.465,7.44903957 L54.465,10.7470396 L53.71,10.7470396 L53.71,4.55903957" id="Fill-472"></path>
                <path d="M61.447,7.36503957 L61.423,7.36503957 C61.328,7.54503957 60.992,7.60503957 60.788,7.64103957 C59.504,7.86903957 57.909,7.85703957 57.909,9.06803957 C57.909,9.82403957 58.581,10.2920396 59.288,10.2920396 C60.44,10.2920396 61.459,9.56003957 61.447,8.34903957 L61.447,7.36503957 Z M57.417,6.45403957 C57.49,5.00303957 58.509,4.37903957 59.924,4.37903957 C61.016,4.37903957 62.203,4.71503957 62.203,6.37003957 L62.203,9.65603957 C62.203,9.94403957 62.347,10.1120396 62.647,10.1120396 C62.731,10.1120396 62.827,10.0880396 62.887,10.0640396 L62.887,10.7000396 C62.719,10.7350396 62.599,10.7470396 62.395,10.7470396 C61.627,10.7470396 61.507,10.3160396 61.507,9.66803957 L61.483,9.66803957 C60.955,10.4720396 60.416,10.9270396 59.228,10.9270396 C58.089,10.9270396 57.154,10.3640396 57.154,9.11603957 C57.154,7.37703957 58.845,7.31703957 60.476,7.12503957 C61.1,7.05403957 61.447,6.97003957 61.447,6.28603957 C61.447,5.26603957 60.716,5.01503957 59.828,5.01503957 C58.893,5.01503957 58.197,5.44603957 58.173,6.45403957 L57.417,6.45403957 Z" id="Fill-473" fill-rule="nonzero"></path>
                <polygon id="Fill-474" points="63.729 10.7470396 64.485 10.7470396 64.485 2.18403957 63.729 2.18403957"></polygon>
                <path d="M65.949,10.7470396 L66.705,10.7470396 L66.705,4.55903957 L65.949,4.55903957 L65.949,10.7470396 Z M65.949,3.39503957 L66.705,3.39503957 L66.705,2.18403957 L65.949,2.18403957 L65.949,3.39503957 Z" id="Fill-475" fill-rule="nonzero"></path>
                <path d="M69.356,4.55903957 L70.616,4.55903957 L70.616,5.19503957 L69.356,5.19503957 L69.356,9.36803957 C69.356,9.86003957 69.428,10.1480396 69.968,10.1840396 C70.184,10.1840396 70.4,10.1720396 70.616,10.1480396 L70.616,10.7950396 C70.388,10.7950396 70.172,10.8190396 69.944,10.8190396 C68.936,10.8190396 68.589,10.4840396 68.601,9.42803957 L68.601,5.19503957 L67.521,5.19503957 L67.521,4.55903957 L68.601,4.55903957 L68.601,2.70003957 L69.356,2.70003957 L69.356,4.55903957" id="Fill-476"></path>
                <path d="M75.666,7.36503957 L75.642,7.36503957 C75.547,7.54503957 75.211,7.60503957 75.007,7.64103957 C73.724,7.86903957 72.128,7.85703957 72.128,9.06803957 C72.128,9.82403957 72.8,10.2920396 73.508,10.2920396 C74.659,10.2920396 75.679,9.56003957 75.666,8.34903957 L75.666,7.36503957 Z M71.637,6.45403957 C71.709,5.00303957 72.728,4.37903957 74.143,4.37903957 C75.235,4.37903957 76.422,4.71503957 76.422,6.37003957 L76.422,9.65603957 C76.422,9.94403957 76.566,10.1120396 76.866,10.1120396 C76.95,10.1120396 77.046,10.0880396 77.106,10.0640396 L77.106,10.7000396 C76.938,10.7350396 76.818,10.7470396 76.614,10.7470396 C75.847,10.7470396 75.726,10.3160396 75.726,9.66803957 L75.703,9.66803957 C75.175,10.4720396 74.635,10.9270396 73.448,10.9270396 C72.309,10.9270396 71.373,10.3640396 71.373,9.11603957 C71.373,7.37703957 73.064,7.31703957 74.695,7.12503957 C75.319,7.05403957 75.666,6.97003957 75.666,6.28603957 C75.666,5.26603957 74.935,5.01503957 74.047,5.01503957 C73.112,5.01503957 72.416,5.44603957 72.392,6.45403957 L71.637,6.45403957 Z" id="Fill-477" fill-rule="nonzero"></path>
                <path d="M79.136,4.55903957 L80.395,4.55903957 L80.395,5.19503957 L79.136,5.19503957 L79.136,9.36803957 C79.136,9.86003957 79.208,10.1480396 79.748,10.1840396 C79.964,10.1840396 80.18,10.1720396 80.395,10.1480396 L80.395,10.7950396 C80.167,10.7950396 79.952,10.8190396 79.724,10.8190396 C78.716,10.8190396 78.369,10.4840396 78.381,9.42803957 L78.381,5.19503957 L77.301,5.19503957 L77.301,4.55903957 L78.381,4.55903957 L78.381,2.70003957 L79.136,2.70003957 L79.136,4.55903957" id="Fill-478"></path>
                <path d="M87.343,10.2920396 C88.95,10.2920396 89.514,8.93603957 89.514,7.65303957 C89.514,6.37003957 88.95,5.01503957 87.343,5.01503957 C85.904,5.01503957 85.316,6.37003957 85.316,7.65303957 C85.316,8.93603957 85.904,10.2920396 87.343,10.2920396 Z M90.269,10.7470396 L89.574,10.7470396 L89.574,9.57203957 L89.55,9.57203957 C89.226,10.3760396 88.243,10.9270396 87.343,10.9270396 C85.46,10.9270396 84.56,9.40403957 84.56,7.65303957 C84.56,5.90203957 85.46,4.37903957 87.343,4.37903957 C88.267,4.37903957 89.166,4.84703957 89.49,5.73403957 L89.514,5.73403957 L89.514,2.18403957 L90.269,2.18403957 L90.269,10.7470396 Z" id="Fill-479" fill-rule="nonzero"></path>
                <path d="M96.162,7.22203957 C96.126,6.08203957 95.418,5.01503957 94.195,5.01503957 C92.959,5.01503957 92.276,6.09403957 92.156,7.22203957 L96.162,7.22203957 Z M92.156,7.85703957 C92.168,8.96003957 92.744,10.2920396 94.195,10.2920396 C95.298,10.2920396 95.898,9.64403957 96.138,8.70803957 L96.893,8.70803957 C96.57,10.1120396 95.754,10.9270396 94.195,10.9270396 C92.228,10.9270396 91.4,9.41603957 91.4,7.65303957 C91.4,6.02203957 92.228,4.37903957 94.195,4.37903957 C96.186,4.37903957 96.977,6.11803957 96.917,7.85703957 L92.156,7.85703957 Z" id="Fill-480" fill-rule="nonzero"></path>
                <path d="M107.681,4.77503957 C107.393,3.45503957 106.301,2.70003957 105.054,2.70003957 C102.788,2.70003957 101.828,4.59503957 101.828,6.46603957 C101.828,8.33703957 102.788,10.2320396 105.054,10.2320396 C106.637,10.2320396 107.644,9.00803957 107.801,7.48503957 L108.616,7.48503957 C108.388,9.58403957 107.057,10.9270396 105.054,10.9270396 C102.355,10.9270396 101.012,8.80503957 101.012,6.46603957 C101.012,4.12703957 102.355,2.00403957 105.054,2.00403957 C106.673,2.00403957 108.28,2.97503957 108.496,4.77503957 L107.681,4.77503957" id="Fill-481"></path>
                <path d="M113.682,7.36503957 L113.658,7.36503957 C113.562,7.54503957 113.226,7.60503957 113.022,7.64103957 C111.739,7.86903957 110.143,7.85703957 110.143,9.06803957 C110.143,9.82403957 110.815,10.2920396 111.523,10.2920396 C112.674,10.2920396 113.694,9.56003957 113.682,8.34903957 L113.682,7.36503957 Z M109.652,6.45403957 C109.724,5.00303957 110.744,4.37903957 112.159,4.37903957 C113.25,4.37903957 114.437,4.71503957 114.437,6.37003957 L114.437,9.65603957 C114.437,9.94403957 114.581,10.1120396 114.881,10.1120396 C114.965,10.1120396 115.061,10.0880396 115.121,10.0640396 L115.121,10.7000396 C114.953,10.7350396 114.833,10.7470396 114.629,10.7470396 C113.862,10.7470396 113.742,10.3160396 113.742,9.66803957 L113.718,9.66803957 C113.19,10.4720396 112.65,10.9270396 111.463,10.9270396 C110.324,10.9270396 109.388,10.3640396 109.388,9.11603957 C109.388,7.37703957 111.079,7.31703957 112.71,7.12503957 C113.334,7.05403957 113.682,6.97003957 113.682,6.28603957 C113.682,5.26603957 112.95,5.01503957 112.062,5.01503957 C111.127,5.01503957 110.432,5.44603957 110.408,6.45403957 L109.652,6.45403957 Z" id="Fill-482" fill-rule="nonzero"></path>
                <path d="M117.151,4.55903957 L118.411,4.55903957 L118.411,5.19503957 L117.151,5.19503957 L117.151,9.36803957 C117.151,9.86003957 117.223,10.1480396 117.763,10.1840396 C117.979,10.1840396 118.195,10.1720396 118.411,10.1480396 L118.411,10.7950396 C118.183,10.7950396 117.967,10.8190396 117.739,10.8190396 C116.731,10.8190396 116.384,10.4840396 116.396,9.42803957 L116.396,5.19503957 L115.316,5.19503957 L115.316,4.55903957 L116.396,4.55903957 L116.396,2.70003957 L117.151,2.70003957 L117.151,4.55903957" id="Fill-483"></path>
                <path d="M123.461,7.36503957 L123.437,7.36503957 C123.342,7.54503957 123.006,7.60503957 122.802,7.64103957 C121.518,7.86903957 119.923,7.85703957 119.923,9.06803957 C119.923,9.82403957 120.595,10.2920396 121.303,10.2920396 C122.454,10.2920396 123.474,9.56003957 123.461,8.34903957 L123.461,7.36503957 Z M119.432,6.45403957 C119.504,5.00303957 120.523,4.37903957 121.938,4.37903957 C123.03,4.37903957 124.217,4.71503957 124.217,6.37003957 L124.217,9.65603957 C124.217,9.94403957 124.361,10.1120396 124.661,10.1120396 C124.745,10.1120396 124.841,10.0880396 124.901,10.0640396 L124.901,10.7000396 C124.733,10.7350396 124.613,10.7470396 124.409,10.7470396 C123.642,10.7470396 123.521,10.3160396 123.521,9.66803957 L123.497,9.66803957 C122.97,10.4720396 122.43,10.9270396 121.243,10.9270396 C120.103,10.9270396 119.168,10.3640396 119.168,9.11603957 C119.168,7.37703957 120.859,7.31703957 122.49,7.12503957 C123.114,7.05403957 123.461,6.97003957 123.461,6.28603957 C123.461,5.26603957 122.73,5.01503957 121.842,5.01503957 C120.907,5.01503957 120.211,5.44603957 120.187,6.45403957 L119.432,6.45403957 Z" id="Fill-484" fill-rule="nonzero"></path>
                <polygon id="Fill-485" points="125.744 10.7470396 126.499 10.7470396 126.499 2.18403957 125.744 2.18403957"></polygon>
                <path d="M132.965,10.7470396 L132.269,10.7470396 L132.269,9.63203957 L132.246,9.63203957 C131.85,10.4600396 131.034,10.9270396 130.111,10.9270396 C128.552,10.9270396 127.94,10.0160396 127.94,8.57703957 L127.94,4.55903957 L128.696,4.55903957 L128.696,8.58903957 C128.731,9.70403957 129.151,10.2920396 130.351,10.2920396 C131.646,10.2920396 132.209,9.06803957 132.209,7.80903957 L132.209,4.55903957 L132.965,4.55903957 L132.965,10.7470396" id="Fill-486"></path>
                <path d="M134.384,4.55903957 L135.14,4.55903957 L135.14,5.62603957 L135.163,5.62603957 C135.439,4.88303957 136.267,4.37903957 137.142,4.37903957 C138.881,4.37903957 139.409,5.29003957 139.409,6.76603957 L139.409,10.7470396 L138.653,10.7470396 L138.653,6.88603957 C138.653,5.81803957 138.306,5.01503957 137.082,5.01503957 C135.883,5.01503957 135.163,5.92603957 135.14,7.13803957 L135.14,10.7470396 L134.384,10.7470396 L134.384,4.55903957" id="Fill-487"></path>
                <path d="M140.144,4.55903957 L140.948,4.55903957 L142.986,9.83603957 L144.893,4.55903957 L145.649,4.55903957 L142.962,11.6950396 C142.531,12.7380396 142.279,13.0380396 141.331,13.0380396 C141.032,13.0260396 140.875,13.0260396 140.756,12.9780396 L140.756,12.3430396 C140.935,12.3790396 141.103,12.4030396 141.271,12.4030396 C141.943,12.4030396 142.099,12.0070396 142.351,11.4310396 L142.615,10.7240396 L140.144,4.55903957" id="Fill-488"></path>
                <path d="M150.353,7.36503957 L150.33,7.36503957 C150.234,7.54503957 149.898,7.60503957 149.694,7.64103957 C148.411,7.86903957 146.815,7.85703957 146.815,9.06803957 C146.815,9.82403957 147.487,10.2920396 148.195,10.2920396 C149.346,10.2920396 150.366,9.56003957 150.353,8.34903957 L150.353,7.36503957 Z M146.324,6.45403957 C146.396,5.00303957 147.415,4.37903957 148.83,4.37903957 C149.922,4.37903957 151.109,4.71503957 151.109,6.37003957 L151.109,9.65603957 C151.109,9.94403957 151.253,10.1120396 151.553,10.1120396 C151.637,10.1120396 151.733,10.0880396 151.793,10.0640396 L151.793,10.7000396 C151.625,10.7350396 151.505,10.7470396 151.301,10.7470396 C150.534,10.7470396 150.413,10.3160396 150.413,9.66803957 L150.39,9.66803957 C149.862,10.4720396 149.322,10.9270396 148.135,10.9270396 C146.996,10.9270396 146.06,10.3640396 146.06,9.11603957 C146.06,7.37703957 147.751,7.31703957 149.382,7.12503957 C150.006,7.05403957 150.353,6.97003957 150.353,6.28603957 C150.353,5.26603957 149.622,5.01503957 148.734,5.01503957 C147.799,5.01503957 147.103,5.44603957 147.08,6.45403957 L146.324,6.45403957 Z" id="Fill-489" fill-rule="nonzero"></path>
                <path d="M27.909,21.1640396 L29.588,21.1640396 C30.679,21.1640396 31.723,20.4930396 31.723,18.5980396 C31.723,16.8700396 31.123,15.7670396 29.252,15.7670396 L27.909,15.7670396 L27.909,21.1640396 Z M26.026,14.1840396 L29.72,14.1840396 C31.938,14.1840396 33.605,15.5760396 33.605,18.4180396 C33.605,20.9000396 32.334,22.7470396 29.72,22.7470396 L26.026,22.7470396 L26.026,14.1840396 Z" id="Fill-490" fill-rule="nonzero"></path>
                <path d="M38.912,18.9810396 C38.756,18.1180396 38.384,17.6620396 37.557,17.6620396 C36.477,17.6620396 36.165,18.5020396 36.141,18.9810396 L38.912,18.9810396 Z M36.141,20.0610396 C36.189,21.1410396 36.717,21.6320396 37.664,21.6320396 C38.348,21.6320396 38.9,21.2120396 39.008,20.8280396 L40.507,20.8280396 C40.027,22.2920396 39.008,22.9150396 37.604,22.9150396 C35.649,22.9150396 34.438,21.5720396 34.438,19.6530396 C34.438,17.7940396 35.722,16.3790396 37.604,16.3790396 C39.715,16.3790396 40.735,18.1540396 40.615,20.0610396 L36.141,20.0610396 Z" id="Fill-491" fill-rule="nonzero"></path>
                <path d="M46.231,19.6650396 C46.231,18.6820396 45.835,17.6620396 44.744,17.6620396 C43.628,17.6620396 43.268,18.6580396 43.268,19.6650396 C43.268,20.6730396 43.652,21.6320396 44.756,21.6320396 C45.871,21.6320396 46.231,20.6730396 46.231,19.6650396 Z M41.625,16.5470396 L43.245,16.5470396 L43.245,17.3380396 L43.268,17.3380396 C43.677,16.6790396 44.348,16.3790396 45.116,16.3790396 C47.059,16.3790396 47.934,17.9500396 47.934,19.7130396 C47.934,21.3680396 47.022,22.9150396 45.212,22.9150396 C44.468,22.9150396 43.761,22.5920396 43.352,21.9800396 L43.329,21.9800396 L43.329,24.9300396 L41.625,24.9300396 L41.625,16.5470396 Z" id="Fill-492" fill-rule="nonzero"></path>
                <path d="M52.819,19.7130396 C52.532,19.9650396 51.932,19.9770396 51.404,20.0730396 C50.876,20.1810396 50.397,20.3610396 50.397,20.9840396 C50.397,21.6200396 50.889,21.7760396 51.44,21.7760396 C52.771,21.7760396 52.819,20.7210396 52.819,20.3490396 L52.819,19.7130396 Z M48.886,18.4540396 C48.981,16.8590396 50.409,16.3790396 51.8,16.3790396 C53.036,16.3790396 54.522,16.6550396 54.522,18.1420396 L54.522,21.3680396 C54.522,21.9320396 54.582,22.4950396 54.738,22.7470396 L53.012,22.7470396 C52.952,22.5560396 52.903,22.3510396 52.892,22.1480396 C52.352,22.7110396 51.56,22.9150396 50.805,22.9150396 C49.629,22.9150396 48.694,22.3280396 48.694,21.0570396 C48.694,19.6530396 49.749,19.3170396 50.805,19.1730396 C51.848,19.0170396 52.819,19.0540396 52.819,18.3580396 C52.819,17.6260396 52.316,17.5180396 51.716,17.5180396 C51.068,17.5180396 50.649,17.7820396 50.589,18.4540396 L48.886,18.4540396 Z" id="Fill-493" fill-rule="nonzero"></path>
                <path d="M55.845,16.5470396 L57.464,16.5470396 L57.464,17.6980396 L57.488,17.6980396 C57.8,16.9190396 58.64,16.3790396 59.467,16.3790396 C59.587,16.3790396 59.731,16.4030396 59.839,16.4390396 L59.839,18.0220396 C59.683,17.9860396 59.432,17.9620396 59.227,17.9620396 C57.98,17.9620396 57.548,18.8620396 57.548,19.9530396 L57.548,22.7470396 L55.845,22.7470396 L55.845,16.5470396" id="Fill-494"></path>
                <path d="M62.672,16.5470396 L63.919,16.5470396 L63.919,17.6860396 L62.672,17.6860396 L62.672,20.7570396 C62.672,21.3320396 62.816,21.4760396 63.392,21.4760396 C63.572,21.4760396 63.74,21.4640396 63.919,21.4280396 L63.919,22.7600396 C63.632,22.8070396 63.26,22.8190396 62.924,22.8190396 C61.881,22.8190396 60.969,22.5790396 60.969,21.3440396 L60.969,17.6860396 L59.937,17.6860396 L59.937,16.5470396 L60.969,16.5470396 L60.969,14.6880396 L62.672,14.6880396 L62.672,16.5470396" id="Fill-495"></path>
                <path d="M68.6,19.7130396 C68.311,19.9650396 67.712,19.9770396 67.184,20.0730396 C66.656,20.1810396 66.177,20.3610396 66.177,20.9840396 C66.177,21.6200396 66.668,21.7760396 67.22,21.7760396 C68.551,21.7760396 68.6,20.7210396 68.6,20.3490396 L68.6,19.7130396 Z M64.665,18.4540396 C64.762,16.8590396 66.188,16.3790396 67.58,16.3790396 C68.815,16.3790396 70.302,16.6550396 70.302,18.1420396 L70.302,21.3680396 C70.302,21.9320396 70.362,22.4950396 70.518,22.7470396 L68.791,22.7470396 C68.731,22.5560396 68.683,22.3510396 68.671,22.1480396 C68.132,22.7110396 67.34,22.9150396 66.584,22.9150396 C65.409,22.9150396 64.474,22.3280396 64.474,21.0570396 C64.474,19.6530396 65.529,19.3170396 66.584,19.1730396 C67.628,19.0170396 68.6,19.0540396 68.6,18.3580396 C68.6,17.6260396 68.096,17.5180396 67.496,17.5180396 C66.848,17.5180396 66.429,17.7820396 66.369,18.4540396 L64.665,18.4540396 Z" id="Fill-496" fill-rule="nonzero"></path>
                <path d="M71.673,16.5470396 L73.28,16.5470396 L73.28,17.3870396 L73.304,17.3870396 C73.748,16.7510396 74.395,16.3790396 75.199,16.3790396 C75.979,16.3790396 76.674,16.6670396 77.01,17.4110396 C77.37,16.8700396 78.017,16.3790396 78.881,16.3790396 C80.201,16.3790396 81.148,16.9910396 81.148,18.5980396 L81.148,22.7470396 L79.445,22.7470396 L79.445,19.2330396 C79.445,18.4060396 79.373,17.7220396 78.401,17.7220396 C77.442,17.7220396 77.262,18.5140396 77.262,19.2930396 L77.262,22.7470396 L75.559,22.7470396 L75.559,19.2690396 C75.559,18.5500396 75.607,17.7220396 74.527,17.7220396 C74.192,17.7220396 73.376,17.9380396 73.376,19.1490396 L73.376,22.7470396 L71.673,22.7470396 L71.673,16.5470396" id="Fill-497"></path>
                <path d="M86.671,18.9810396 C86.515,18.1180396 86.143,17.6620396 85.316,17.6620396 C84.236,17.6620396 83.924,18.5020396 83.9,18.9810396 L86.671,18.9810396 Z M83.9,20.0610396 C83.948,21.1410396 84.476,21.6320396 85.424,21.6320396 C86.107,21.6320396 86.659,21.2120396 86.767,20.8280396 L88.266,20.8280396 C87.786,22.2920396 86.767,22.9150396 85.364,22.9150396 C83.409,22.9150396 82.197,21.5720396 82.197,19.6530396 C82.197,17.7940396 83.48,16.3790396 85.364,16.3790396 C87.475,16.3790396 88.494,18.1540396 88.374,20.0610396 L83.9,20.0610396 Z" id="Fill-498" fill-rule="nonzero"></path>
                <path d="M89.385,16.5470396 L91.004,16.5470396 L91.004,17.4110396 L91.04,17.4110396 C91.472,16.7150396 92.215,16.3790396 92.935,16.3790396 C94.746,16.3790396 95.202,17.3980396 95.202,18.9330396 L95.202,22.7470396 L93.498,22.7470396 L93.498,19.2450396 C93.498,18.2260396 93.199,17.7220396 92.407,17.7220396 C91.484,17.7220396 91.088,18.2380396 91.088,19.4970396 L91.088,22.7470396 L89.385,22.7470396 L89.385,16.5470396" id="Fill-499"></path>
                <path d="M98.66,16.5470396 L99.907,16.5470396 L99.907,17.6860396 L98.66,17.6860396 L98.66,20.7570396 C98.66,21.3320396 98.803,21.4760396 99.379,21.4760396 C99.559,21.4760396 99.727,21.4640396 99.907,21.4280396 L99.907,22.7600396 C99.619,22.8070396 99.247,22.8190396 98.911,22.8190396 C97.868,22.8190396 96.956,22.5790396 96.956,21.3440396 L96.956,17.6860396 L95.925,17.6860396 L95.925,16.5470396 L96.956,16.5470396 L96.956,14.6880396 L98.66,14.6880396 L98.66,16.5470396" id="Fill-500"></path>
                <path d="M106.999,17.6620396 C105.884,17.6620396 105.5,18.6220396 105.5,19.6410396 C105.5,20.6130396 105.944,21.6320396 106.999,21.6320396 C108.126,21.6320396 108.462,20.6490396 108.462,19.6290396 C108.462,18.6220396 108.102,17.6620396 106.999,17.6620396 Z M108.486,21.9560396 L108.462,21.9560396 C108.066,22.6270396 107.371,22.9150396 106.579,22.9150396 C104.708,22.9150396 103.797,21.3080396 103.797,19.5930396 C103.797,17.9260396 104.72,16.3790396 106.543,16.3790396 C107.275,16.3790396 107.995,16.6910396 108.378,17.3030396 L108.402,17.3030396 L108.402,14.1840396 L110.105,14.1840396 L110.105,22.7470396 L108.486,22.7470396 L108.486,21.9560396 Z" id="Fill-501" fill-rule="nonzero"></path>
                <path d="M111.56,14.1840396 L113.264,14.1840396 L113.264,16.0190396 C113.3,17.0870396 112.556,17.9020396 111.56,18.0340396 L111.56,17.2430396 C112.172,17.0380396 112.352,16.6190396 112.352,16.0310396 L111.56,16.0310396 L111.56,14.1840396" id="Fill-502"></path>
                <polyline id="Fill-503" points="114.909 14.1840396 121.313 14.1840396 121.313 15.7670396 116.791 15.7670396 116.791 17.6020396 120.941 17.6020396 120.941 19.0650396 116.791 19.0650396 116.791 21.1640396 121.409 21.1640396 121.409 22.7470396 114.909 22.7470396 114.909 14.1840396"></polyline>
                <path d="M125.443,17.6620396 C124.328,17.6620396 123.944,18.6220396 123.944,19.6410396 C123.944,20.6130396 124.388,21.6320396 125.443,21.6320396 C126.57,21.6320396 126.906,20.6490396 126.906,19.6290396 C126.906,18.6220396 126.546,17.6620396 125.443,17.6620396 Z M126.93,21.9560396 L126.906,21.9560396 C126.51,22.6270396 125.815,22.9150396 125.023,22.9150396 C123.152,22.9150396 122.241,21.3080396 122.241,19.5930396 C122.241,17.9260396 123.164,16.3790396 124.987,16.3790396 C125.719,16.3790396 126.438,16.6910396 126.822,17.3030396 L126.846,17.3030396 L126.846,14.1840396 L128.549,14.1840396 L128.549,22.7470396 L126.93,22.7470396 L126.93,21.9560396 Z" id="Fill-504" fill-rule="nonzero"></path>
                <path d="M135.653,22.7470396 L134.034,22.7470396 L134.034,21.8840396 L133.998,21.8840396 C133.566,22.5790396 132.823,22.9150396 132.103,22.9150396 C130.292,22.9150396 129.836,21.8960396 129.836,20.3610396 L129.836,16.5470396 L131.539,16.5470396 L131.539,20.0490396 C131.539,21.0680396 131.839,21.5720396 132.631,21.5720396 C133.555,21.5720396 133.95,21.0570396 133.95,19.7970396 L133.95,16.5470396 L135.653,16.5470396 L135.653,22.7470396" id="Fill-505"></path>
                <path d="M141.174,18.7300396 C141.066,18.0340396 140.622,17.6620396 139.914,17.6620396 C138.823,17.6620396 138.463,18.7660396 138.463,19.6770396 C138.463,20.5650396 138.811,21.6320396 139.879,21.6320396 C140.67,21.6320396 141.126,21.1280396 141.234,20.3730396 L142.877,20.3730396 C142.661,22.0160396 141.522,22.9150396 139.891,22.9150396 C138.019,22.9150396 136.76,21.5960396 136.76,19.7370396 C136.76,17.8060396 137.912,16.3790396 139.927,16.3790396 C141.39,16.3790396 142.733,17.1460396 142.841,18.7300396 L141.174,18.7300396" id="Fill-506"></path>
                <path d="M147.702,19.7130396 C147.414,19.9650396 146.814,19.9770396 146.287,20.0730396 C145.759,20.1810396 145.279,20.3610396 145.279,20.9840396 C145.279,21.6200396 145.771,21.7760396 146.323,21.7760396 C147.654,21.7760396 147.702,20.7210396 147.702,20.3490396 L147.702,19.7130396 Z M143.768,18.4540396 C143.864,16.8590396 145.291,16.3790396 146.683,16.3790396 C147.918,16.3790396 149.405,16.6550396 149.405,18.1420396 L149.405,21.3680396 C149.405,21.9320396 149.465,22.4950396 149.621,22.7470396 L147.893,22.7470396 C147.834,22.5560396 147.786,22.3510396 147.774,22.1480396 C147.234,22.7110396 146.442,22.9150396 145.687,22.9150396 C144.512,22.9150396 143.576,22.3280396 143.576,21.0570396 C143.576,19.6530396 144.632,19.3170396 145.687,19.1730396 C146.73,19.0170396 147.702,19.0540396 147.702,18.3580396 C147.702,17.6260396 147.198,17.5180396 146.599,17.5180396 C145.951,17.5180396 145.531,17.7820396 145.471,18.4540396 L143.768,18.4540396 Z" id="Fill-507" fill-rule="nonzero"></path>
                <path d="M154.949,18.7300396 C154.841,18.0340396 154.397,17.6620396 153.69,17.6620396 C152.599,17.6620396 152.239,18.7660396 152.239,19.6770396 C152.239,20.5650396 152.587,21.6320396 153.654,21.6320396 C154.446,21.6320396 154.901,21.1280396 155.009,20.3730396 L156.652,20.3730396 C156.436,22.0160396 155.297,22.9150396 153.666,22.9150396 C151.795,22.9150396 150.536,21.5960396 150.536,19.7370396 C150.536,17.8060396 151.687,16.3790396 153.702,16.3790396 C155.165,16.3790396 156.509,17.1460396 156.617,18.7300396 L154.949,18.7300396" id="Fill-508"></path>
                <path d="M157.663,22.7470396 L159.366,22.7470396 L159.366,16.5470396 L157.663,16.5470396 L157.663,22.7470396 Z M157.663,15.5870396 L159.366,15.5870396 L159.366,14.1840396 L157.663,14.1840396 L157.663,15.5870396 Z" id="Fill-509" fill-rule="nonzero"></path>
                <path d="M164.009,15.7790396 L162.822,15.7790396 L163.973,14.0760396 L165.856,14.0760396 L164.009,15.7790396 Z M163.722,21.6320396 C164.885,21.6320396 165.232,20.6370396 165.232,19.6530396 C165.232,18.6580396 164.885,17.6620396 163.722,17.6620396 C162.57,17.6620396 162.222,18.6580396 162.222,19.6530396 C162.222,20.6370396 162.57,21.6320396 163.722,21.6320396 Z M163.722,16.3790396 C165.676,16.3790396 166.935,17.6740396 166.935,19.6530396 C166.935,21.6200396 165.676,22.9150396 163.722,22.9150396 C161.778,22.9150396 160.519,21.6200396 160.519,19.6530396 C160.519,17.6740396 161.778,16.3790396 163.722,16.3790396 Z" id="Fill-510" fill-rule="nonzero"></path>
            </g>
        </g>
    </g>
</svg>