<svg xmlns="http://www.w3.org/2000/svg" width="193" height="26" viewBox="0 0 193 26">
    <g fill="#FFF" fill-rule="nonzero">
        <path d="M3.667 17.101c-.877-1.56-1.389-3.439-1.389-5.459 0-2.02.512-3.898 1.389-5.458v10.917M5.746 3.635a7.829 7.829 0 0 1 1.776-1.141V20.79a7.894 7.894 0 0 1-1.776-1.14V3.635M9.601 1.892a6.828 6.828 0 0 1 1.776 0v19.5a6.828 6.828 0 0 1-1.776 0v-19.5M13.457 2.497a7.853 7.853 0 0 1 1.775 1.143v16.004a7.85 7.85 0 0 1-1.775 1.142V2.497M17.313 6.195c.872 1.557 1.38 3.431 1.38 5.447 0 2.015-.508 3.888-1.38 5.447V6.195M15.232 2.657v.546a8.063 8.063 0 0 0-1.775-1.079v-.475c.627.259 1.22.599 1.775 1.008M10.486 1.054c.3 0 .598.018.891.051v.441a7.518 7.518 0 0 0-1.776 0v-.441a7.86 7.86 0 0 1 .885-.051M7.522 1.647v.474a8.037 8.037 0 0 0-1.776 1.077v-.546a8.392 8.392 0 0 1 1.776-1.005"/>
        <path d="M1.513 11.642c0-2.627.811-5.028 2.154-6.88v.77c-1.081 1.7-1.722 3.815-1.722 6.11 0 2.295.641 4.41 1.722 6.11v.77c-1.343-1.851-2.154-4.255-2.154-6.88M5.746 20.632v-.547c.55.438 1.145.8 1.776 1.078v.475a8.44 8.44 0 0 1-1.776-1.006M10.486 22.23a7.86 7.86 0 0 1-.885-.051v-.442c.292.037.586.054.885.054.3 0 .598-.019.891-.054v.442a7.968 7.968 0 0 1-.891.051M13.457 21.635v-.475a8.101 8.101 0 0 0 1.775-1.079v.547a8.394 8.394 0 0 1-1.775 1.007M17.313 17.743c1.076-1.699 1.714-3.812 1.714-6.101 0-2.29-.638-4.402-1.714-6.1v-.77c1.338 1.848 2.146 4.247 2.146 6.87s-.808 5.021-2.146 6.87v-.769M20.197 21.165c-.139.057-.861.297-.861.297l-.009.01a.467.467 0 0 0-.042-.167l-.002-.013c.252-.15.38-.35.383-.383-.001-.004.025-.03.027-.029l.001.004c.022.028.307.239.503.281M19.693 17.883c.559-1.443.46-1.49.619-2.09-.162 2.017-.764 3.679-1.348 5.204 0 0-.134-.041-.203-.027-.12-.14-.147-.339-.147-.339-.301-.984.64-1.616 1.079-2.748M17.797 20.547l.642.536.002.004a.444.444 0 0 0-.131.147l-.003.009c-.312-.152-.516-.149-.516-.149.079-.338.006-.547.006-.547M14.1 22.966l.822-.257c1.298-.466 1.764-1.435 2.741-1.379.209.022.383.062.556.16a.578.578 0 0 0 .032.2l-.014.001c-.815.493-2.602 1.055-4.137 1.275M18.403 22.922c-.039-.102-.059-.339-.206-.502A.86.86 0 0 0 18.5 22l.006.002c.061.035.13.058.2.063l.008-.001-.311.858M18.552 21.749a.321.321 0 0 1 .455-.452.321.321 0 0 1-.455.452M19.172 22.475c-.145-.168-.134-.223-.188-.449a.541.541 0 0 0 .23-.167l1.001 1.079c-.372.034-.813-.181-1.043-.463M20.197 2.164c-.139-.056-.861-.297-.861-.297l-.009-.009a.472.472 0 0 1-.042.167l-.002.012c.252.151.38.35.383.384-.001.002.025.029.027.027l.001-.002c.022-.029.307-.241.503-.282M19.693 5.447c.559 1.441.46 1.49.619 2.089-.162-2.015-.764-3.679-1.348-5.205 0 0-.134.041-.203.029-.12.14-.147.338-.147.338-.301.984.64 1.615 1.079 2.749M17.797 2.782l.642-.535.002-.005c-.018-.013-.037-.03-.054-.045a.57.57 0 0 1-.077-.102l-.003-.008c-.312.151-.516.149-.516.149.079.337.006.546.006.546M14.1.364l.822.255c1.298.466 1.764 1.436 2.741 1.38.209-.021.383-.062.556-.159a.576.576 0 0 1 .032-.201h-.014C17.422 1.144 15.635.583 14.1.364M18.403.407c-.039.101-.059.339-.206.501a.869.869 0 0 1 .303.422l.006-.002a.493.493 0 0 1 .2-.066l.008.003-.311-.858M18.552 1.58a.32.32 0 1 0 .454.45.32.32 0 0 0-.454-.45M19.172.853c-.145.169-.134.222-.188.451.071.02.179.096.23.166L20.215.391c-.372-.034-.813.181-1.043.462M.777 21.145c.138.058.86.299.86.299l.01.009a.446.446 0 0 1 .041-.168l.003-.012c-.253-.151-.38-.351-.384-.384.002-.003-.024-.03-.026-.03-.002.002-.002.003-.002.005-.022.029-.306.241-.502.281M1.28 17.863c-.558-1.442-.46-1.489-.618-2.089.16 2.016.764 3.679 1.347 5.204 0 0 .134-.042.202-.028a.726.726 0 0 0 .148-.339c.301-.984-.641-1.615-1.079-2.748M3.177 20.529l-.643.534-.002.004a.563.563 0 0 1 .132.147l.002.01c.313-.152.516-.15.516-.15-.079-.337-.005-.545-.005-.545M6.874 22.946l-.822-.256c-1.298-.466-1.765-1.435-2.742-1.38a1.391 1.391 0 0 0-.556.16.552.552 0 0 1-.032.2h.014c.816.494 2.602 1.057 4.138 1.276M2.571 22.902c.038-.101.059-.339.205-.501a.867.867 0 0 1-.303-.421l-.006.002a.465.465 0 0 1-.199.063H2.26l.311.857M2.42 21.73a.32.32 0 1 0-.452-.452.32.32 0 0 0 .452.452M1.801 22.457c.144-.169.134-.223.189-.451a.522.522 0 0 1-.23-.165L.758 22.918c.372.035.813-.18 1.043-.461M.777 2.146c.138-.058.86-.298.86-.298l.01-.01a.446.446 0 0 0 .041.167l.003.013c-.253.15-.38.35-.384.383.002.004-.024.03-.026.029-.002-.001-.002-.002-.002-.004-.022-.029-.306-.24-.502-.28M1.28 5.428C.722 6.87.82 6.917.662 7.516c.16-2.016.764-3.679 1.347-5.203 0 0 .134.04.202.028a.716.716 0 0 1 .148.338c.301.983-.641 1.615-1.079 2.749M3.177 2.762l-.643-.534-.002-.005c.018-.015.037-.029.054-.046a.563.563 0 0 0 .078-.1l.002-.01c.313.151.516.149.516.149-.079.337-.005.546-.005.546M6.874.345l-.822.256C4.754 1.066 4.287 2.035 3.31 1.98a1.345 1.345 0 0 1-.556-.161.546.546 0 0 0-.032-.199h.014C3.552 1.126 5.338.564 6.874.345M2.571.388c.038.101.059.339.205.5a.877.877 0 0 0-.303.422l-.006-.002a.466.466 0 0 0-.199-.064l-.008.001.311-.857M2.42 1.56a.32.32 0 1 1-.454.452.32.32 0 0 1 .002-.452.318.318 0 0 1 .452 0M1.801.834c.144.169.134.223.189.45a.517.517 0 0 0-.23.166L.758.372c.372-.035.813.182 1.043.462M27.356 23.095h3.695c.872-.007 1.595-.197 2.171-.57a3.428 3.428 0 0 0 1.29-1.533c.285-.65.427-1.392.426-2.227-.007-.948-.178-1.736-.514-2.363s-.795-1.096-1.378-1.407c-.583-.311-1.248-.466-1.995-.466h-3.695v8.566zm1.882-6.983h1.345c.922.009 1.568.266 1.938.768.371.502.549 1.19.535 2.064-.006.629-.11 1.132-.311 1.51-.202.376-.464.648-.787.814a2.174 2.174 0 0 1-1.039.245h-1.681v-5.401zM41.949 20.408a4.264 4.264 0 0 0-.258-1.803 2.952 2.952 0 0 0-1.008-1.349c-.459-.344-1.042-.521-1.746-.531-.632.006-1.184.152-1.658.436a2.975 2.975 0 0 0-1.106 1.163c-.264.491-.398 1.05-.402 1.676.009.977.293 1.76.85 2.352.557.592 1.329.895 2.316.912.706.004 1.305-.161 1.799-.495.494-.334.862-.865 1.105-1.593h-1.5c-.06.202-.212.384-.456.547-.243.163-.539.248-.888.258-.475.002-.841-.125-1.099-.381s-.399-.654-.425-1.192h4.476zm-4.476-1.079c.005-.167.051-.353.138-.556.087-.203.233-.38.436-.53.205-.149.485-.228.842-.235.409.001.719.113.93.336.212.223.353.551.426.985h-2.772zM42.952 25.28h1.702v-2.951h.024c.21.306.478.538.805.696.326.159.679.238 1.057.239.604-.009 1.107-.163 1.511-.463.403-.299.706-.69.908-1.174a4.023 4.023 0 0 0 .303-1.567 4.376 4.376 0 0 0-.298-1.648 2.723 2.723 0 0 0-.926-1.214c-.416-.307-.948-.464-1.595-.473a2.35 2.35 0 0 0-1.059.233 1.932 1.932 0 0 0-.79.726h-.023v-.791h-1.619v8.387zm3.131-3.299c-.545-.019-.931-.221-1.158-.606-.228-.385-.337-.839-.331-1.363a3.255 3.255 0 0 1 .135-.968c.092-.302.247-.549.463-.741.216-.191.509-.289.879-.295.363.006.653.107.872.301.219.194.377.443.474.746.097.304.145.623.143.957.008.524-.098.978-.32 1.363-.221.385-.607.587-1.157.606zM54.145 20.697c.007.134-.014.313-.062.535a1.155 1.155 0 0 1-.369.605c-.197.181-.514.277-.95.288a1.408 1.408 0 0 1-.73-.157c-.201-.112-.306-.323-.315-.635.009-.304.111-.521.306-.65s.429-.216.703-.263c.272-.04.538-.081.798-.121.26-.04.467-.119.619-.239v.637zM51.911 18.8c.033-.333.148-.573.344-.721.196-.146.458-.218.785-.215.309-.011.568.037.777.145.21.108.319.339.328.695-.019.329-.225.532-.617.611-.393.078-.86.146-1.401.205a4.448 4.448 0 0 0-1.016.241c-.319.117-.58.305-.782.563-.202.258-.306.619-.313 1.081.015.633.22 1.102.615 1.406.395.304.894.455 1.496.453.385.003.76-.055 1.126-.173.366-.118.687-.316.964-.595.006.103.02.204.041.305.022.1.048.198.078.294h1.727c-.077-.132-.133-.323-.167-.571a6.012 6.012 0 0 1-.049-.807v-3.229c-.011-.49-.154-.862-.431-1.118a2.177 2.177 0 0 0-1.037-.518 5.519 5.519 0 0 0-1.255-.127 4.648 4.648 0 0 0-1.354.183 2.36 2.36 0 0 0-1.073.645c-.285.303-.448.719-.489 1.247h1.703zM57.162 23.095h1.702V20.3c-.008-.561.116-1.03.372-1.405.256-.377.692-.573 1.308-.587a3.282 3.282 0 0 1 .612.06v-1.583a1.264 1.264 0 0 0-.372-.06 2.179 2.179 0 0 0-1.183.367c-.364.239-.63.556-.797.952h-.024v-1.151h-1.618v6.202M63.991 15.033h-1.702v1.86h-1.032v1.139h1.032v3.661c.016.602.211 1.002.586 1.2.375.199.83.291 1.368.274.171.001.343-.003.516-.012.174-.008.334-.024.48-.047v-1.331a2.468 2.468 0 0 1-.528.048c-.282.006-.474-.042-.576-.144-.102-.102-.15-.294-.144-.576v-3.073h1.248v-1.139h-1.248v-1.86M69.921 20.697c.007.134-.013.313-.062.535a1.155 1.155 0 0 1-.369.605c-.197.181-.514.277-.95.288a1.408 1.408 0 0 1-.73-.157c-.201-.112-.306-.323-.315-.635.009-.304.111-.521.306-.65.196-.129.43-.216.703-.263.272-.04.538-.081.798-.121.26-.04.466-.119.619-.239v.637zM67.687 18.8c.033-.333.148-.573.344-.721.196-.146.458-.218.785-.215.309-.011.568.037.777.145.21.108.319.339.328.695-.019.329-.225.532-.617.611-.393.078-.86.146-1.401.205a4.448 4.448 0 0 0-1.016.241c-.319.117-.58.305-.782.563-.202.258-.306.619-.312 1.081.014.633.219 1.102.614 1.406.395.304.894.455 1.496.453a3.56 3.56 0 0 0 1.126-.173c.366-.118.687-.316.964-.595.006.103.02.204.041.305.022.1.048.198.079.294h1.726c-.077-.132-.133-.323-.166-.571a5.846 5.846 0 0 1-.05-.807v-3.229c-.011-.49-.154-.862-.431-1.118a2.177 2.177 0 0 0-1.037-.518 5.519 5.519 0 0 0-1.255-.127 4.648 4.648 0 0 0-1.354.183 2.36 2.36 0 0 0-1.073.645c-.285.303-.448.719-.489 1.247h1.703zM72.985 23.095h1.703v-3.6c.008-.398.083-.702.224-.908.142-.207.302-.346.481-.419.178-.071.328-.105.448-.1.353.006.602.086.748.241.146.155.232.35.257.586.026.234.035.475.028.72v3.48h1.702v-3.456a2.277 2.277 0 0 1 .21-1.078c.153-.312.463-.477.931-.493.469.011.765.159.887.445.122.286.175.641.158 1.066v3.516h1.702v-4.151c-.012-.796-.225-1.367-.638-1.712-.414-.346-.957-.515-1.629-.507-.434.009-.809.114-1.125.313a2.396 2.396 0 0 0-.748.718c-.173-.368-.419-.632-.739-.794a2.29 2.29 0 0 0-1.072-.237 2.249 2.249 0 0 0-1.083.265 2.385 2.385 0 0 0-.814.742h-.024v-.839h-1.607v6.202M89.697 20.408a4.264 4.264 0 0 0-.258-1.803 2.96 2.96 0 0 0-1.008-1.349c-.459-.344-1.041-.521-1.746-.531-.632.006-1.185.152-1.658.436a2.975 2.975 0 0 0-1.106 1.163c-.264.491-.398 1.05-.402 1.676.009.977.293 1.76.85 2.352.557.592 1.329.895 2.316.912.705.004 1.305-.161 1.799-.495.493-.334.862-.865 1.105-1.593h-1.5c-.06.202-.212.384-.456.547-.243.163-.539.248-.888.258-.475.002-.841-.125-1.099-.381s-.399-.654-.425-1.192h4.476zm-4.476-1.079c.005-.167.051-.353.138-.556.087-.203.232-.38.436-.53.204-.149.485-.228.842-.235.409.001.719.113.93.336.211.223.353.551.426.985h-2.772zM90.7 23.095h1.702v-3.251c-.003-.626.102-1.079.314-1.361.212-.281.548-.42 1.007-.415.392-.001.673.126.844.379.17.253.253.635.249 1.145v3.503h1.702V19.28c.019-.779-.132-1.396-.454-1.853-.321-.457-.926-.691-1.812-.702-.368 0-.72.085-1.057.255-.337.17-.618.429-.841.776h-.035v-.863H90.7v6.202M99.963 15.033h-1.702v1.86h-1.032v1.139h1.032v3.661c.016.602.211 1.002.586 1.2.374.199.831.291 1.368.274.171.001.343-.003.516-.012.174-.008.334-.024.48-.047v-1.331a2.468 2.468 0 0 1-.528.048c-.282.006-.474-.042-.576-.144-.102-.102-.15-.294-.144-.576v-3.073h1.248v-1.139h-1.248v-1.86M109.785 23.095h1.618v-8.566h-1.702v3.119h-.024a1.884 1.884 0 0 0-.788-.69 2.413 2.413 0 0 0-1.049-.233c-.608.009-1.116.163-1.523.463-.407.3-.713.692-.917 1.177a4.003 4.003 0 0 0-.307 1.575c0 .582.101 1.123.305 1.625.205.502.512.907.925 1.219.412.31.929.47 1.553.48a2.5 2.5 0 0 0 1.091-.228c.327-.154.592-.398.794-.731h.024v.79zm-.024-3.119c.009.53-.094.992-.309 1.385-.216.394-.601.601-1.156.62-.351-.006-.637-.107-.858-.3a1.7 1.7 0 0 1-.488-.744 2.866 2.866 0 0 1-.155-.949c-.007-.529.104-.986.332-1.373.228-.386.618-.589 1.169-.607.544.019.927.221 1.147.606.22.385.326.839.318 1.362zM112.853 16.375h.792c.005.296-.051.546-.166.75-.117.205-.325.36-.626.463v.792c.509-.075.922-.294 1.239-.657.316-.363.471-.816.464-1.359v-1.835h-1.703v1.846M116.194 23.095h6.502v-1.582h-4.62v-2.101h4.152v-1.463h-4.152v-1.837h4.525v-1.583h-6.407v8.566M123.79 23.095h1.703v-3.251c-.003-.626.101-1.079.313-1.361.212-.281.548-.42 1.007-.415.393-.001.674.126.844.379.17.253.253.635.249 1.145v3.503h1.703V19.28c.018-.779-.133-1.396-.455-1.853-.321-.457-.925-.691-1.812-.702-.368 0-.72.085-1.057.255a2.15 2.15 0 0 0-.841.776h-.035v-.863h-1.619v6.202M130.595 21.08c.032.545.188.977.468 1.297.28.32.635.549 1.067.686.432.137.892.204 1.38.201.481.003.936-.063 1.364-.198a2.23 2.23 0 0 0 1.048-.676c.271-.317.411-.745.42-1.285-.02-.563-.224-.968-.611-1.217a3.82 3.82 0 0 0-1.356-.524c-.506-.1-.95-.206-1.332-.318-.381-.112-.582-.314-.602-.606.016-.245.126-.404.331-.477.204-.074.411-.107.618-.099.314-.007.578.051.794.172.216.122.34.344.371.668h1.618c-.049-.504-.205-.901-.466-1.19a2.12 2.12 0 0 0-.986-.614 4.285 4.285 0 0 0-1.283-.175 4.56 4.56 0 0 0-1.292.165 2.057 2.057 0 0 0-1.003.606c-.261.29-.395.697-.404 1.22.006.36.103.649.291.867.189.218.431.387.729.507.297.12.613.214.947.282.616.124 1.092.252 1.426.386.334.134.503.326.507.575-.016.295-.14.502-.374.621a1.545 1.545 0 0 1-.743.171 1.591 1.591 0 0 1-.902-.243c-.253-.165-.389-.432-.406-.802h-1.619M143.207 20.408a4.28 4.28 0 0 0-.258-1.803 2.96 2.96 0 0 0-1.008-1.349c-.46-.344-1.042-.521-1.746-.531-.632.006-1.185.152-1.658.436a2.968 2.968 0 0 0-1.106 1.163c-.264.491-.398 1.05-.403 1.676.01.977.293 1.76.85 2.352.557.592 1.33.895 2.317.912.705.004 1.305-.161 1.798-.495.494-.334.863-.865 1.106-1.593h-1.5c-.061.202-.213.384-.456.547-.244.163-.54.248-.888.258-.475.002-.842-.125-1.1-.381-.257-.256-.399-.654-.424-1.192h4.476zm-4.476-1.079c.005-.167.051-.353.138-.556.087-.203.232-.38.436-.53.204-.149.485-.228.842-.235.409.001.719.113.93.336.211.223.353.551.426.985h-2.772zM144.209 23.095h1.703v-3.251c-.003-.626.102-1.079.314-1.361.211-.281.547-.42 1.007-.415.392-.001.673.126.843.379.171.253.254.635.249 1.145v3.503h1.703V19.28c.019-.779-.133-1.396-.454-1.853-.322-.457-.926-.691-1.813-.702-.367 0-.719.085-1.056.255-.338.17-.618.429-.841.776h-.036v-.863h-1.619v6.202M156.965 16.893h-1.764l-1.355 4.248h-.024l-1.404-4.248h-1.824l2.184 5.82a.991.991 0 0 1-.002.744c-.097.236-.292.376-.586.42a4.417 4.417 0 0 1-.502-.016c-.167-.016-.332-.03-.494-.044v1.403c.348.038.696.058 1.044.06.58.003 1.036-.106 1.369-.328.333-.223.588-.581.766-1.075l2.592-6.984M161.416 20.697c.008.134-.013.313-.062.535a1.16 1.16 0 0 1-.368.605c-.197.181-.514.277-.951.288a1.404 1.404 0 0 1-.729-.157c-.202-.112-.306-.323-.316-.635.01-.304.111-.521.307-.65.195-.129.429-.216.702-.263.272-.04.538-.081.799-.121.26-.04.466-.119.618-.239v.637zm-2.234-1.897c.034-.333.148-.573.344-.721.197-.146.458-.218.785-.215.309-.011.568.037.778.145.209.108.319.339.327.695-.019.329-.224.532-.617.611-.392.078-.859.146-1.4.205a4.456 4.456 0 0 0-1.017.241c-.319.117-.58.305-.782.563-.201.258-.305.619-.312 1.081.014.633.219 1.102.615 1.406.395.304.894.455 1.496.453.384.003.759-.055 1.125-.173a2.35 2.35 0 0 0 .964-.595c.006.103.021.204.042.305.021.1.047.198.078.294h1.727c-.078-.132-.133-.323-.167-.571a5.852 5.852 0 0 1-.049-.807v-3.229c-.011-.49-.155-.862-.432-1.118a2.174 2.174 0 0 0-1.036-.518 5.528 5.528 0 0 0-1.256-.127 4.636 4.636 0 0 0-1.353.183 2.35 2.35 0 0 0-1.073.645c-.286.303-.449.719-.489 1.247h1.702zM164.481 23.095h1.703v-3.6c.008-.398.082-.702.224-.908.141-.207.301-.346.48-.419a1.14 1.14 0 0 1 .448-.1c.353.006.603.086.748.241.146.155.232.35.257.586.026.234.035.475.028.72v3.48h1.703v-3.456a2.253 2.253 0 0 1 .21-1.078c.152-.312.463-.477.93-.493.469.011.765.159.888.445.122.286.174.641.157 1.066v3.516h1.703v-4.151c-.012-.796-.225-1.367-.639-1.712-.414-.346-.956-.515-1.628-.507-.434.009-.809.114-1.126.313a2.382 2.382 0 0 0-.747.718c-.174-.368-.42-.632-.739-.794a2.292 2.292 0 0 0-1.072-.237 2.253 2.253 0 0 0-1.084.265c-.319.175-.59.422-.813.742h-.024v-.839h-1.607v6.202M181.192 20.408a4.264 4.264 0 0 0-.258-1.803 2.95 2.95 0 0 0-1.007-1.349c-.46-.344-1.042-.521-1.747-.531-.631.006-1.184.152-1.658.436a2.972 2.972 0 0 0-1.105 1.163c-.264.491-.399 1.05-.403 1.676.01.977.293 1.76.85 2.352.557.592 1.329.895 2.316.912.706.004 1.306-.161 1.799-.495.494-.334.863-.865 1.106-1.593h-1.5c-.061.202-.213.384-.456.547-.244.163-.54.248-.888.258-.476.002-.842-.125-1.1-.381-.257-.256-.399-.654-.424-1.192h4.475zm-4.475-1.079c.004-.167.05-.353.137-.556a1.29 1.29 0 0 1 .437-.53c.204-.149.485-.228.842-.235.409.001.719.113.93.336.211.223.353.551.426.985h-2.772zM182.195 23.095h1.703v-3.251c-.003-.626.101-1.079.313-1.361.212-.281.548-.42 1.008-.415.392-.001.673.126.843.379.17.253.253.635.249 1.145v3.503h1.703V19.28c.019-.779-.133-1.396-.454-1.853-.322-.457-.926-.691-1.813-.702-.367 0-.719.085-1.057.255a2.14 2.14 0 0 0-.84.776h-.036v-.863h-1.619v6.202M191.459 15.033h-1.703v1.86h-1.032v1.139h1.032v3.661c.016.602.212 1.002.586 1.2.375.199.831.291 1.369.274.17.001.342-.003.516-.012.173-.008.333-.024.48-.047v-1.331a2.523 2.523 0 0 1-.529.048c-.281.006-.474-.042-.575-.144-.102-.102-.151-.294-.144-.576v-3.073h1.248v-1.139h-1.248v-1.86M34.71 6.741h-3.635v.694h2.917c.011.925-.242 1.676-.758 2.253-.516.578-1.251.875-2.207.893-.754-.012-1.369-.199-1.845-.561a3.182 3.182 0 0 1-1.051-1.399 4.853 4.853 0 0 1-.333-1.808 4.868 4.868 0 0 1 .333-1.81 3.185 3.185 0 0 1 1.051-1.398c.476-.363 1.091-.55 1.845-.562.546.009 1.018.122 1.417.339.399.217.713.489.943.816.229.327.363.658.401.995h.814c-.172-.938-.582-1.646-1.229-2.125-.647-.478-1.429-.718-2.346-.719-.9.012-1.65.224-2.249.637a3.838 3.838 0 0 0-1.346 1.629 5.356 5.356 0 0 0-.448 2.198c0 .791.149 1.524.448 2.197a3.83 3.83 0 0 0 1.346 1.628c.599.414 1.349.626 2.249.638a3.59 3.59 0 0 0 1.73-.411c.525-.278.936-.721 1.235-1.329h.024l.108 1.559h.586V6.741M41.357 8.204a4.578 4.578 0 0 0-.236-1.675 2.784 2.784 0 0 0-.882-1.288c-.408-.334-.943-.505-1.605-.516-.654.01-1.187.172-1.599.487a2.747 2.747 0 0 0-.909 1.214A4.253 4.253 0 0 0 35.839 8a4.407 4.407 0 0 0 .287 1.634c.193.493.496.887.909 1.184.412.298.945.45 1.599.458.775-.005 1.38-.199 1.814-.583.434-.384.729-.93.885-1.637h-.754c-.117.476-.333.857-.648 1.144-.316.287-.748.434-1.297.441-.482-.009-.873-.138-1.172-.386a2.178 2.178 0 0 1-.657-.929 3.241 3.241 0 0 1-.212-1.122h4.764zm-4.764-.635c.04-.382.143-.741.308-1.074.165-.334.392-.605.681-.814.289-.207.64-.315 1.052-.321.409.005.758.112 1.047.319.288.207.511.477.668.81.156.334.241.693.254 1.08h-4.01zM42.36 11.095h.755V7.484c.016-.619.193-1.125.531-1.517.337-.392.809-.595 1.413-.607.602.011 1.017.189 1.246.535.229.346.338.791.327 1.337v3.863h.755V7.112c.014-.745-.147-1.328-.481-1.747-.335-.419-.931-.633-1.787-.64a2.314 2.314 0 0 0-1.215.345 1.819 1.819 0 0 0-.765.902h-.024V4.905h-.755v6.19M54.021 8.204a4.6 4.6 0 0 0-.237-1.675 2.774 2.774 0 0 0-.881-1.288c-.408-.334-.943-.505-1.605-.516-.655.01-1.188.172-1.6.487a2.753 2.753 0 0 0-.908 1.214A4.233 4.233 0 0 0 48.502 8a4.387 4.387 0 0 0 .288 1.634c.193.493.496.887.908 1.184.412.298.945.45 1.6.458.775-.005 1.379-.199 1.813-.583.434-.384.73-.93.886-1.637h-.754c-.118.476-.334.857-.649 1.144-.315.287-.747.434-1.296.441-.483-.009-.873-.138-1.172-.386a2.178 2.178 0 0 1-.657-.929 3.218 3.218 0 0 1-.212-1.122h4.764zm-4.764-.635c.04-.382.143-.741.308-1.074.165-.334.392-.605.681-.814.289-.207.639-.315 1.052-.321.409.005.758.112 1.046.319.289.207.512.477.668.81.157.334.242.693.255 1.08h-4.01zM55.036 11.095h.754V7.796c.011-.659.224-1.198.639-1.619.416-.42.971-.62 1.665-.602v-.754c-.562-.019-1.043.106-1.444.376s-.7.656-.896 1.158h-.024v-1.45h-.694v6.19M62.784 8.697c-.013.611-.228 1.086-.644 1.426-.417.34-.922.513-1.517.518a1.515 1.515 0 0 1-.956-.328c-.27-.216-.412-.514-.425-.896.012-.395.166-.681.461-.858.297-.178.664-.3 1.102-.368l1.318-.203c.11-.016.23-.044.359-.084a.483.483 0 0 0 .278-.192h.024v.985zM59.506 6.8c.021-.501.183-.867.486-1.098.303-.232.694-.345 1.171-.342.456-.011.837.073 1.143.253.307.18.465.52.478 1.019-.002.33-.086.547-.253.65-.166.103-.406.167-.72.19-.555.053-1.084.125-1.587.216-.503.09-.916.266-1.237.529-.322.263-.489.679-.499 1.248.015.621.218 1.079.609 1.373.392.294.88.44 1.466.438.581-.002 1.039-.112 1.376-.328.336-.217.63-.527.88-.931h.024c-.011.328.041.589.156.782.115.193.359.292.731.296a2.135 2.135 0 0 0 .492-.047v-.635a.708.708 0 0 1-.24.048c-.15-.001-.261-.041-.334-.12-.074-.079-.11-.191-.11-.336V6.716c-.008-.546-.124-.963-.348-1.252a1.674 1.674 0 0 0-.854-.591 3.492 3.492 0 0 0-1.077-.148c-.72-.005-1.306.16-1.758.493-.452.333-.702.86-.749 1.582h.754zM65.057 11.095h.754V2.529h-.754zM67.269 11.095h.754v-6.19h-.754v6.19zm0-7.355h.754V2.529h-.754V3.74zM70.667 3.045h-.754v1.86h-1.08v.634h1.08v4.238c-.013.52.084.883.289 1.091.205.208.556.308 1.053.299.114-.001.226-.005.336-.012.111-.006.223-.01.336-.011v-.647a5.864 5.864 0 0 1-.648.036c-.262-.019-.431-.098-.508-.237-.078-.139-.112-.332-.104-.579V5.539h1.26v-.634h-1.26v-1.86M76.968 8.697c-.013.611-.228 1.086-.644 1.426-.417.34-.922.513-1.517.518a1.515 1.515 0 0 1-.956-.328c-.27-.216-.412-.514-.425-.896.012-.395.166-.681.462-.858.296-.178.663-.3 1.101-.368l1.318-.203c.11-.016.23-.044.359-.084a.483.483 0 0 0 .278-.192h.024v.985zM73.69 6.8c.021-.501.183-.867.486-1.098.303-.232.694-.345 1.171-.342.456-.011.837.073 1.143.253.307.18.466.52.478 1.019-.002.33-.086.547-.252.65-.167.103-.407.167-.721.19-.555.053-1.084.125-1.587.216-.503.09-.916.266-1.237.529-.322.263-.489.679-.499 1.248.015.621.218 1.079.609 1.373.392.294.88.44 1.466.438.581-.002 1.039-.112 1.376-.328.336-.217.63-.527.881-.931h.024c-.012.328.041.589.155.782.115.193.359.292.731.296a2.135 2.135 0 0 0 .492-.047v-.635a.708.708 0 0 1-.24.048c-.149-.001-.261-.041-.334-.12a.477.477 0 0 1-.11-.336V6.716c-.008-.546-.124-.963-.348-1.252a1.673 1.673 0 0 0-.855-.591 3.481 3.481 0 0 0-1.076-.148c-.72-.005-1.306.16-1.758.493-.452.333-.702.86-.749 1.582h.754zM80.427 3.045h-.754v1.86h-1.08v.634h1.08v4.238c-.012.52.084.883.289 1.091.205.208.556.308 1.053.299.114-.001.226-.005.336-.012.111-.006.223-.01.336-.011v-.647a5.864 5.864 0 0 1-.648.036c-.261-.019-.431-.098-.508-.237-.077-.139-.112-.332-.104-.579V5.539h1.26v-.634h-1.26v-1.86M86.604 8a3.742 3.742 0 0 1 .206-1.255c.139-.4.358-.729.657-.986.298-.258.687-.39 1.166-.399.533.009.959.141 1.278.399.319.257.548.586.688.986.141.4.21.818.206 1.255.004.438-.065.856-.206 1.256a2.16 2.16 0 0 1-.688.986c-.319.257-.745.39-1.278.399-.479-.009-.868-.142-1.166-.399a2.253 2.253 0 0 1-.657-.986A3.744 3.744 0 0 1 86.604 8zm4.956-5.471h-.755V6.08h-.024a1.941 1.941 0 0 0-.849-1.01 2.544 2.544 0 0 0-1.299-.345c-.628.008-1.148.161-1.56.46a2.689 2.689 0 0 0-.921 1.187A4.236 4.236 0 0 0 85.85 8c-.001.593.1 1.135.302 1.628.202.493.509.889.921 1.188.412.298.932.451 1.56.46a2.644 2.644 0 0 0 1.32-.376 2.09 2.09 0 0 0 .888-.979h.024v1.174h.695V2.529zM98.205 8.204a4.6 4.6 0 0 0-.237-1.675 2.784 2.784 0 0 0-.882-1.288c-.407-.334-.943-.505-1.604-.516-.655.01-1.188.172-1.6.487a2.762 2.762 0 0 0-.909 1.214A4.253 4.253 0 0 0 92.686 8a4.407 4.407 0 0 0 .287 1.634c.194.493.497.887.909 1.184.412.298.945.45 1.6.458.775-.005 1.379-.199 1.813-.583.434-.384.729-.93.886-1.637h-.755c-.117.476-.333.857-.648 1.144-.315.287-.747.434-1.296.441-.483-.009-.874-.138-1.173-.386a2.178 2.178 0 0 1-.657-.929 3.217 3.217 0 0 1-.211-1.122h4.764zm-4.764-.635c.04-.382.143-.741.307-1.074.166-.334.392-.605.682-.814.289-.207.639-.315 1.052-.321.409.005.758.112 1.046.319.289.207.511.477.668.81.157.334.241.693.254 1.08h-4.009zM109.788 5.12c-.081-.601-.29-1.107-.629-1.518a3.25 3.25 0 0 0-1.25-.935 3.966 3.966 0 0 0-1.565-.318c-.9.012-1.649.224-2.248.637a3.833 3.833 0 0 0-1.347 1.629 5.35 5.35 0 0 0-.448 2.198c0 .791.149 1.524.448 2.197a3.824 3.824 0 0 0 1.347 1.628c.599.414 1.348.626 2.248.638 1.011-.012 1.827-.324 2.448-.934.621-.611.993-1.447 1.115-2.51h-.814c-.084.782-.364 1.431-.839 1.946-.475.516-1.112.784-1.91.803-.754-.012-1.369-.199-1.845-.561a3.182 3.182 0 0 1-1.051-1.399 4.857 4.857 0 0 1-.333-1.808 4.86 4.86 0 0 1 .333-1.81 3.193 3.193 0 0 1 1.051-1.399c.476-.362 1.091-.549 1.845-.561.638.005 1.196.185 1.675.544.478.358.796.869.954 1.533h.815M114.985 8.697c-.012.611-.227 1.086-.643 1.426-.417.34-.922.513-1.517.518a1.517 1.517 0 0 1-.956-.328c-.27-.216-.412-.514-.425-.896.012-.395.166-.681.462-.858.296-.178.663-.3 1.102-.368l1.317-.203c.11-.016.23-.044.359-.084a.483.483 0 0 0 .278-.192h.023v.985zM111.708 6.8c.021-.501.183-.867.487-1.098.303-.232.693-.345 1.17-.342.456-.011.837.073 1.144.253.306.18.465.52.476 1.019-.001.33-.085.547-.251.65-.167.103-.407.167-.721.19-.555.053-1.084.125-1.587.216-.503.09-.916.266-1.237.529-.322.263-.489.679-.499 1.248.015.621.218 1.079.609 1.373.392.294.88.44 1.466.438.581-.002 1.04-.112 1.376-.328.336-.217.63-.527.881-.931h.024c-.011.328.04.589.155.782.115.193.359.292.731.296a2.135 2.135 0 0 0 .492-.047v-.635a.708.708 0 0 1-.24.048c-.15-.001-.261-.041-.334-.12-.074-.079-.11-.191-.11-.336V6.716c-.008-.546-.124-.963-.348-1.252a1.674 1.674 0 0 0-.854-.591 3.492 3.492 0 0 0-1.077-.148c-.72-.005-1.306.16-1.758.493-.452.333-.702.86-.749 1.582h.754zM118.445 3.045h-.754v1.86h-1.08v.634h1.08v4.238c-.012.52.084.883.289 1.091.205.208.556.308 1.053.299.114-.001.226-.005.336-.012.111-.006.223-.01.336-.011v-.647a5.85 5.85 0 0 1-.648.036c-.261-.019-.431-.098-.508-.237-.077-.139-.112-.332-.104-.579V5.539h1.26v-.634h-1.26v-1.86M124.746 8.697c-.013.611-.228 1.086-.644 1.426-.416.34-.922.513-1.517.518a1.517 1.517 0 0 1-.956-.328c-.27-.216-.411-.514-.424-.896.011-.395.165-.681.461-.858.296-.178.663-.3 1.102-.368l1.318-.203c.11-.016.229-.044.358-.084a.48.48 0 0 0 .278-.192h.024v.985zM121.469 6.8c.02-.501.183-.867.486-1.098.303-.232.693-.345 1.17-.342.456-.011.838.073 1.144.253.306.18.465.52.477 1.019-.002.33-.086.547-.252.65-.167.103-.407.167-.721.19-.555.053-1.084.125-1.587.216-.503.09-.915.266-1.237.529-.322.263-.488.679-.499 1.248.015.621.218 1.079.61 1.373.391.294.88.44 1.465.438.581-.002 1.04-.112 1.376-.328.336-.217.63-.527.881-.931h.024c-.011.328.041.589.156.782.114.193.358.292.73.296a2.097 2.097 0 0 0 .492-.047v-.635a.708.708 0 0 1-.24.048c-.149-.001-.261-.041-.334-.12a.477.477 0 0 1-.11-.336V6.716c-.007-.546-.124-.963-.348-1.252a1.673 1.673 0 0 0-.855-.591 3.481 3.481 0 0 0-1.076-.148c-.72-.005-1.305.16-1.758.493-.452.333-.702.86-.749 1.582h.755zM127.019 11.095h.754V2.529h-.754zM134.234 4.905h-.755v3.252c.001.427-.064.829-.194 1.204a2.077 2.077 0 0 1-.608.916c-.275.236-.628.357-1.059.364-.592-.001-1.014-.146-1.265-.433-.251-.288-.382-.711-.391-1.271V4.905h-.755v4.02c-.007.728.16 1.3.501 1.716.34.415.897.626 1.67.635a2.466 2.466 0 0 0 1.267-.337c.375-.223.666-.542.87-.958h.024v1.114h.695v-6.19M135.649 11.095h.755V7.484c.016-.619.194-1.125.531-1.517.338-.392.809-.595 1.414-.607.601.011 1.016.189 1.245.535.229.346.339.791.327 1.337v3.863h.755V7.112c.014-.745-.146-1.328-.481-1.747-.335-.419-.93-.633-1.786-.64a2.315 2.315 0 0 0-1.216.345 1.829 1.829 0 0 0-.765.902h-.024V4.905h-.755v6.19M143.879 11.073l-.264.708a2.625 2.625 0 0 1-.382.702c-.142.176-.374.265-.697.27a2.613 2.613 0 0 1-.516-.06v.635a.732.732 0 0 0 .22.043c.089.006.208.012.355.017.456.009.793-.084 1.01-.28.217-.197.424-.551.622-1.063l2.687-7.14h-.755l-1.908 5.28-2.039-5.28h-.804l2.471 6.168M151.621 8.697c-.013.611-.227 1.086-.643 1.426-.417.34-.923.513-1.518.518a1.517 1.517 0 0 1-.956-.328c-.269-.216-.411-.514-.424-.896.011-.395.165-.681.461-.858.296-.178.663-.3 1.102-.368l1.318-.203c.11-.016.229-.044.358-.084a.476.476 0 0 0 .278-.192h.024v.985zM148.344 6.8c.021-.501.183-.867.486-1.098.303-.232.693-.345 1.17-.342.457-.011.838.073 1.144.253.306.18.465.52.477 1.019-.001.33-.085.547-.252.65-.166.103-.407.167-.72.19-.555.053-1.084.125-1.587.216-.504.09-.916.266-1.238.529-.322.263-.488.679-.499 1.248.016.621.219 1.079.61 1.373.391.294.88.44 1.465.438.581-.002 1.04-.112 1.376-.328.337-.217.63-.527.881-.931h.024c-.011.328.041.589.156.782.115.193.358.292.731.296a2.152 2.152 0 0 0 .492-.047v-.635a.742.742 0 0 1-.24.048c-.15-.001-.261-.041-.335-.12a.472.472 0 0 1-.109-.336V6.716c-.008-.546-.124-.963-.348-1.252a1.681 1.681 0 0 0-.855-.591 3.485 3.485 0 0 0-1.076-.148c-.72-.005-1.306.16-1.758.493-.453.333-.702.86-.75 1.582h.755z"/>
    </g>
</svg>
