<svg xmlns="http://www.w3.org/2000/svg" width="133" height="28" viewBox="0 0 133 28">
    <g fill="#FFF" fill-rule="evenodd">
        <path d="M5.617 4.34V.053H.414V4.34h5.203zM.414 7.27v18.943h5.203V7.27H.414zm12.731 9.49c0 .757.073 1.496.22 2.217.146.72.397 1.368.75 1.942a4 4 0 0 0 1.411 1.373c.587.342 1.32.513 2.199.513.88 0 1.618-.17 2.216-.513a3.955 3.955 0 0 0 1.43-1.373 5.905 5.905 0 0 0 .75-1.942 11.368 11.368 0 0 0 0-4.452 5.702 5.702 0 0 0-.75-1.942 4.166 4.166 0 0 0-1.43-1.374c-.598-.354-1.337-.53-2.216-.53-.88 0-1.612.176-2.199.53a4.219 4.219 0 0 0-1.41 1.374 5.702 5.702 0 0 0-.751 1.942c-.147.733-.22 1.478-.22 2.235zm-5.203 0c0-1.514.232-2.888.696-4.122.465-1.233 1.124-2.284 1.979-3.15.855-.868 1.88-1.54 3.078-2.016 1.196-.476 2.54-.714 4.03-.714 1.49 0 2.84.238 4.048.714 1.21.477 2.241 1.148 3.096 2.015.855.867 1.515 1.918 1.979 3.151.464 1.234.696 2.608.696 4.122 0 1.514-.232 2.882-.696 4.104-.464 1.22-1.124 2.265-1.979 3.132s-1.887 1.533-3.096 1.997c-1.209.464-2.558.696-4.048.696-1.49 0-2.834-.232-4.03-.696a8.655 8.655 0 0 1-3.078-1.997c-.855-.867-1.514-1.911-1.979-3.132-.464-1.222-.696-2.59-.696-4.104zM42.62 13.94h5.092c-.073-1.221-.366-2.278-.879-3.17a7.158 7.158 0 0 0-1.997-2.234 8.654 8.654 0 0 0-2.784-1.338 11.876 11.876 0 0 0-3.243-.44c-1.538 0-2.906.257-4.103.77a8.636 8.636 0 0 0-3.041 2.144c-.83.916-1.46 2.002-1.887 3.26-.427 1.258-.641 2.62-.641 4.086 0 1.416.232 2.717.696 3.902.464 1.184 1.111 2.204 1.942 3.059.83.855 1.838 1.52 3.022 1.997 1.185.476 2.486.714 3.902.714 2.516 0 4.58-.66 6.192-1.978 1.612-1.32 2.59-3.237 2.931-5.753h-5.02c-.17 1.173-.591 2.107-1.263 2.803-.672.696-1.63 1.044-2.876 1.044-.806 0-1.49-.183-2.052-.55a4.105 4.105 0 0 1-1.337-1.41 6.46 6.46 0 0 1-.715-1.923 10.29 10.29 0 0 1 0-4.232 6.33 6.33 0 0 1 .751-1.978 4.513 4.513 0 0 1 1.374-1.466c.562-.379 1.258-.568 2.089-.568 2.222 0 3.505 1.087 3.847 3.26zM70.807 9.328V8.003H69.2v1.325h1.607zm-1.607.905v5.852h1.607v-5.852H69.2zm2.518 0v5.852h1.607v-3.067c0-.597.098-1.025.294-1.285.196-.26.513-.39.951-.39.385 0 .653.118.804.356.15.238.226.598.226 1.08v3.306h1.607v-3.6c0-.362-.032-.692-.096-.99a1.884 1.884 0 0 0-.334-.758 1.57 1.57 0 0 0-.65-.487c-.276-.117-.629-.175-1.059-.175-.34 0-.672.077-.996.232a1.844 1.844 0 0 0-.792.741h-.034v-.815h-1.528zm7.6 3.95h-1.529c.015.393.104.72.266.98.163.26.37.47.623.628.253.158.541.271.866.34a4.98 4.98 0 0 0 1.975.006c.32-.065.606-.176.855-.335.249-.158.45-.368.605-.628.155-.26.232-.583.232-.968 0-.272-.053-.5-.158-.685a1.45 1.45 0 0 0-.419-.464 2.253 2.253 0 0 0-.594-.3 6.79 6.79 0 0 0-.685-.192 27.129 27.129 0 0 0-.668-.147 5.165 5.165 0 0 1-.583-.153 1.222 1.222 0 0 1-.413-.22.44.44 0 0 1-.158-.352c0-.12.03-.217.09-.288a.594.594 0 0 1 .22-.164.982.982 0 0 1 .29-.074c.105-.011.203-.017.294-.017.286 0 .535.055.747.164.211.11.328.319.35.628h1.529c-.03-.362-.123-.662-.278-.9a1.832 1.832 0 0 0-.582-.571 2.44 2.44 0 0 0-.798-.306 4.636 4.636 0 0 0-.923-.09c-.317 0-.626.028-.928.085a2.556 2.556 0 0 0-.815.294c-.242.14-.436.33-.583.571-.147.242-.22.551-.22.929 0 .256.052.473.158.65.105.178.245.325.418.442.174.117.372.211.595.283.222.072.45.134.685.187.573.12 1.02.241 1.34.362.322.12.482.302.482.543a.595.595 0 0 1-.102.357.772.772 0 0 1-.255.226 1.213 1.213 0 0 1-.34.125 1.72 1.72 0 0 1-.356.04c-.158 0-.311-.02-.458-.057a1.189 1.189 0 0 1-.39-.176.881.881 0 0 1-.385-.753zm6.513-3.95V8.48h-1.608v1.754h-.973v1.075h.973v3.453c0 .294.05.532.148.713.098.181.232.32.401.419.17.098.366.164.589.198.223.034.458.05.707.05.159 0 .321-.003.487-.01.166-.008.317-.023.453-.046V14.84a2.252 2.252 0 0 1-.238.034c-.083.008-.17.011-.26.011-.272 0-.453-.045-.543-.136-.091-.09-.136-.271-.136-.543v-2.898h1.177v-1.075H85.83zm3.242-.905V8.003h-1.608v1.325h1.608zm-1.608.905v5.852h1.608v-5.852h-1.608zm4.556 0V8.48h-1.608v1.754h-.973v1.075h.973v3.453c0 .294.05.532.147.713.098.181.232.32.402.419.17.098.366.164.589.198.222.034.458.05.707.05.159 0 .32-.003.487-.01.166-.008.317-.023.453-.046V14.84a2.252 2.252 0 0 1-.238.034c-.083.008-.17.011-.26.011-.272 0-.453-.045-.544-.136-.09-.09-.135-.271-.135-.543v-2.898h1.177v-1.075H92.02zm7.079 5.852v-5.852h-1.608v3.068c0 .596-.098 1.024-.294 1.284-.196.26-.513.39-.95.39-.386 0-.653-.118-.804-.356-.151-.237-.227-.598-.227-1.08v-3.306H93.61v3.6c0 .362.032.692.096.99.064.298.176.55.334.758.159.208.376.368.65.481.276.114.63.17 1.06.17.339 0 .67-.075.995-.226.325-.151.589-.396.793-.736h.034v.815H99.1zm2.902-5.852V8.48h-1.607v1.754h-.974v1.075h.974v3.453c0 .294.049.532.147.713.098.181.232.32.402.419.17.098.366.164.588.198.223.034.459.05.708.05.158 0 .32-.003.487-.01.166-.008.317-.023.452-.046V14.84a2.252 2.252 0 0 1-.237.034c-.083.008-.17.011-.26.011-.272 0-.453-.045-.544-.136-.09-.09-.136-.271-.136-.543v-2.898h1.177v-1.075h-1.177zm5.329 2.932c0 .234.022.462.067.685.046.222.123.422.233.6.109.177.254.318.435.424.181.106.408.158.68.158.271 0 .5-.052.684-.158.185-.106.332-.247.442-.425.11-.177.186-.377.232-.6a3.512 3.512 0 0 0 0-1.375 1.762 1.762 0 0 0-.232-.6 1.287 1.287 0 0 0-.442-.424 1.324 1.324 0 0 0-.685-.164c-.271 0-.498.054-.679.164-.18.11-.326.25-.435.424-.11.174-.187.374-.233.6a3.512 3.512 0 0 0-.067.69zm-1.608 0c0-.468.072-.893.215-1.274a2.74 2.74 0 0 1 .612-.973c.264-.268.58-.475.95-.623.37-.147.785-.22 1.245-.22.46 0 .878.073 1.251.22.374.148.693.355.957.623s.468.592.61.973c.144.381.216.806.216 1.274 0 .468-.072.89-.215 1.268a2.75 2.75 0 0 1-.611.967 2.664 2.664 0 0 1-.957.617c-.373.144-.79.215-1.25.215a3.42 3.42 0 0 1-1.246-.215 2.674 2.674 0 0 1-.95-.617 2.75 2.75 0 0 1-.612-.967 3.546 3.546 0 0 1-.215-1.268zm11.03 0a3.13 3.13 0 0 0-.08-.713 1.863 1.863 0 0 0-.248-.6 1.304 1.304 0 0 0-.425-.413 1.178 1.178 0 0 0-.617-.153 1.186 1.186 0 0 0-1.041.566 1.863 1.863 0 0 0-.25.6 3.13 3.13 0 0 0-.078.713c0 .241.026.475.079.702.053.226.136.426.249.6a1.186 1.186 0 0 0 1.041.566c.242 0 .447-.052.617-.153.17-.102.311-.24.425-.414.113-.173.196-.373.249-.6.052-.226.079-.46.079-.701zm-4.29-5.162h1.607v2.943h.023c.196-.302.462-.522.798-.662s.685-.21 1.047-.21a2.228 2.228 0 0 1 1.647.736c.23.25.417.568.56.957.143.388.215.85.215 1.386 0 .536-.072.998-.215 1.387-.143.389-.33.707-.56.957a2.232 2.232 0 0 1-1.647.735c-.43 0-.815-.068-1.155-.203a1.465 1.465 0 0 1-.77-.691h-.022v.747h-1.528V8.003zm10.498 4.528c-.076-.408-.21-.717-.402-.928-.193-.212-.485-.317-.878-.317-.256 0-.47.043-.64.13a1.182 1.182 0 0 0-.623.73 1.845 1.845 0 0 0-.072.385h2.615zm5.97-2.298v-.102a1.253 1.253 0 0 0-.351-.056c-.204 0-.4.03-.589.09-.189.06-.366.145-.532.255a2.002 2.002 0 0 0-.747.9h-.023v-1.087h-1.528v5.852h1.608v-2.637c0-.264.026-.51.079-.736.053-.226.141-.424.266-.594.124-.17.288-.304.492-.402.204-.098.453-.147.747-.147a3.087 3.087 0 0 1 .577.057v-.318h.707v3.453c0 .294.05.532.147.713.098.181.232.32.402.419.17.098.366.164.589.198.222.034.458.05.707.05.159 0 .32-.003.487-.01.166-.008.317-.023.453-.046V14.84a2.252 2.252 0 0 1-.238.034c-.083.008-.17.011-.26.011-.272 0-.453-.045-.544-.136-.09-.09-.136-.271-.136-.543v-2.898h1.178v-1.075h-1.178V8.48h-1.607v1.754h-.707zm-8.585 3.317c.022.52.154.898.396 1.132.241.233.589.35 1.041.35.325 0 .604-.08.838-.243.234-.162.377-.334.43-.515h1.415c-.226.702-.574 1.204-1.041 1.505-.468.302-1.034.453-1.698.453-.46 0-.876-.073-1.245-.22a2.589 2.589 0 0 1-.94-.629 2.827 2.827 0 0 1-.594-.973 3.563 3.563 0 0 1-.21-1.245c0-.438.072-.845.216-1.223.143-.377.347-.703.61-.979.265-.275.58-.492.946-.65a3.03 3.03 0 0 1 1.217-.238c.498 0 .932.096 1.301.288.37.193.674.451.912.776.237.324.409.694.515 1.109.105.415.143.849.113 1.302h-4.222zM72.917 22.674c0-.241-.023-.473-.068-.696a1.701 1.701 0 0 0-.232-.589c-.11-.17-.251-.307-.425-.413-.173-.105-.392-.158-.656-.158s-.487.053-.668.158a1.253 1.253 0 0 0-.436.419c-.11.174-.188.372-.237.594a3.227 3.227 0 0 0-.074.696c0 .227.026.453.08.68.052.226.137.428.254.605.117.177.264.32.441.43.178.11.39.164.64.164.264 0 .485-.052.662-.158.177-.106.319-.247.424-.425.106-.177.182-.379.227-.605a3.57 3.57 0 0 0 .068-.702zm.022 2.196h-.022a1.658 1.658 0 0 1-.742.685c-.305.14-.65.21-1.035.21-.438 0-.823-.086-1.155-.256-.332-.17-.605-.4-.82-.69a3.133 3.133 0 0 1-.487-1.002 4.205 4.205 0 0 1-.164-1.177c0-.392.054-.772.164-1.137.11-.366.271-.69.486-.968.216-.28.485-.504.81-.674.324-.17.702-.254 1.132-.254.347 0 .677.073.99.22.313.147.56.364.742.651h.022v-2.943h1.607v8.082H72.94v-.747zm6.321-2.807c-.075-.408-.21-.717-.402-.928-.192-.212-.484-.317-.877-.317-.256 0-.47.043-.64.13a1.182 1.182 0 0 0-.623.73 1.845 1.845 0 0 0-.072.385h2.614zm-2.614 1.019c.022.52.154.898.396 1.131.241.234.588.351 1.041.351.325 0 .604-.08.838-.243.234-.162.377-.334.43-.515h1.415c-.227.702-.574 1.204-1.042 1.505-.468.302-1.033.453-1.698.453-.46 0-.875-.073-1.245-.22a2.589 2.589 0 0 1-.94-.629 2.827 2.827 0 0 1-.593-.973 3.563 3.563 0 0 1-.21-1.245c0-.438.072-.845.215-1.223.144-.377.347-.703.612-.979.264-.275.579-.492.945-.65a3.03 3.03 0 0 1 1.216-.238c.499 0 .932.096 1.302.288.37.193.674.451.911.776.238.324.41.694.515 1.109.106.415.144.849.114 1.302h-4.222zm11.589-1.257h1.573a2.202 2.202 0 0 0-.272-.979 2.211 2.211 0 0 0-.617-.69 2.674 2.674 0 0 0-.86-.414 3.669 3.669 0 0 0-1.002-.135c-.475 0-.898.079-1.267.237-.37.159-.683.38-.94.662a2.84 2.84 0 0 0-.583 1.008c-.132.388-.198.81-.198 1.262 0 .438.072.84.215 1.205.144.366.344.681.6.946.257.264.568.47.934.616.366.148.768.221 1.205.221.778 0 1.415-.204 1.913-.611.498-.408.8-1 .906-1.777h-1.55c-.054.362-.184.65-.391.866-.208.215-.504.322-.889.322-.249 0-.46-.056-.634-.17a1.268 1.268 0 0 1-.413-.435 1.996 1.996 0 0 1-.22-.594 3.179 3.179 0 0 1 0-1.308c.045-.222.122-.426.231-.611.11-.185.251-.336.425-.453.173-.117.388-.175.645-.175.687 0 1.083.336 1.189 1.007zm2.087-.26c.023-.378.117-.69.283-.94.166-.249.377-.449.634-.6.256-.15.545-.258.866-.322.32-.064.643-.096.968-.096.294 0 .592.02.894.062.302.041.577.122.826.243.25.12.453.289.611.504.159.215.238.5.238.854v3.045c0 .264.015.517.045.759.03.241.083.422.159.543h-1.63a2.307 2.307 0 0 1-.113-.566 2.095 2.095 0 0 1-.906.555 3.635 3.635 0 0 1-1.064.158c-.28 0-.54-.034-.78-.102a1.789 1.789 0 0 1-.635-.317 1.475 1.475 0 0 1-.424-.543 1.837 1.837 0 0 1-.153-.781c0-.332.058-.606.175-.82.117-.216.268-.387.453-.516.185-.128.396-.224.634-.288.238-.064.477-.115.719-.153.241-.038.479-.068.713-.09.234-.023.441-.057.622-.103.182-.045.325-.11.43-.198.106-.086.155-.213.148-.379a.853.853 0 0 0-.085-.413.624.624 0 0 0-.227-.238.89.89 0 0 0-.328-.113 2.686 2.686 0 0 0-.402-.028c-.317 0-.566.068-.747.204-.18.135-.286.362-.317.679h-1.607zm3.713 1.188a.721.721 0 0 1-.255.142 2.601 2.601 0 0 1-.328.085 5.03 5.03 0 0 1-.368.056 6.757 6.757 0 0 0-.385.057c-.12.022-.24.053-.356.09a1.054 1.054 0 0 0-.306.153.726.726 0 0 0-.21.244.783.783 0 0 0-.079.373c0 .143.027.264.08.362a.607.607 0 0 0 .215.232c.09.057.196.097.316.12.121.022.246.033.374.033.317 0 .562-.053.736-.158a1.06 1.06 0 0 0 .385-.38c.083-.147.134-.296.152-.447.02-.15.029-.271.029-.362v-.6zm4.532-2.988v-1.754H96.96v1.754h-.974v1.075h.974v3.453c0 .294.049.532.147.713.098.18.232.32.402.419.17.098.366.164.588.198.223.034.459.05.708.05.158 0 .32-.003.487-.01.166-.008.317-.023.452-.046v-1.245a2.252 2.252 0 0 1-.237.034c-.083.007-.17.011-.26.011-.272 0-.453-.045-.544-.136-.09-.09-.136-.271-.136-.543V20.84h1.177v-1.075h-1.177zm1.522 1.8c.022-.378.117-.69.283-.94.166-.249.377-.449.634-.6.256-.15.545-.258.865-.322.321-.064.644-.096.968-.096.295 0 .593.02.894.062.302.041.578.122.827.243.249.12.453.289.611.504.158.215.238.5.238.854v3.045c0 .264.015.517.045.759.03.241.083.422.158.543h-1.63a2.307 2.307 0 0 1-.113-.566 2.095 2.095 0 0 1-.905.555 3.635 3.635 0 0 1-1.064.158c-.28 0-.54-.034-.781-.102a1.789 1.789 0 0 1-.634-.317 1.475 1.475 0 0 1-.425-.543 1.837 1.837 0 0 1-.152-.781c0-.332.058-.606.175-.82.117-.216.268-.387.453-.516.185-.128.396-.224.634-.288.237-.064.477-.115.718-.153.242-.038.48-.068.714-.09.233-.023.441-.057.622-.103.181-.045.325-.11.43-.198.106-.086.155-.213.147-.379a.853.853 0 0 0-.085-.413.624.624 0 0 0-.226-.238.89.89 0 0 0-.328-.113 2.686 2.686 0 0 0-.402-.028c-.317 0-.566.068-.747.204-.181.135-.287.362-.317.679h-1.607zm3.712 1.188a.721.721 0 0 1-.254.142 2.601 2.601 0 0 1-.329.085 5.03 5.03 0 0 1-.367.056 6.757 6.757 0 0 0-.385.057c-.121.022-.24.053-.357.09a1.054 1.054 0 0 0-.305.153.726.726 0 0 0-.21.244.783.783 0 0 0-.08.373c0 .143.027.264.08.362a.607.607 0 0 0 .215.232c.09.057.196.097.317.12.12.022.245.033.374.033.317 0 .562-.053.735-.158a1.06 1.06 0 0 0 .385-.38c.083-.147.134-.296.153-.447.019-.15.028-.271.028-.362v-.6zm2.54-5.218v8.082h1.608v-8.082h-1.607zm8.008 8.082v-5.852h-1.607v3.068c0 .596-.098 1.024-.295 1.284-.196.26-.513.39-.95.39-.385 0-.653-.118-.804-.356-.151-.238-.226-.598-.226-1.08v-3.306h-1.608v3.6c0 .362.032.692.096.99.065.298.176.55.334.758.159.208.376.368.651.481.276.114.628.17 1.059.17.34 0 .671-.075.996-.226.324-.151.588-.396.792-.736h.034v.815h1.528zm.865-5.852v5.852h1.607V22.55c0-.597.098-1.025.295-1.285.196-.26.513-.39.95-.39.385 0 .653.118.804.356.151.238.227.598.227 1.08v3.306h1.607v-3.6c0-.362-.032-.692-.096-.99a1.884 1.884 0 0 0-.334-.758 1.57 1.57 0 0 0-.651-.487c-.276-.117-.628-.175-1.058-.175-.34 0-.672.077-.997.232a1.844 1.844 0 0 0-.792.741h-.034v-.815h-1.528zm9.241 6.576c-.173.476-.415.815-.724 1.02-.31.203-.74.305-1.29.305-.167 0-.33-.006-.493-.017a23.52 23.52 0 0 1-.492-.04v-1.324l.464.045c.158.015.317.019.475.011.211-.022.368-.105.47-.249a.802.802 0 0 0 .153-.475.966.966 0 0 0-.068-.362l-2.049-5.49h1.71l1.324 4.007h.022l1.28-4.007h1.663l-2.445 6.576zm2.563-4.776c.023-.378.117-.69.283-.94.166-.249.377-.449.634-.6.257-.15.545-.258.866-.322.32-.064.643-.096.968-.096.294 0 .592.02.894.062.302.041.577.122.826.243.25.12.453.289.611.504.159.215.238.5.238.854v3.045c0 .264.015.517.045.759.03.241.083.422.159.543h-1.63a2.307 2.307 0 0 1-.113-.566 2.094 2.094 0 0 1-.906.555 3.635 3.635 0 0 1-1.064.158c-.279 0-.54-.034-.78-.102a1.789 1.789 0 0 1-.635-.317 1.475 1.475 0 0 1-.424-.543 1.837 1.837 0 0 1-.153-.781c0-.332.059-.606.175-.82.117-.216.268-.387.453-.516.185-.128.396-.224.634-.288.238-.064.477-.115.719-.153.241-.038.479-.068.713-.09.234-.023.441-.057.623-.103.18-.045.324-.11.43-.198.105-.086.154-.213.147-.379a.853.853 0 0 0-.085-.413.624.624 0 0 0-.226-.238.89.89 0 0 0-.329-.113 2.686 2.686 0 0 0-.402-.028c-.316 0-.566.068-.747.204-.18.135-.286.362-.317.679h-1.607zm3.713 1.188a.721.721 0 0 1-.255.142 2.601 2.601 0 0 1-.328.085 5.03 5.03 0 0 1-.368.056 6.757 6.757 0 0 0-.385.057c-.12.022-.24.053-.356.09a1.054 1.054 0 0 0-.306.153.726.726 0 0 0-.21.244.783.783 0 0 0-.079.373c0 .143.027.264.08.362a.607.607 0 0 0 .215.232c.09.057.196.097.317.12.12.022.245.033.373.033.317 0 .562-.053.736-.158a1.06 1.06 0 0 0 .385-.38c.083-.147.134-.296.153-.447.018-.15.028-.271.028-.362v-.6zM55.879 3.574L61.715 7v6.851l-5.836 3.426-5.836-3.426V7z"/>
    </g>
</svg>
