<svg xmlns="http://www.w3.org/2000/svg" width="832" height="502" viewBox="0 0 832 502">
    <g fill="none" fill-rule="evenodd">
        <path stroke="#E6E6E6" d="M2.5 1.5h828v500H2.5z" opacity=".496"/>
        <path fill="#E6E6E6" stroke="#E6E6E6" d="M1 147.5V228h71v-8zM6 142.5L75 211l69.5-68.5-69.25-71zM1 135.5L69.5 66 5 1H1zM15 1l59.5 59.5L134 1zM82 66.5L145 1h10l64 65.5-68.5 68.5zM80 228l136.5 1v-11.5l2-3-67.5-66-70 69-1 4zM224.5 229.5H381L302.75 148l-78.25 71zM158 142l66.5 66.5L295 142l-70.5-70.5zM382.5 220l8.5 9 120.5 1v-11l-60-62.5zM328 163.5l48.5 50 52-45.5zM311 144.5l10 11 114 6.5 9-10-83-63zM274.5 111l33.5 31 49-55.5-36.5-30zM165 1l6.5 6.5 6-6.5zM188 1l-10.5 12 94.5 94.5 43-55L249 1zM263 1l57 44.5L343.5 15 328 1zM337 1l10.5 9 9.5-9zM366.5 1l-13 14 64 55L474 14 461 1zM326 49.5l22.5-30 60 51.5-18 29zM411.5 73.5L394 102l54.5 42 13-27zM423 74l55.5-55 39 37L506 75.5 466 111zM456.5 150l60.5 63 73.5-101-65-52-12 18.5L472 116zM471 1l50.5 50 27-39.5L550 1zM559 1l-2 14-29 41.5 64 52 42.5-64L565 1zM580.5 1L611 19l13.5-18zM632.5 1L617 22l21 14h6l14.5-20-19-15zM646 1l15 11.5 4.5-5.75-7-5.75zM670.5 1l25 19 16-19zM655 27.5l13.5-18 22 17L676 45zM652.5 30.5L647 38l20 16 6.5-6zM597 111.5L639.5 49l19 16-45.5 60.5zM722 1l-48 56.5L686.5 70l80 16 2-6L791 55.5 728.5 1zM737 1l58.5 49.5 30-34.5-19-15zM816.5 1L829 11l2-2.5V1zM811.5 42.5l19.5-22V60zM785 72.5l23.5-27L831 66v39l-26.5-6.5-4-13.5z"/>
        <path fill="#E6E6E6" stroke="#E6E6E6" d="M781 74l-9 7.5-1.5 5.5 28.5 9.5-3-9.5zM620 130l43.5-59 18.5 7.5L760.5 99l-23 69zM768 101l33 9.5-9 40.5-36-11.5zM805 111l26 6.5v43l-35-9zM744 172l9.5-26 35 10.5L782 184zM795 159l36 9v24l-49 35.5v-17zM743.5 176l37 11-3.5 21-45-2.5zM731 210l45 2-2 20-25 18-33-2.5zM761 251l70-50.5V256zM687.5 160.5l48 14-16 42.5-47.5-13.5zM670 210l46.5 13.5-7.5 23-51-4.5zM589 170l27-34 67.5 23-15 43-29.5-8.5-31-17h-9.5zM585 176l11 8h11l30 16.5 29 8-12 32-113-8zM520.5 216L592 115.5l16.5 15.5L532 231h-11.5zM8 249l-6.5 23L63 304l13-55zM1 276.5L61.5 308 45 384 1 357zM1 367.5L42.5 392 35 420 1 407.5zM1 414.5L33 426l-6.5 26.5-13-4L8 464H1zM33.5 455l17-59L86 411.5 66 484l-22.5-6.5 3.5-18z"/>
        <path fill="#E6E6E6" stroke="#E6E6E6" d="M1 472v29h59.5l3.5-10.5-27.5-8 3-17-22-7-5 14.5zM69 501h37l-33.5-9zM74.5 485.5l36 11 17-61.5-35-19.5zM134.5 439.5l-16.5 58 14 3.5h27.5l7.5-49zM174.5 454.5l-8 46.5H206l6.5-31.5zM219 472.5l-6 28.5h34.5l8-17.5zM54 388.5l16-76 34.5 17.5-17 74.5zM113.5 334l44.5 22.5-27.5 71-34.5-20zM165.5 361l36.5 18.5-31 64.5-33.5-11.5zM177.5 447.5L214 461l29-59.5-35-18zM250 405.5l35.5 18-26.5 54-37.5-12.5zM291.5 426.5l19 10-29 64.5H256zM72 308l12-58h42.5l-21 75.5zM134.5 251h67l-42 102.5-45-22.5zM211 252h55l-62 124-37-18zM273.5 252.5h35l8.5 4-72 141-34-17.5zM325.5 251.5L323 256l33 17.5h13l6-22zM322 260.5l32 16.5-66.5 141.5-35-16.5zM360.5 281h11L317 434l-23.5-12zM382 252l-7.5 23.5L470 314l45.5-62zM377 286l89 34.5-40 54.5-70-27.5zM354 353.5l67 27.5-31.5 40-50.5-24zM337.5 404L323 438l39 18 23-29.5zM288.5 501l27.5-61.5 43 20-32 41.5zM479 317.5l45-64.5 62 5-31.5 88.5zM594 258.5l51.5 4L606 368l-44-20.5zM650 263l83 6-49 128-73.5-27.5zM743 270.5l50.5 3.5-25.25 64-44.75-18.5zM801 275l30 2v86l-55-22zM721 327.5l44 18-26.5 72.5-47.5-18.5zM772.5 349.5l53.5 21-26.75 73.5-54.75-22zM831 379.5l-24 67 24 11.5zM435.5 378.5L475 325l18.5 6.5-26 59.5zM501 335l51 19.5-22 61-56.5-21.5zM559.5 357.5l42 17.5-21 58.5-43-15zM608 377.5l72 27.5-24 58.5-70-27.5zM688.5 409l46.5 17.5-16 42h-56zM741.5 429.5l55 21-17 40.5-54-20.5zM805 454l26 13v34h-29.5l-15.5-7zM373.5 459l55.5-73.5 36 13-33 88.5zM337 501l29.5-36 74 36zM438.5 490.5l32.5-88 56.5 21L490 501h-30zM534.5 426l42 15-21 51.5L540 501h-42.5zM584 444l71 27-48 5.5-42 13.5zM559 501l50.5-16 55.5-8h55.5l43.5 16.5 16.5 7.5z"/>
        <path fill="#3B4868" fill-rule="nonzero" stroke="#3B4868" d="M417 237c4.424 0 8 3.627 8 8.114 0 6.825-7.388 12.552-7.718 12.79-.094.048-.188.096-.282.096-.094 0-.188-.048-.282-.095-.33-.24-7.718-5.966-7.718-12.791 0-4.487 3.576-8.114 8-8.114z"/>
        <path fill="#F7FBFD" d="M417 242c1.671 0 3 1.329 3 3s-1.329 3-3 3-3-1.329-3-3 1.329-3 3-3z"/>
        <path fill="#63727F" d="M132.472 245l-1.11-2.55h-5.534l-1.096 2.55h-1.514l4.664-10.5h1.5l4.65 10.5h-1.56zm-6.075-3.855h4.41l-2.22-5.1-2.19 5.1zm7.71-4.08h1.486l2.385 6.555 2.37-6.555h1.41l-3.09 7.935h-1.456l-3.105-7.935zm9.166 6.345c.23 0 .422.08.577.24.155.16.233.365.233.615s-.078.457-.233.623a.76.76 0 0 1-.577.247.784.784 0 0 1-.585-.248.858.858 0 0 1-.24-.622c0-.25.08-.455.24-.615.16-.16.354-.24.585-.24zm11.025-8.91c1.31 0 2.322.31 3.037.93.715.62 1.072 1.49 1.072 2.61 0 1.17-.36 2.077-1.08 2.722-.72.646-1.73.968-3.03.968h-2.61V245h-1.44v-10.5h4.05zm-.06 5.925c.9 0 1.59-.197 2.07-.593.48-.395.72-.977.72-1.747 0-.75-.24-1.317-.72-1.703-.48-.385-1.17-.577-2.07-.577l-2.55.015v4.605h2.55zM165.023 245v-1.11c-.59.78-1.515 1.17-2.775 1.17-.55 0-1.033-.105-1.448-.315-.415-.21-.735-.5-.96-.87a2.349 2.349 0 0 1-.338-1.245c0-.71.263-1.272.788-1.688.525-.415 1.257-.627 2.198-.637h2.52v-.375c0-.56-.173-.992-.518-1.298-.345-.305-.847-.457-1.508-.457-.8 0-1.614.285-2.445.855l-.585-.96c.57-.37 1.098-.637 1.583-.802.485-.166 1.062-.248 1.733-.248.99 0 1.754.242 2.294.727.54.486.815 1.163.825 2.033l.016 5.22h-1.38zm-2.49-1.095c.65 0 1.202-.157 1.657-.472.455-.316.727-.733.817-1.253v-.795h-2.325c-.63 0-1.097.095-1.402.285-.305.19-.458.49-.458.9 0 .41.155.735.465.975.31.24.725.36 1.245.36zm7.755-5.13c.26-.57.63-1.002 1.11-1.298.48-.295 1.05-.447 1.71-.457v1.35c-.81-.03-1.465.18-1.965.63s-.786 1.055-.856 1.815V245h-1.394v-7.935h1.394v1.71zm9.18 6.225v-1.11c-.59.78-1.515 1.17-2.775 1.17-.55 0-1.033-.105-1.448-.315-.415-.21-.735-.5-.96-.87a2.349 2.349 0 0 1-.338-1.245c0-.71.263-1.272.788-1.688.525-.415 1.257-.627 2.197-.637h2.52v-.375c0-.56-.172-.992-.517-1.298-.345-.305-.847-.457-1.507-.457-.8 0-1.615.285-2.446.855l-.584-.96c.57-.37 1.097-.637 1.582-.802.485-.166 1.062-.248 1.733-.248.99 0 1.754.242 2.294.727.54.486.815 1.163.826 2.033l.014 5.22h-1.38zm-2.49-1.095c.65 0 1.202-.157 1.657-.472.455-.316.728-.733.817-1.253v-.795h-2.325c-.63 0-1.097.095-1.402.285-.305.19-.457.49-.457.9 0 .41.154.735.464.975.31.24.725.36 1.245.36zm6.434-10.035h1.395V245h-1.394v-11.13zm4.44 6c.25 0 .458.085.623.255.165.17.248.385.248.645s-.083.475-.248.645a.831.831 0 0 1-.623.255.831.831 0 0 1-.622-.255.888.888 0 0 1-.248-.645c0-.26.083-.475.248-.645a.831.831 0 0 1 .623-.255zm3.046-6h1.394V245h-1.394v-11.13zm7.38 3.15c1.23 0 2.16.362 2.79 1.087.63.726.944 1.733.944 3.023 0 .2-.005.35-.014.45h-6.27c.11.71.407 1.275.892 1.695.485.42 1.082.63 1.792.63.47 0 .908-.085 1.313-.255.405-.17.757-.41 1.058-.72l.765.795c-.39.42-.86.745-1.41.975-.55.23-1.16.345-1.83.345-.78 0-1.473-.167-2.078-.502a3.53 3.53 0 0 1-1.41-1.418c-.335-.61-.502-1.305-.502-2.085s.167-1.472.502-2.077a3.659 3.659 0 0 1 1.403-1.425c.6-.346 1.284-.518 2.054-.518zm2.475 3.48c-.04-.72-.28-1.287-.72-1.702-.44-.416-1.02-.623-1.74-.623-.7 0-1.283.21-1.748.63-.465.42-.742.985-.832 1.695h5.04zm3.24-6.63h1.394V245h-1.394v-11.13zM655.114 257.205l-.883-2.637-5.514-.483-1.313 2.445-1.51-.132 5.563-10.053 1.494.13 3.718 10.866-1.555-.136zm-5.715-4.37l4.393.384-1.767-5.274-2.626 4.89zm8.036-3.392l1.48.129 1.804 6.738 2.932-6.324 1.405.123-3.77 7.636-1.45-.127-2.401-8.175zm8.577 7.12c.23.02.414.116.554.289.14.173.2.384.178.633a.874.874 0 0 1-.286.6.76.76 0 0 1-.596.196.784.784 0 0 1-.562-.298.858.858 0 0 1-.184-.64.833.833 0 0 1 .292-.593.796.796 0 0 1 .604-.188zm11.76-7.916c1.305.114 2.286.511 2.944 1.191.659.68.939 1.578.841 2.694-.102 1.165-.54 2.038-1.313 2.618-.773.58-1.808.813-3.103.7l-2.6-.228-.285 3.258-1.434-.126.915-10.46 4.035.353zm-.577 5.897c.897.079 1.602-.058 2.114-.41.513-.351.803-.91.87-1.678.065-.747-.125-1.333-.57-1.758-.444-.426-1.114-.678-2.01-.756l-2.543-.207-.4 4.587 2.54.222zm10.346 5.498l.096-1.106c-.655.726-1.61 1.034-2.866.924-.548-.048-1.02-.195-1.415-.44a2.318 2.318 0 0 1-.88-.95 2.349 2.349 0 0 1-.228-1.27c.062-.708.373-1.245.932-1.613.559-.367 1.307-.515 2.244-.443l2.51.22.034-.374c.048-.558-.086-1.004-.403-1.338-.317-.334-.804-.53-1.462-.587-.797-.07-1.633.143-2.51.639l-.5-1.008c.601-.319 1.15-.54 1.647-.661.498-.122 1.08-.154 1.748-.096.986.087 1.727.395 2.223.925.495.53.71 1.23.644 2.097l-.44 5.201-1.374-.12zm-2.385-1.308c.647.057 1.211-.052 1.692-.326.48-.274.788-.667.923-1.177l.07-.792-2.316-.202c-.628-.055-1.102-.001-1.422.161-.32.163-.499.449-.535.857-.035.408.09.746.379 1.012.288.266.69.422 1.209.467zm8.172-4.435c.309-.545.715-.943 1.219-1.195.504-.252 1.085-.355 1.743-.307l-.117 1.345c-.805-.1-1.475.051-2.013.456-.537.405-.874.983-1.01 1.734l-.364 4.169-1.39-.122.691-7.905 1.39.122-.149 1.703zm8.603 7.002l.096-1.106c-.655.726-1.61 1.034-2.866.924-.548-.048-1.02-.195-1.415-.44a2.318 2.318 0 0 1-.88-.95 2.349 2.349 0 0 1-.228-1.27c.062-.708.373-1.245.932-1.613.559-.367 1.307-.515 2.244-.443l2.51.22.034-.374c.048-.558-.086-1.004-.403-1.338-.317-.334-.804-.53-1.462-.587-.797-.07-1.633.143-2.51.639l-.5-1.008c.601-.319 1.15-.54 1.647-.661.498-.122 1.08-.154 1.748-.096.986.086 1.727.395 2.223.925.495.53.71 1.23.644 2.097l-.44 5.201-1.374-.12zm-2.385-1.308c.647.057 1.211-.052 1.692-.326.48-.274.789-.667.923-1.177l.07-.792-2.316-.202c-.628-.055-1.102-.001-1.422.161-.32.163-.499.449-.535.857-.035.408.09.746.379 1.012.288.266.69.422 1.209.467zm7.285-9.436l1.39.122-.97 11.087-1.39-.121.97-11.088zm3.9 6.364a.831.831 0 0 1 .598.308c.15.184.213.406.19.665a.888.888 0 0 1-.303.62.831.831 0 0 1-.642.2.831.831 0 0 1-.598-.308.888.888 0 0 1-.19-.664.888.888 0 0 1 .302-.621.831.831 0 0 1 .643-.2zm3.556-5.712l1.39.122-.97 11.088-1.39-.122.97-11.088zm7.078 3.782c1.225.107 2.12.549 2.684 1.326.565.777.79 1.808.678 3.093-.017.2-.035.349-.054.447l-6.246-.546c.048.717.295 1.306.741 1.766.447.461 1.024.722 1.731.784.468.041.911-.005 1.33-.14.418-.134.79-.342 1.116-.625l.693.859a4.007 4.007 0 0 1-1.49.848 4.699 4.699 0 0 1-1.853.185c-.777-.068-1.452-.296-2.026-.682a3.53 3.53 0 0 1-1.28-1.535c-.281-.637-.388-1.344-.32-2.12.068-.778.295-1.453.682-2.027a3.659 3.659 0 0 1 1.521-1.297c.628-.291 1.326-.404 2.093-.336zm2.162 3.682c.023-.72-.167-1.307-.569-1.759-.402-.452-.962-.709-1.68-.772-.696-.06-1.295.098-1.795.476s-.825.916-.977 1.616l5.02.439zm3.805-6.322l1.39.121-.97 11.088-1.39-.122.97-11.087zM387.57 427.778c-.499.058-.968.209-1.407.453-.439.244-.805.56-1.097.948a3.458 3.458 0 0 0-.69 1.693 3.47 3.47 0 0 0 1.37 3.214c.506.381 1.067.609 1.684.683a3.455 3.455 0 0 0 1.784-.25 3.458 3.458 0 0 0 1.438-1.131c.287-.38.49-.813.611-1.298.121-.484.153-.97.097-1.457l1.108-.109a5.073 5.073 0 0 1-.116 1.915 4.715 4.715 0 0 1-.805 1.705 4.705 4.705 0 0 1-1.925 1.528 4.568 4.568 0 0 1-2.369.347 4.573 4.573 0 0 1-2.255-.918 4.478 4.478 0 0 1-1.484-1.908 4.556 4.556 0 0 1-.297-2.38c.112-.827.432-1.59.959-2.289.38-.505.845-.923 1.393-1.254a4.547 4.547 0 0 1 1.731-.624l.27 1.132zm5.957 1.298c.12-.16.276-.251.467-.275a.734.734 0 0 1 .547.16c.173.13.276.292.31.486a.659.659 0 0 1-.13.528.68.68 0 0 1-.476.276.744.744 0 0 1-.557-.158.722.722 0 0 1-.3-.487.69.69 0 0 1 .139-.53zm1.367-14.646l.743-.986 7.268 5.477-.759 1.007-8.757-.088 5.628 4.24-.752.997-7.267-5.476.759-1.007 8.775.085-5.638-4.249zm5.71-3.95c.413-.546.897-.943 1.453-1.192a3.18 3.18 0 0 1 1.732-.257c.599.077 1.168.318 1.708.725s.931.889 1.173 1.446c.243.557.321 1.137.236 1.74-.086.603-.335 1.178-.747 1.725-.417.553-.904.954-1.46 1.203a3.18 3.18 0 0 1-1.732.257c-.599-.077-1.171-.321-1.718-.733-.54-.407-.93-.888-1.168-1.442a3.18 3.18 0 0 1-.23-1.736c.085-.603.337-1.181.754-1.735zm.842.635c-.271.36-.43.742-.475 1.148-.045.405.021.797.198 1.174.177.378.452.707.826.989.38.287.778.464 1.193.533.415.068.81.024 1.183-.134.374-.158.697-.417.968-.777.266-.353.423-.73.472-1.133a2.103 2.103 0 0 0-.198-1.175c-.18-.38-.46-.713-.84-1a2.64 2.64 0 0 0-1.179-.521 2.157 2.157 0 0 0-1.183.133c-.378.156-.7.41-.965.763zm5.989-9.633l5.492 4.139-.736.976-1.162-.876c.51.949.397 1.927-.34 2.934-.48.637-1.044.993-1.692 1.069-.649.076-1.305-.137-1.97-.638l-3.395-2.558.736-.976 3.135 2.363c.464.35.92.495 1.37.438.45-.057.843-.307 1.176-.75.38-.517.504-1.06.375-1.63-.13-.57-.472-1.063-1.025-1.48l-2.7-2.035.736-.976zm5.111-11.384l7.704 5.805-.728.966-1.09-.822c.21.484.283.975.216 1.474-.066.498-.274.979-.623 1.442-.391.52-.856.888-1.395 1.106a3.081 3.081 0 0 1-1.697.178c-.592-.099-1.162-.355-1.709-.767-.54-.406-.935-.878-1.187-1.415a3.057 3.057 0 0 1-.281-1.669c.064-.575.29-1.12.676-1.631.354-.47.761-.81 1.221-1.017a2.59 2.59 0 0 1 1.467-.197l-3.301-2.487.727-.966zm4.797 8.042c.271-.36.43-.742.475-1.148a2.19 2.19 0 0 0-.2-1.183 2.631 2.631 0 0 0-.826-.998 2.659 2.659 0 0 0-1.198-.528 2.19 2.19 0 0 0-1.192.135 2.314 2.314 0 0 0-.973.773c-.271.36-.428.744-.47 1.152-.041.408.027.804.205 1.187.177.384.453.716.827.998.374.282.77.455 1.187.52.417.065.815.02 1.192-.135.378-.155.702-.413.973-.773zm.505-10.542c.642-.85 1.378-1.306 2.208-1.363.83-.058 1.692.25 2.585.922.138.104.24.186.303.245l-3.27 4.34c.549.294 1.095.383 1.639.266.544-.117 1-.42 1.37-.912.246-.325.415-.672.509-1.041.094-.37.111-.739.053-1.108l.95-.115c.087.49.067.984-.061 1.485-.128.5-.366.983-.716 1.446-.407.54-.884.932-1.431 1.176a3.06 3.06 0 0 1-1.717.237c-.597-.087-1.165-.333-1.705-.74s-.932-.884-1.176-1.431a3.171 3.171 0 0 1-.255-1.714c.075-.596.312-1.16.714-1.693zm3.7.102c-.52-.347-1.038-.477-1.554-.39-.517.089-.963.382-1.339.88-.365.485-.523.998-.475 1.539.048.54.294 1.027.739 1.46l2.629-3.489zm-.85-8.42l.728-.966 7.704 5.805-.728.966-7.704-5.805zm12.422-.456l-.769-.579c.232.816.02 1.66-.637 2.531-.287.381-.611.66-.973.838a2.01 2.01 0 0 1-1.103.21 2.036 2.036 0 0 1-1.038-.415c-.491-.37-.744-.846-.757-1.425-.014-.58.221-1.198.705-1.854l1.314-1.744-.26-.196c-.387-.292-.776-.398-1.167-.318-.391.08-.76.348-1.103.805-.418.553-.645 1.266-.684 2.138l-.97-.096c.042-.588.132-1.092.27-1.514.14-.422.383-.864.733-1.328.516-.685 1.083-1.088 1.7-1.21.618-.12 1.23.043 1.838.49l3.62 2.712-.72.955zm-2.057 1.153c.339-.45.518-.915.537-1.394.02-.48-.127-.886-.44-1.22l-.55-.414-1.213 1.61c-.329.435-.507.809-.534 1.119-.028.31.1.572.384.786.284.214.59.276.917.187.328-.09.628-.314.899-.674zm9.732-11.338l-3.372-.278a6.366 6.366 0 0 1-.284.42l-1.393 1.849 2.263 1.705-.75.997-7.268-5.476 2.143-2.845c.694-.92 1.443-1.472 2.247-1.653.803-.18 1.596.024 2.379.613.588.443.98.953 1.175 1.529.196.576.19 1.188-.016 1.835l3.736.162-.86 1.142zm-4.56-.538c.47-.623.693-1.203.67-1.742-.023-.538-.301-1.008-.834-1.41-.52-.39-1.037-.52-1.554-.39-.517.132-1.01.51-1.48 1.132l-1.392 1.848 3.198 2.41 1.392-1.848zm9.136-5.535l-.768-.58c.232.816.02 1.66-.637 2.532-.287.38-.612.66-.973.837a2.01 2.01 0 0 1-1.103.211 2.036 2.036 0 0 1-1.038-.416c-.492-.37-.744-.845-.757-1.425-.014-.58.221-1.198.705-1.854l1.314-1.744-.26-.195c-.387-.292-.777-.399-1.168-.319-.39.08-.758.348-1.103.805-.417.554-.645 1.266-.683 2.138l-.97-.096c.042-.587.132-1.092.27-1.514.14-.421.383-.864.733-1.328.516-.685 1.083-1.088 1.7-1.209.618-.12 1.23.042 1.837.49l3.621 2.711-.72.956zm-2.056 1.152c.339-.45.518-.914.537-1.394.02-.479-.127-.885-.44-1.219l-.55-.414-1.213 1.609c-.329.436-.507.809-.534 1.12-.028.31.1.571.384.785.284.214.59.276.917.187.328-.09.628-.314.899-.674zm3.895-15.084c.475-.63 1.038-.982 1.69-1.055.652-.073 1.306.139 1.964.634l3.395 2.558-.735.976-3.136-2.362c-.464-.35-.922-.497-1.376-.443-.453.055-.847.303-1.18.746-.378.53-.502 1.076-.373 1.64.128.564.47 1.054 1.023 1.471l2.71 2.042-.735.976-3.136-2.363c-.463-.349-.92-.498-1.372-.447-.45.05-.845.301-1.184.751-.378.53-.503 1.078-.377 1.645s.466 1.06 1.02 1.477l2.71 2.041-.728.966-5.492-4.139.727-.965 1.153.868c-.504-.944-.385-1.923.357-2.937.381-.505.819-.834 1.314-.988.495-.153 1.005-.124 1.53.087-.651-1.022-.574-2.082.231-3.18zm5.124-6.8c.386-.513.848-.88 1.386-1.105a3.034 3.034 0 0 1 1.69-.191c.59.096 1.158.35 1.704.763.54.407.938.877 1.192 1.41a2.97 2.97 0 0 1 .28 1.66c-.068.573-.295 1.115-.681 1.627-.35.464-.754.8-1.214 1.006a2.61 2.61 0 0 1-1.457.205l1.09.821-.727.966-7.704-5.805.728-.966 3.301 2.488a2.622 2.622 0 0 1-.208-1.451c.07-.496.276-.972.62-1.429zm4.573 3.738c.266-.353.422-.732.467-1.138a2.146 2.146 0 0 0-.203-1.178c-.18-.38-.457-.71-.83-.992a2.604 2.604 0 0 0-1.178-.513 2.205 2.205 0 0 0-1.188.13 2.254 2.254 0 0 0-.961.757 2.289 2.289 0 0 0-.467 1.138c-.045.406.021.8.199 1.184.178.383.45.713.817.99.38.286.778.46 1.192.523.414.063.81.017 1.187-.139.377-.155.7-.409.965-.762zm-3.71-9.42l.728-.966 7.704 5.805-.728.966-7.703-5.805zm12.422-.456l-.768-.579c.232.816.02 1.66-.638 2.531-.287.381-.611.66-.973.838a2.01 2.01 0 0 1-1.103.21 2.036 2.036 0 0 1-1.038-.415c-.491-.37-.744-.845-.757-1.425-.013-.58.222-1.198.705-1.854l1.314-1.744-.26-.196c-.387-.292-.776-.398-1.167-.318-.391.08-.759.348-1.103.805-.417.553-.645 1.266-.684 2.138l-.97-.096c.042-.587.132-1.092.27-1.514.14-.422.384-.864.733-1.328.516-.685 1.083-1.088 1.7-1.21.618-.12 1.23.043 1.838.49l3.62 2.712-.72.955zm-2.057 1.153c.34-.45.518-.915.538-1.394.019-.48-.128-.886-.44-1.22l-.551-.414-1.213 1.61c-.328.436-.506.809-.534 1.119-.028.31.1.572.384.786.284.214.59.276.918.187.327-.09.627-.314.898-.674zM610.453 130.711c-.5.058-.969.21-1.408.454-.439.244-.805.56-1.097.947a3.458 3.458 0 0 0-.69 1.694 3.47 3.47 0 0 0 1.37 3.214c.506.38 1.067.608 1.684.683a3.455 3.455 0 0 0 1.784-.251 3.458 3.458 0 0 0 1.438-1.13c.287-.381.49-.814.611-1.298.121-.484.153-.97.097-1.457l1.108-.11a5.073 5.073 0 0 1-.116 1.915 4.715 4.715 0 0 1-.805 1.706 4.705 4.705 0 0 1-1.925 1.528 4.568 4.568 0 0 1-2.369.347 4.573 4.573 0 0 1-2.255-.918 4.478 4.478 0 0 1-1.484-1.908 4.556 4.556 0 0 1-.297-2.38c.112-.827.432-1.59.96-2.29.38-.505.844-.923 1.392-1.253a4.547 4.547 0 0 1 1.731-.624l.27 1.131zm5.956 1.298c.12-.159.276-.25.467-.274a.734.734 0 0 1 .547.16c.173.13.277.292.31.485a.659.659 0 0 1-.13.53.68.68 0 0 1-.476.275.744.744 0 0 1-.556-.159.722.722 0 0 1-.301-.487.69.69 0 0 1 .139-.53zm1.367-14.645l.743-.986 7.268 5.476-.759 1.007-8.757-.087 5.628 4.24-.751.997-7.268-5.477.759-1.007 8.775.085-5.638-4.248zm5.71-3.95c.413-.546.897-.944 1.453-1.192a3.18 3.18 0 0 1 1.732-.257c.599.076 1.168.318 1.708.725s.931.889 1.173 1.446c.243.557.321 1.137.236 1.74-.086.603-.335 1.177-.747 1.724-.417.554-.904.955-1.46 1.203a3.18 3.18 0 0 1-1.732.258c-.599-.077-1.171-.321-1.718-.734-.54-.406-.93-.887-1.168-1.441a3.18 3.18 0 0 1-.23-1.736c.085-.603.337-1.182.754-1.735zm.842.634c-.271.36-.43.743-.475 1.148-.045.406.021.797.198 1.175.177.377.452.707.826.988.38.287.778.465 1.193.533.415.069.81.024 1.184-.133.373-.158.696-.417.967-.777.266-.353.423-.73.472-1.134a2.103 2.103 0 0 0-.197-1.174c-.18-.38-.461-.713-.842-1a2.64 2.64 0 0 0-1.178-.522 2.157 2.157 0 0 0-1.183.134c-.377.155-.7.41-.965.762zm5.989-9.632l5.492 4.139-.735.976-1.163-.877c.51.95.397 1.928-.34 2.935-.48.637-1.044.993-1.692 1.069-.649.075-1.305-.137-1.97-.638l-3.395-2.558.736-.976 3.135 2.362c.464.35.92.496 1.37.44.45-.058.843-.308 1.176-.751.38-.517.504-1.06.375-1.63-.13-.57-.472-1.064-1.025-1.481l-2.7-2.034.736-.976zm5.111-11.384l7.704 5.805-.728.965-1.09-.821c.21.484.283.975.216 1.473-.066.498-.273.98-.623 1.443-.391.52-.856.888-1.395 1.106a3.081 3.081 0 0 1-1.697.178c-.592-.1-1.162-.355-1.709-.767-.54-.407-.935-.879-1.187-1.416a3.057 3.057 0 0 1-.281-1.668c.064-.576.29-1.12.676-1.632.354-.47.761-.81 1.221-1.016a2.59 2.59 0 0 1 1.467-.197l-3.301-2.488.727-.965zm4.797 8.042c.271-.36.43-.743.475-1.148a2.19 2.19 0 0 0-.2-1.184 2.631 2.631 0 0 0-.826-.997 2.659 2.659 0 0 0-1.198-.528 2.19 2.19 0 0 0-1.192.135 2.314 2.314 0 0 0-.973.772c-.271.36-.428.744-.47 1.153-.04.408.027.803.205 1.187.177.383.453.716.827.998.374.281.77.455 1.187.52.417.065.815.02 1.192-.135.378-.156.702-.413.973-.773zm.505-10.542c.642-.851 1.378-1.306 2.208-1.364.83-.058 1.692.25 2.585.923.138.104.24.186.304.245l-3.27 4.34c.548.294 1.094.382 1.638.266.544-.117 1-.42 1.371-.912.245-.326.414-.673.508-1.042.094-.369.111-.738.053-1.107l.95-.115c.087.489.067.984-.061 1.484-.128.501-.366.983-.716 1.447-.407.54-.884.932-1.431 1.176a3.06 3.06 0 0 1-1.717.236c-.597-.086-1.165-.332-1.705-.74-.54-.406-.932-.883-1.176-1.43a3.171 3.171 0 0 1-.255-1.715c.075-.595.312-1.159.714-1.692zm3.7.102c-.52-.348-1.038-.478-1.554-.39-.517.089-.963.382-1.339.88-.365.485-.523.997-.475 1.538.048.541.294 1.028.739 1.46l2.629-3.488zm-.85-8.42l.728-.966 7.704 5.805-.728.965-7.704-5.805zm12.422-.456l-.769-.579c.233.815.02 1.659-.637 2.531-.287.38-.611.66-.973.838a2.01 2.01 0 0 1-1.103.21 2.036 2.036 0 0 1-1.038-.415c-.491-.37-.744-.846-.757-1.426-.014-.58.221-1.197.705-1.853l1.314-1.744-.26-.196c-.387-.292-.776-.398-1.167-.319-.391.08-.76.348-1.103.805-.418.554-.645 1.267-.684 2.138l-.97-.095c.042-.588.132-1.092.27-1.514.14-.422.383-.865.733-1.328.516-.686 1.083-1.089 1.7-1.21.618-.12 1.23.043 1.838.49l3.62 2.712-.72.955zm-2.057 1.152c.339-.45.518-.914.537-1.393.02-.48-.127-.886-.44-1.22l-.55-.414-1.213 1.61c-.329.435-.507.808-.534 1.118-.028.31.1.573.384.787.284.213.59.276.917.186.328-.09.628-.314.899-.674zm9.732-11.337l-3.372-.278a6.367 6.367 0 0 1-.284.42l-1.393 1.848 2.263 1.706-.75.997-7.268-5.477 2.143-2.845c.694-.92 1.443-1.47 2.247-1.652.803-.181 1.596.023 2.379.613.588.443.98.953 1.175 1.528.196.576.19 1.188-.016 1.836l3.736.162-.86 1.142zm-4.56-.538c.47-.623.693-1.204.67-1.742-.023-.538-.301-1.008-.834-1.41-.52-.391-1.037-.52-1.554-.39-.517.132-1.01.51-1.48 1.132l-1.392 1.848 3.198 2.41 1.392-1.848zm9.136-5.536l-.768-.579c.232.816.02 1.66-.637 2.531-.287.381-.612.66-.973.838a2.01 2.01 0 0 1-1.103.21 2.036 2.036 0 0 1-1.038-.415c-.492-.37-.744-.846-.757-1.425-.014-.58.221-1.198.705-1.854l1.314-1.744-.26-.196c-.387-.292-.777-.398-1.168-.318-.39.08-.758.348-1.103.805-.417.553-.645 1.266-.683 2.138l-.97-.096c.042-.587.132-1.092.27-1.514.14-.422.383-.864.733-1.328.516-.685 1.083-1.088 1.7-1.21.618-.12 1.23.043 1.837.49l3.621 2.712-.72.955zm-2.056 1.153c.339-.45.518-.915.537-1.394.02-.48-.127-.886-.44-1.22l-.55-.414-1.213 1.61c-.329.436-.507.809-.534 1.119-.028.31.1.572.384.786.284.214.59.276.917.187.328-.09.628-.314.899-.674zm3.895-15.085c.475-.63 1.038-.98 1.69-1.054.652-.073 1.306.138 1.964.634l3.395 2.558-.735.976-3.136-2.363c-.464-.35-.922-.497-1.376-.442-.453.054-.847.303-1.18.746-.378.53-.502 1.076-.373 1.64.128.563.47 1.054 1.023 1.471l2.71 2.042-.735.976-3.136-2.363c-.463-.35-.92-.499-1.371-.448-.451.051-.846.302-1.185.752-.378.53-.503 1.078-.377 1.645s.466 1.059 1.02 1.476l2.71 2.042-.728.966-5.492-4.139.727-.966 1.153.869c-.504-.944-.385-1.923.357-2.937.381-.506.82-.835 1.314-.988.496-.153 1.005-.124 1.53.087-.65-1.023-.574-2.082.231-3.18zm5.124-6.8c.386-.512.848-.88 1.386-1.104a3.033 3.033 0 0 1 1.69-.192c.59.097 1.158.352 1.705.764.54.406.937.877 1.191 1.41a2.97 2.97 0 0 1 .28 1.66c-.068.572-.295 1.115-.681 1.627-.35.464-.754.799-1.214 1.006a2.61 2.61 0 0 1-1.457.205l1.09.821-.727.966-7.704-5.805.728-.966 3.301 2.488a2.622 2.622 0 0 1-.208-1.451c.07-.496.276-.972.62-1.429zm4.573 3.739c.266-.353.422-.732.467-1.138a2.146 2.146 0 0 0-.203-1.178c-.18-.38-.457-.711-.83-.993a2.604 2.604 0 0 0-1.178-.512 2.205 2.205 0 0 0-1.188.13 2.254 2.254 0 0 0-.961.757 2.289 2.289 0 0 0-.467 1.138c-.045.405.021.8.199 1.183.178.384.45.714.817.99.38.287.778.462 1.192.524.414.063.81.016 1.187-.139.378-.155.7-.41.965-.762zm-3.71-9.42l.728-.966 7.704 5.805-.728.966-7.703-5.806zm12.422-.456l-.768-.579c.232.815.02 1.659-.638 2.531-.287.38-.611.66-.973.838a2.01 2.01 0 0 1-1.103.21 2.036 2.036 0 0 1-1.038-.415c-.491-.37-.743-.846-.757-1.426-.013-.58.222-1.197.705-1.853l1.314-1.744-.26-.196c-.387-.292-.776-.398-1.167-.319-.391.08-.759.348-1.103.805-.417.554-.645 1.267-.684 2.139l-.97-.096c.042-.588.132-1.092.27-1.514.14-.422.384-.865.733-1.328.516-.686 1.083-1.089 1.7-1.21.618-.12 1.23.043 1.838.49l3.62 2.712-.72.955zm-2.057 1.152c.34-.45.518-.914.538-1.393.019-.48-.128-.886-.44-1.22l-.551-.414-1.213 1.61c-.328.435-.506.808-.534 1.119-.028.31.1.572.384.786.284.213.59.276.918.186.328-.09.627-.314.898-.674zM236.725 84.652l.687-3.313a6.366 6.366 0 0 1-.383-.333l-1.664-1.608-1.97 2.039-.897-.867 6.322-6.546 2.562 2.474c.829.801 1.284 1.611 1.366 2.431.082.82-.217 1.582-.898 2.287-.511.53-1.065.857-1.66.98-.596.124-1.203.044-1.82-.24l-.616 3.69-1.029-.994zm1.09-4.46c.56.542 1.11.834 1.647.877.537.043 1.037-.176 1.5-.656.452-.467.644-.966.577-1.495-.067-.529-.382-1.064-.943-1.606l-1.664-1.607-2.782 2.88 1.665 1.607zm8.222 3.838c.492.475.828 1.004 1.006 1.586a3.18 3.18 0 0 1 .045 1.751c-.15.585-.459 1.12-.928 1.607-.47.486-.996.815-1.578.988a3.167 3.167 0 0 1-1.756.021c-.588-.158-1.128-.475-1.62-.95-.5-.482-.838-1.014-1.017-1.596a3.18 3.18 0 0 1-.044-1.75c.149-.586.461-1.124.937-1.617.47-.486.994-.814 1.573-.983a3.18 3.18 0 0 1 1.751-.017c.588.158 1.132.478 1.63.96zm-.732.757a2.314 2.314 0 0 0-1.082-.61 2.157 2.157 0 0 0-1.19.052 2.64 2.64 0 0 0-1.081.7 2.707 2.707 0 0 0-.675 1.119c-.118.404-.122.8-.011 1.19.11.391.329.743.653 1.056.318.307.674.51 1.068.606.394.098.79.08 1.19-.053.398-.132.764-.37 1.095-.713a2.64 2.64 0 0 0 .66-1.105c.116-.4.12-.798.012-1.191a2.289 2.289 0 0 0-.639-1.05zm7.23 5.519c.58.56.872 1.17.874 1.828.002.659-.285 1.287-.863 1.886l-2.953 3.058-.87-.84 2.727-2.824c.403-.418.601-.856.593-1.316-.008-.46-.218-.888-.63-1.285-.448-.421-.945-.627-1.49-.618-.545.01-1.05.218-1.515.624l-2.556 2.647-.87-.84 4.777-4.947.87.84-1.011 1.047c1.01-.385 1.983-.139 2.918.74zm9.92 5.784l-6.7 6.939-.87-.84.949-.982a2.733 2.733 0 0 1-1.49.035c-.486-.126-.938-.39-1.355-.794-.468-.452-.777-.958-.928-1.52-.15-.56-.14-1.13.03-1.705.171-.576.494-1.11.97-1.603.47-.486.986-.822 1.55-1.006a3.057 3.057 0 0 1 1.69-.076c.563.134 1.075.424 1.537.87.424.41.71.855.86 1.336.15.482.155.975.016 1.48l2.872-2.974.87.84zm-8.566 3.781c.324.313.685.517 1.082.611a2.19 2.19 0 0 0 1.198-.053c.403-.13.766-.363 1.091-.7.332-.342.555-.717.67-1.123a2.19 2.19 0 0 0 .012-1.2 2.314 2.314 0 0 0-.649-1.06 2.277 2.277 0 0 0-1.086-.606 2.237 2.237 0 0 0-1.203.057c-.403.13-.766.363-1.091.7a2.631 2.631 0 0 0-.661 1.115 2.19 2.19 0 0 0-.011 1.2c.108.393.324.746.648 1.06zm6.635 7.764l.669-.692c-.838.13-1.65-.183-2.435-.942-.343-.33-.58-.687-.713-1.067a2.01 2.01 0 0 1-.074-1.12c.082-.367.262-.693.539-.98.427-.443.93-.635 1.507-.578.577.057 1.161.366 1.754.925l1.57 1.518.226-.234c.337-.35.49-.723.459-1.12-.032-.398-.253-.796-.665-1.193-.498-.482-1.178-.795-2.039-.94l.214-.95c.578.112 1.068.263 1.47.452.401.19.81.486 1.229.89.617.595.948 1.207.992 1.834.045.628-.191 1.216-.709 1.764l-3.133 3.263-.86-.83zm-.893-2.182c.405.391.845.626 1.318.703.473.078.895-.018 1.264-.288l.478-.496-1.45-1.4c-.392-.38-.74-.601-1.045-.667-.305-.065-.58.03-.827.286a1.012 1.012 0 0 0-.297.888c.049.336.235.66.56.974zm17.067 4.39l-6.7 6.94-.87-.84.948-.982a2.733 2.733 0 0 1-1.489.035c-.486-.126-.938-.391-1.356-.795-.468-.451-.777-.957-.928-1.519-.15-.561-.14-1.13.03-1.706.171-.576.494-1.11.97-1.603.47-.486.986-.821 1.55-1.006a3.057 3.057 0 0 1 1.69-.075c.563.134 1.076.424 1.537.87.424.409.71.854.86 1.336.15.481.155.975.017 1.48l2.871-2.974.87.84zm-8.567 3.782c.324.313.685.517 1.082.61a2.19 2.19 0 0 0 1.199-.052c.402-.13.766-.363 1.09-.7.332-.343.555-.717.67-1.124a2.19 2.19 0 0 0 .012-1.2 2.314 2.314 0 0 0-.648-1.06 2.277 2.277 0 0 0-1.087-.606 2.237 2.237 0 0 0-1.203.058c-.402.13-.766.363-1.091.7a2.631 2.631 0 0 0-.661 1.114 2.19 2.19 0 0 0-.011 1.2c.108.394.324.747.648 1.06zm10.402 1.786c.767.74 1.128 1.526 1.084 2.357-.043.832-.453 1.65-1.23 2.454-.12.124-.214.215-.28.271l-3.91-3.775c-.358.51-.513 1.04-.463 1.594.05.554.295 1.045.738 1.472.293.283.617.494.972.632.355.137.719.2 1.092.187l-.001.957a3.473 3.473 0 0 1-1.466-.241 4.072 4.072 0 0 1-1.349-.887c-.486-.47-.817-.991-.992-1.564a3.06 3.06 0 0 1-.026-1.733c.158-.582.472-1.116.942-1.602s.99-.817 1.564-.993a3.171 3.171 0 0 1 1.732-.044c.582.146 1.113.451 1.593.915zm-.552 3.66c.408-.474.6-.972.576-1.495-.025-.524-.261-1.003-.71-1.436-.437-.422-.926-.641-1.469-.66-.543-.018-1.056.168-1.54.556l3.143 3.034zm10.626 5.67a5.235 5.235 0 0 0-.53-1.351 4.458 4.458 0 0 0-.762-1.016c-.38-.368-.755-.588-1.124-.661-.37-.073-.677.018-.924.273-.223.231-.336.486-.34.765-.005.279.052.557.17.833.119.277.301.643.548 1.099.31.564.542 1.041.696 1.431.154.39.209.8.164 1.234-.044.433-.262.852-.653 1.257a2.27 2.27 0 0 1-1.253.688c-.473.085-.966.028-1.478-.172-.512-.199-1.005-.528-1.48-.985a5.085 5.085 0 0 1-1.131-1.635 5.288 5.288 0 0 1-.456-1.886l1.152-.388c.017.606.14 1.18.37 1.722.23.541.53.99.897 1.345.436.421.864.668 1.282.74.418.073.768-.037 1.051-.33.223-.23.338-.487.345-.77a2.016 2.016 0 0 0-.176-.856 12.276 12.276 0 0 0-.566-1.107 12.026 12.026 0 0 1-.696-1.413 2.56 2.56 0 0 1-.164-1.224c.045-.427.26-.84.645-1.24.337-.348.732-.564 1.184-.645.452-.081.922-.025 1.41.169.487.193.962.513 1.423.958.393.38.722.81.988 1.289.266.48.452.957.558 1.433l-1.15.443zm-.131 9.886l.668-.692c-.837.131-1.649-.183-2.434-.941-.343-.331-.58-.687-.713-1.068a2.01 2.01 0 0 1-.075-1.12c.083-.367.262-.693.54-.98.427-.442.929-.635 1.506-.578.577.058 1.162.366 1.754.926l1.571 1.517.226-.234c.337-.349.49-.722.458-1.12-.031-.398-.253-.796-.664-1.193-.499-.482-1.179-.795-2.04-.939l.214-.95c.578.112 1.068.263 1.47.452.401.189.811.485 1.229.888.617.596.948 1.208.993 1.836.044.627-.192 1.215-.71 1.763l-3.133 3.264-.86-.831zm-.893-2.182c.405.392.844.626 1.317.704.474.077.895-.02 1.264-.29l.479-.495-1.45-1.4c-.392-.379-.741-.601-1.046-.666-.304-.065-.58.03-.827.285a1.012 1.012 0 0 0-.297.888c.049.337.235.661.56.974zm10.859 2.192c.58.56.87 1.17.873 1.828.002.659-.285 1.288-.863 1.886l-2.953 3.058-.87-.84 2.727-2.824c.404-.418.601-.856.593-1.316-.008-.46-.218-.888-.629-1.285-.449-.421-.946-.627-1.491-.618-.545.01-1.05.218-1.515.624l-2.556 2.647-.87-.84 4.778-4.947.87.84-1.012 1.047c1.01-.385 1.983-.139 2.918.74zm1.58 10.508c-.614-.124-1.118-.375-1.51-.755-.394-.379-.599-.803-.616-1.272-.017-.468.203-.94.66-1.413l2.646-2.74-.701-.677.64-.664.702.677 1.283-1.328.879.849-1.283 1.328 1.515 1.463-.64.664-1.516-1.463-2.492 2.58c-.265.275-.405.52-.42.734-.014.215.078.419.278.612.237.228.567.397.992.506l-.416.9zm12.122-.312c.817.788 1.261 1.591 1.334 2.408.072.817-.229 1.575-.903 2.273-.704.73-1.475 1.078-2.312 1.047-.837-.031-1.661-.438-2.472-1.221l-1.627-1.571-1.969 2.038-.897-.867 6.321-6.546 2.525 2.439zm-3.604 3.657c.56.542 1.11.834 1.647.877.537.043 1.037-.176 1.5-.656.452-.467.644-.966.577-1.495-.068-.529-.382-1.064-.943-1.606l-1.599-1.526-2.772 2.871 1.59 1.535zm3.969 9.345l.668-.692c-.837.132-1.649-.182-2.434-.94-.343-.332-.58-.688-.713-1.069a2.01 2.01 0 0 1-.075-1.12c.083-.366.262-.692.54-.98.427-.442.93-.635 1.506-.577.577.057 1.162.366 1.754.925l1.571 1.517.226-.233c.337-.35.49-.723.458-1.12-.031-.399-.253-.796-.664-1.194-.499-.481-1.178-.794-2.039-.939l.213-.95c.578.112 1.068.263 1.47.452.402.19.811.486 1.229.889.617.596.948 1.208.993 1.835.044.628-.192 1.216-.71 1.764l-3.133 3.263-.86-.83zm-.893-2.181c.405.391.844.626 1.318.703.473.078.894-.019 1.263-.289l.479-.495-1.45-1.4c-.392-.38-.741-.601-1.046-.667-.304-.065-.58.03-.827.286a1.012 1.012 0 0 0-.297.888c.05.336.236.66.56.974zm12.46 3.79l-4.778 4.948-.879-.85 1.011-1.047c-1.004.392-1.961.16-2.871-.694-.574-.554-.858-1.157-.854-1.81.004-.653.294-1.279.872-1.877l2.953-3.058.88.849-2.728 2.824c-.403.418-.604.853-.602 1.307.002.453.202.873.601 1.258.467.44.992.63 1.573.57.581-.059 1.113-.338 1.594-.837l2.348-2.431.88.849z"/>
        <g fill-rule="nonzero">
            <path fill="#808C95" d="M378 250.5l10.355-7.5 10.36 7.5-10.364 7.5L378 250.5"/>
            <path fill="#FFF" d="M392.286 253.714v-7.143h-2.719l-1.21 4.455-1.212-4.455h-2.716v7.143h2.02v-2.183l-.029-1.11-.115-1.292h.021l1.248 4.585h1.565l1.25-4.585h.018l-.096 1.054-.047 1.111v2.42h2.022"/>
        </g>
        <path fill="#63727F" d="M375.406 261.7c.786 0 1.393.186 1.822.558.43.372.644.894.644 1.566 0 .702-.216 1.246-.648 1.633-.432.388-1.038.581-1.818.581h-1.566V268h-.864v-6.3h2.43zm-.036 3.555c.54 0 .954-.118 1.242-.356.288-.237.432-.586.432-1.048 0-.45-.144-.79-.432-1.022-.288-.23-.702-.346-1.242-.346l-1.53.009v2.763h1.53zm6.471 2.745v-.666c-.354.468-.909.702-1.665.702a1.9 1.9 0 0 1-.868-.189 1.391 1.391 0 0 1-.577-.522 1.41 1.41 0 0 1-.202-.747c0-.426.157-.763.473-1.012.315-.25.754-.377 1.318-.383h1.512v-.225c0-.336-.103-.595-.31-.779-.208-.183-.509-.274-.905-.274-.48 0-.969.171-1.467.513l-.351-.576c.342-.222.658-.382.95-.481a3.239 3.239 0 0 1 1.039-.149c.594 0 1.053.145 1.377.437.324.29.489.697.495 1.219l.009 3.132h-.828zm-1.494-.657c.39 0 .721-.094.995-.284.273-.189.436-.439.49-.751v-.477h-1.395c-.378 0-.658.057-.841.171-.184.114-.275.294-.275.54a.7.7 0 0 0 .279.585c.186.144.435.216.747.216zm4.653-3.078c.156-.342.378-.601.666-.779.288-.177.63-.268 1.026-.274v.81c-.486-.018-.879.108-1.179.378-.3.27-.471.633-.513 1.089V268h-.837v-4.761H385v1.026zm5.508 3.735v-.666c-.354.468-.909.702-1.665.702a1.9 1.9 0 0 1-.869-.189 1.391 1.391 0 0 1-.575-.522 1.41 1.41 0 0 1-.203-.747c0-.426.157-.763.472-1.012.316-.25.755-.377 1.319-.383h1.512v-.225c0-.336-.103-.595-.31-.779-.208-.183-.509-.274-.905-.274-.48 0-.969.171-1.467.513l-.351-.576c.342-.222.658-.382.95-.481a3.239 3.239 0 0 1 1.039-.149c.594 0 1.053.145 1.377.437.324.29.489.697.495 1.219l.009 3.132h-.828zm-1.494-.657c.39 0 .721-.094.995-.284.273-.189.436-.439.49-.751v-.477h-1.395c-.378 0-.658.057-.841.171-.184.114-.275.294-.275.54a.7.7 0 0 0 .279.585c.186.144.435.216.747.216zm3.861-6.021h.837V268h-.837v-6.678zm2.664 3.6c.15 0 .274.051.374.153a.533.533 0 0 1 .148.387c0 .156-.05.285-.148.387a.499.499 0 0 1-.374.153.499.499 0 0 1-.373-.153.533.533 0 0 1-.149-.387c0-.156.05-.285.149-.387a.499.499 0 0 1 .373-.153zm1.827-3.6h.837V268h-.837v-6.678zm4.428 1.89c.738 0 1.296.217 1.674.653.378.435.567 1.039.567 1.813 0 .12-.003.21-.009.27h-3.762c.066.426.244.765.536 1.017.29.252.649.378 1.075.378.282 0 .544-.051.788-.153.243-.102.454-.246.634-.432l.459.477a2.404 2.404 0 0 1-.846.585 2.82 2.82 0 0 1-1.098.207c-.468 0-.883-.1-1.247-.301a2.118 2.118 0 0 1-.846-.851 2.556 2.556 0 0 1-.301-1.251c0-.468.1-.883.301-1.247.202-.363.482-.647.842-.855.36-.207.771-.31 1.233-.31zm1.485 2.088c-.024-.432-.168-.772-.432-1.022-.264-.249-.612-.373-1.044-.373-.42 0-.77.126-1.048.378-.28.252-.446.591-.5 1.017h3.024zm1.944-3.978h.837V268h-.837v-6.678z"/>
    </g>
</svg>
