<svg xmlns="http://www.w3.org/2000/svg" width="292" height="177" viewBox="0 0 292 177">
    <g fill="none" fill-rule="evenodd">
        <path stroke="#E6E6E6" d="M1.849 1.5H290.5v174.048H1.849z" opacity=".496"/>
        <path fill="#E6E6E6" stroke="#E6E6E6" d="M1 52.187v28.126h24.807v-2.795zM2.747 50.44l24.108 23.933L51.14 50.44 26.943 25.633zM1 47.994l23.934-24.283L2.398 1H1zM5.892 1L26.68 21.79 47.47 1zM29.301 23.886L51.313 1h3.494L77.17 23.886 53.235 47.819zM28.602 80.313l47.693.35v-4.018l.699-1.049-23.584-23.06-24.458 24.109-.35 1.397zM79.09 80.837h54.681l-27.34-28.476L79.09 77.17zM55.855 50.265L79.09 73.5l24.633-23.235L79.09 25.633zM134.295 77.518l2.97 3.145 42.102.349v-3.843L158.404 55.33zM115.253 57.777l16.946 17.47 18.168-15.898zM109.313 51.139l3.494 3.843 39.832 2.271 3.144-3.494-29-22.012zM96.56 39.434l11.705 10.831 17.12-19.392-12.752-10.481zM58.301 1l2.271 2.271L62.67 1zM66.337 1L62.67 5.193 95.687 38.21l15.024-19.217L87.65 1zM92.542 1l19.916 15.548 8.21-10.656L115.254 1zM118.398 1l3.668 3.145L125.386 1zM128.705 1l-4.542 4.892 22.361 19.216 19.741-19.566L161.723 1zM114.554 17.946l7.862-10.482 20.964 17.994-6.29 10.132zM144.428 26.331l-6.115 9.958 19.042 14.675 4.543-9.434zM148.446 26.506l19.391-19.217 13.627 12.928-4.018 6.813-13.976 12.404zM160.15 53.06l21.14 22.012 25.68-35.289-22.711-18.169-4.193 6.464-14.5 13.103zM165.217 1l17.644 17.47 9.434-13.801L192.82 1zM195.964 1l-.699 4.892-10.132 14.5 22.361 18.168 14.85-22.361L198.06 1zM203.476 1l10.657 6.29L218.849 1zM221.645 1l-5.416 7.337 7.337 4.892h2.097l5.066-6.988L224.09 1zM226.361 1l5.241 4.018 1.573-2.009L230.729 1zM234.922 1l8.735 6.639L249.247 1zM229.506 10.259l4.717-6.29 7.687 5.94-5.067 6.464zM228.633 11.307l-1.922 2.62 6.988 5.591 2.27-2.096zM209.241 39.608l14.85-21.837 6.638 5.59L214.83 44.5zM252.916 1l-16.771 19.741 4.367 4.367 27.952 5.59.699-2.096 7.861-8.56L255.187 1zM258.157 1l20.44 17.295 10.481-12.054L282.44 1zM285.934 1l4.367 3.494.699-.874V1zM284.187 15.5L291 7.813v13.801zM274.928 25.982l8.21-9.434L291 23.711v13.626l-9.259-2.27-1.398-4.718z"/>
        <path fill="#E6E6E6" stroke="#E6E6E6" d="M273.53 26.506l-3.144 2.62-.525 1.922 9.958 3.32-1.048-3.32zM217.277 46.072l15.199-20.614 6.464 2.62 27.427 7.163-8.036 24.108zM268.988 35.94l11.53 3.319-3.145 14.15-12.578-4.017zM281.916 39.434l9.084 2.27V56.73l-12.229-3.145zM260.602 60.747l3.32-9.084 12.229 3.668-2.271 9.609zM278.422 56.205L291 59.349v8.386l-17.12 12.404v-5.94zM260.428 62.145l12.927 3.843-1.222 7.337-15.723-.873zM256.06 74.024l15.723.699-.699 6.988L262.35 88l-11.53-.873zM266.542 88.35L291 70.704v19.391zM240.861 56.729l16.772 4.891-5.59 14.85-16.597-4.717zM234.747 74.024l16.247 4.717-2.62 8.036-17.82-1.572zM206.446 60.048l9.434-11.88 23.584 8.037-5.241 15.024-10.307-2.97-10.832-5.94h-3.319zM205.048 62.145l3.844 2.795h3.843l10.482 5.765 10.132 2.795-4.192 11.18-39.482-2.794zM182.512 76.12l24.982-35.114 5.765 5.416-26.729 34.94h-4.018zM3.446 87.65l-2.271 8.037 21.488 11.18 4.542-19.216zM1 97.259l21.139 11.006-5.766 26.554L1 125.386zM1 129.054l14.5 8.56-2.62 9.784L1 143.03zM1 145.476l11.18 4.018-2.27 9.259-4.543-1.398-1.921 5.416H1zM12.355 159.627l5.94-20.615 12.404 5.416-6.988 25.331-7.862-2.271 1.223-6.29z"/>
        <path fill="#E6E6E6" stroke="#E6E6E6" d="M1 165.566V175.7h20.79l1.222-3.669-9.608-2.795 1.048-5.94-7.687-2.446-1.747 5.067zM24.759 175.699h12.928l-11.705-3.145zM26.68 170.283l12.579 3.844 5.94-21.488-12.23-6.814zM47.645 154.21l-5.765 20.266 4.891 1.223h9.609l2.62-17.12zM61.62 159.452l-2.795 16.247h13.802l2.27-11.006zM77.169 165.741l-2.097 9.958h12.055l2.795-6.115zM19.518 136.392l5.59-26.555 12.055 6.115-5.94 26.03zM40.307 117.35l15.548 7.86-9.608 24.808-12.054-6.988zM58.476 126.783l12.753 6.464-10.831 22.536-11.705-4.018zM62.669 157.006l12.753 4.717 10.132-20.79-12.229-6.288zM88 142.331l12.404 6.29-9.26 18.867-13.102-4.368zM102.5 149.669l6.639 3.494-10.133 22.536h-8.91zM25.807 108.265L30 88h14.85l-7.338 26.38zM47.645 88.35h23.41L56.38 124.162 40.657 116.3zM74.373 88.699H93.59l-21.662 43.325L59 125.734zM96.21 88.873h12.23l2.97 1.398-25.157 49.265-11.88-6.114zM114.38 88.524l-.874 1.572 11.53 6.115h4.542l2.097-7.687zM113.157 91.669l11.18 5.765-23.235 49.44-12.229-5.766zM126.608 98.831h3.844L111.41 152.29l-8.211-4.193zM134.12 88.699l-2.62 8.21 33.367 13.452L180.765 88.7zM132.373 100.578l31.097 12.055-13.976 19.042-24.458-9.609zM124.337 124.163l23.41 9.608-11.006 13.976-17.645-8.386zM118.572 141.807l-5.066 11.88 13.627 6.289 8.036-10.307zM101.452 175.699l9.608-21.488 15.024 6.988-11.18 14.5zM168.012 111.584l15.723-22.536 21.663 1.747-11.006 30.922zM208.193 90.97l17.994 1.397-13.801 36.862-15.374-7.163zM227.759 92.542l29 2.097-17.12 44.722-25.681-9.608zM260.253 95.163l17.645 1.223-8.823 22.361-15.635-6.464zM280.518 96.735l10.482.699v30.048l-19.217-7.687zM252.566 115.078l15.374 6.29-9.26 25.33-16.596-6.463zM270.56 122.765l18.693 7.337-9.346 25.681-19.13-7.687zM291 133.247l-8.386 23.41 8.386 4.018zM152.813 132.898l13.801-18.693 6.464 2.27-9.084 20.79zM175.699 117.699l17.82 6.813-7.688 21.313-19.74-7.512zM196.139 125.56l14.674 6.115-7.337 20.44-15.024-5.242zM213.084 132.548l25.157 9.609-8.386 20.44-24.457-9.609zM241.21 143.554l16.248 6.115-5.59 14.674H232.3zM259.729 150.717l19.217 7.337-5.94 14.15-18.867-7.162zM281.916 159.277L291 163.82v11.88h-10.307l-5.416-2.446zM131.15 161.024l19.392-25.68 12.578 4.542-11.53 30.921zM118.398 175.699l10.307-12.579L154.56 175.7zM153.861 172.03l11.356-30.747 19.74 7.337-13.102 27.079h-10.482zM187.404 149.494l14.674 5.24-7.337 17.995-5.416 2.97h-14.85zM204.699 155.783l24.807 9.434-16.771 1.922-14.675 4.716zM195.964 175.699l17.644-5.59L233 167.312h19.392l15.198 5.765 5.765 2.62z"/>
        <path fill="#3B4868" fill-rule="nonzero" stroke="#3B4868" d="M149.542 72.458c3.864 0 6.988 3.168 6.988 7.087 0 5.962-6.453 10.964-6.741 11.173a.579.579 0 0 1-.247.083.579.579 0 0 1-.246-.083c-.288-.209-6.742-5.211-6.742-11.173 0-3.919 3.124-7.087 6.988-7.087z"/>
        <path fill="#F7FBFD" d="M149.542 76.825c1.46 0 2.62 1.16 2.62 2.62 0 1.46-1.16 2.621-2.62 2.621-1.46 0-2.62-1.16-2.62-2.62 0-1.46 1.16-2.62 2.62-2.62z"/>
        <path fill="#63727F" d="M46.964 87.691l-.631-1.45h-3.147l-.622 1.45h-.861l2.651-5.969h.853l2.643 5.97h-.886zM43.51 85.5h2.507l-1.262-2.9-1.245 2.9zm4.383-2.32h.844l1.356 3.727 1.347-3.727h.802l-1.757 4.511h-.827l-1.765-4.51zm5.21 3.607c.13 0 .24.046.328.137a.482.482 0 0 1 .132.35c0 .141-.044.26-.132.353a.432.432 0 0 1-.328.14.446.446 0 0 1-.333-.14.488.488 0 0 1-.136-.354c0-.142.045-.258.136-.35a.453.453 0 0 1 .333-.136zm6.267-5.065c.745 0 1.32.177 1.727.529.406.352.61.847.61 1.484 0 .665-.205 1.18-.614 1.547-.41.367-.984.55-1.723.55h-1.484v1.86h-.818v-5.97h2.302zm-.034 3.368c.512 0 .904-.112 1.177-.336.273-.225.409-.556.409-.994 0-.426-.136-.749-.41-.968-.272-.218-.664-.328-1.176-.328l-1.45.009v2.617h1.45zm6.13 2.601v-.63c-.335.443-.86.664-1.577.664a1.8 1.8 0 0 1-.823-.179 1.318 1.318 0 0 1-.545-.494 1.335 1.335 0 0 1-.192-.708c0-.404.15-.723.448-.96.298-.235.714-.356 1.249-.362h1.432v-.213c0-.318-.098-.564-.294-.738-.196-.173-.482-.26-.857-.26-.455 0-.918.162-1.39.486l-.332-.545c.324-.21.624-.363.9-.456.275-.094.603-.141.984-.141.563 0 .998.138 1.305.413.307.276.463.661.469 1.156l.008 2.967h-.784zm-1.415-.622c.37 0 .684-.09.943-.269a1.06 1.06 0 0 0 .464-.712v-.452h-1.321c-.359 0-.624.054-.798.162-.173.108-.26.279-.26.512 0 .233.088.418.265.554.176.136.412.205.707.205zm4.409-2.917c.148-.324.358-.57.63-.737.274-.168.598-.254.973-.26v.767c-.46-.017-.833.103-1.117.358-.284.256-.447.6-.486 1.032v2.38h-.793V83.18h.793v.972zm5.218 3.54v-.632c-.335.444-.861.665-1.577.665a1.8 1.8 0 0 1-.823-.179 1.318 1.318 0 0 1-.546-.494 1.335 1.335 0 0 1-.192-.708c0-.404.15-.723.448-.96.298-.235.715-.356 1.25-.362h1.432v-.213c0-.318-.098-.564-.295-.738-.196-.173-.481-.26-.857-.26-.454 0-.918.162-1.39.486l-.332-.545c.324-.21.624-.363.9-.456.275-.094.604-.141.984-.141.563 0 .998.138 1.305.413.307.276.463.661.47 1.156l.008 2.967h-.785zm-1.415-.623c.37 0 .683-.09.942-.269a1.06 1.06 0 0 0 .465-.712v-.452h-1.322c-.358 0-.624.054-.797.162-.174.108-.26.279-.26.512 0 .233.088.418.264.554.176.136.412.205.708.205zm3.658-5.705h.793v6.327h-.793v-6.327zm2.524 3.411c.142 0 .26.048.353.145.094.097.141.219.141.367 0 .147-.047.27-.14.366a.473.473 0 0 1-.354.145.473.473 0 0 1-.354-.145.505.505 0 0 1-.14-.366c0-.148.046-.27.14-.367a.473.473 0 0 1 .354-.145zm1.73-3.41h.794v6.326h-.793v-6.327zm4.196 1.79c.699 0 1.228.206 1.586.618.358.412.537.985.537 1.718 0 .114-.003.2-.009.256h-3.564c.063.404.232.725.508.964.275.238.615.358 1.019.358.267 0 .515-.049.746-.145.23-.097.43-.233.6-.41l.436.452a2.278 2.278 0 0 1-.802.555c-.313.13-.66.196-1.04.196-.444 0-.837-.096-1.181-.286a2.007 2.007 0 0 1-.802-.806 2.421 2.421 0 0 1-.285-1.185c0-.443.095-.837.285-1.18a2.08 2.08 0 0 1 .798-.811c.34-.196.73-.294 1.168-.294zm1.407 1.978c-.023-.41-.16-.732-.41-.968-.25-.236-.58-.354-.989-.354-.398 0-.729.12-.993.359-.264.238-.422.56-.473.963h2.865zm1.842-3.769h.792v6.327h-.792v-6.327zM218.495 91.343l-.502-1.499-3.135-.274-.746 1.39-.858-.075 3.162-5.715.85.074 2.112 6.176-.883-.077zm-3.25-2.484l2.498.219-1.004-2.998-1.493 2.78zm4.569-1.928l.84.073 1.027 3.83 1.667-3.594.798.07-2.143 4.34-.824-.072-1.365-4.647zm4.876 4.047c.13.011.235.066.315.164.08.099.113.219.101.36a.497.497 0 0 1-.162.341.432.432 0 0 1-.34.112.446.446 0 0 1-.319-.17.488.488 0 0 1-.105-.364.473.473 0 0 1 .167-.336.453.453 0 0 1 .343-.107zm6.685-4.5c.741.065 1.3.291 1.674.678.374.386.533.896.478 1.53-.058.663-.307 1.16-.747 1.489-.44.33-1.027.462-1.764.398l-1.478-.13-.162 1.852-.815-.071.52-5.946 2.294.2zm-.328 3.353c.51.044.91-.033 1.202-.233.291-.2.456-.518.494-.954.037-.425-.07-.758-.323-1s-.634-.385-1.144-.43l-1.445-.117-.228 2.607 1.444.127zm5.88 3.125l.056-.629c-.373.413-.916.588-1.63.525a1.8 1.8 0 0 1-.804-.25 1.318 1.318 0 0 1-.5-.54 1.335 1.335 0 0 1-.13-.722c.035-.402.212-.707.53-.916.318-.21.743-.293 1.276-.252l1.427.124.018-.212c.028-.317-.048-.57-.228-.76-.18-.19-.458-.301-.831-.334-.453-.04-.929.081-1.427.363l-.284-.573c.341-.181.653-.306.936-.376.283-.07.614-.087.993-.054.561.049.982.224 1.264.526.282.301.404.698.366 1.191l-.25 2.957-.781-.068zm-1.355-.744c.368.033.689-.03.962-.185a1.06 1.06 0 0 0 .525-.669l.04-.45-1.317-.115c-.357-.031-.626 0-.809.092-.182.092-.283.255-.303.487a.664.664 0 0 0 .215.575c.163.151.393.24.687.265zm4.646-2.52c.175-.31.406-.537.693-.68.286-.143.616-.202.99-.175l-.066.765c-.457-.057-.839.03-1.144.26-.306.23-.497.558-.574.985l-.208 2.37-.79-.07.393-4.493.79.07-.084.968zm4.89 3.98l.055-.629c-.373.412-.916.587-1.63.525a1.8 1.8 0 0 1-.804-.25 1.318 1.318 0 0 1-.5-.54 1.335 1.335 0 0 1-.13-.722c.036-.402.212-.708.53-.917.318-.209.743-.293 1.276-.252l1.427.125.019-.212c.027-.317-.049-.57-.23-.76-.18-.19-.456-.302-.83-.334-.453-.04-.929.08-1.427.363l-.284-.573c.341-.181.653-.307.936-.376.283-.07.614-.088.993-.054.561.049.982.224 1.264.525.282.302.404.699.367 1.192l-.25 2.957-.782-.068zm-1.356-.744c.368.032.689-.03.962-.185a1.06 1.06 0 0 0 .525-.67l.04-.45-1.317-.115c-.357-.03-.626 0-.808.092-.183.093-.284.255-.304.487a.664.664 0 0 0 .215.576c.164.15.393.24.687.265zm4.141-5.364l.79.07-.551 6.302-.79-.069.551-6.303zm2.217 3.618c.142.012.255.07.34.175.085.105.121.23.109.378a.505.505 0 0 1-.173.353.473.473 0 0 1-.365.113.473.473 0 0 1-.34-.175.505.505 0 0 1-.108-.378.505.505 0 0 1 .172-.353.473.473 0 0 1 .365-.113zm2.022-3.247l.79.07-.551 6.302-.79-.07.551-6.302zm4.023 2.15c.697.06 1.205.312 1.526.754.321.441.45 1.027.386 1.758-.01.113-.02.198-.031.254l-3.55-.31c.026.407.167.742.42 1.003.255.262.582.41.985.446.266.023.518-.003.755-.08.238-.076.45-.194.635-.355l.394.488c-.242.219-.524.38-.847.483a2.671 2.671 0 0 1-1.053.104 2.397 2.397 0 0 1-1.152-.387 2.007 2.007 0 0 1-.728-.873 2.421 2.421 0 0 1-.181-1.205c.038-.442.167-.826.387-1.152a2.08 2.08 0 0 1 .865-.737c.357-.166.753-.23 1.19-.192zm1.23 2.093c.012-.41-.095-.743-.324-1s-.547-.403-.955-.439c-.396-.034-.736.056-1.02.27-.284.215-.47.521-.556.92l2.854.249zm2.163-3.594l.79.069-.552 6.303-.79-.07.552-6.302zM127.794 160.03a2.069 2.069 0 0 0-.775.25 1.907 1.907 0 0 0-.604.522c-.213.282-.34.593-.38.933a1.911 1.911 0 0 0 .755 1.77c.278.21.587.335.927.376.34.041.667-.005.982-.138a1.962 1.962 0 0 0 1.129-1.337c.067-.267.084-.534.053-.802l.61-.06c.047.35.025.702-.063 1.054a2.597 2.597 0 0 1-.444.94c-.287.38-.64.66-1.06.84a2.519 2.519 0 0 1-2.547-.314 2.51 2.51 0 0 1-.981-2.362c.062-.455.238-.875.528-1.26.21-.279.466-.509.767-.691.302-.182.62-.297.954-.344l.15.624zm3.28.716a.368.368 0 0 1 .258-.152.404.404 0 0 1 .302.088.417.417 0 0 1 .17.268.363.363 0 0 1-.072.291.374.374 0 0 1-.262.152.41.41 0 0 1-.306-.087.397.397 0 0 1-.166-.268.38.38 0 0 1 .077-.292zm.754-8.067l.41-.543 4.002 3.016-.418.555-4.823-.048 3.1 2.335-.414.55-4.003-3.017.418-.555 4.833.047-3.105-2.34zm3.145-2.175c.227-.302.494-.52.8-.657.307-.137.625-.184.954-.142.33.042.644.175.941.4.297.223.513.489.646.796.134.306.177.626.13.958a2.045 2.045 0 0 1-.411.95 2.06 2.06 0 0 1-.804.663 1.751 1.751 0 0 1-.955.141 1.98 1.98 0 0 1-.946-.403 1.966 1.966 0 0 1-.643-.795 1.751 1.751 0 0 1-.127-.956 2.06 2.06 0 0 1 .415-.955zm.464.349c-.15.198-.237.409-.262.632-.025.223.012.439.109.647.097.208.249.39.455.544.21.158.429.256.657.294.229.038.446.013.652-.074.206-.087.384-.23.533-.427.147-.195.233-.403.26-.625a1.158 1.158 0 0 0-.109-.647c-.1-.21-.254-.393-.463-.55a1.454 1.454 0 0 0-.65-.288 1.188 1.188 0 0 0-.65.074 1.26 1.26 0 0 0-.532.42zm3.298-5.306l3.025 2.28-.405.537-.64-.482c.281.522.219 1.061-.187 1.616-.264.35-.575.547-.932.589-.358.041-.72-.076-1.085-.352l-1.87-1.409.405-.537 1.727 1.301c.255.193.507.273.755.242.248-.032.464-.17.647-.413.21-.285.278-.585.207-.899-.072-.313-.26-.585-.565-.815l-1.487-1.12.405-.538zm2.816-6.27l4.243 3.197-.401.532-.6-.453c.115.267.155.538.119.812-.037.274-.151.54-.344.795a1.808 1.808 0 0 1-.768.609c-.297.12-.608.153-.935.098a2.148 2.148 0 0 1-.94-.423 2.089 2.089 0 0 1-.655-.78 1.684 1.684 0 0 1-.155-.918c.036-.317.16-.617.372-.899.196-.26.42-.446.673-.56.254-.114.523-.15.808-.108l-1.818-1.37.4-.532zm2.642 4.43c.15-.199.236-.41.261-.633a1.207 1.207 0 0 0-.11-.652 1.45 1.45 0 0 0-.455-.55 1.464 1.464 0 0 0-.66-.29 1.207 1.207 0 0 0-.656.074 1.274 1.274 0 0 0-.536.426c-.15.198-.236.41-.259.634-.023.225.015.443.113.654.098.211.25.395.455.55.206.155.424.25.654.286.23.036.45.011.657-.074.208-.086.386-.227.536-.426zm.278-5.807c.353-.47.759-.72 1.216-.751.457-.032.932.137 1.424.508.076.057.132.102.167.135l-1.801 2.39c.302.162.603.21.902.147.3-.065.552-.232.755-.503.136-.179.229-.37.28-.573.052-.204.062-.407.03-.61l.523-.064c.048.27.036.542-.034.818-.07.276-.202.541-.394.797a2.013 2.013 0 0 1-.788.648 1.685 1.685 0 0 1-.946.13 2.033 2.033 0 0 1-.94-.408 2.013 2.013 0 0 1-.647-.788 1.747 1.747 0 0 1-.14-.944c.04-.328.172-.639.393-.932zm2.038.056c-.286-.192-.572-.263-.856-.215-.285.049-.53.21-.737.485-.202.267-.289.55-.262.847.026.298.162.566.407.804l1.448-1.921zm-.468-4.638l.4-.532 4.244 3.198-.401.531-4.243-3.197zm6.841-.251l-.423-.319c.128.45.011.914-.35 1.394-.159.21-.338.364-.537.462-.2.097-.402.136-.607.116a1.121 1.121 0 0 1-.572-.23c-.27-.203-.41-.465-.417-.784-.007-.32.122-.66.388-1.021l.724-.961-.143-.108c-.213-.16-.428-.22-.643-.175-.215.044-.418.191-.608.443-.23.305-.355.698-.376 1.178l-.534-.053c.023-.324.072-.602.149-.834.076-.232.21-.476.403-.731.284-.378.597-.6.937-.666.34-.067.677.023 1.012.269l1.994 1.494-.397.526zm-1.132.635c.186-.248.285-.504.296-.768a.89.89 0 0 0-.243-.671l-.303-.229-.668.887c-.18.24-.279.445-.294.616-.015.171.055.315.211.433a.557.557 0 0 0 .506.103c.18-.05.345-.173.495-.371zm5.36-6.245l-1.857-.153a3.507 3.507 0 0 1-.157.232l-.767 1.018 1.247.939-.414.549-4.003-3.017 1.18-1.566c.383-.507.795-.81 1.238-.91.443-.1.88.012 1.31.337.324.244.54.525.648.842.108.317.105.654-.009 1.01l2.058.09-.474.63zm-2.511-.296c.258-.343.381-.663.368-.96-.012-.296-.165-.555-.459-.776-.286-.216-.571-.287-.856-.215-.285.073-.556.28-.815.623l-.767 1.018 1.762 1.328.767-1.018zm5.032-3.05l-.423-.318c.127.449.01.914-.352 1.394-.158.21-.336.363-.536.461-.199.098-.401.137-.607.116a1.121 1.121 0 0 1-.572-.229c-.27-.204-.41-.465-.417-.785-.007-.319.122-.66.389-1.02l.724-.961-.143-.108c-.214-.16-.428-.22-.644-.175-.215.043-.418.191-.607.443-.23.305-.356.697-.377 1.178l-.534-.053c.023-.324.073-.602.149-.834.076-.232.21-.476.403-.732.285-.377.597-.6.937-.666.34-.066.677.024 1.012.27l1.994 1.494-.396.526zm-1.133.635c.187-.247.285-.503.296-.767a.89.89 0 0 0-.243-.672l-.303-.228-.668.886c-.18.24-.279.446-.294.617-.015.17.055.315.212.433a.557.557 0 0 0 .505.103c.18-.05.346-.173.495-.372zm2.145-8.308c.262-.347.572-.54.931-.58.36-.04.72.075 1.082.348l1.87 1.41-.405.537-1.727-1.301c-.255-.193-.508-.274-.758-.244-.25.03-.466.167-.65.41-.208.293-.276.594-.206.904.071.31.26.58.564.81l1.493 1.125-.405.538-1.727-1.302c-.256-.192-.508-.274-.756-.246-.248.028-.466.166-.652.414-.208.291-.277.593-.208.906.07.312.257.583.562.813l1.492 1.125-.4.531-3.026-2.28.401-.531.635.478c-.278-.52-.212-1.059.197-1.617.21-.279.45-.46.724-.544.272-.085.553-.069.842.047-.358-.563-.316-1.147.127-1.75zm2.823-3.746c.213-.282.467-.484.763-.608a1.67 1.67 0 0 1 .931-.105c.325.053.638.193.939.42.297.224.516.483.656.777.14.294.192.599.154.914a1.836 1.836 0 0 1-.375.896c-.192.256-.415.44-.669.555-.253.114-.52.151-.802.112l.6.453-.4.532-4.243-3.198.4-.532 1.819 1.37a1.444 1.444 0 0 1-.115-.799c.038-.273.152-.535.342-.787zm2.519 2.06a1.26 1.26 0 0 0 .257-.627 1.182 1.182 0 0 0-.112-.649c-.1-.21-.252-.391-.458-.547a1.434 1.434 0 0 0-.648-.282 1.215 1.215 0 0 0-.654.072 1.242 1.242 0 0 0-.53.417 1.26 1.26 0 0 0-.257.626c-.025.224.012.441.11.652.098.212.247.393.45.546.21.158.428.254.656.288.228.035.446.01.654-.076a1.26 1.26 0 0 0 .532-.42zm-2.044-5.189l.401-.532 4.243 3.198-.4.531-4.244-3.197zm6.842-.25l-.423-.32c.128.45.01.914-.351 1.394-.158.21-.337.364-.536.462-.2.098-.402.136-.608.116a1.121 1.121 0 0 1-.571-.23c-.27-.203-.41-.465-.417-.784-.008-.32.122-.66.388-1.021l.724-.96-.143-.109c-.214-.16-.428-.219-.643-.175-.216.044-.418.192-.608.443-.23.305-.355.698-.376 1.178l-.534-.053c.022-.323.072-.601.148-.834.077-.232.211-.476.404-.731.284-.378.596-.6.936-.666.34-.067.678.023 1.012.27l1.995 1.493-.397.526zm-1.133.634c.187-.248.286-.504.296-.768a.89.89 0 0 0-.242-.671l-.303-.229-.668.887c-.181.24-.28.445-.295.616-.015.171.056.315.212.433a.557.557 0 0 0 .505.103c.18-.05.346-.173.495-.371zM205.669 56.236a2.069 2.069 0 0 0-.776.25 1.907 1.907 0 0 0-.604.522c-.212.282-.34.593-.38.933a1.911 1.911 0 0 0 .755 1.77c.278.21.587.335.927.376.34.041.667-.005.983-.138a1.962 1.962 0 0 0 1.129-1.337c.066-.267.084-.534.053-.803l.61-.06c.046.352.025.703-.064 1.055a2.597 2.597 0 0 1-.443.939c-.287.381-.64.662-1.06.842-.42.18-.855.243-1.305.19a2.519 2.519 0 0 1-1.242-.505 2.51 2.51 0 0 1-.981-2.362c.061-.455.238-.875.528-1.26.21-.279.465-.51.767-.691.301-.182.62-.297.954-.344l.149.623zm3.28.715a.368.368 0 0 1 .258-.15.404.404 0 0 1 .301.087.417.417 0 0 1 .17.268.363.363 0 0 1-.071.29.374.374 0 0 1-.262.153.41.41 0 0 1-.307-.088.397.397 0 0 1-.165-.268.38.38 0 0 1 .076-.292zm.753-8.066l.41-.544 4.003 3.017-.418.555-4.824-.049 3.1 2.336-.414.549-4.003-3.017.418-.554 4.833.047-3.105-2.34zm3.146-2.176c.227-.3.493-.52.8-.657.306-.136.624-.184.954-.141.33.042.643.175.94.4.298.223.513.489.647.795.133.307.176.627.13.959a2.045 2.045 0 0 1-.412.95 2.06 2.06 0 0 1-.804.662 1.751 1.751 0 0 1-.954.142 1.98 1.98 0 0 1-.946-.404 1.966 1.966 0 0 1-.644-.794 1.751 1.751 0 0 1-.127-.956 2.06 2.06 0 0 1 .416-.956zm.463.35c-.15.198-.237.408-.261.632-.025.223.011.439.108.647.098.207.25.389.455.544.21.158.43.256.658.294.228.037.446.013.651-.074.206-.087.384-.23.533-.428.147-.194.234-.402.26-.624a1.158 1.158 0 0 0-.108-.647c-.1-.21-.254-.393-.464-.551a1.454 1.454 0 0 0-.649-.287 1.188 1.188 0 0 0-.651.074 1.26 1.26 0 0 0-.532.42zm3.299-5.306l3.025 2.28-.405.537-.64-.483c.28.523.218 1.062-.188 1.617-.264.35-.575.547-.932.588-.357.042-.719-.075-1.085-.35l-1.87-1.41.405-.538 1.727 1.302c.256.192.507.273.755.241.248-.031.464-.169.648-.413.209-.285.277-.584.206-.898-.071-.314-.26-.585-.565-.815l-1.486-1.12.405-.538zm2.815-6.27l4.243 3.197-.4.532-.601-.453c.116.267.156.537.12.812-.037.274-.152.539-.344.794a1.808 1.808 0 0 1-.768.61c-.297.12-.609.152-.935.098a2.148 2.148 0 0 1-.941-.423 2.089 2.089 0 0 1-.655-.78 1.684 1.684 0 0 1-.154-.919c.035-.317.16-.616.372-.898.195-.26.42-.446.673-.56.253-.114.522-.15.808-.108l-1.819-1.37.401-.533zm2.642 4.43c.15-.2.237-.41.262-.633a1.207 1.207 0 0 0-.11-.652 1.45 1.45 0 0 0-.456-.55 1.464 1.464 0 0 0-.659-.29 1.207 1.207 0 0 0-.657.074 1.274 1.274 0 0 0-.536.425 1.232 1.232 0 0 0-.146 1.289c.098.211.25.394.456.55.206.155.424.25.654.286.23.036.449.011.656-.074.208-.086.387-.228.536-.426zm.278-5.807c.354-.47.76-.72 1.216-.752.458-.032.932.138 1.424.508.076.058.132.103.167.135l-1.8 2.39c.301.163.602.212.902.147.3-.064.551-.231.755-.502.135-.18.228-.37.28-.574.051-.203.061-.406.03-.61l.522-.063c.048.27.037.542-.033.818-.07.276-.202.541-.395.797a2.013 2.013 0 0 1-.788.647 1.685 1.685 0 0 1-.945.13 2.033 2.033 0 0 1-.94-.407 2.013 2.013 0 0 1-.647-.788 1.747 1.747 0 0 1-.14-.944c.04-.328.171-.639.392-.932zm2.038.056c-.286-.192-.571-.263-.856-.215-.284.049-.53.21-.737.485-.201.267-.288.549-.262.847.027.298.162.566.407.804l1.448-1.921zm-.468-4.638l.401-.532 4.243 3.197-.4.532-4.244-3.197zm6.842-.251l-.423-.32c.128.45.01.915-.351 1.395-.158.21-.337.363-.536.461-.2.098-.402.137-.608.116a1.121 1.121 0 0 1-.571-.229c-.271-.204-.41-.465-.418-.785-.007-.319.123-.66.389-1.02l.724-.961-.143-.108c-.214-.16-.428-.22-.644-.175-.215.043-.417.191-.607.443-.23.305-.355.697-.377 1.178l-.534-.053c.023-.324.073-.602.15-.834.076-.232.21-.476.402-.732.285-.377.597-.6.937-.666.34-.066.677.024 1.012.27l1.994 1.494-.396.526zm-1.133.634c.187-.247.286-.503.296-.767a.89.89 0 0 0-.242-.672l-.304-.228-.667.886c-.181.24-.28.446-.295.617-.015.17.056.315.212.433a.557.557 0 0 0 .505.103c.18-.05.346-.173.495-.372zm5.36-6.244l-1.857-.153a3.507 3.507 0 0 1-.156.231l-.767 1.018 1.246.94-.413.549-4.003-3.017 1.18-1.567c.382-.507.795-.81 1.238-.91.442-.1.879.013 1.31.338.324.244.54.524.647.842.108.317.105.654-.008 1.01l2.057.09-.474.629zm-2.51-.297c.258-.343.38-.662.368-.959-.013-.296-.166-.555-.46-.776-.285-.216-.57-.287-.855-.215-.285.072-.557.28-.815.623l-.767 1.018 1.761 1.327.767-1.018zm5.031-3.048l-.423-.32c.128.45.01.914-.351 1.395-.158.21-.337.363-.536.461-.2.098-.402.137-.608.116a1.121 1.121 0 0 1-.571-.229c-.27-.204-.41-.466-.417-.785-.008-.32.122-.66.388-1.02l.724-.962-.143-.107c-.213-.161-.428-.22-.643-.176-.216.044-.418.192-.608.444-.23.305-.355.697-.376 1.177l-.534-.052c.022-.324.072-.602.148-.834.077-.233.211-.476.404-.732.284-.377.596-.6.936-.666.34-.066.678.023 1.012.27l1.995 1.493-.397.527zm-1.133.634c.187-.248.286-.503.296-.767a.89.89 0 0 0-.242-.672l-.303-.228-.668.886c-.181.24-.28.446-.294.617-.016.17.055.315.211.433a.557.557 0 0 0 .505.102c.181-.049.346-.173.495-.37zm2.146-8.308c.261-.347.572-.54.93-.58.36-.041.72.075 1.083.348l1.87 1.41-.406.537-1.727-1.302c-.255-.192-.508-.273-.757-.243-.25.03-.467.167-.65.41-.209.292-.277.593-.206.904.07.31.259.58.564.81l1.492 1.125-.405.537-1.727-1.3c-.255-.193-.507-.276-.755-.248-.249.029-.466.166-.653.414-.208.292-.277.594-.207.906.069.313.256.584.561.814l1.493 1.124-.401.532-3.025-2.28.4-.531.635.478c-.277-.52-.212-1.06.197-1.618.21-.278.451-.46.724-.544.273-.084.554-.068.843.048-.359-.563-.316-1.147.127-1.751zm2.822-3.746c.213-.282.467-.485.764-.608a1.67 1.67 0 0 1 .93-.105c.325.053.638.193.94.42.297.224.515.483.656.777.14.294.191.598.154.914a1.836 1.836 0 0 1-.375.896c-.193.256-.416.44-.67.554-.252.114-.52.152-.801.113l.6.453-.4.531-4.244-3.197.401-.532 1.818 1.37a1.444 1.444 0 0 1-.114-.799c.038-.273.152-.535.341-.787zm2.52 2.06a1.26 1.26 0 0 0 .256-.627 1.182 1.182 0 0 0-.111-.65c-.1-.208-.252-.39-.458-.546a1.434 1.434 0 0 0-.648-.282 1.215 1.215 0 0 0-.655.072 1.242 1.242 0 0 0-.53.417 1.26 1.26 0 0 0-.256.626c-.025.224.011.44.11.652.097.211.247.393.449.545.21.158.429.255.657.289.228.034.446.009.654-.077a1.26 1.26 0 0 0 .531-.42zm-2.044-5.19l.4-.531 4.244 3.197-.401.532-4.243-3.197zm6.842-.25l-.424-.319c.128.449.011.914-.35 1.394-.159.21-.337.364-.537.461-.199.098-.402.137-.607.116a1.121 1.121 0 0 1-.572-.229c-.27-.203-.41-.465-.417-.785-.007-.319.122-.66.388-1.02l.724-.961-.143-.108c-.213-.16-.428-.22-.643-.175-.215.044-.418.191-.607.443-.23.305-.356.698-.377 1.178l-.534-.053c.023-.324.072-.602.149-.834.076-.232.21-.476.403-.732.284-.377.597-.599.937-.665.34-.067.677.023 1.012.269l1.994 1.494-.396.526zm-1.133.635c.186-.248.285-.504.296-.768a.89.89 0 0 0-.243-.672l-.303-.228-.668.886c-.18.24-.279.446-.294.617-.015.17.055.315.212.433a.557.557 0 0 0 .505.103c.18-.05.345-.173.495-.371zM77.614 24.845l.365-1.762a3.385 3.385 0 0 1-.204-.177l-.885-.855-1.046 1.084-.478-.46 3.361-3.481 1.363 1.315c.44.426.683.857.726 1.293.044.436-.115.841-.477 1.216-.272.281-.567.455-.883.521-.317.066-.64.023-.968-.127l-.327 1.96-.547-.527zm.58-2.372c.297.289.59.444.875.467.286.022.552-.094.798-.35.24-.248.342-.513.306-.794-.035-.281-.203-.566-.5-.854l-.886-.855-1.479 1.532.885.854zm4.37 2.04c.263.254.441.535.536.845.095.31.103.62.024.93-.08.311-.244.596-.494.855-.25.258-.53.433-.839.525-.31.092-.62.096-.933.012a1.974 1.974 0 0 1-.862-.506 1.988 1.988 0 0 1-.54-.848 1.69 1.69 0 0 1-.024-.931c.08-.311.245-.598.498-.86.25-.258.529-.433.837-.523a1.69 1.69 0 0 1 .931-.009c.313.085.602.255.867.51zm-.388.404a1.23 1.23 0 0 0-.575-.325 1.147 1.147 0 0 0-.633.028c-.21.069-.402.193-.575.372a1.44 1.44 0 0 0-.359.595 1.118 1.118 0 0 0-.006.633c.06.208.175.395.347.561.17.163.359.271.568.323.21.051.42.042.633-.028a1.44 1.44 0 0 0 .582-.38c.173-.179.29-.375.352-.588.061-.212.063-.424.006-.633a1.217 1.217 0 0 0-.34-.558zm3.845 2.934c.308.298.463.622.464.972.001.35-.152.685-.46 1.003l-1.57 1.626-.462-.447 1.45-1.501c.215-.222.32-.456.316-.7-.005-.244-.116-.472-.335-.683-.239-.224-.503-.334-.793-.329-.29.005-.558.116-.805.332l-1.36 1.407-.462-.446 2.54-2.63.463.446-.538.557c.537-.205 1.055-.074 1.552.393zm5.274 3.076l-3.563 3.69-.462-.447.504-.523c-.269.08-.533.086-.792.02a1.625 1.625 0 0 1-.72-.423 1.745 1.745 0 0 1-.494-.808c-.08-.299-.075-.6.016-.907.09-.306.263-.59.516-.852.25-.259.524-.437.824-.535.3-.099.6-.112.899-.04.299.07.571.225.817.462.225.217.378.454.457.71.08.256.082.519.009.787l1.527-1.58.462.446zm-4.555 2.01c.172.167.364.275.575.325.211.05.424.04.638-.028.214-.07.407-.193.58-.372.176-.182.295-.382.356-.598.061-.216.063-.429.006-.638a1.23 1.23 0 0 0-.345-.563 1.21 1.21 0 0 0-.577-.323 1.19 1.19 0 0 0-.64.031 1.399 1.399 0 0 0-.58.372c-.173.179-.29.376-.352.593a1.165 1.165 0 0 0-.006.638c.058.209.173.397.345.563zm3.528 4.128l.356-.368c-.446.07-.877-.097-1.295-.5a1.459 1.459 0 0 1-.379-.568 1.068 1.068 0 0 1-.04-.596c.044-.195.14-.368.287-.52a.939.939 0 0 1 .801-.308c.307.03.618.195.933.492l.835.807.12-.124c.18-.186.26-.385.244-.596-.017-.212-.134-.423-.353-.634-.265-.257-.627-.423-1.084-.5l.113-.505c.307.06.568.14.781.24.214.1.432.258.654.473.328.317.504.642.528.976.024.333-.102.646-.377.938l-1.666 1.735-.458-.442zm-.475-1.16c.216.208.45.333.701.374a.859.859 0 0 0 .672-.154l.254-.263-.77-.744c-.21-.202-.395-.32-.556-.355-.162-.035-.309.016-.44.152a.538.538 0 0 0-.158.472c.026.179.125.351.297.518zm9.075 2.335l-3.563 3.69-.462-.447.504-.523c-.27.08-.533.086-.792.02a1.625 1.625 0 0 1-.72-.423 1.745 1.745 0 0 1-.494-.808c-.08-.299-.075-.6.016-.907.09-.306.263-.59.515-.852.25-.259.525-.437.825-.535.3-.099.599-.112.898-.04.3.07.572.225.818.462.225.217.377.454.457.71.08.256.082.519.009.787l1.527-1.58.462.446zm-4.555 2.01c.172.167.364.275.575.325.211.05.424.04.637-.028.214-.07.408-.193.58-.372.177-.182.295-.382.357-.598.061-.216.063-.429.006-.638a1.23 1.23 0 0 0-.345-.563 1.21 1.21 0 0 0-.578-.323 1.19 1.19 0 0 0-.64.03 1.399 1.399 0 0 0-.58.373c-.172.179-.29.376-.35.593a1.165 1.165 0 0 0-.007.638c.058.209.172.397.345.563zm5.53.95c.408.393.6.811.577 1.253-.023.442-.241.877-.654 1.305a2.274 2.274 0 0 1-.149.144l-2.078-2.007c-.191.27-.274.553-.247.848.026.294.157.555.392.782.156.15.328.263.517.336.189.073.382.106.581.1v.508a1.847 1.847 0 0 1-.78-.128 2.165 2.165 0 0 1-.717-.472 1.943 1.943 0 0 1-.528-.831 1.627 1.627 0 0 1-.014-.921c.084-.31.251-.594.501-.852.25-.259.527-.435.832-.528.304-.093.611-.101.92-.024.31.078.592.24.848.487zm-.293 1.946c.217-.252.32-.517.306-.795-.013-.279-.139-.533-.377-.764a1.156 1.156 0 0 0-.781-.35c-.289-.01-.562.089-.819.295l1.671 1.614zm5.65 3.015c-.063-.26-.157-.5-.281-.719a2.37 2.37 0 0 0-.406-.54c-.202-.195-.401-.312-.598-.351a.505.505 0 0 0-.49.145.587.587 0 0 0-.182.406c-.002.149.028.297.091.444.063.147.16.342.291.584.165.3.289.554.37.76.082.208.111.427.088.657-.024.23-.14.453-.348.668-.192.2-.414.321-.666.366a1.439 1.439 0 0 1-.786-.091 2.39 2.39 0 0 1-.786-.524 2.704 2.704 0 0 1-.602-.87 2.812 2.812 0 0 1-.243-1.002l.613-.207c.009.323.074.628.197.916.122.288.281.526.477.715.232.224.459.356.681.394a.592.592 0 0 0 .56-.176.6.6 0 0 0 .183-.409 1.072 1.072 0 0 0-.094-.455 6.527 6.527 0 0 0-.301-.589 6.395 6.395 0 0 1-.37-.751 1.361 1.361 0 0 1-.087-.651c.024-.227.138-.447.343-.659.18-.186.389-.3.63-.343.24-.044.49-.014.749.09.26.102.511.272.757.509.209.202.384.43.525.685.141.255.24.51.297.762l-.612.236zm-.07 5.256l.356-.368c-.446.07-.877-.097-1.295-.5a1.459 1.459 0 0 1-.379-.568 1.068 1.068 0 0 1-.04-.596c.044-.194.14-.368.287-.52a.939.939 0 0 1 .801-.308c.307.03.618.195.933.492l.835.807.12-.124c.18-.186.26-.384.244-.596-.017-.212-.134-.423-.353-.634-.265-.256-.627-.423-1.084-.5l.113-.505c.308.06.568.14.782.24.213.101.431.259.653.473.328.317.504.642.528.976.024.334-.102.646-.377.938l-1.666 1.735-.458-.442zm-.475-1.16c.216.208.45.333.701.374a.859.859 0 0 0 .672-.153l.255-.264-.771-.744c-.209-.202-.394-.32-.556-.355-.162-.034-.309.016-.44.152a.538.538 0 0 0-.158.472c.026.18.125.352.297.518zm5.775 1.166c.308.297.463.621.464.972.001.35-.152.684-.46 1.002l-1.57 1.626-.462-.446 1.45-1.502c.215-.222.32-.455.316-.7-.005-.244-.116-.472-.335-.683-.239-.224-.503-.333-.793-.328-.29.005-.558.115-.805.331l-1.36 1.408-.462-.447 2.54-2.63.463.446-.538.557c.537-.205 1.055-.074 1.552.394zm.84 5.587a1.575 1.575 0 0 1-.804-.401c-.209-.202-.318-.428-.327-.677-.009-.249.108-.5.351-.751l1.407-1.457-.373-.36.341-.353.373.36.682-.706.467.451-.681.706.805.778-.34.353-.806-.778-1.326 1.373c-.14.145-.215.275-.223.39-.007.114.042.222.148.325.126.121.302.211.528.269l-.222.478zm6.445-.166c.434.42.67.846.71 1.28.038.435-.122.838-.48 1.209-.375.388-.785.573-1.23.557-.445-.017-.883-.233-1.314-.65l-.865-.835-1.047 1.084-.478-.461 3.362-3.48 1.342 1.296zm-1.916 1.945c.298.288.59.443.875.466.286.023.552-.094.799-.349.24-.249.342-.514.306-.795-.036-.281-.203-.566-.501-.854l-.85-.811-1.475 1.526.846.817zm2.11 4.969l.355-.368c-.445.07-.876-.097-1.294-.5a1.459 1.459 0 0 1-.379-.569 1.068 1.068 0 0 1-.04-.595c.044-.195.14-.369.287-.521a.939.939 0 0 1 .801-.307c.307.03.618.194.933.492l.835.806.12-.124c.18-.185.26-.384.244-.596-.017-.211-.135-.423-.353-.634-.265-.256-.627-.422-1.084-.5l.113-.505c.307.06.568.14.781.241.214.1.432.258.654.473.328.316.504.642.528.975.024.334-.102.647-.377.938l-1.666 1.735-.458-.441zm-.475-1.16c.216.208.45.332.701.373a.859.859 0 0 0 .672-.153l.254-.264-.77-.744c-.21-.201-.395-.32-.556-.354-.162-.035-.309.016-.44.152a.538.538 0 0 0-.158.472c.026.178.125.351.297.518zm6.625 2.015l-2.54 2.63-.467-.45.537-.558c-.534.208-1.043.085-1.526-.369-.305-.294-.457-.615-.455-.962.002-.348.157-.68.464-.998l1.57-1.626.468.451-1.45 1.502c-.215.222-.321.453-.32.695 0 .24.107.464.32.669.248.233.527.334.836.303.309-.032.591-.18.847-.445l1.249-1.293.467.451z"/>
        <g fill-rule="nonzero">
            <path fill="#808C95" d="M126.05 85.07l7.069-5.12 7.071 5.12-7.074 5.12-7.066-5.12"/>
            <path fill="#FFF" d="M135.802 87.265v-4.876h-1.856l-.827 3.04-.826-3.04h-1.855v4.876h1.38v-1.49l-.02-.759-.079-.881h.015l.851 3.13h1.068l.853-3.13h.014l-.066.719-.032.759v1.652h1.38"/>
        </g>
        <path fill="#63727F" d="M123.584 92.246c.512 0 .908.122 1.187.364.28.242.42.583.42 1.02 0 .458-.141.813-.423 1.065-.281.252-.676.378-1.184.378h-1.021v1.279H122v-4.106h1.584zm-.024 2.317c.352 0 .622-.077.81-.232.187-.154.281-.382.281-.683 0-.293-.094-.515-.282-.666-.187-.15-.457-.225-.809-.225l-.997.005v1.801h.997zm4.217 1.789v-.434c-.23.305-.592.457-1.085.457-.215 0-.404-.04-.566-.123a.906.906 0 0 1-.375-.34.918.918 0 0 1-.132-.487c0-.277.102-.497.308-.66.205-.162.491-.245.859-.249h.985v-.147c0-.218-.067-.388-.202-.507-.135-.12-.331-.179-.59-.179-.312 0-.631.112-.956.335l-.228-.376c.223-.144.429-.249.618-.314a2.11 2.11 0 0 1 .678-.096c.387 0 .686.094.897.284.211.19.319.455.323.795l.006 2.04h-.54zm-.974-.428c.255 0 .47-.062.649-.185a.729.729 0 0 0 .32-.49v-.31h-.91c-.246 0-.429.037-.548.11-.12.075-.18.192-.18.353 0 .16.061.287.183.381.12.094.283.14.486.14zm3.033-2.006c.101-.223.246-.392.434-.507a1.29 1.29 0 0 1 .668-.18v.529c-.316-.012-.572.07-.768.246-.195.176-.307.412-.334.71v1.636h-.546v-3.103h.546v.669zm3.59 2.434v-.434c-.232.305-.593.457-1.086.457-.215 0-.404-.04-.566-.123a.906.906 0 0 1-.375-.34.918.918 0 0 1-.132-.487c0-.277.102-.497.308-.66.205-.162.491-.245.859-.249h.985v-.147c0-.218-.067-.388-.202-.507-.135-.12-.331-.179-.59-.179-.312 0-.631.112-.955.335l-.23-.376c.224-.144.43-.249.62-.314a2.11 2.11 0 0 1 .677-.096c.387 0 .686.094.897.284.211.19.319.455.323.795l.006 2.04h-.54zm-.974-.428c.254 0 .47-.062.648-.185a.729.729 0 0 0 .32-.49v-.31h-.91c-.246 0-.429.037-.548.11-.12.075-.18.192-.18.353 0 .16.062.287.183.381.121.094.283.14.487.14zM134.968 92h.545v4.352h-.545V92zm1.736 2.346c.097 0 .179.033.243.1.065.066.097.15.097.252a.347.347 0 0 1-.097.252.325.325 0 0 1-.243.1.325.325 0 0 1-.244-.1.347.347 0 0 1-.096-.252c0-.102.032-.186.096-.252a.325.325 0 0 1 .244-.1zm1.19-2.346h.546v4.352h-.546V92zm2.886 1.232c.48 0 .845.141 1.09.425.247.283.37.677.37 1.182 0 .078-.002.137-.006.176h-2.451c.043.277.16.498.349.662.19.165.423.247.7.247.185 0 .356-.034.514-.1.158-.066.296-.16.413-.281l.3.31a1.567 1.567 0 0 1-.552.382c-.215.09-.453.134-.715.134-.305 0-.576-.065-.813-.196a1.38 1.38 0 0 1-.55-.554 1.666 1.666 0 0 1-.197-.815c0-.305.065-.576.196-.813a1.43 1.43 0 0 1 .548-.557c.235-.135.503-.202.804-.202zm.968 1.36c-.016-.281-.11-.503-.282-.665-.172-.163-.399-.244-.68-.244a.981.981 0 0 0-.683.247c-.182.164-.29.385-.326.662h1.97zM143.015 92h.545v4.352h-.545V92z"/>
    </g>
</svg>
