<svg xmlns="http://www.w3.org/2000/svg" width="43" height="28" viewBox="0 0 43 28">
    <g fill="none" fill-rule="evenodd">
        <path fill="#B9D5EA" d="M1 4.003h2v20.5c0 .275.225.5.5.5h15.531c.799 0 1.184.223 1.469.625.224.314.365.799.437 1.375H1v-23zM40 4.003h2v23H22.063c.072-.576.212-1.06.437-1.375.285-.402.67-.625 1.469-.625h15.53c.276 0 .5-.225.5-.5L40 4.003z"/>
        <path fill="#354959" d="M3.406.003a.5.5 0 0 0-.406.5v2.5H.5a.377.377 0 0 0-.094 0 .5.5 0 0 0-.406.5v24c0 .275.225.5.5.5h42c.275 0 .5-.225.5-.5v-24c0-.275-.225-.5-.5-.5H40v-2.5c0-.275-.225-.5-.5-.5H23.969c-1.064 0-1.943.613-2.469 1.5-.525-.887-1.404-1.5-2.468-1.5H3.5a.377.377 0 0 0-.094 0zm.594 1h15.031c1.047 0 1.922.894 1.969 2.094-.002.021 0 21.61 0 21.61-.473-.44-1.143-.704-1.969-.704H4.001v-23zm19.969 0H39v23H23.969c-.826 0-1.496.264-1.969.703V3.096c.047-1.199.922-2.093 1.969-2.093zM1 4.003h2v20.5c0 .275.225.5.5.5h15.531c.799 0 1.184.223 1.469.625.224.314.365.799.437 1.375H1v-23zm39 0h2v23H22.063c.072-.576.212-1.06.437-1.375.285-.402.67-.625 1.469-.625h15.53c.276 0 .5-.225.5-.5L40 4.003zm-15.094 0a.503.503 0 0 0 .094 1h11a.495.495 0 0 0 .357-.145.496.496 0 0 0 0-.71.495.495 0 0 0-.357-.145H25a.377.377 0 0 0-.094 0zm0 5a.503.503 0 0 0 .094 1h11a.495.495 0 0 0 .357-.145.496.496 0 0 0 0-.71.495.495 0 0 0-.357-.145H25a.377.377 0 0 0-.094 0z"/>
        <path fill="#354959" d="M6.906 4.003a.503.503 0 0 0 .094 1h11a.495.495 0 0 0 .357-.145.496.496 0 0 0 0-.71.495.495 0 0 0-.357-.145H7a.377.377 0 0 0-.094 0zM24.906 14.003a.503.503 0 0 0 .094 1h11a.495.495 0 0 0 .357-.145.496.496 0 0 0 0-.71.495.495 0 0 0-.357-.145H25a.377.377 0 0 0-.094 0zM24.906 19.003a.503.503 0 0 0 .094 1h11a.495.495 0 0 0 .357-.145.496.496 0 0 0 0-.71.495.495 0 0 0-.357-.145H25a.377.377 0 0 0-.094 0zM6.906 9.003a.503.503 0 0 0 .094 1h11a.495.495 0 0 0 .357-.145.496.496 0 0 0 0-.71.495.495 0 0 0-.357-.145H7a.377.377 0 0 0-.094 0zM6.906 14.003a.503.503 0 0 0 .094 1h11a.495.495 0 0 0 .357-.145.496.496 0 0 0 0-.71.495.495 0 0 0-.357-.145H7a.377.377 0 0 0-.094 0zM6.906 19.003a.503.503 0 0 0 .094 1h11a.495.495 0 0 0 .357-.145.496.496 0 0 0 0-.71.495.495 0 0 0-.357-.145H7a.377.377 0 0 0-.094 0z"/>
    </g>
</svg>
