<?xml version="1.0" encoding="UTF-8"?>
<svg width="34px" height="44px" viewBox="0 0 34 44" version="1.1" xmlns="http://www.w3.org/2000/svg" xmlns:xlink="http://www.w3.org/1999/xlink">
    <!-- Generator: Sketch 48.2 (47327) - http://www.bohemiancoding.com/sketch -->
    <title>matriculam_34x44px</title>
    <desc>Created with Sketch.</desc>
    <defs></defs>
    <g id="Page-1" stroke="none" stroke-width="1" fill="none" fill-rule="evenodd">
        <g id="matriculam_34x44px">
            <g id="requisits_icon" transform="translate(3.000000, 7.000000)">
                <path d="M18.8103448,0.5 L25.9378098,0.5 C26.8005836,0.5 27.5,1.18700171 27.5,2.03535868 L27.5,34.9646413 C27.5,35.8125965 26.8078613,36.5 25.9446721,36.5 L2.05532788,36.5 C1.19634401,36.5 0.5,35.8129983 0.5,34.9646413 L0.5,2.03535868 C0.5,1.18740349 1.19450775,0.5 2.05664919,0.5 L9.15517241,0.5 L18.8103448,0.5 Z" id="Rectangle" fill="#B9D5EA"></path>
                <path d="M20,0.5 L25.9378098,0.5 C26.8005836,0.5 27.5,1.18700171 27.5,2.03535868 L27.5,34.9646413 C27.5,35.8125965 26.8078613,36.5 25.9446721,36.5 L2.05532788,36.5 C1.19634401,36.5 0.5,35.8129983 0.5,34.9646413 L0.5,2.03535868 C0.5,1.18740349 1.19450775,0.5 2.05664919,0.5 L9,0.5 L20,0.5 Z" id="Rectangle-Copy" stroke="#354959"></path>
                <rect id="Rectangle-2" fill="#FFFFFF" x="4.5" y="6.5" width="19" height="26" rx="1"></rect>
                <path d="M5,7.50329963 L5,31.4967004 C5,31.7744094 5.22335221,32 5.49477117,32 L22.5052288,32 C22.7743232,32 23,31.7732624 23,31.4967004 L23,7.50329963 C23,7.22559061 22.7766478,7 22.5052288,7 L5.49477117,7 C5.22567681,7 5,7.22673762 5,7.50329963 Z M4,7.50329963 C4,6.67549994 4.67233955,6 5.49477117,6 L22.5052288,6 C23.3311771,6 24,6.67552577 24,7.50329963 L24,31.4967004 C24,32.3245001 23.3276605,33 22.5052288,33 L5.49477117,33 C4.66882293,33 4,32.3244742 4,31.4967004 L4,7.50329963 Z" id="Rectangle-2-Copy" fill="#354959" fill-rule="nonzero"></path>
            </g>
            <polyline id="Path-3" stroke="#0F9E73" stroke-linecap="round" transform="translate(17.267767, 25.656854) rotate(-315.000000) translate(-17.267767, -25.656854) " points="19.3357864 21.1390873 19.3357864 30.1746212 15.1997475 30.1746212"></polyline>
            <path d="M12,7 C12,5.8954305 12.8874333,5 13.999615,5 L20.000385,5 C21.1047419,5 22,5.88772964 22,7 L22,7.9906311 C22,8.54809015 21.5443356,9 21.0046024,9 L12.9953976,9 C12.4456547,9 12,8.55664682 12,7.9906311 L12,7 Z" id="Rectangle-24" fill="#FFFFFF"></path>
            <path d="M12.5,7 L12.5,7.9906311 C12.5,8.27844793 12.7197723,8.5 12.9953976,8.5 L21.0046024,8.5 C21.270862,8.5 21.5,8.26924862 21.5,7.9906311 L21.5,7 C21.5,6.16680859 20.8315419,5.5 20.000385,5.5 L13.999615,5.5 C13.1666032,5.5 12.5,6.16853857 12.5,7 Z" id="Rectangle-24" stroke="#354959"></path>
        </g>
    </g>
</svg>