<?xml version="1.0" encoding="UTF-8"?>
<svg width="34px" height="44px" viewBox="0 0 34 44" version="1.1" xmlns="http://www.w3.org/2000/svg" xmlns:xlink="http://www.w3.org/1999/xlink">
    <!-- Generator: Sketch 48.2 (47327) - http://www.bohemiancoding.com/sketch -->
    <title>metodologia_34x44px</title>
    <desc>Created with Sketch.</desc>
    <defs></defs>
    <g id="Page-1" stroke="none" stroke-width="1" fill="none" fill-rule="evenodd">
        <g id="metodologia_34x44px">
            <g id="metodologia_icon" transform="translate(0.000000, 3.000000)">
                <g id="metodologia_body">
                    <path d="M22.0000591,9.53531825 C22.0056643,9.2775057 21.7889489,9.14299417 21.6563074,9.07200078 L19.3396961,8.39946708 C19.1808984,7.89317766 18.9697883,7.41118402 18.7269453,6.94975569 L19.9076815,4.82746277 C20.0048263,4.64624406 19.9655944,4.40337723 19.8180072,4.25952523 L17.7554971,2.18204557 C17.6060399,2.03258832 17.3538326,2.00082686 17.17259,2.10731694 L15.050297,3.28805311 C14.5888496,3.04518628 14.1086925,2.83407613 13.6005857,2.67530231 L12.9429738,0.343769242 C12.8850609,0.145739584 12.6851612,-0.00185243716 12.4796563,1.75719227e-05 L9.53537242,1.75719227e-05 C9.32986751,1.75719227e-05 9.12996784,0.145739584 9.07205495,0.343769242 L8.39952125,2.69022412 C7.89882751,2.84902185 7.42056432,3.04705151 6.96473167,3.28805311 L4.82746911,2.10731694 C4.64812041,2.0064321 4.40525358,2.03819356 4.25953157,2.18204557 L2.18205191,4.25952523 C2.04006513,4.40524724 2.00643845,4.64811407 2.10732328,4.82746277 L3.28805946,6.94975569 C3.04705785,7.40933792 2.84902819,7.89509072 2.69023046,8.39946708 L0.358697395,9.07200078 C0.155062493,9.12431321 0,9.32607811 0,9.53531825 L0,12.4646803 C0,12.6757905 0.155062493,12.8756901 0.358697395,12.9279978 L2.69023046,13.6005315 C2.84902819,14.1049557 3.04705785,14.5906798 3.28805946,15.0502429 L2.10732328,17.1725358 C2.00643845,17.3518845 2.0381999,17.5947513 2.18205191,17.7404733 L4.25953157,19.8179544 C4.40525358,19.9599412 4.64812041,19.9935679 4.82746911,19.8926831 L6.96473167,18.7119455 C7.42057388,18.9529471 7.89882751,19.1509767 8.39952125,19.3097744 L9.07205495,21.6562308 C9.12996784,21.8542604 9.32986751,22.0018524 9.53537242,21.9999824 L12.4796563,21.9999824 C12.6851612,21.9999824 12.8850609,21.8542604 12.9429738,21.6562308 L13.6005857,19.3246963 C14.1087403,19.1658985 14.5888687,18.9547884 15.050297,18.7119455 L17.17259,19.8926831 C17.3538087,19.9991731 17.606016,19.9674117 17.7554971,19.8179544 L19.8180072,17.7404733 C19.9655944,17.5966213 20.0048263,17.3537545 19.9076815,17.1725358 L18.7269453,15.0502429 C18.9698122,14.5887954 19.1809223,14.1067731 19.3396961,13.6005315 L21.6563074,12.9279978 C21.8543371,12.8700849 22.0019291,12.6720505 22.0000591,12.4646803 L22.0000591,9.53531825 Z M21,9.88399915 L21,12.1161418 L18.812471,12.726237 C18.6543611,12.7727417 18.5241512,12.9085274 18.4850893,13.0684989 C18.3139555,13.6897845 18.0554025,14.2738321 17.7410399,14.8244511 C17.6629159,14.9658225 17.6629159,15.146251 17.7410399,15.2857605 L18.8571378,17.2947127 L17.2946578,18.8571888 L15.3006055,17.7410936 C15.1573766,17.6573889 14.9676428,17.6573889 14.8244139,17.7410936 C14.2738411,18.0554555 13.6897445,18.2991412 13.0684573,18.4702364 C12.9140665,18.5148793 12.7857185,18.6432269 12.7410756,18.7976174 L12.1160741,21 L9.89883071,21 L9.27382922,18.7976174 C9.22918626,18.6432269 9.10083834,18.5148793 8.94644749,18.4702364 C8.3251603,18.2991031 7.72620649,18.0554317 7.17558613,17.7410936 C7.03607628,17.6629698 6.85564251,17.6629698 6.71427551,17.7410936 L4.70531835,18.842284 L3.15769561,17.2946651 L4.27379351,15.2857129 C4.34633654,15.1424844 4.34075557,14.9620511 4.25891252,14.8244034 C3.94454987,14.2738321 3.70086357,13.6897369 3.52976793,13.0684512 C3.49070593,12.9084798 3.3604961,12.7726941 3.2023862,12.7261894 L1,12.1011894 L1,9.89880868 L3.2023862,9.27380874 C3.3604961,9.22730874 3.49070593,9.09151828 3.52976793,8.93154686 C3.70090167,8.31026121 3.94457368,7.72621365 4.25891252,7.17559465 C4.34076034,7.03794704 4.34633654,6.85751373 4.27379351,6.71428517 L3.15769561,4.70533298 L4.70531835,3.15771408 L6.71427551,4.25890445 C6.85564728,4.33702825 7.03607628,4.33702825 7.17558613,4.25890445 C7.72615887,3.94454258 8.3251603,3.70085689 8.94644749,3.52976166 C9.10083834,3.48511881 9.22918626,3.3567712 9.27382922,3.20238074 L9.89883071,1 L12.1160741,1 L12.7410756,3.20238074 C12.7857185,3.3567712 12.9140665,3.48511881 13.0684573,3.52976166 C13.6897445,3.70089498 14.2737935,3.94456639 14.8244139,4.25890445 C14.9676428,4.34260921 15.1573766,4.34260921 15.3006055,4.25890445 L17.2946578,3.14280932 L18.8571378,4.70528536 L17.7410399,6.71423755 C17.6629159,6.85374706 17.6629159,7.03418038 17.7410399,7.17554703 C18.0554025,7.72611841 18.313946,8.31021359 18.4850893,8.93149924 C18.5241512,9.09147066 18.6543611,9.22725636 18.812471,9.27376112 L21,9.88399915 Z" id="metodologia_icon-copy" fill="#354959"></path>
                    <path d="M21,9.88399915 L21,12.1161418 L18.812471,12.726237 C18.6543611,12.7727417 18.5241512,12.9085274 18.4850893,13.0684989 C18.3139555,13.6897845 18.0554025,14.2738321 17.7410399,14.8244511 C17.6629159,14.9658225 17.6629159,15.146251 17.7410399,15.2857605 L18.8571378,17.2947127 L17.2946578,18.8571888 L15.3006055,17.7410936 C15.1573766,17.6573889 14.9676428,17.6573889 14.8244139,17.7410936 C14.2738411,18.0554555 13.6897445,18.2991412 13.0684573,18.4702364 C12.9140665,18.5148793 12.7857185,18.6432269 12.7410756,18.7976174 L12.1160741,21 L9.89883071,21 L9.27382922,18.7976174 C9.22918626,18.6432269 9.10083834,18.5148793 8.94644749,18.4702364 C8.3251603,18.2991031 7.72620649,18.0554317 7.17558613,17.7410936 C7.03607628,17.6629698 6.85564251,17.6629698 6.71427551,17.7410936 L4.70531835,18.842284 L3.15769561,17.2946651 L4.27379351,15.2857129 C4.34633654,15.1424844 4.34075557,14.9620511 4.25891252,14.8244034 C3.94454987,14.2738321 3.70086357,13.6897369 3.52976793,13.0684512 C3.49070593,12.9084798 3.3604961,12.7726941 3.2023862,12.7261894 L1,12.1011894 L1,9.89880868 L3.2023862,9.27380874 C3.3604961,9.22730874 3.49070593,9.09151828 3.52976793,8.93154686 C3.70090167,8.31026121 3.94457368,7.72621365 4.25891252,7.17559465 C4.34076034,7.03794704 4.34633654,6.85751373 4.27379351,6.71428517 L3.15769561,4.70533298 L4.70531835,3.15771408 L6.71427551,4.25890445 C6.85564728,4.33702825 7.03607628,4.33702825 7.17558613,4.25890445 C7.72615887,3.94454258 8.3251603,3.70085689 8.94644749,3.52976166 C9.10083834,3.48511881 9.22918626,3.3567712 9.27382922,3.20238074 L9.89883071,1 L12.1160741,1 L12.7410756,3.20238074 C12.7857185,3.3567712 12.9140665,3.48511881 13.0684573,3.52976166 C13.6897445,3.70089498 14.2737935,3.94456639 14.8244139,4.25890445 C14.9676428,4.34260921 15.1573766,4.34260921 15.3006055,4.25890445 L17.2946578,3.14280932 L18.8571378,4.70528536 L17.7410399,6.71423755 C17.6629159,6.85374706 17.6629159,7.03418038 17.7410399,7.17554703 C18.0554025,7.72611841 18.313946,8.31021359 18.4850893,8.93149924 C18.5241512,9.09147066 18.6543611,9.22725636 18.812471,9.27376112 L21,9.88399915 Z" id="Path-Copy" fill="#FFFFFF"></path>
                    <path d="M15,11 C15,13.2038549 13.2038549,15 11,15 C8.79614513,15 7,13.2038549 7,11 C7,8.79614513 8.79614513,7 11,7 C13.2038549,7 15,8.79614513 15,11 Z M14,11 C14,9.34842987 12.6515701,8 11,8 C9.34842987,8 8,9.34842987 8,11 C8,12.6515701 9.34842987,14 11,14 C12.6515701,14 14,12.6515701 14,11 Z" id="Path" fill="#354959" fill-rule="nonzero"></path>
                </g>
                <g id="metodologia_body-copy" transform="translate(18.000000, 18.000000)">
                    <path d="M15.9999225,6.93477691 C16.003999,6.74727687 15.846389,6.64945031 15.7499231,6.59781875 L14.0651276,6.10870333 C13.9496392,5.74049285 13.7961057,5.38995201 13.619494,5.05436777 L14.4782048,3.51088201 C14.548855,3.37908659 14.5203229,3.20245617 14.4129876,3.09783653 L12.9129916,1.58694223 C12.8042962,1.47824605 12.6208741,1.45514681 12.4890623,1.53259414 L10.9455881,2.39131136 C10.6099925,2.21468093 10.26079,2.06114627 9.89126053,1.94567441 L9.41300093,0.250013994 C9.37088279,0.105992425 9.2255023,-0.00134722703 9.07604531,1.27795801e-05 L6.93476408,1.27795801e-05 C6.78530709,1.27795801e-05 6.63992661,0.105992425 6.59780846,0.250013994 L6.10869672,1.95652663 C5.74455856,2.07201589 5.39673341,2.21603746 5.06522125,2.39131136 L3.51086018,1.53259414 C3.38042575,1.45922335 3.20379666,1.48232259 3.09781781,1.58694223 L1.58693489,3.09783653 C1.48367256,3.20381617 1.45921697,3.3804466 1.53258721,3.51088201 L2.39129796,5.05436777 C2.21602538,5.3886094 2.0720049,5.74188416 1.95651651,6.10870333 L0.260868868,6.59781875 C0.112771873,6.63586415 0,6.78260226 0,6.93477691 L0,9.06522205 C0,9.2187567 0.112771873,9.36413828 0.260868868,9.4021802 L1.95651651,9.89129562 C2.0720049,10.2581496 2.21602538,10.6114035 2.39129796,10.9456312 L1.53258721,12.4891169 C1.45921697,12.6195524 1.48231604,12.7961828 1.58693489,12.9021624 L3.09781781,14.4130578 C3.20379666,14.5163209 3.38042575,14.5407767 3.51086018,14.4674059 L5.06522125,13.6086876 C5.39674036,13.7839615 5.74455856,13.9279831 6.10869672,14.0434723 L6.59780846,15.749986 C6.63992661,15.8940076 6.78530709,16.0013472 6.93476408,15.9999872 L9.07604531,15.9999872 C9.2255023,15.9999872 9.37088279,15.8940076 9.41300093,15.749986 L9.89126053,14.0543245 C10.2608248,13.9388353 10.6100064,13.7853006 10.9455881,13.6086876 L12.4890623,14.4674059 C12.6208567,14.5448532 12.8042788,14.521754 12.9129916,14.4130578 L14.4129876,12.9021624 C14.5203229,12.7975428 14.548855,12.6209124 14.4782048,12.4891169 L13.619494,10.9456312 C13.7961231,10.610033 13.9496566,10.2594713 14.0651276,9.89129562 L15.7499231,9.4021802 C15.8939436,9.36006174 16.0012825,9.21603669 15.9999225,9.06522205 L15.9999225,6.93477691 Z M15,7.21881481 L15,8.78131853 L13.4687297,9.20838621 C13.3580528,9.24093962 13.2669059,9.33598985 13.2395625,9.44797011 C13.1197689,9.88287115 12.9387818,10.2917055 12.7187279,10.6771397 C12.6640411,10.7760999 12.6640411,10.9024002 12.7187279,11.0000571 L13.4999964,12.4063272 L12.4062605,13.5000631 L11.0104238,12.7187946 C10.9101636,12.6602011 10.7773499,12.6602011 10.6770897,12.7187946 C10.2916888,12.9388484 9.88282115,13.1094288 9.44792011,13.2291958 C9.33984652,13.2604459 9.25000298,13.3502894 9.2187529,13.458363 L8.78125186,15.0000347 L7.2291815,15.0000347 L6.79168046,13.458363 C6.76043038,13.3502894 6.67058683,13.2604459 6.56251324,13.2291958 C6.12761221,13.1094022 5.70834454,12.9388318 5.32291029,12.7187946 C5.22525339,12.6641078 5.09894976,12.6641078 4.99999286,12.7187946 L3.59372284,13.4896297 L2.51038693,12.4062938 L3.29165546,11.0000238 C3.34243558,10.8997636 3.3385289,10.7734599 3.28123876,10.6771064 C3.06118491,10.2917055 2.8906045,9.88283782 2.77083755,9.44793678 C2.74349415,9.33595651 2.65234727,9.24090629 2.54167034,9.20835288 L1,8.77085184 L1,7.2291815 L2.54167034,6.79168046 C2.65234727,6.75913038 2.74349415,6.66407682 2.77083755,6.55209655 C2.89063117,6.11719552 3.06120157,5.70836121 3.28123876,5.32292696 C3.33853223,5.2265734 3.34243558,5.10026976 3.29165546,5.00000952 L2.51038693,3.59373951 L3.59372284,2.5104036 L4.99999286,3.28123876 C5.09895309,3.33592556 5.22525339,3.33592556 5.32291029,3.28123876 C5.70831121,3.06118491 6.12761221,2.8906045 6.56251324,2.77083755 C6.67058683,2.73958748 6.76043038,2.64974393 6.79168046,2.54167034 L7.2291815,1 L8.78125186,1 L9.2187529,2.54167034 C9.25000298,2.64974393 9.33984652,2.73958748 9.44792011,2.77083755 C9.88282115,2.89063117 10.2916555,3.06120157 10.6770897,3.28123876 C10.7773499,3.33983224 10.9101636,3.33983224 11.0104238,3.28123876 L12.4062605,2.49997024 L13.4999964,3.59370618 L12.7187279,4.99997619 C12.6640411,5.09763309 12.6640411,5.22393672 12.7187279,5.32289363 C12.9387818,5.70829454 13.1197622,6.11716218 13.2395625,6.55206322 C13.2669059,6.66404349 13.3580528,6.75909371 13.4687297,6.79164712 L15,7.21881481 Z" id="metodologia_icon-copy" fill="#354959"></path>
                    <path d="M15,7.21881481 L15,8.78131853 L13.4687297,9.20838621 C13.3580528,9.24093962 13.2669059,9.33598985 13.2395625,9.44797011 C13.1197689,9.88287115 12.9387818,10.2917055 12.7187279,10.6771397 C12.6640411,10.7760999 12.6640411,10.9024002 12.7187279,11.0000571 L13.4999964,12.4063272 L12.4062605,13.5000631 L11.0104238,12.7187946 C10.9101636,12.6602011 10.7773499,12.6602011 10.6770897,12.7187946 C10.2916888,12.9388484 9.88282115,13.1094288 9.44792011,13.2291958 C9.33984652,13.2604459 9.25000298,13.3502894 9.2187529,13.458363 L8.78125186,15.0000347 L7.2291815,15.0000347 L6.79168046,13.458363 C6.76043038,13.3502894 6.67058683,13.2604459 6.56251324,13.2291958 C6.12761221,13.1094022 5.70834454,12.9388318 5.32291029,12.7187946 C5.22525339,12.6641078 5.09894976,12.6641078 4.99999286,12.7187946 L3.59372284,13.4896297 L2.51038693,12.4062938 L3.29165546,11.0000238 C3.34243558,10.8997636 3.3385289,10.7734599 3.28123876,10.6771064 C3.06118491,10.2917055 2.8906045,9.88283782 2.77083755,9.44793678 C2.74349415,9.33595651 2.65234727,9.24090629 2.54167034,9.20835288 L1,8.77085184 L1,7.2291815 L2.54167034,6.79168046 C2.65234727,6.75913038 2.74349415,6.66407682 2.77083755,6.55209655 C2.89063117,6.11719552 3.06120157,5.70836121 3.28123876,5.32292696 C3.33853223,5.2265734 3.34243558,5.10026976 3.29165546,5.00000952 L2.51038693,3.59373951 L3.59372284,2.5104036 L4.99999286,3.28123876 C5.09895309,3.33592556 5.22525339,3.33592556 5.32291029,3.28123876 C5.70831121,3.06118491 6.12761221,2.8906045 6.56251324,2.77083755 C6.67058683,2.73958748 6.76043038,2.64974393 6.79168046,2.54167034 L7.2291815,1 L8.78125186,1 L9.2187529,2.54167034 C9.25000298,2.64974393 9.33984652,2.73958748 9.44792011,2.77083755 C9.88282115,2.89063117 10.2916555,3.06120157 10.6770897,3.28123876 C10.7773499,3.33983224 10.9101636,3.33983224 11.0104238,3.28123876 L12.4062605,2.49997024 L13.4999964,3.59370618 L12.7187279,4.99997619 C12.6640411,5.09763309 12.6640411,5.22393672 12.7187279,5.32289363 C12.9387818,5.70829454 13.1197622,6.11716218 13.2395625,6.55206322 C13.2669059,6.66404349 13.3580528,6.75909371 13.4687297,6.79164712 L15,7.21881481 Z" id="Path-Copy-2" fill="#FFFFFF"></path>
                    <path d="M11,8 C11,9.65307987 9.65307987,11 8,11 C6.34692013,11 5,9.65307987 5,8 C5,6.34692013 6.34692013,5 8,5 C9.65307987,5 11,6.34692013 11,8 Z M10,8 C10,6.89920487 9.10079513,6 8,6 C6.89920487,6 6,6.89920487 6,8 C6,9.10079513 6.89920487,10 8,10 C9.10079513,10 10,9.10079513 10,8 Z" id="Path" fill="#354959" fill-rule="nonzero"></path>
                </g>
            </g>
        </g>
    </g>
</svg>