<?xml version="1.0" encoding="UTF-8"?>
<svg width="44px" height="54px" viewBox="0 0 44 54" version="1.1" xmlns="http://www.w3.org/2000/svg" xmlns:xlink="http://www.w3.org/1999/xlink">
    <!-- Generator: Sketch 48.2 (47327) - http://www.bohemiancoding.com/sketch -->
    <title>metodologia_44x54px</title>
    <desc>Created with Sketch.</desc>
    <defs></defs>
    <g id="Page-1" stroke="none" stroke-width="1" fill="none" fill-rule="evenodd">
        <g id="metodologia_44x54px">
            <g id="metodologia_icon" transform="translate(1.000000, 6.000000)">
                <g id="metodologia_bottom" transform="translate(0.915789, 0.915789)" fill="#FFFFFF">
                    <g id="bottom_gear_color" transform="translate(19.231579, 19.231579)">
                        <path d="M21.0630558,9.12933147 L21.0630558,11.933936 C21.0648462,12.1324746 20.9235399,12.322075 20.7339441,12.3775214 L18.5159941,13.0214129 C18.3639822,13.5060943 18.161863,13.967588 17.9293395,14.409383 L19.0597898,16.4412904 C19.1527973,16.6147913 19.1152362,16.8473147 18.9739345,16.9850403 L16.999264,18.9740443 C16.856149,19.1171364 16.6146828,19.1475451 16.441182,19.0455903 L14.4092746,17.9151387 C13.9674979,18.1476393 13.5078175,18.3497585 13.0213044,18.5017933 L12.3916993,20.7340309 C12.3362529,20.9236268 12.1448667,21.0631427 11.9481139,21.0631427 L9.12922307,21.0631427 C8.93247033,21.0649331 8.74108412,20.9236268 8.68563766,20.7340309 L8.04174624,18.487507 C7.56237637,18.3354722 7.1044909,18.1458764 6.66806238,17.9151387 L4.6218229,19.0455903 C4.45011242,19.1421786 4.21758895,19.109984 4.07807304,18.9740443 L2.08907039,16.9850403 C1.95134485,16.8455244 1.92093606,16.6130009 2.01752436,16.4412904 L3.14797459,14.409383 C2.91723692,13.9693921 2.72764107,13.5043543 2.57560632,13.0214129 L0.343370045,12.3775214 C0.148407674,12.3274415 -5.0919815e-05,12.1360553 -5.0919815e-05,11.933936 L-5.0919815e-05,9.12933147 C-5.0919815e-05,8.92900258 0.148407674,8.73583057 0.343370045,8.68574606 L2.57560632,8.04185465 C2.72764107,7.55895898 2.91723692,7.09389373 3.14797459,6.65388447 L2.01752436,4.6219771 C1.92093606,4.45026661 1.95313064,4.21774315 2.08907039,4.07822723 L4.07807304,2.08922458 C4.21758895,1.95149904 4.45011242,1.92109026 4.6218229,2.01767855 L6.66806238,3.14812879 C7.10448174,2.91739111 7.56237637,2.72779526 8.04174624,2.57576051 L8.68563766,0.329237925 C8.74108412,0.139642079 8.93247033,0.000126166859 9.12922307,0.000126166859 L11.9481139,0.000126166859 C12.1448667,-0.00166420111 12.3362529,0.139642079 12.3916993,0.329237925 L13.0213044,2.5614742 C13.5077717,2.71348605 13.9674796,2.91560532 14.4092746,3.14812879 L16.441182,2.01767855 C16.6147057,1.91572373 16.8561719,1.94613251 16.999264,2.08922458 L18.9739345,4.07822723 C19.1152362,4.21595278 19.1527973,4.44847624 19.0597898,4.6219771 L17.9293395,6.65388447 C18.1618401,7.0956612 18.3639594,7.5571274 18.5159941,8.04185465 L20.7339441,8.68574606 C20.8609366,8.75371594 21.0684223,8.8824988 21.0630558,9.12933147 Z M14.1946365,10.5316566 C14.1946365,8.51408137 12.5490548,6.86849968 10.5314796,6.86849968 C8.51390428,6.86849968 6.86832259,8.51408137 6.86832259,10.5316566 C6.86832259,12.5492319 8.51390428,14.1948136 10.5314796,14.1948136 C12.5490548,14.1948136 14.1946365,12.5492319 14.1946365,10.5316566 Z" id="Combined-Shape"></path>
                    </g>
                    <g id="upper_gear_color">
                        <path d="M22.8946392,10.1166945 L22.8946392,12.778207 L20.3476004,13.4936674 C20.1991418,13.536595 20.0757254,13.6600113 20.0327978,13.8084699 C19.8360451,14.5221445 19.5480706,15.2089864 19.1885317,15.8403773 C19.1134095,15.9745267 19.1134095,16.1498133 19.1885317,16.2839627 L20.4763603,18.6163863 L18.6161634,20.4765832 L16.2837398,19.1744225 C16.1495904,19.0993003 15.9760896,19.0993003 15.8401544,19.1744225 C15.2087635,19.533943 14.5362079,19.8219313 13.8225791,20.0186886 C13.6741205,20.0616162 13.5507042,20.1850326 13.5077766,20.3334911 L12.7779841,22.8948621 L10.1308038,22.8948621 L9.40101132,20.3334911 C9.3580837,20.1850326 9.23466736,20.0616162 9.08620877,20.0186886 C8.37253421,19.8219359 7.70002439,19.5339614 7.06863349,19.1744225 C6.93090795,19.0939338 6.74846442,19.0939338 6.61073887,19.1744225 L4.27831526,20.4622511 L2.43245046,18.6163863 L3.72027908,16.2839627 C3.79540127,16.1498133 3.79540127,15.9745267 3.72027908,15.8403773 C3.36075854,15.2089864 3.0727703,14.5221445 2.87601298,13.8084699 C2.83308536,13.6600113 2.70966902,13.536595 2.56121043,13.4936674 L-0.000160496312,12.7638749 L-0.000160496312,10.1309809 L2.56121043,9.40118841 C2.70966902,9.35826079 2.83308536,9.23484445 2.87601298,9.08638586 C3.07276572,8.3727113 3.36074023,7.68586937 3.72027908,7.05447848 C3.79540127,6.92032909 3.79540127,6.74504245 3.72027908,6.61089306 L2.43245046,4.27846945 L4.27831526,2.43260466 L6.61073887,3.72043327 C6.74846442,3.80092199 6.93090795,3.80092199 7.06863349,3.72043327 C7.70002439,3.36091273 8.37258,3.07292449 9.08620877,2.87616717 C9.23466736,2.83323955 9.3580837,2.70982322 9.40101132,2.56136462 L10.1308038,-6.30437029e-06 L12.7779841,-6.30437029e-06 L13.5077766,2.56136462 C13.5507042,2.70982322 13.6741205,2.83323955 13.8225791,2.87616717 C14.5362537,3.07291991 15.2087635,3.36089442 15.8401544,3.72043327 C15.9743038,3.79555547 16.1478047,3.79555547 16.2837398,3.72043327 L18.6161634,2.41827255 L20.4763603,4.27846945 L19.1885317,6.61089306 C19.1134095,6.74504245 19.1134095,6.92032909 19.1885317,7.05447848 C19.5480523,7.68586937 19.8360405,8.3727113 20.0327978,9.08638586 C20.0757254,9.23484445 20.1991418,9.35826079 20.3476004,9.40118841 L22.8946392,10.1166945 Z M16.0262199,11.4474279 C16.0262199,8.92365011 13.9710515,6.86848168 11.4472737,6.86848168 C8.92349592,6.86848168 6.86832749,8.92365011 6.86832749,11.4474279 C6.86832749,13.9712057 8.92349592,16.0263741 11.4472737,16.0263741 C13.9710515,16.0263741 16.0262199,13.9712057 16.0262199,11.4474279 Z" id="Combined-Shape"></path>
                    </g>
                </g>
                <g id="metodologia_body" fill="#354959">
                    <path d="M41.2104242,29.2766999 C41.2157908,29.0298672 41.008305,28.9010844 40.8813125,28.8331145 L38.6633625,28.1892231 C38.5113278,27.7044958 38.3092085,27.2430296 38.0767079,26.8012529 L39.2071582,24.7693455 C39.3001657,24.5958447 39.2626046,24.3633212 39.1213029,24.2255957 L37.1466324,22.236593 C37.0035403,22.0935009 36.7620742,22.0630922 36.5885504,22.165047 L34.556643,23.2954972 C34.114848,23.0629737 33.6551401,22.8608545 33.1686729,22.7088426 L32.5390678,20.4766063 C32.4836213,20.2870105 32.2922351,20.1457042 32.0954824,20.1474946 L29.2765915,20.1474946 C29.0798388,20.1474946 28.8884525,20.2870105 28.8330061,20.4766063 L28.1891147,22.7231289 C27.7097448,22.8751637 27.2518502,23.0647595 26.8154308,23.2954972 L24.7691913,22.165047 C24.5974808,22.0684587 24.3649574,22.0988675 24.2254415,22.236593 L22.2364388,24.2255957 C22.1004991,24.3651116 22.0683045,24.597635 22.1648928,24.7693455 L23.295343,26.8012529 C23.0646053,27.2412621 22.8750095,27.7063274 22.7229747,28.1892231 L20.4907385,28.8331145 C20.2957761,28.883199 20.1473175,29.076371 20.1473175,29.2766999 L20.1473175,32.0813044 C20.1473175,32.2834237 20.2957761,32.4748099 20.4907385,32.5248899 L22.7229747,33.1687813 C22.8750095,33.6517227 23.0646053,34.1167605 23.295343,34.5567514 L22.1648928,36.5886588 C22.0683045,36.7603693 22.0987133,36.9928928 22.2364388,37.1324087 L24.2254415,39.1214127 C24.3649574,39.2573525 24.5974808,39.289547 24.7691913,39.1929587 L26.8154308,38.0625071 C27.2518593,38.2932448 27.7097448,38.4828407 28.1891147,38.6348754 L28.8330061,40.8813994 C28.8884525,41.0709952 29.0798388,41.2123015 29.2765915,41.2105111 L32.0954824,41.2105111 C32.2922351,41.2105111 32.4836213,41.0709952 32.5390678,40.8813994 L33.1686729,38.6491617 C33.6551859,38.497127 34.1148663,38.2950077 34.556643,38.0625071 L36.5885504,39.1929587 C36.7620513,39.2949136 37.0035174,39.2645048 37.1466324,39.1214127 L39.1213029,37.1324087 C39.2626046,36.9946831 39.3001657,36.7621597 39.2071582,36.5886588 L38.0767079,34.5567514 C38.3092314,34.1149564 38.5113507,33.6534627 38.6633625,33.1687813 L40.8813125,32.5248899 C41.0709083,32.4694434 41.2122146,32.279843 41.2104242,32.0813044 L41.2104242,29.2766999 Z M40.294635,29.6058117 L40.294635,31.7521927 L38.1911587,32.3388473 C38.0391239,32.3835653 37.9139172,32.5141339 37.8763561,32.667959 C37.711798,33.2653741 37.4631795,33.8269819 37.1608958,34.3564454 C37.0857736,34.4923852 37.0857736,34.6658815 37.1608958,34.8000309 L38.2341092,36.7317967 L36.7316654,38.2342405 L34.8142317,37.1610271 C34.6765061,37.0805384 34.4940626,37.0805384 34.356337,37.1610271 C33.8269193,37.4633108 33.2652657,37.6976338 32.6678506,37.8621553 C32.519392,37.905083 32.3959757,38.0284993 32.3530481,38.1769579 L31.7520614,40.2947223 L29.6200125,40.2947223 L29.0190258,38.1769579 C28.9760981,38.0284993 28.8526818,37.905083 28.7042232,37.8621553 C28.1068081,37.6975972 27.5308683,37.4632879 27.0014047,37.1610271 C26.8672553,37.0859049 26.6937545,37.0859049 26.5578193,37.1610271 L24.6260535,38.2199084 L23.137896,36.7317509 L24.2111094,34.7999851 C24.280865,34.6622595 24.2754985,34.4887587 24.1968002,34.3563997 C23.8945164,33.8269819 23.6601934,33.2653284 23.4956719,32.6679132 C23.4581108,32.5140881 23.3329041,32.3835195 23.1808694,32.3388015 L21.0631067,31.7378148 L21.0631067,29.6200522 L23.1808694,29.0190655 C23.3329041,28.9743521 23.4581108,28.8437788 23.4956719,28.6899537 C23.6602301,28.0925386 23.8945393,27.5309309 24.1968002,27.0014673 C24.2755031,26.8691083 24.280865,26.6956074 24.2111094,26.5578819 L23.137896,24.6261161 L24.6260535,23.1379586 L26.5578193,24.1968399 C26.693759,24.2719621 26.8672553,24.2719621 27.0014047,24.1968399 C27.5308225,23.8945562 28.1068081,23.6602332 28.7042232,23.4957116 C28.8526818,23.452784 28.9760981,23.3293677 29.0190258,23.1809091 L29.6200125,21.0631465 L31.7520614,21.0631465 L32.3530481,23.1809091 C32.3959757,23.3293677 32.519392,23.452784 32.6678506,23.4957116 C33.2652657,23.6602698 33.8268735,23.8945791 34.356337,24.1968399 C34.4940626,24.2773286 34.6765061,24.2773286 34.8142317,24.1968399 L36.7316654,23.1236265 L38.2341092,24.6260703 L37.1608958,26.5578361 C37.0857736,26.6919855 37.0857736,26.8654864 37.1608958,27.0014215 C37.4631795,27.5308393 37.7117888,28.0924928 37.8763561,28.6899079 C37.9139172,28.8437331 38.0391239,28.9743017 38.1911587,29.0190197 L40.294635,29.6058117 Z M24.7262179,10.7033723 C24.7315844,10.4511731 24.5366221,10.3152333 24.3971062,10.2597868 L21.7069753,9.48708967 C21.5227459,8.89146035 21.2937986,8.32266365 21.005847,7.78427116 L22.3652446,5.33737389 C22.4582521,5.16387303 22.420691,4.93134957 22.2793893,4.79362402 L19.9326794,2.4469141 C19.7931635,2.30918855 19.56064,2.27877977 19.3889295,2.37536806 L16.9563644,3.72043351 C16.4126145,3.43067321 15.8384604,3.18918417 15.2392595,3.00497316 L14.4808945,0.329128582 C14.425448,0.139532735 14.2358476,-0.00177354441 14.0373091,1.68235586e-05 L10.7032867,1.68235586e-05 C10.506534,-0.00176896546 10.3151478,0.139532735 10.2597013,0.329128582 L9.50133626,3.00497316 C8.90034958,3.19099285 8.32976709,3.44319205 7.78423144,3.73476561 L5.35166627,2.37536806 C5.17816542,2.27341324 4.93669927,2.30382203 4.79358431,2.4469141 L2.44687438,4.79362402 C2.30914883,4.93313994 2.27874005,5.1656634 2.37532834,5.33737389 L3.73472589,7.78427116 C3.44675139,8.32444944 3.20347655,8.89146035 3.01926555,9.48708967 L0.343420965,10.2597868 C0.148458594,10.3098714 0,10.501253 0,10.7033723 L0,14.0231083 C0,14.2252275 0.148458594,14.4166137 0.343420965,14.4666937 L3.01926555,15.2393908 C3.20349487,15.8350202 3.44675139,16.4020311 3.73472589,16.9422094 L2.37532834,19.3891066 C2.27874005,19.5608171 2.30914883,19.7933406 2.44687438,19.9328565 L4.79358431,22.2795664 C4.93667637,22.4226585 5.17814252,22.4530673 5.35166627,22.3511124 L7.78423144,20.9917149 C8.32976709,21.2832656 8.90034958,21.5354648 9.50133626,21.7215073 L10.2597013,24.3973519 C10.3151478,24.5869478 10.5047482,24.7282541 10.7032867,24.7264637 L14.0373091,24.7264637 C14.2340618,24.7264637 14.425448,24.5869478 14.4808945,24.3973519 L15.2392595,21.7215073 C15.8384604,21.537278 16.4126145,21.2958073 16.9563644,21.006047 L19.3889295,22.3511124 C19.56064,22.4477007 19.7931635,22.417292 19.9326794,22.2795664 L22.2793893,19.9328565 C22.420691,19.7951309 22.4582521,19.5626075 22.3652446,19.3891066 L21.005847,16.9422094 C21.2938215,16.4038169 21.5227643,15.8350202 21.7069753,15.2393908 L24.3971062,14.4666937 C24.586702,14.4112472 24.7280083,14.219861 24.7262179,14.0231083 L24.7262179,10.7033723 Z M23.8104287,11.032484 L23.8104287,13.6939965 L21.2633898,14.4094568 C21.1149313,14.4523845 20.9915149,14.5758008 20.9485873,14.7242594 C20.7518346,15.4379339 20.4638601,16.1247759 20.1043212,16.7561668 C20.029199,16.8903162 20.029199,17.0656028 20.1043212,17.1997522 L21.3921498,19.5321758 L19.5319529,21.3923727 L17.1995293,20.090212 C17.0653799,20.0150898 16.8918791,20.0150898 16.7559439,20.090212 C16.124553,20.4497325 15.4519974,20.7377208 14.7383686,20.9344781 C14.58991,20.9774057 14.4664937,21.100822 14.4235661,21.2492806 L13.6937736,23.8106515 L11.0465932,23.8106515 L10.3168008,21.2492806 C10.2738732,21.100822 10.1504568,20.9774057 10.0019982,20.9344781 C9.28832369,20.7377253 8.61581386,20.4497508 7.98442297,20.090212 C7.84669742,20.0097233 7.66425389,20.0097233 7.52652835,20.090212 L5.19410473,21.3780406 L3.34823994,19.5321758 L4.63606856,17.1997522 C4.71119075,17.0656028 4.71119075,16.8903162 4.63606856,16.7561668 C4.27654802,16.1247759 3.98855977,15.4379339 3.79180246,14.7242594 C3.74887483,14.5758008 3.6254585,14.4523845 3.4769999,14.4094568 L0.915628977,13.6796644 L0.915628977,11.0467703 L3.4769999,10.3169779 C3.6254585,10.2740503 3.74887483,10.1506339 3.79180246,10.0021753 C3.98855519,9.28850077 4.2765297,8.60165884 4.63606856,7.97026795 C4.71119075,7.83611857 4.71119075,7.66083193 4.63606856,7.52668254 L3.34823994,5.19425892 L5.19410473,3.34839413 L7.52652835,4.63622275 C7.66425389,4.71671146 7.84669742,4.71671146 7.98442297,4.63622275 C8.61581386,4.27670221 9.28836948,3.98871397 10.0019982,3.79195665 C10.1504568,3.74902903 10.2738732,3.62561269 10.3168008,3.4771541 L11.0465932,0.915783169 L13.6937736,0.915783169 L14.4235661,3.4771541 C14.4664937,3.62561269 14.58991,3.74902903 14.7383686,3.79195665 C15.4520432,3.98870939 16.124553,4.27668389 16.7559439,4.63622275 C16.8900933,4.71134494 17.0635941,4.71134494 17.1995293,4.63622275 L19.5319529,3.33406203 L21.3921498,5.19425892 L20.1043212,7.52668254 C20.029199,7.66083193 20.029199,7.83611857 20.1043212,7.97026795 C20.4638417,8.60165884 20.75183,9.28850077 20.9485873,10.0021753 C20.9915149,10.1506339 21.1149313,10.2740503 21.2633898,10.3169779 L23.8104287,11.032484 Z" id="metodologia_icon"></path>
                </g>
                <g id="metodologia_top" transform="translate(7.326316, 7.326316)" stroke="#354959">
                    <path d="M9.61569358,5.03690157 C9.61569358,2.51312379 7.56052516,0.457955368 5.03674738,0.457955368 C2.5129696,0.457955368 0.457801176,2.51312379 0.457801176,5.03690157 C0.457801176,7.56067935 2.5129696,9.61584777 5.03674738,9.61584777 C7.56052516,9.61584777 9.61569358,7.56067935 9.61569358,5.03690157 Z" id="Path"></path>
                    <path d="M27.0156891,23.3527093 C27.0156891,21.335134 25.3701075,19.6895523 23.3525322,19.6895523 C21.3349569,19.6895523 19.6893752,21.335134 19.6893752,23.3527093 C19.6893752,25.3702846 21.3349569,27.0158662 23.3525322,27.0158662 C25.3701075,27.0158662 27.0156891,25.3702846 27.0156891,23.3527093 Z" id="Path"></path>
                </g>
            </g>
        </g>
    </g>
</svg>