<?xml version="1.0" encoding="UTF-8" standalone="no"?>
<svg width="84px" height="84px" viewBox="0 0 84 84" version="1.1" xmlns="http://www.w3.org/2000/svg" xmlns:xlink="http://www.w3.org/1999/xlink">
    <!-- Generator: Sketch 43.2 (39069) - http://www.bohemiancoding.com/sketch -->
    <title>miniops_logo</title>
    <desc>Created with Sketch.</desc>
    <defs></defs>
    <g id="Page-1" stroke="none" stroke-width="1" fill="none" fill-rule="evenodd">
        <g id="Estudi-desktop" transform="translate(-432.000000, -3200.000000)">
            <g id="footer" transform="translate(0.000000, 2703.000000)">
                <g id="logos_row" transform="translate(52.000000, 469.000000)">
                    <g id="miniops_logo" transform="translate(380.000000, 28.000000)">
                        <rect id="Rectangle-6-Copy-2" fill="#284851" x="0" y="0" width="84" height="84"></rect>
                        <path d="M-4.4408921e-16,43.561621 L59.9574275,-1.91846539e-13 L84,33.0917621 L84,84 L17.1572898,84 L-1.11022302e-15,60.3850166 L0,43.561621 Z" id="Combined-Shape" fill="#7B8F94"></path>
                        <path d="M41.3525,66.055 C41.8775026,66.5350024 42.14,67.2249955 42.14,68.125 L42.14,72.985 L41.39,72.985 L41.39,68.2 C41.39,67.4799964 41.1950019,66.9325019 40.805,66.5575 C40.4149981,66.1824981 39.8900033,65.995 39.23,65.995 C38.7499976,65.995 38.312502,66.1099988 37.9175,66.34 C37.522498,66.5700011 37.2075012,66.889998 36.9725,67.3 C36.7374988,67.710002 36.62,68.1699974 36.62,68.68 L36.62,73 L35.87,73 L35.87,68.215 C35.87,67.4949964 35.675002,66.9475019 35.285,66.5725 C34.894998,66.1974981 34.3700033,66.01 33.71,66.01 C33.2499977,66.01 32.820002,66.1199989 32.42,66.34 C32.019998,66.5600011 31.6975012,66.8799979 31.4525,67.3 C31.2074988,67.7200021 31.085,68.2049973 31.085,68.755 L31.085,73 L30.335,73 L30.335,65.5 L31.01,65.5 L31.055,67 C31.2950012,66.4799974 31.6599975,66.0750015 32.15,65.785 C32.6400024,65.4949986 33.184997,65.35 33.785,65.35 C34.4250032,65.35 34.9849976,65.4999985 35.465,65.8 C35.9450024,66.1000015 36.2799991,66.5349971 36.47,67.105 C36.670001,66.5549972 37.0374973,66.1225016 37.5725,65.8075 C38.1075027,65.4924984 38.6899968,65.335 39.32,65.335 C40.1500042,65.335 40.8274974,65.5749976 41.3525,66.055 Z M43.8525,63.8725 C43.7374994,63.7574994 43.68,63.605001 43.68,63.415 C43.68,63.2249991 43.7374994,63.0725006 43.8525,62.9575 C43.9675006,62.8424994 44.119999,62.785 44.31,62.785 C44.5000009,62.785 44.6524994,62.8424994 44.7675,62.9575 C44.8825006,63.0725006 44.94,63.2249991 44.94,63.415 C44.94,63.605001 44.8825006,63.7574994 44.7675,63.8725 C44.6524994,63.9875006 44.5000009,64.045 44.31,64.045 C44.119999,64.045 43.9675006,63.9875006 43.8525,63.8725 Z M44.685,73 L43.935,73 L43.935,65.5 L44.685,65.5 L44.685,73 Z M52.1575,66.07 C52.6825026,66.5500024 52.945,67.2399955 52.945,68.14 L52.945,73 L52.195,73 L52.195,68.38 C52.195,67.579996 52.0000019,66.9850019 51.61,66.595 C51.219998,66.2049981 50.6850034,66.01 50.005,66.01 C49.5249976,66.01 49.080002,66.1199989 48.67,66.34 C48.2599979,66.5600011 47.9325012,66.8799979 47.6875,67.3 C47.4424988,67.7200021 47.32,68.2099972 47.32,68.77 L47.32,73 L46.57,73 L46.57,65.5 L47.245,65.5 L47.275,67.015 C47.5150012,66.4749973 47.8824975,66.0625014 48.3775,65.7775 C48.8725025,65.4924986 49.4399968,65.35 50.08,65.35 C50.9400043,65.35 51.6324974,65.5899976 52.1575,66.07 Z M54.6575,63.8725 C54.5424994,63.7574994 54.485,63.605001 54.485,63.415 C54.485,63.2249991 54.5424994,63.0725006 54.6575,62.9575 C54.7725005,62.8424994 54.924999,62.785 55.115,62.785 C55.3050009,62.785 55.4574994,62.8424994 55.5725,62.9575 C55.6875005,63.0725006 55.745,63.2249991 55.745,63.415 C55.745,63.605001 55.6875005,63.7574994 55.5725,63.8725 C55.4574994,63.9875006 55.3050009,64.045 55.115,64.045 C54.924999,64.045 54.7725005,63.9875006 54.6575,63.8725 Z M55.49,73 L54.74,73 L54.74,65.5 L55.49,65.5 L55.49,73 Z M63.0825,66.3925 C63.7175031,67.0875035 64.035,68.0399939 64.035,69.25 C64.035,70.4600061 63.7175031,71.4124965 63.0825,72.1075 C62.4474968,72.8025035 61.5750055,73.15 60.465,73.15 C59.3549944,73.15 58.4825031,72.8025035 57.8475,72.1075 C57.2124968,71.4124965 56.895,70.4600061 56.895,69.25 C56.895,68.0399939 57.2124968,67.0875035 57.8475,66.3925 C58.4825031,65.6974965 59.3549944,65.35 60.465,65.35 C61.5750055,65.35 62.4474968,65.6974965 63.0825,66.3925 Z M58.395,66.865 C57.8949975,67.4450029 57.645,68.2399949 57.645,69.25 C57.645,70.2600051 57.8949975,71.0549971 58.395,71.635 C58.8950025,72.2150029 59.5849956,72.505 60.465,72.505 C61.3450044,72.505 62.0349975,72.2150029 62.535,71.635 C63.0350025,71.0549971 63.285,70.2600051 63.285,69.25 C63.285,68.2399949 63.0350025,67.4450029 62.535,66.865 C62.0349975,66.2849971 61.3450044,65.995 60.465,65.995 C59.5849956,65.995 58.8950025,66.2849971 58.395,66.865 Z M71.4474999,66.385 C72.062503,67.0750034 72.3699999,68.0299939 72.3699999,69.25 C72.3699999,70.4700061 72.062503,71.4249966 71.4474999,72.115 C70.8324969,72.8050035 69.9950052,73.15 68.9349999,73.15 C68.2949967,73.15 67.7325024,72.9950015 67.2474999,72.685 C66.7624975,72.3749984 66.4050011,71.9500027 66.1749999,71.41 L66.1749999,76.15 L65.4249999,76.15 L65.4249999,65.5 L66.0999999,65.5 L66.1449999,67.195 C66.355001,66.6149971 66.7024975,66.1625016 67.1874999,65.8375 C67.6725024,65.5124984 68.2549965,65.35 68.9349999,65.35 C69.9950052,65.35 70.8324969,65.6949965 71.4474999,66.385 Z M70.8849999,71.6275 C71.3750024,71.0524971 71.6199999,70.2600051 71.6199999,69.25 C71.6199999,68.2399949 71.3750024,67.4475029 70.8849999,66.8725 C70.3949975,66.2974971 69.7150043,66.01 68.8449999,66.01 C68.064996,66.01 67.4350023,66.2749974 66.9549999,66.805 C66.4749975,67.3350027 66.2150001,68.0599954 66.1749999,68.98 L66.1749999,69.52 C66.2150001,70.4400046 66.4749975,71.1649973 66.9549999,71.695 C67.4350023,72.2250026 68.064996,72.49 68.8449999,72.49 C69.7150043,72.49 70.3949975,72.2025029 70.8849999,71.6275 Z M74.2249999,72.7 C73.6649971,72.3999985 73.280001,71.9650029 73.0699999,71.395 L73.6849999,70.99 C73.8350007,71.4900025 74.1399976,71.8649987 74.5999999,72.115 C75.0600022,72.3650013 75.6249966,72.49 76.2949999,72.49 C76.9750033,72.49 77.507498,72.3600013 77.8924999,72.1 C78.2775019,71.8399987 78.4699999,71.4950022 78.4699999,71.065 C78.4699999,70.6949982 78.3050016,70.4000011 77.9749999,70.18 C77.6449983,69.9599989 77.0650041,69.7750008 76.2349999,69.625 C75.1849947,69.4349991 74.4450021,69.1800016 74.0149999,68.86 C73.5849978,68.5399984 73.3699999,68.085003 73.3699999,67.495 C73.3699999,67.1049981 73.4899987,66.7450017 73.7299999,66.415 C73.9700011,66.0849984 74.3099977,65.825001 74.7499999,65.635 C75.1900021,65.4449991 75.6899971,65.35 76.2499999,65.35 C77.0400039,65.35 77.6724976,65.4999985 78.1474999,65.8 C78.6225023,66.1000015 78.949999,66.5599969 79.1299999,67.18 L78.4849999,67.555 C78.2049985,66.5249948 77.460006,66.01 76.2499999,66.01 C75.8499979,66.01 75.4875016,66.0749993 75.1624999,66.205 C74.8374983,66.3350006 74.5825009,66.5074989 74.3974999,66.7225 C74.212499,66.9375011 74.1199999,67.1699988 74.1199999,67.42 C74.1199999,67.8300021 74.2899982,68.1499989 74.6299999,68.38 C74.9700016,68.6100012 75.5699956,68.7999992 76.4299999,68.95 C77.450005,69.1200008 78.1699978,69.3649984 78.5899999,69.685 C79.010002,70.0050016 79.2199999,70.4549971 79.2199999,71.035 C79.2199999,71.6750032 78.9475027,72.1874981 78.4024999,72.5725 C77.8574972,72.9575019 77.1250045,73.15 76.2049999,73.15 C75.4449961,73.15 74.7850027,73.0000015 74.2249999,72.7 Z" id="miniops" fill="#284851"></path>
                    </g>
                </g>
            </g>
        </g>
    </g>
</svg>