<svg xmlns="http://www.w3.org/2000/svg" xmlns:xlink="http://www.w3.org/1999/xlink" width="23" height="31" viewBox="0 0 23 31">
    <defs>
        <path id="a" d="M23 28.746c0 .708-.569 1.282-1.278 1.282H1.278A1.279 1.279 0 0 1 0 28.748V1.28C0 .573.574 0 1.274 0h15.681L23 6.185v22.56z"/>
        <rect id="b" width="4" height="4" x="3" y="8" rx="1"/>
        <rect id="c" width="4" height="4" x="3" y="14" rx="1"/>
        <rect id="d" width="4" height="4" x="3" y="20" rx="1"/>
    </defs>
    <g fill="none" fill-rule="evenodd">
        <g>
            <use fill="#FFF" xlink:href="#a"/>
            <path stroke="#354959" d="M16.745.5L22.5 6.388v22.358a.778.778 0 0 1-.778.782H1.278a.779.779 0 0 1-.778-.78V1.28C.5.85.85.5 1.274.5h15.47z"/>
        </g>
        <path fill="#B9D5EA" stroke="#354959" d="M22 6.5h-4.42c-.596 0-1.08-.472-1.08-1.08V1"/>
        <g>
            <use fill="#FFF" xlink:href="#b"/>
            <rect width="3" height="3" x="3.5" y="8.5" stroke="#354959" rx="1"/>
        </g>
        <path stroke="#354959" stroke-linecap="round" d="M9.5 11.5h8M9.5 9.5h4M9.5 17.5h8M9.5 15.5h4M9.5 23.5h8M9.5 21.5h4"/>
        <g>
            <use fill="#FFF" xlink:href="#c"/>
            <rect width="3" height="3" x="3.5" y="14.5" stroke="#354959" rx="1"/>
        </g>
        <g>
            <use fill="#FFF" xlink:href="#d"/>
            <rect width="3" height="3" x="3.5" y="20.5" stroke="#354959" rx="1"/>
        </g>
    </g>
</svg>
