<?xml version="1.0" encoding="UTF-8"?>
<svg width="44px" height="54px" viewBox="0 0 44 54" version="1.1" xmlns="http://www.w3.org/2000/svg" xmlns:xlink="http://www.w3.org/1999/xlink">
    <!-- Generator: Sketch 49.3 (51167) - http://www.bohemiancoding.com/sketch -->
    <title>metodologia_44x54px</title>
    <desc>Created with Sketch.</desc>
    <defs>
        <path d="M20,8.88399915 L20,11.1161418 L17.812471,11.726237 C17.6543611,11.7727417 17.5241512,11.9085274 17.4850893,12.0684989 C17.3139555,12.6897845 17.0554025,13.2738321 16.7410399,13.8244511 C16.6629159,13.9658225 16.6629159,14.146251 16.7410399,14.2857605 L17.8571378,16.2947127 L16.2946578,17.8571888 L14.3006055,16.7410936 C14.1573766,16.6573889 13.9676428,16.6573889 13.8244139,16.7410936 C13.2738411,17.0554555 12.6897445,17.2991412 12.0684573,17.4702364 C11.9140665,17.5148793 11.7857185,17.6432269 11.7410756,17.7976174 L11.1160741,20 L8.89883071,20 L8.27382922,17.7976174 C8.22918626,17.6432269 8.10083834,17.5148793 7.94644749,17.4702364 C7.3251603,17.2991031 6.72620649,17.0554317 6.17558613,16.7410936 C6.03607628,16.6629698 5.85564251,16.6629698 5.71427551,16.7410936 L3.70531835,17.842284 L2.15769561,16.2946651 L3.27379351,14.2857129 C3.34633654,14.1424844 3.34075557,13.9620511 3.25891252,13.8244034 C2.94454987,13.2738321 2.70086357,12.6897369 2.52976793,12.0684512 C2.49070593,11.9084798 2.3604961,11.7726941 2.2023862,11.7261894 L0,11.1011894 L0,8.89880868 L2.2023862,8.27380874 C2.3604961,8.22730874 2.49070593,8.09151828 2.52976793,7.93154686 C2.70090167,7.31026121 2.94457368,6.72621365 3.25891252,6.17559465 C3.34076034,6.03794704 3.34633654,5.85751373 3.27379351,5.71428517 L2.15769561,3.70533298 L3.70531835,2.15771408 L5.71427551,3.25890445 C5.85564728,3.33702825 6.03607628,3.33702825 6.17558613,3.25890445 C6.72615887,2.94454258 7.3251603,2.70085689 7.94644749,2.52976166 C8.10083834,2.48511881 8.22918626,2.3567712 8.27382922,2.20238074 L8.89883071,0 L11.1160741,0 L11.7410756,2.20238074 C11.7857185,2.3567712 11.9140665,2.48511881 12.0684573,2.52976166 C12.6897445,2.70089498 13.2737935,2.94456639 13.8244139,3.25890445 C13.9676428,3.34260921 14.1573766,3.34260921 14.3006055,3.25890445 L16.2946578,2.14280932 L17.8571378,3.70528536 L16.7410399,5.71423755 C16.6629159,5.85374706 16.6629159,6.03418038 16.7410399,6.17554703 C17.0554025,6.72611841 17.313946,7.31021359 17.4850893,7.93149924 C17.5241512,8.09147066 17.6543611,8.22725636 17.812471,8.27376112 L20,8.88399915 Z M10,14 C12.209139,14 14,12.209139 14,10 C14,7.790861 12.209139,6 10,6 C7.790861,6 6,7.790861 6,10 C6,12.209139 7.790861,14 10,14 Z" id="path-1"></path>
    </defs>
    <g id="metodologia_44x54px" stroke="none" stroke-width="1" fill="none" fill-rule="evenodd">
        <g id="metodologia_body" transform="translate(11.000000, 16.000000)">
            <path d="M22.0000591,9.53531825 C22.0056643,9.2775057 21.7889489,9.14299417 21.6563074,9.07200078 L19.3396961,8.39946708 C19.1808984,7.89317766 18.9697883,7.41118402 18.7269453,6.94975569 L19.9076815,4.82746277 C20.0048263,4.64624406 19.9655944,4.40337723 19.8180072,4.25952523 L17.7554971,2.18204557 C17.6060399,2.03258832 17.3538326,2.00082686 17.17259,2.10731694 L15.050297,3.28805311 C14.5888496,3.04518628 14.1086925,2.83407613 13.6005857,2.67530231 L12.9429738,0.343769242 C12.8850609,0.145739584 12.6851612,-0.00185243716 12.4796563,1.75719227e-05 L9.53537242,1.75719227e-05 C9.32986751,1.75719227e-05 9.12996784,0.145739584 9.07205495,0.343769242 L8.39952125,2.69022412 C7.89882751,2.84902185 7.42056432,3.04705151 6.96473167,3.28805311 L4.82746911,2.10731694 C4.64812041,2.0064321 4.40525358,2.03819356 4.25953157,2.18204557 L2.18205191,4.25952523 C2.04006513,4.40524724 2.00643845,4.64811407 2.10732328,4.82746277 L3.28805946,6.94975569 C3.04705785,7.40933792 2.84902819,7.89509072 2.69023046,8.39946708 L0.358697395,9.07200078 C0.155062493,9.12431321 0,9.32607811 0,9.53531825 L0,12.4646803 C0,12.6757905 0.155062493,12.8756901 0.358697395,12.9279978 L2.69023046,13.6005315 C2.84902819,14.1049557 3.04705785,14.5906798 3.28805946,15.0502429 L2.10732328,17.1725358 C2.00643845,17.3518845 2.0381999,17.5947513 2.18205191,17.7404733 L4.25953157,19.8179544 C4.40525358,19.9599412 4.64812041,19.9935679 4.82746911,19.8926831 L6.96473167,18.7119455 C7.42057388,18.9529471 7.89882751,19.1509767 8.39952125,19.3097744 L9.07205495,21.6562308 C9.12996784,21.8542604 9.32986751,22.0018524 9.53537242,21.9999824 L12.4796563,21.9999824 C12.6851612,21.9999824 12.8850609,21.8542604 12.9429738,21.6562308 L13.6005857,19.3246963 C14.1087403,19.1658985 14.5888687,18.9547884 15.050297,18.7119455 L17.17259,19.8926831 C17.3538087,19.9991731 17.606016,19.9674117 17.7554971,19.8179544 L19.8180072,17.7404733 C19.9655944,17.5966213 20.0048263,17.3537545 19.9076815,17.1725358 L18.7269453,15.0502429 C18.9698122,14.5887954 19.1809223,14.1067731 19.3396961,13.6005315 L21.6563074,12.9279978 C21.8543371,12.8700849 22.0019291,12.6720505 22.0000591,12.4646803 L22.0000591,9.53531825 Z M21,9.88399915 L21,12.1161418 L18.812471,12.726237 C18.6543611,12.7727417 18.5241512,12.9085274 18.4850893,13.0684989 C18.3139555,13.6897845 18.0554025,14.2738321 17.7410399,14.8244511 C17.6629159,14.9658225 17.6629159,15.146251 17.7410399,15.2857605 L18.8571378,17.2947127 L17.2946578,18.8571888 L15.3006055,17.7410936 C15.1573766,17.6573889 14.9676428,17.6573889 14.8244139,17.7410936 C14.2738411,18.0554555 13.6897445,18.2991412 13.0684573,18.4702364 C12.9140665,18.5148793 12.7857185,18.6432269 12.7410756,18.7976174 L12.1160741,21 L9.89883071,21 L9.27382922,18.7976174 C9.22918626,18.6432269 9.10083834,18.5148793 8.94644749,18.4702364 C8.3251603,18.2991031 7.72620649,18.0554317 7.17558613,17.7410936 C7.03607628,17.6629698 6.85564251,17.6629698 6.71427551,17.7410936 L4.70531835,18.842284 L3.15769561,17.2946651 L4.27379351,15.2857129 C4.34633654,15.1424844 4.34075557,14.9620511 4.25891252,14.8244034 C3.94454987,14.2738321 3.70086357,13.6897369 3.52976793,13.0684512 C3.49070593,12.9084798 3.3604961,12.7726941 3.2023862,12.7261894 L1,12.1011894 L1,9.89880868 L3.2023862,9.27380874 C3.3604961,9.22730874 3.49070593,9.09151828 3.52976793,8.93154686 C3.70090167,8.31026121 3.94457368,7.72621365 4.25891252,7.17559465 C4.34076034,7.03794704 4.34633654,6.85751373 4.27379351,6.71428517 L3.15769561,4.70533298 L4.70531835,3.15771408 L6.71427551,4.25890445 C6.85564728,4.33702825 7.03607628,4.33702825 7.17558613,4.25890445 C7.72615887,3.94454258 8.3251603,3.70085689 8.94644749,3.52976166 C9.10083834,3.48511881 9.22918626,3.3567712 9.27382922,3.20238074 L9.89883071,1 L12.1160741,1 L12.7410756,3.20238074 C12.7857185,3.3567712 12.9140665,3.48511881 13.0684573,3.52976166 C13.6897445,3.70089498 14.2737935,3.94456639 14.8244139,4.25890445 C14.9676428,4.34260921 15.1573766,4.34260921 15.3006055,4.25890445 L17.2946578,3.14280932 L18.8571378,4.70528536 L17.7410399,6.71423755 C17.6629159,6.85374706 17.6629159,7.03418038 17.7410399,7.17554703 C18.0554025,7.72611841 18.313946,8.31021359 18.4850893,8.93149924 C18.5241512,9.09147066 18.6543611,9.22725636 18.812471,9.27376112 L21,9.88399915 Z" id="metodologia_icon-copy" fill="#354959"></path>
            <g id="Oval-5" transform="translate(1.000000, 1.000000)">
                <g>
                    <mask id="mask-2" fill="white">
                        <use xlink:href="#path-1"></use>
                    </mask>
                    <use id="Combined-Shape" fill="#B9D5EA" xlink:href="#path-1"></use>
                </g>
            </g>
            <path d="M15,11 C15,13.2038549 13.2038549,15 11,15 C8.79614513,15 7,13.2038549 7,11 C7,8.79614513 8.79614513,7 11,7 C13.2038549,7 15,8.79614513 15,11 Z M14,11 C14,9.34842987 12.6515701,8 11,8 C9.34842987,8 8,9.34842987 8,11 C8,12.6515701 9.34842987,14 11,14 C12.6515701,14 14,12.6515701 14,11 Z" id="Path" fill="#354959" fill-rule="nonzero"></path>
        </g>
        <g id="Group" transform="translate(8.000000, 9.000000)">
            <g id="rounded_arrow" transform="translate(27.883458, 6.457910) rotate(8.000000) translate(-27.883458, -6.457910) translate(24.383458, 3.457910)" fill="#354959">
                <path d="M5.57947178,0.586036905 L6.24128704,5.29509718 C6.264346,5.45917017 6.15003154,5.61087058 5.98595855,5.63392953 C5.96077476,5.63746888 5.93524314,5.63779164 5.90997792,5.63489004 L0.991933872,5.07007413 C0.827330412,5.05117014 0.709217654,4.90240796 0.728121644,4.7378045 C0.73600726,4.66914175 0.767358893,4.60530764 0.816877009,4.55709239 L5.0731058,0.412848024 C5.19181433,0.297262798 5.38174695,0.299794739 5.49733217,0.418503271 C5.54182386,0.464197197 5.57059581,0.52288105 5.57947178,0.586036905 Z" id="Triangle-3"></path>
            </g>
            <path d="M0.5,6 C4.16666667,2 8.66666667,2.90286649e-16 14,0 C19.3333333,0 23.8333333,2 27.5,6" id="Path-6" stroke="#354959" stroke-linecap="round"></path>
        </g>
        <g id="Group-Copy" transform="translate(19.940912, 27.504506) rotate(120.000000) translate(-19.940912, -27.504506) translate(4.440912, 8.004506)">
            <path d="M29.5283859,3.62787714 L30.1902011,8.33693742 C30.2132601,8.5010104 30.0989456,8.65271081 29.9348726,8.67576977 C29.9096888,8.67930912 29.8841572,8.67963188 29.858892,8.67673028 L24.940848,8.11191436 C24.7762445,8.09301038 24.6581317,7.94424819 24.6770357,7.77964473 C24.6849213,7.71098199 24.716273,7.64714788 24.7657911,7.59893262 L29.0220199,3.45468826 C29.1407284,3.33910304 29.330661,3.34163498 29.4462463,3.46034351 C29.4907379,3.50603744 29.5195099,3.56472129 29.5283859,3.62787714 Z" id="Triangle-3" fill="#354959" transform="translate(27.434103, 6.024159) rotate(3.000000) translate(-27.434103, -6.024159) "></path>
            <path d="M20.0460941,32.7183402 L20.2118506,37.6615189 C20.2174033,37.8271113 20.0876655,37.9658518 19.9220731,37.9714045 C19.9002279,37.972137 19.878368,37.9704799 19.8568828,37.9664628 L15.4588973,37.1441601 C15.2960342,37.1137092 15.1886929,36.9569972 15.2191438,36.794134 C15.2305158,36.7333125 15.2604161,36.6774951 15.304748,36.6343295 L19.5369771,32.5134535 C19.6556856,32.3978683 19.8456182,32.4004002 19.9612034,32.5191087 C20.0133195,32.5726331 20.0435905,32.6436765 20.0460941,32.7183402 Z" id="Triangle-3-Copy" fill="#354959" transform="translate(17.713001, 35.199984) rotate(121.000000) translate(-17.713001, -35.199984) "></path>
            <path d="M0.5,6 C4.16666667,2 8.66666667,4.29228508e-14 14,4.26325641e-14 C19.3333333,4.26325641e-14 23.8333333,2 27.5,6" id="Path-6" stroke="#354959" stroke-linecap="round"></path>
        </g>
        <g id="Group-Copy-2" transform="translate(9.043085, 34.493788) rotate(240.000000) translate(-9.043085, -34.493788) translate(-4.956915, 31.493788)" stroke="#354959" stroke-linecap="round">
            <path d="M0.5,6 C4.16666667,2 8.66666667,2.90286649e-16 14,0 C19.3333333,0 23.8333333,2 27.5,6" id="Path-6"></path>
        </g>
    </g>
</svg>