<?xml version="1.0" encoding="UTF-8"?>
<svg width="34px" height="44px" viewBox="0 0 34 44" version="1.1" xmlns="http://www.w3.org/2000/svg" xmlns:xlink="http://www.w3.org/1999/xlink">
    <!-- Generator: Sketch 49.3 (51167) - http://www.bohemiancoding.com/sketch -->
    <title>metodologia_34x44px</title>
    <desc>Created with Sketch.</desc>
    <defs>
        <path d="M14,6.21881481 L14,7.78131853 L12.4687297,8.20838621 C12.3580528,8.24093962 12.2669059,8.33598985 12.2395625,8.44797011 C12.1197689,8.88287115 11.9387818,9.29170546 11.7187279,9.67713971 C11.6640411,9.77609994 11.6640411,9.90240024 11.7187279,10.0000571 L12.4999964,11.4063272 L11.4062605,12.5000631 L10.0104238,11.7187946 C9.9101636,11.6602011 9.77734995,11.6602011 9.67708971,11.7187946 C9.29168879,11.9388484 8.88282115,12.1094288 8.44792011,12.2291958 C8.33984652,12.2604459 8.25000298,12.3502894 8.2187529,12.458363 L7.78125186,14.0000347 L6.2291815,14.0000347 L5.79168046,12.458363 C5.76043038,12.3502894 5.67058683,12.2604459 5.56251324,12.2291958 C5.12761221,12.1094022 4.70834454,11.9388318 4.32291029,11.7187946 C4.22525339,11.6641078 4.09894976,11.6641078 3.99999286,11.7187946 L2.59372284,12.4896297 L1.51038693,11.4062938 L2.29165546,10.0000238 C2.34243558,9.89976357 2.3385289,9.77345994 2.28123876,9.67710637 C2.06118491,9.29170546 1.8906045,8.88283782 1.77083755,8.44793678 C1.74349415,8.33595651 1.65234727,8.24090629 1.54167034,8.20835288 L0,7.77085184 L0,6.2291815 L1.54167034,5.79168046 C1.65234727,5.75913038 1.74349415,5.66407682 1.77083755,5.55209655 C1.89063117,5.11719552 2.06120157,4.70836121 2.28123876,4.32292696 C2.33853223,4.2265734 2.34243558,4.10026976 2.29165546,4.00000952 L1.51038693,2.59373951 L2.59372284,1.5104036 L3.99999286,2.28123876 C4.09895309,2.33592556 4.22525339,2.33592556 4.32291029,2.28123876 C4.70831121,2.06118491 5.12761221,1.8906045 5.56251324,1.77083755 C5.67058683,1.73958748 5.76043038,1.64974393 5.79168046,1.54167034 L6.2291815,0 L7.78125186,0 L8.2187529,1.54167034 C8.25000298,1.64974393 8.33984652,1.73958748 8.44792011,1.77083755 C8.88282115,1.89063117 9.29165546,2.06120157 9.67708971,2.28123876 C9.77734995,2.33983224 9.9101636,2.33983224 10.0104238,2.28123876 L11.4062605,1.49997024 L12.4999964,2.59370618 L11.7187279,3.99997619 C11.6640411,4.09763309 11.6640411,4.22393672 11.7187279,4.32289363 C11.9387818,4.70829454 12.1197622,5.11716218 12.2395625,5.55206322 C12.2669059,5.66404349 12.3580528,5.75909371 12.4687297,5.79164712 L14,6.21881481 Z M7,9 C8.1045695,9 9,8.1045695 9,7 C9,5.8954305 8.1045695,5 7,5 C5.8954305,5 5,5.8954305 5,7 C5,8.1045695 5.8954305,9 7,9 Z" id="path-1"></path>
        <path d="M10,7 C10,8.65307987 8.65307987,10 7,10 C5.34692013,10 4,8.65307987 4,7 C4,5.34692013 5.34692013,4 7,4 C8.65307987,4 10,5.34692013 10,7 Z M9,7 C9,5.89920487 8.10079513,5 7,5 C5.89920487,5 5,5.89920487 5,7 C5,8.10079513 5.89920487,9 7,9 C8.10079513,9 9,8.10079513 9,7 Z" id="path-3"></path>
    </defs>
    <g id="metodologia_34x44px" stroke="none" stroke-width="1" fill="none" fill-rule="evenodd">
        <g id="metodologia_icon" transform="translate(9.000000, 13.000000)">
            <g id="metodologia_body-copy">
                <path d="M15.9999225,6.93477691 C16.003999,6.74727687 15.846389,6.64945031 15.7499231,6.59781875 L14.0651276,6.10870333 C13.9496392,5.74049285 13.7961057,5.38995201 13.619494,5.05436777 L14.4782048,3.51088201 C14.548855,3.37908659 14.5203229,3.20245617 14.4129876,3.09783653 L12.9129916,1.58694223 C12.8042962,1.47824605 12.6208741,1.45514681 12.4890623,1.53259414 L10.9455881,2.39131136 C10.6099925,2.21468093 10.26079,2.06114627 9.89126053,1.94567441 L9.41300093,0.250013994 C9.37088279,0.105992425 9.2255023,-0.00134722703 9.07604531,1.27795801e-05 L6.93476408,1.27795801e-05 C6.78530709,1.27795801e-05 6.63992661,0.105992425 6.59780846,0.250013994 L6.10869672,1.95652663 C5.74455856,2.07201589 5.39673341,2.21603746 5.06522125,2.39131136 L3.51086018,1.53259414 C3.38042575,1.45922335 3.20379666,1.48232259 3.09781781,1.58694223 L1.58693489,3.09783653 C1.48367256,3.20381617 1.45921697,3.3804466 1.53258721,3.51088201 L2.39129796,5.05436777 C2.21602538,5.3886094 2.0720049,5.74188416 1.95651651,6.10870333 L0.260868868,6.59781875 C0.112771873,6.63586415 0,6.78260226 0,6.93477691 L0,9.06522205 C0,9.2187567 0.112771873,9.36413828 0.260868868,9.4021802 L1.95651651,9.89129562 C2.0720049,10.2581496 2.21602538,10.6114035 2.39129796,10.9456312 L1.53258721,12.4891169 C1.45921697,12.6195524 1.48231604,12.7961828 1.58693489,12.9021624 L3.09781781,14.4130578 C3.20379666,14.5163209 3.38042575,14.5407767 3.51086018,14.4674059 L5.06522125,13.6086876 C5.39674036,13.7839615 5.74455856,13.9279831 6.10869672,14.0434723 L6.59780846,15.749986 C6.63992661,15.8940076 6.78530709,16.0013472 6.93476408,15.9999872 L9.07604531,15.9999872 C9.2255023,15.9999872 9.37088279,15.8940076 9.41300093,15.749986 L9.89126053,14.0543245 C10.2608248,13.9388353 10.6100064,13.7853006 10.9455881,13.6086876 L12.4890623,14.4674059 C12.6208567,14.5448532 12.8042788,14.521754 12.9129916,14.4130578 L14.4129876,12.9021624 C14.5203229,12.7975428 14.548855,12.6209124 14.4782048,12.4891169 L13.619494,10.9456312 C13.7961231,10.610033 13.9496566,10.2594713 14.0651276,9.89129562 L15.7499231,9.4021802 C15.8939436,9.36006174 16.0012825,9.21603669 15.9999225,9.06522205 L15.9999225,6.93477691 Z M15,7.21881481 L15,8.78131853 L13.4687297,9.20838621 C13.3580528,9.24093962 13.2669059,9.33598985 13.2395625,9.44797011 C13.1197689,9.88287115 12.9387818,10.2917055 12.7187279,10.6771397 C12.6640411,10.7760999 12.6640411,10.9024002 12.7187279,11.0000571 L13.4999964,12.4063272 L12.4062605,13.5000631 L11.0104238,12.7187946 C10.9101636,12.6602011 10.7773499,12.6602011 10.6770897,12.7187946 C10.2916888,12.9388484 9.88282115,13.1094288 9.44792011,13.2291958 C9.33984652,13.2604459 9.25000298,13.3502894 9.2187529,13.458363 L8.78125186,15.0000347 L7.2291815,15.0000347 L6.79168046,13.458363 C6.76043038,13.3502894 6.67058683,13.2604459 6.56251324,13.2291958 C6.12761221,13.1094022 5.70834454,12.9388318 5.32291029,12.7187946 C5.22525339,12.6641078 5.09894976,12.6641078 4.99999286,12.7187946 L3.59372284,13.4896297 L2.51038693,12.4062938 L3.29165546,11.0000238 C3.34243558,10.8997636 3.3385289,10.7734599 3.28123876,10.6771064 C3.06118491,10.2917055 2.8906045,9.88283782 2.77083755,9.44793678 C2.74349415,9.33595651 2.65234727,9.24090629 2.54167034,9.20835288 L1,8.77085184 L1,7.2291815 L2.54167034,6.79168046 C2.65234727,6.75913038 2.74349415,6.66407682 2.77083755,6.55209655 C2.89063117,6.11719552 3.06120157,5.70836121 3.28123876,5.32292696 C3.33853223,5.2265734 3.34243558,5.10026976 3.29165546,5.00000952 L2.51038693,3.59373951 L3.59372284,2.5104036 L4.99999286,3.28123876 C5.09895309,3.33592556 5.22525339,3.33592556 5.32291029,3.28123876 C5.70831121,3.06118491 6.12761221,2.8906045 6.56251324,2.77083755 C6.67058683,2.73958748 6.76043038,2.64974393 6.79168046,2.54167034 L7.2291815,1 L8.78125186,1 L9.2187529,2.54167034 C9.25000298,2.64974393 9.33984652,2.73958748 9.44792011,2.77083755 C9.88282115,2.89063117 10.2916555,3.06120157 10.6770897,3.28123876 C10.7773499,3.33983224 10.9101636,3.33983224 11.0104238,3.28123876 L12.4062605,2.49997024 L13.4999964,3.59370618 L12.7187279,4.99997619 C12.6640411,5.09763309 12.6640411,5.22393672 12.7187279,5.32289363 C12.9387818,5.70829454 13.1197622,6.11716218 13.2395625,6.55206322 C13.2669059,6.66404349 13.3580528,6.75909371 13.4687297,6.79164712 L15,7.21881481 Z" id="metodologia_icon-copy" fill="#354959"></path>
                <g id="Oval-2" transform="translate(1.000000, 1.000000)">
                    <g>
                        <g transform="translate(5.000000, 5.000000)"></g>
                        <g id="Mask">
                            <mask id="mask-2" fill="white">
                                <use xlink:href="#path-1"></use>
                            </mask>
                            <use id="Combined-Shape" fill="#B9D5EA" xlink:href="#path-1"></use>
                        </g>
                    </g>
                    <mask id="mask-4" fill="white">
                        <use xlink:href="#path-3"></use>
                    </mask>
                    <use id="Mask" fill="#354959" fill-rule="nonzero" xlink:href="#path-3"></use>
                </g>
            </g>
        </g>
        <g id="Group-2" transform="translate(-4.000000, 3.000000)">
            <g id="Group" transform="translate(9.903335, 3.641732)">
                <g id="rounded_arrow" transform="translate(21.749097, 5.037170) rotate(8.000000) translate(-21.749097, -5.037170) translate(19.019097, 2.697170)" fill="#354959">
                    <path d="M4.37010766,0.586036905 L4.85632974,4.04568681 C4.8793887,4.20975979 4.76507424,4.3614602 4.60100125,4.38451916 C4.57581746,4.38805851 4.55028583,4.38838127 4.52502062,4.38547967 L0.911834629,3.97052101 C0.747231168,3.95161702 0.62911841,3.80285484 0.6480224,3.63825138 C0.655908016,3.56958864 0.687259649,3.50575453 0.736777765,3.45753927 L3.86374167,0.412848024 C3.9824502,0.297262798 4.17238282,0.299794739 4.28796805,0.418503271 C4.33245973,0.464197197 4.36123168,0.52288105 4.37010766,0.586036905 Z" id="Triangle-3"></path>
                </g>
                <path d="M0.39,4.68 C3.25,1.56 6.76,2.26423586e-16 10.92,0 C15.08,0 18.59,1.56 21.45,4.68" id="Path-6" stroke="#354959" stroke-linecap="round"></path>
            </g>
            <g id="Group-Copy" transform="translate(19.217246, 18.075247) rotate(120.000000) translate(-19.217246, -18.075247) translate(7.127246, 2.865247)">
                <path d="M23.0502606,2.95867229 L23.5364827,6.41832219 C23.5595417,6.58239518 23.4452272,6.73409559 23.2811542,6.75715454 C23.2559704,6.76069389 23.2304388,6.76101665 23.2051736,6.75811505 L19.5919876,6.3431564 C19.4273842,6.32425241 19.3092714,6.17549023 19.3281754,6.01088677 C19.336061,5.94222402 19.3674126,5.87838991 19.4169308,5.83017466 L22.5438947,2.78548341 C22.6626032,2.66989818 22.8525358,2.67243012 22.968121,2.79113866 C23.0126127,2.83683258 23.0413847,2.89551644 23.0502606,2.95867229 Z" id="Triangle-3" fill="#354959" transform="translate(21.398601, 4.698844) rotate(3.000000) translate(-21.398601, -4.698844) "></path>
                <path d="M15.6409585,25.6695659 L15.7624869,29.2937805 C15.7680396,29.4593729 15.6383019,29.5981133 15.4727095,29.603666 C15.4508643,29.6043986 15.4290044,29.6027415 15.4075192,29.5987244 L12.1830265,28.9958327 C12.0201634,28.9653817 11.9128221,28.8086697 11.9432731,28.6458066 C11.954645,28.584985 11.9845454,28.5291676 12.0288773,28.4860021 L15.1318414,25.4646792 C15.2505499,25.3490939 15.4404826,25.3516259 15.5560678,25.4703344 C15.6081839,25.5238587 15.6384548,25.5949022 15.6409585,25.6695659 Z" id="Triangle-3-Copy" fill="#354959" transform="translate(13.816141, 27.455987) rotate(121.000000) translate(-13.816141, -27.455987) "></path>
                <path d="M0.39,4.68 C3.25,1.56 6.76,4.28589877e-14 10.92,4.26325641e-14 C15.08,4.26325641e-14 18.59,1.56 21.45,4.68" id="Path-6" stroke="#354959" stroke-linecap="round"></path>
            </g>
            <g id="Group-Copy-2" transform="translate(10.716941, 23.526887) rotate(240.000000) translate(-10.716941, -23.526887) translate(-0.203059, 21.186887)" stroke="#354959" stroke-linecap="round">
                <path d="M0.39,4.68 C3.25,1.56 6.76,2.26423586e-16 10.92,0 C15.08,0 18.59,1.56 21.45,4.68" id="Path-6"></path>
            </g>
        </g>
    </g>
</svg>