<?xml version="1.0" encoding="UTF-8"?>
<svg width="34px" height="50px" viewBox="0 0 34 50" version="1.1" xmlns="http://www.w3.org/2000/svg" xmlns:xlink="http://www.w3.org/1999/xlink">
    <!-- Generator: Sketch 51.2 (57519) - http://www.bohemiancoding.com/sketch -->
    <title>ou</title>
    <desc>Created with Sketch.</desc>
    <defs></defs>
    <g id="Page-1" stroke="none" stroke-width="1" fill="none" fill-rule="evenodd">
        <g id="Artboard" transform="translate(-396.000000, -225.000000)">
            <g id="ou" transform="translate(396.000000, 225.000000)">
                <ellipse id="Oval-2" fill="#B9D5EA" cx="17" cy="44.5" rx="17" ry="5.5"></ellipse>
                <path d="M17,43.7085931 C13.2315482,43.7832635 9.56696483,42.4710045 6.70252686,40.0211474 C3.50741191,37.249854 1.37239361,33.4561578 0.661455429,29.286818 C-0.333685714,23.25855 -0.283414286,14.4613851 5.60800857,6.78553057 C10.5462657,0.351477429 15.8058714,0.0256117143 16.8100371,0.0256117143 C16.9008657,0.0256117143 16.9663254,0.028458 17.0028657,0.0308331429 C17.4850246,0.0114045714 23.11558,-0.0891722857 28.3920109,6.78553057 C34.2836571,14.4620943 34.3339286,23.259026 33.3385446,29.286818 C32.6276886,33.4560773 30.4928513,37.2497508 27.2979491,40.0211474 C24.4332662,42.4709049 20.7685756,43.7831417 17,43.7085931 Z" id="Shape" fill="#354959" fill-rule="nonzero"></path>
                <path d="M16.8100323,1.96846886 C16.2925377,1.96846886 11.6251246,2.13685629 7.14910714,7.96849743 C1.68173714,15.0920074 1.64568743,23.3214014 2.57822486,28.9704286 C3.21538413,32.6950786 5.1246798,36.0834371 7.98060629,38.5578409 C10.4924469,40.6961646 13.7020321,41.8377062 17,41.765736 C20.2980973,41.8376255 23.5078024,40.696101 26.0198649,38.5578409 C28.8755357,36.0832982 30.7846425,32.6949795 31.4217751,28.9704286 C32.3545457,23.3216297 32.3185009,15.0927069 26.8508929,7.96850229 C22.0919371,1.76783 17.1674403,1.970844 17.115498,1.969892 C17.0339987,1.97549652 16.9522001,1.97517997 16.8707466,1.96894486 L16.8100323,1.96846886 Z" id="Shape-path" fill="#FFFFFF" fill-rule="nonzero"></path>
                <path d="M13.0293829,37.0781657 C12.4832666,36.8513806 11.9603379,36.5723644 11.4678843,36.2450054 C9.67192163,35.0444296 8.27464877,33.3356967 7.45457771,31.3371103 C7.32443096,31.0153008 7.03248707,30.7873689 6.68871846,30.7391746 C6.34494985,30.6909802 6.00158317,30.8298451 5.78796132,31.1034603 C5.57433946,31.3770754 5.52291668,31.7438722 5.65306343,32.0656817 C6.62126938,34.4262053 8.27121171,36.4444982 10.3921,37.8627109 C10.988903,38.2595946 11.6227162,38.5977873 12.284676,38.8725594 C12.6052136,39.0055885 12.9723727,38.9575077 13.247848,38.7464285 C13.5233233,38.5353494 13.6652637,38.1933399 13.6202014,37.8492317 C13.5751392,37.5051235 13.3499204,37.2111948 13.0293829,37.0781657 Z" id="Shape" fill="#354959" fill-rule="nonzero"></path>
                <path d="M6.56520571,28.8862446 L6.529632,28.764102 C6.4330658,28.4304043 6.16563065,28.1736884 5.82826399,28.0908458 C5.49089734,28.0080032 5.13497295,28.1116492 4.89482657,28.3626648 C4.65468019,28.6136805 4.566881,28.9738415 4.66456686,29.3072131 L4.70014057,29.4293509 C4.796605,29.7631682 5.06404996,30.0200232 5.40149025,30.1029294 C5.73893055,30.1858356 6.09495443,30.0821616 6.33512999,29.8310539 C6.57530554,29.5799461 6.66304008,29.219663 6.56520571,28.8862446 Z" id="Shape" fill="#354959" fill-rule="nonzero"></path>
            </g>
        </g>
    </g>
</svg>