<?xml version="1.0" encoding="UTF-8"?>
<svg width="22px" height="22px" viewBox="0 0 22 22" version="1.1" xmlns="http://www.w3.org/2000/svg" xmlns:xlink="http://www.w3.org/1999/xlink">
    <!-- Generator: Sketch 51.2 (57519) - http://www.bohemiancoding.com/sketch -->
    <title>replay-icon</title>
    <desc>Created with Sketch.</desc>
    <defs></defs>
    <g id="Page-1" stroke="none" stroke-width="1" fill="none" fill-rule="evenodd">
        <g id="Artboard" transform="translate(-265.000000, -71.000000)" fill="#F4F8FF" fill-rule="nonzero">
            <path d="M268.857756,89.8836833 C266.966605,87.9934637 265.902728,85.4293507 265.9,82.7551337 C265.9,82.1909091 265.94646,81.6290597 266.038994,81.0747866 C266.075637,80.8458922 266.201815,80.6414231 266.389956,80.5061659 C266.577953,80.3710201 266.812884,80.316805 267.041125,80.3555252 C267.269892,80.3941519 267.473423,80.5223033 267.60677,80.7116336 C267.74,80.9008091 267.79201,81.135793 267.751454,81.3628797 C267.304982,84.0121117 268.167389,86.7147385 270.066013,88.6178269 C271.964175,90.5196324 274.664678,91.3870814 277.315727,90.9467353 C279.966583,90.5056092 282.241088,88.8110014 283.422307,86.3968747 C284.602508,83.9830082 284.543351,81.1462605 283.26397,78.7832375 C281.984051,76.4198618 279.641145,74.8211973 276.974073,74.4911555 C274.358098,74.1666987 271.746762,75.1020918 269.932557,77.0055685 L273.187477,78.0888003 C273.643214,78.2403895 273.889408,78.7318216 273.737833,79.1875135 C273.586247,79.6432422 273.094816,79.8894291 272.639054,79.7378477 L268.029946,78.201171 C267.675042,78.0831849 267.435769,77.7515849 267.435769,77.3779794 L267.435769,72.7687898 C267.435769,72.2886557 267.824416,71.9 268.304558,71.9 C268.783951,71.9 269.172449,72.2888047 269.172449,72.7687898 L269.172449,75.3428859 C271.574914,73.1257771 274.907768,72.2067876 278.113672,72.8896846 C281.395886,73.5879289 284.115554,75.8735005 285.369506,78.9870235 C286.623392,82.1003799 286.24686,85.6326173 284.364785,88.4113078 C282.48275,91.189718 279.342489,92.8500319 275.986587,92.8411008 C273.312003,92.8386105 270.747929,91.7747642 268.857756,89.8836833 Z" id="replay-icon"></path>
        </g>
    </g>
</svg>