<?xml version="1.0" encoding="UTF-8"?>
<svg width="34px" height="44px" viewBox="0 0 34 44" version="1.1" xmlns="http://www.w3.org/2000/svg" xmlns:xlink="http://www.w3.org/1999/xlink">
    <!-- Generator: Sketch 48.2 (47327) - http://www.bohemiancoding.com/sketch -->
    <title>requisits_34x44px</title>
    <desc>Created with Sketch.</desc>
    <defs></defs>
    <g id="Page-1" stroke="none" stroke-width="1" fill="none" fill-rule="evenodd">
        <g id="requisits_34x44px">
            <g id="requisits_icon" transform="translate(3.000000, 1.000000)">
                <path d="M19,6.5 L25.9378098,6.5 C26.8005836,6.5 27.5,7.18700171 27.5,8.03535868 L27.5,40.9646413 C27.5,41.8125965 26.8078613,42.5 25.9446721,42.5 L2.05532788,42.5 C1.19634401,42.5 0.5,41.8129983 0.5,40.9646413 L0.5,8.03535868 C0.5,7.18740349 1.19450775,6.5 2.05664919,6.5 L9,6.5" id="Rectangle" fill="#B9D5EA"></path>
                <circle id="Oval-Copy" fill="#B9D5EA" cx="14" cy="6.5" r="5"></circle>
                <path d="M19,6.5 L25.9378098,6.5 C26.8005836,6.5 27.5,7.18700171 27.5,8.03535868 L27.5,40.9646413 C27.5,41.8125965 26.8078613,42.5 25.9446721,42.5 L2.05532788,42.5 C1.19634401,42.5 0.5,41.8129983 0.5,40.9646413 L0.5,8.03535868 C0.5,7.18740349 1.19450775,6.5 2.05664919,6.5 L9,6.51124508" id="Rectangle-Copy" stroke="#354959"></path>
                <path d="M19,6.5 C19,3.73857625 16.7614237,1.5 14,1.5 C11.2385763,1.5 9,3.73857625 9,6.5 M9,6.5 L9,7 L8,7 L8,6.5 C8,3.1862915 10.6862915,0.5 14,0.5 C17.3137085,0.5 20,3.1862915 20,6.5 L20,7 L19,7 L19,6.5" id="Oval" fill="#354959" fill-rule="nonzero"></path>
                <rect id="Rectangle-2-Copy-3" fill="#FFFFFF" x="4.5" y="12.5" width="19" height="26" rx="1"></rect>
                <path d="M5,13.5032996 L5,37.4967004 C5,37.7744094 5.22335221,38 5.49477117,38 L22.5052288,38 C22.7743232,38 23,37.7732624 23,37.4967004 L23,13.5032996 C23,13.2255906 22.7766478,13 22.5052288,13 L5.49477117,13 C5.22567681,13 5,13.2267376 5,13.5032996 Z M4,13.5032996 C4,12.6754999 4.67233955,12 5.49477117,12 L22.5052288,12 C23.3311771,12 24,12.6755258 24,13.5032996 L24,37.4967004 C24,38.3245001 23.3276605,39 22.5052288,39 L5.49477117,39 C4.66882293,39 4,38.3244742 4,37.4967004 L4,13.5032996 Z" id="Rectangle-2-Copy-2" fill="#354959" fill-rule="nonzero"></path>
                <path d="M8.98507125,21.6212678 C8.91809689,21.8891653 8.64662964,22.0520456 8.37873219,21.9850713 C8.11083473,21.9180969 7.94795439,21.6466296 8.01492875,21.3787322 C8.08190311,21.1108347 8.35337036,20.9479544 8.62126781,21.0149287 C8.88916527,21.0819031 9.05204561,21.3533704 8.98507125,21.6212678 Z" id="Line" fill="#354959" fill-rule="nonzero"></path>
                <path d="M11.5,22 C11.2238576,22 11,21.7761424 11,21.5 C11,21.2238576 11.2238576,21 11.5,21 L19.5,21 C19.7761424,21 20,21.2238576 20,21.5 C20,21.7761424 19.7761424,22 19.5,22 L11.5,22 Z" id="Line" fill="#354959" fill-rule="nonzero"></path>
                <path d="M8.98507125,25.6212678 C8.91809689,25.8891653 8.64662964,26.0520456 8.37873219,25.9850713 C8.11083473,25.9180969 7.94795439,25.6466296 8.01492875,25.3787322 C8.08190311,25.1108347 8.35337036,24.9479544 8.62126781,25.0149287 C8.88916527,25.0819031 9.05204561,25.3533704 8.98507125,25.6212678 Z" id="Line-Copy-2" fill="#354959" fill-rule="nonzero"></path>
                <path d="M11.5,26 C11.2238576,26 11,25.7761424 11,25.5 C11,25.2238576 11.2238576,25 11.5,25 L19.5,25 C19.7761424,25 20,25.2238576 20,25.5 C20,25.7761424 19.7761424,26 19.5,26 L11.5,26 Z" id="Line-Copy" fill="#354959" fill-rule="nonzero"></path>
                <path d="M8.14644661,29.8535534 C7.95118446,29.6582912 7.95118446,29.3417088 8.14644661,29.1464466 C8.34170876,28.9511845 8.65829124,28.9511845 8.85355339,29.1464466 C9.04881554,29.3417088 9.04881554,29.6582912 8.85355339,29.8535534 C8.65829124,30.0488155 8.34170876,30.0488155 8.14644661,29.8535534 Z" id="Line-Copy-4" fill="#354959" fill-rule="nonzero"></path>
                <path d="M11.5,30 C11.2238576,30 11,29.7761424 11,29.5 C11,29.2238576 11.2238576,29 11.5,29 L19.5,29 C19.7761424,29 20,29.2238576 20,29.5 C20,29.7761424 19.7761424,30 19.5,30 L11.5,30 Z" id="Line-Copy-3" fill="#354959" fill-rule="nonzero"></path>
                <circle id="Oval-7-Copy" fill="#FFFFFF" cx="14" cy="6.5" r="1.5"></circle>
                <path d="M14,8.5 C12.8954305,8.5 12,7.6045695 12,6.5 C12,5.3954305 12.8954305,4.5 14,4.5 C15.1045695,4.5 16,5.3954305 16,6.5 C16,7.6045695 15.1045695,8.5 14,8.5 Z M14,7.5 C14.5522847,7.5 15,7.05228475 15,6.5 C15,5.94771525 14.5522847,5.5 14,5.5 C13.4477153,5.5 13,5.94771525 13,6.5 C13,7.05228475 13.4477153,7.5 14,7.5 Z" id="Oval-7-Copy-2" fill="#354959" fill-rule="nonzero"></path>
                <polygon id="Line" fill="#354959" fill-rule="nonzero" points="6 6.5 7 6.5 7 12.5 6 12.5"></polygon>
                <polygon id="Line" fill="#354959" fill-rule="nonzero" points="21 6.5 22 6.5 22 12.5 21 12.5"></polygon>
            </g>
        </g>
    </g>
</svg>