<?xml version="1.0" encoding="UTF-8"?>
<svg width="44px" height="54px" viewBox="0 0 44 54" version="1.1" xmlns="http://www.w3.org/2000/svg" xmlns:xlink="http://www.w3.org/1999/xlink">
    <!-- Generator: Sketch 48.2 (47327) - http://www.bohemiancoding.com/sketch -->
    <title>requisits_44x54px</title>
    <desc>Created with Sketch.</desc>
    <defs>
        <path d="M23.5,5 L33.9914698,5 C35.1007504,5 36,5.89691889 36,7.00449605 L36,49.995504 C36,51.1025565 35.1101074,52 34.0002927,52 L1.99970728,52 C0.895299444,52 0,51.1030811 0,49.995504 L0,7.00449605 C0,5.89744345 0.89293854,5 2.0014061,5 L13.5,5" id="path-1"></path>
        <rect id="path-2" x="5" y="13" width="26" height="34" rx="1"></rect>
    </defs>
    <g id="Page-1" stroke="none" stroke-width="1" fill="none" fill-rule="evenodd">
        <g id="requisits_44x54px">
            <g id="requisits_icon" transform="translate(4.000000, 2.000000)">
                <g id="Rectangle">
                    <use fill="#B9D5EA" fill-rule="evenodd" xlink:href="#path-1"></use>
                    <path stroke="#354959" stroke-width="1" d="M33.9914698,5.5 L2.0014061,5.5 C1.17045273,5.5 0.5,6.17221203 0.5,7.00449605 L0.5,49.995504 C0.5,50.8270047 1.17150884,51.5 1.99970728,51.5 L34.0002927,51.5 C34.8316196,51.5 35.5,50.8287654 35.5,49.995504 L35.5,7.00449605 C35.5,6.173488 34.8250346,5.5 33.9914698,5.5 Z"></path>
                </g>
                <g id="Rectangle-2">
                    <use fill="#FFFFFF" fill-rule="evenodd" xlink:href="#path-2"></use>
                    <rect stroke="#354959" stroke-width="1" x="5.5" y="13.5" width="25" height="33" rx="1"></rect>
                </g>
                <path d="M10.5,24.5 L10.5,24.5" id="Line" stroke="#354959" stroke-linecap="round"></path>
                <path d="M14.5,24.5 L24.5,24.5" id="Line" stroke="#354959" stroke-linecap="round"></path>
                <path d="M10.5,29.5 L10.5,29.5" id="Line-Copy-2" stroke="#354959" stroke-linecap="round"></path>
                <path d="M14.5,29.5 L24.5,29.5" id="Line-Copy" stroke="#354959" stroke-linecap="round"></path>
                <path d="M10.5,34.5 L10.5,34.5" id="Line-Copy-4" stroke="#354959" stroke-linecap="round"></path>
                <path d="M14.5,34.5 L24.5,34.5" id="Line-Copy-3" stroke="#354959" stroke-linecap="round"></path>
                <path d="M24,6 C24,2.6862915 21.3137085,0 18,0 C14.6862915,0 12,2.6862915 12,6" id="Oval-7" stroke="#354959" fill="#B9D5EA"></path>
                <circle id="Oval-7-Copy" stroke="#354959" fill="#FFFFFF" cx="18" cy="6" r="2"></circle>
                <path d="M9.5,5.5 L9.5,13.5" id="Line" stroke="#354959" stroke-linecap="square"></path>
                <path d="M26.5,5.5 L26.5,13.5" id="Line" stroke="#354959" stroke-linecap="square"></path>
            </g>
        </g>
    </g>
</svg>