<?xml version="1.0" encoding="UTF-8"?>
<svg width="44px" height="31px" viewBox="0 0 44 31" version="1.1" xmlns="http://www.w3.org/2000/svg" xmlns:xlink="http://www.w3.org/1999/xlink">
    <!-- Generator: Sketch 51.2 (57519) - http://www.bohemiancoding.com/sketch -->
    <title>targeta</title>
    <desc>Created with Sketch.</desc>
    <defs></defs>
    <g id="Page-1" stroke="none" stroke-width="1" fill="none" fill-rule="evenodd">
        <g id="Artboard" transform="translate(-491.000000, -224.000000)">
            <g id="targeta" transform="translate(492.000000, 225.000000)">
                <path d="M3.12816894,0.0008400024 C1.40553402,0.0008400024 0,1.40630402 0,3.12900894 L0,26.2724751 C0,27.99511 1.40546402,29.400644 3.12816894,29.400644 C25.2051377,29.400644 37.1196851,29.400644 38.8718111,29.400644 C41.5,29.400644 42,28 42,26 C42,24.6666667 41.9999933,17.042723 41.99998,3.12816894 C41.99998,1.40553402 40.594516,0 38.8718111,0 L3.12816894,0.0008400024 Z" id="Fill-1" stroke="#354959" stroke-width="0.5" fill="#354959"></path>
                <path d="M3.12816894,1.400844 L38.8716711,1.400844 C39.8478239,1.400844 40.599836,2.15278615 40.599836,3.12900894 L40.599836,6.300858 L1.399724,6.300858 L1.399724,3.12900894 C1.399724,2.15285615 2.15166615,1.400844 3.12788894,1.400844 L3.12816894,1.400844 Z" id="Path" stroke="#354959" stroke-width="0.5" fill="#FFFFFF"></path>
                <path d="M1.399794,14.00088 L40.600116,14.00088 C40.600116,21.3336267 40.600116,25.3333333 40.600116,26 C40.600116,27 40.3980468,28 38,28 C36.4013021,28 24.7772884,28.0004233 3.12795894,28.00127 C2.15180615,28.00127 1.399794,27.2493279 1.399794,26.2731051 L1.399794,14.00088 Z" id="Path" stroke="#354959" stroke-width="0.5" fill="#FFFFFF"></path>
                <path d="M6.16876763,18.200892 C5.78322052,18.2364381 5.49884471,18.5809721 5.53439081,18.9665542 C5.56993691,19.3521363 5.9144709,19.6364771 6.300053,19.600931 L21.700097,19.600931 C21.8887685,19.603668 22.0692361,19.5298388 22.2004864,19.3985884 C22.3344738,19.267338 22.411033,19.0896005 22.411033,18.900929 C22.411033,18.7122575 22.3344668,18.53452 22.2004864,18.4032696 C22.0692361,18.2720192 21.8887685,18.19819 21.700097,18.200927 L6.300053,18.200927 C6.25630288,18.19546 6.21255275,18.19546 6.16880263,18.200927 L6.16876763,18.200892 Z" id="Path" stroke="#354959" stroke-width="0.5" fill="#354959"></path>
                <path d="M6.16876763,22.400904 C5.78322052,22.4364501 5.49884471,22.7809841 5.53439081,23.1665662 C5.56993691,23.5521483 5.9144709,23.8364891 6.300053,23.800943 L13.300073,23.800943 C13.4887445,23.80368 13.6692121,23.7298508 13.8004624,23.5986004 C13.9344498,23.46735 14.011009,23.2896125 14.011009,23.100941 C14.011009,22.9122695 13.9344428,22.734532 13.8004624,22.6032816 C13.6692121,22.4720312 13.4887445,22.398202 13.300073,22.400939 L6.300053,22.400939 C6.25630288,22.395472 6.21255275,22.395472 6.16880263,22.400939 L6.16876763,22.400904 Z" id="Path" stroke="#354959" stroke-width="0.5" fill="#354959"></path>
                <polygon id="Path" fill="#B9D5EA" points="1.400004 7.700862 40.600116 7.700862 40.600116 12.600876 1.400004 12.600876"></polygon>
            </g>
        </g>
    </g>
</svg>