<?xml version="1.0" encoding="UTF-8"?>
<svg width="43px" height="46px" viewBox="0 0 43 46" version="1.1" xmlns="http://www.w3.org/2000/svg" xmlns:xlink="http://www.w3.org/1999/xlink">
    <!-- Generator: Sketch 51.2 (57519) - http://www.bohemiancoding.com/sketch -->
    <title>usuari</title>
    <desc>Created with Sketch.</desc>
    <defs></defs>
    <g id="Page-1" stroke="none" stroke-width="1" fill="none" fill-rule="evenodd">
        <g id="Artboard" transform="translate(-266.000000, -230.000000)">
            <g id="usuari" transform="translate(266.000000, 230.000000)">
                <polygon id="Polygon" fill="#B9D5EA" points="21.3564065 0 42.7128129 12.330127 42.7128129 36.9903811 29.6798937 44.5149405 13.0647508 44.5333185 3.13970335e-14 36.9903811 1.77635684e-14 12.330127"></polygon>
                <path d="M6,42.455365 C6,35.0251764 12.5468693,30.4945964 21.5846354,30.4945964 C30.6224014,30.4945964 37.1692708,35.0251764 37.1692708,42.455365 L37.1692708,45.3 L6,45.3 L6,42.455365 Z" id="Combined-Shape" stroke="#354959" stroke-width="0.5" fill="#354959" fill-rule="nonzero"></path>
                <path d="M7.55846354,41.3460544 L7.55846354,43.7415365 L35.6108073,43.7415365 L35.6108073,41.3460544 C35.6108073,35.0890535 28.5977214,32.0530599 21.5846354,32.0530599 C14.5715495,32.0530599 7.55846354,35.0890535 7.55846354,41.3460544 Z" id="Combined-Shape-path" stroke="#354959" stroke-width="0.2" fill="#FFFFFF" fill-rule="nonzero"></path>
                <path d="M21.5846354,12.5722656 C25.8882288,12.5722656 29.3769531,16.0610033 29.3769531,20.3645833 C29.3769531,24.6681634 25.8882288,28.156901 21.5846354,28.156901 C17.281042,28.156901 13.7923177,24.6681634 13.7923177,20.3645833 C13.7923177,16.0610033 17.281042,12.5722656 21.5846354,12.5722656 Z" id="Shape-path" stroke="#354959" stroke-width="0.5" fill="#354959" fill-rule="nonzero"></path>
                <path d="M21.5846354,14.1307292 C18.1417562,14.1307292 15.3507813,16.9217148 15.3507813,20.3645833 C15.3507813,23.8074519 18.1417562,26.5984375 21.5846354,26.5984375 C25.0275147,26.5984375 27.8184896,23.8074519 27.8184896,20.3645833 C27.8184896,16.9217148 25.0275147,14.1307292 21.5846354,14.1307292 Z" id="Shape-path-path" stroke="#354959" stroke-width="0.2" fill="#FFFFFF" fill-rule="nonzero"></path>
            </g>
        </g>
    </g>
</svg>